<svg width="60" height="60" viewBox="0 0 60 60" fill="none" xmlns="http://www.w3.org/2000/svg">
<g id="Group 9049">
<path id="Vector" d="M55.2588 38.1715C51.8153 35.49 47.1862 34.9538 43.2557 36.5274L23.4692 16.7409C25.2404 12.3446 24.3513 7.12986 20.7877 3.56632C17.9651 0.743705 14.1052 -0.399435 10.4428 0.122748C9.67367 0.235653 9.36319 1.17416 9.9136 1.72457L16.6526 8.46355L14.9237 14.9273L8.45995 16.6562L1.72097 9.91719C1.17762 9.37384 0.232045 9.67728 0.126197 10.4394C-0.473608 14.5816 1.06471 18.9707 4.74116 21.8357C8.18475 24.5172 12.8138 25.0534 16.7443 23.4798L36.5308 43.2663C34.7596 47.6626 35.6488 52.8773 39.2123 56.4409C42.0349 59.2635 45.8948 60.4066 49.5572 59.8845C50.3263 59.7715 50.6368 58.833 50.0864 58.2826L43.3474 51.5437L45.0763 45.0799L51.5401 43.351L58.279 50.09C58.8224 50.6334 59.768 50.3299 59.8738 49.5678C60.4736 45.4256 58.9353 41.0365 55.2588 38.1715Z" fill="#5221CB"/>
<path id="Vector_2" d="M33.2989 44.0289L32.0428 42.7728C31.3724 42.8787 30.695 42.9492 29.9964 42.9492C22.8482 42.9492 17.0477 37.1488 17.0477 30.0005C17.0477 29.3019 17.1183 28.6245 17.2241 27.9541L15.961 26.691C12.5527 27.5801 8.9468 27.2344 5.79959 25.7666L2.37012 26.2323V33.7616L8.7845 34.6366C9.34196 37.1911 10.344 39.5762 11.713 41.7002L7.78954 46.8585L13.1172 52.1862L18.2755 48.2628C20.4066 49.6318 22.7917 50.6338 25.3391 51.1913L26.2141 57.6056H33.7434L34.2092 54.1691C32.7344 51.029 32.3815 47.4372 33.2777 44.0148L33.2989 44.0289Z" fill="#383B48"/>
<path id="Vector_3" d="M26.6898 15.9644L27.9459 17.2205C28.6162 17.1147 29.2937 17.0441 29.9923 17.0441C37.1405 17.0441 42.941 22.8375 42.941 29.9928C42.941 30.6914 42.8704 31.3688 42.7646 32.0392L44.0277 33.3023C47.436 32.4203 51.0419 32.759 54.182 34.2267L57.6115 33.761V26.2317L51.1971 25.3567C50.6397 22.8022 49.6376 20.4171 48.2687 18.2931L52.1921 13.1348L46.8644 7.8071L41.7061 11.7305C39.575 10.3616 37.1899 9.35954 34.6425 8.80207L33.7675 2.3877H26.2382L25.7725 5.82422C27.2473 8.96437 27.6001 12.5561 26.7039 15.9785L26.6898 15.9644Z" fill="#383B48"/>
</g>
</svg>
