<svg width="88" height="88" viewBox="0 0 88 88" fill="none" xmlns="http://www.w3.org/2000/svg">
<path d="M9.42871 76.4043H77.9479" stroke="#A3A7B2" stroke-width="3" stroke-linecap="round" stroke-linejoin="round"/>
<path d="M14.1016 76.4049V31.2445L29.6741 20.3438V76.4049" stroke="#A3A7B2" stroke-width="3" stroke-linecap="round" stroke-linejoin="round"/>
<path d="M63.9309 76.4039V43.7016L48.3584 32.8008" stroke="#A3A7B2" stroke-width="3" stroke-linecap="round" stroke-linejoin="round"/>
<path d="M25.0029 17.229V11H48.3617V76.4046" stroke="#A3A7B2" stroke-width="3" stroke-linecap="round" stroke-linejoin="round"/>
<path d="M57.7061 32.8032V26.5742H73.2786V76.4063" stroke="#A3A7B2" stroke-width="3" stroke-linecap="round" stroke-linejoin="round"/>
<path d="M14.1016 37.4727H20.3306" stroke="#A3A7B2" stroke-width="3" stroke-linecap="round" stroke-linejoin="round"/>
<path d="M14.1016 45.2598H20.3306" stroke="#A3A7B2" stroke-width="3" stroke-linecap="round" stroke-linejoin="round"/>
<path d="M14.1016 53.0469H20.3306" stroke="#A3A7B2" stroke-width="3" stroke-linecap="round" stroke-linejoin="round"/>
<path d="M14.1016 60.834H20.3306" stroke="#A3A7B2" stroke-width="3" stroke-linecap="round" stroke-linejoin="round"/>
<path d="M14.1016 68.6172H20.3306" stroke="#A3A7B2" stroke-width="3" stroke-linecap="round" stroke-linejoin="round"/>
<path d="M37.4561 35.916H40.5706" stroke="#A3A7B2" stroke-width="3" stroke-linecap="round" stroke-linejoin="round"/>
<path d="M37.4561 43.7031H40.5706" stroke="#A3A7B2" stroke-width="3" stroke-linecap="round" stroke-linejoin="round"/>
<path d="M37.4561 20.3438H40.5706" stroke="#A3A7B2" stroke-width="3" stroke-linecap="round" stroke-linejoin="round"/>
<path d="M37.4561 28.1309H40.5706" stroke="#A3A7B2" stroke-width="3" stroke-linecap="round" stroke-linejoin="round"/>
<path d="M37.4561 51.4902H40.5706" stroke="#A3A7B2" stroke-width="3" stroke-linecap="round" stroke-linejoin="round"/>
<path d="M37.4561 59.2734H40.5706" stroke="#A3A7B2" stroke-width="3" stroke-linecap="round" stroke-linejoin="round"/>
<path d="M37.4561 67.0605H40.5706" stroke="#A3A7B2" stroke-width="3" stroke-linecap="round" stroke-linejoin="round"/>
<path d="M55.3662 46.8164H56.9235" stroke="#A3A7B2" stroke-width="3" stroke-linecap="round" stroke-linejoin="round"/>
<path d="M55.3662 54.6035H56.9235" stroke="#A3A7B2" stroke-width="3" stroke-linecap="round" stroke-linejoin="round"/>
<path d="M55.3662 62.3906H56.9235" stroke="#A3A7B2" stroke-width="3" stroke-linecap="round" stroke-linejoin="round"/>
<path d="M55.3662 70.1738H56.9235" stroke="#A3A7B2" stroke-width="3" stroke-linecap="round" stroke-linejoin="round"/>
<path d="M62.373 11V26.5725" stroke="#A3A7B2" stroke-width="3" stroke-linecap="round" stroke-linejoin="round"/>
<path d="M68.6074 20.3438V26.5728" stroke="#A3A7B2" stroke-width="3" stroke-linecap="round" stroke-linejoin="round"/>
</svg>
