<svg width="60" height="60" viewBox="0 0 60 60" fill="none" xmlns="http://www.w3.org/2000/svg">
<g id="Group 9052">
<path id="Vector" d="M48.3012 41.8339L55.096 35.0391L26.2939 26.2969L35.0362 55.106L41.831 48.3041L53.5225 60.0027L59.9998 53.5255L48.3012 41.8339Z" fill="#5221CB"/>
<path id="Vector_2" d="M26.5653 44.3179C16.7647 44.3179 8.81278 36.373 8.81278 26.5653C8.81278 16.7577 16.7577 8.81278 26.5653 8.81278C36.373 8.81278 44.3179 16.7577 44.3179 26.5653C44.3179 27.278 44.2614 27.9765 44.1838 28.668L52.7073 31.2575C52.9755 29.7334 53.1307 28.167 53.1307 26.5653C53.1307 11.8962 41.2345 0 26.5653 0C11.8962 0 0 11.8962 0 26.5653C0 41.2345 11.8962 53.1307 26.5653 53.1307C28.167 53.1307 29.7334 52.9825 31.2575 52.7073L28.668 44.1838C27.9765 44.2685 27.278 44.3179 26.5653 44.3179Z" fill="#383B48"/>
<path id="Vector_3" d="M27.1416 23.4956L35.0512 25.8946C34.7125 21.4988 31.0435 18.0273 26.5559 18.0273C21.8426 18.0273 18.0254 21.8446 18.0254 26.5579C18.0254 31.2712 21.4898 34.7145 25.8927 35.0532L23.4937 27.1435C23.1832 26.1134 23.4584 24.9915 24.2275 24.2224C24.9895 23.4604 26.1114 23.1781 27.1486 23.4886L27.1416 23.4956Z" fill="#383B48"/>
</g>
</svg>
