<svg width="60" height="63" viewBox="0 0 60 63" fill="none" xmlns="http://www.w3.org/2000/svg">
<g id="Group 9050">
<path id="Vector" d="M58.9926 19.5079L50.5974 13.7042V9.97385C50.5974 8.63062 49.5097 7.5429 48.1664 7.5429H41.6912L31.4053 0.432534C30.5731 -0.144178 29.4707 -0.144178 28.6385 0.432534L18.3526 7.5429H11.8774C10.5341 7.5429 9.44641 8.63062 9.44641 9.97385V13.7042L1.05122 19.5079C0.394209 19.9605 0 20.7051 0 21.5081V59.6587C0 59.6587 0 59.666 0 59.6733C0 59.812 0.0146003 59.958 0.043801 60.0967C0.043801 60.1113 0.043801 60.1332 0.043801 60.1551C0.0584013 60.2281 0.0876019 60.3011 0.116803 60.3814C0.138703 60.4617 0.160603 60.542 0.189804 60.615C0.189804 60.6296 0.204404 60.6442 0.211705 60.6588C0.270106 60.7902 0.335807 60.9144 0.416109 61.0312C0.416109 61.0312 0.416109 61.0312 0.416109 61.0385C0.430709 61.0531 0.44531 61.0677 0.45261 61.0823C0.547512 61.2137 0.649714 61.3305 0.773817 61.44C0.817618 61.4838 0.868719 61.5203 0.91252 61.5568C1.00742 61.6298 1.10962 61.6955 1.21183 61.7612C1.26293 61.7904 1.32133 61.8196 1.37243 61.8488C1.48923 61.9072 1.60603 61.9437 1.73744 61.9802C1.78124 61.9948 1.83234 62.0094 1.87614 62.024C2.05134 62.0605 2.22655 62.0897 2.40905 62.0897H57.5837C57.6348 62.0897 57.6859 62.0751 57.737 62.0751C57.8392 62.0751 57.9414 62.0605 58.0436 62.0459C58.1239 62.0313 58.1969 62.0021 58.2699 61.9802C58.3429 61.9583 58.4232 61.9364 58.4962 61.9072C58.5692 61.878 58.6422 61.8342 58.7079 61.7977C58.7736 61.7612 58.8466 61.732 58.9123 61.6882C58.978 61.6444 59.0437 61.586 59.1094 61.5349C59.1678 61.4911 59.2262 61.4473 59.2846 61.3889C59.3649 61.3159 59.4306 61.2283 59.4963 61.1407C59.5255 61.1041 59.562 61.075 59.5839 61.0312C59.5839 61.0312 59.5839 61.0311 59.5839 61.0238C59.6642 60.907 59.7372 60.7757 59.7956 60.6442C59.7956 60.6296 59.8102 60.615 59.8175 60.6004C59.854 60.5201 59.8686 60.4398 59.8905 60.3595C59.9124 60.2865 59.9416 60.2135 59.9562 60.1405C59.9562 60.1259 59.9562 60.104 59.9562 60.0821C59.9854 59.9434 60 59.7974 60 59.6587C60 59.6587 60 59.6514 60 59.6441V21.4935C60 20.6978 59.6058 19.9459 58.9488 19.4933L58.9926 19.5079ZM4.86921 55.0231V25.5305L10.1472 31.0275C10.1472 31.0275 10.1618 31.0421 10.1691 31.0494L21.8932 43.248L4.86921 55.0158V55.0231ZM31.4053 38.5832C30.5731 38.0065 29.4707 38.0065 28.6385 38.5832L25.9375 40.452L14.3083 28.341V12.4048H45.7428V28.341L34.1063 40.452L31.4053 38.5832ZM55.1819 55.0231L38.1579 43.2553L49.882 31.0567C49.882 31.0567 49.8966 31.0421 49.9039 31.0348L55.1819 25.5378V55.0304V55.0231Z" fill="#383B48"/>
<path id="Vector_2" d="M36.8272 19.1289L27.4757 28.4804L23.2124 24.2171C22.3583 23.363 20.9713 23.363 20.1172 24.2171C19.263 25.0712 19.263 26.4582 20.1172 27.3123L25.9281 33.1233C26.3369 33.5321 26.899 33.7657 27.4757 33.7657C28.0524 33.7657 28.6145 33.5321 29.0233 33.1233L39.9225 22.2241C40.7766 21.37 40.7766 19.983 39.9225 19.1289C39.0684 18.2748 37.6813 18.2748 36.8272 19.1289Z" fill="#5221CB"/>
</g>
</svg>
