<svg width="104" height="20" viewBox="0 0 104 20" fill="none" xmlns="http://www.w3.org/2000/svg">
<path d="M3.43007 10.6495C3.59204 14.2741 6.73058 16.1228 9.40841 16.1228C11.7947 16.1228 13.5583 14.9679 14.5373 13.0901H18.0646C17.2152 15.0696 15.9734 16.5514 14.4725 17.5393C12.9681 18.5599 11.2044 19.0574 9.40841 19.0574C3.59204 19.0574 0 14.3432 0 9.59618C0 4.45333 3.98436 0.065918 9.37602 0.065918C11.9243 0.065918 14.2422 1.02112 15.941 2.70272C18.0322 4.84558 18.914 7.64945 18.6189 10.6495H3.43007ZM15.2572 7.97996C15.0952 5.60466 12.7413 2.93517 9.37602 3.00054C5.91355 3.00054 3.65683 5.53928 3.49486 7.97996H15.2572Z" fill="#5221CB"/>
<path d="M44.1299 3.32742V19.0574H40.7322V3.32742H28.7539V0.065918H63.8681V3.32742H44.1299Z" fill="#5221CB"/>
<path d="M50.1828 6.82471H46.7852V19.0608H50.1828V6.82471Z" fill="#5221CB"/>
<path d="M53.4016 0.065918H66.7296V3.28747L57.0585 15.7596H67.3163V19.0574H52.8438V15.8359L62.5149 3.32379H53.4016V0.065918Z" fill="#5221CB"/>
<path d="M28.7478 0.065918C23.6009 0.065918 19.4258 4.27536 19.4258 9.47269V19.0611H22.8235V9.62887C22.8235 6.55986 25.0514 3.86858 28.0712 3.53081C31.6452 3.13129 34.6686 5.94606 34.6686 9.46906V19.0574H38.0662V9.47269C38.0662 4.27899 33.8947 0.065918 28.7442 0.065918H28.7478Z" fill="#5221CB"/>
<path d="M71.8548 14.546C74.511 16.9939 78.0239 16.0605 79.9171 14.1501C81.6051 12.4467 82.0406 10.3729 81.418 8.34624L83.9122 5.8293C84.6969 7.83414 84.8588 9.76997 84.4881 11.5424C84.1426 13.3366 83.2392 14.9455 81.9687 16.2276C77.8547 20.3789 72.0132 19.609 68.6839 16.2494C65.081 12.6138 64.8255 6.66828 68.6371 2.82203C70.4403 1.00242 72.751 0.0254237 75.1301 0C78.1103 0.0217918 80.6981 1.37651 82.5913 3.70823L71.8476 14.5496L71.8548 14.546ZM78.3478 4.22034C76.5698 2.65859 73.0353 2.44794 70.6994 4.89588C68.252 7.36562 68.4355 10.7724 70.03 12.6138L78.3478 4.22034Z" fill="#5221CB"/>
<path d="M94.6814 0.065918C89.5345 0.065918 85.3594 4.27536 85.3594 9.47269V19.0611H88.7571V9.62887C88.7571 6.55986 90.985 3.86858 94.0047 3.53081C97.5788 3.13129 100.602 5.94606 100.602 9.46906V19.0574H104V9.47269C104 4.27899 99.8283 0.065918 94.6778 0.065918H94.6814Z" fill="#5221CB"/>
</svg>
