<svg width="17" height="16" viewBox="0 0 17 16" fill="none" xmlns="http://www.w3.org/2000/svg">
<path d="M12.1641 4H3.41406C3.21515 4 3.02438 4.07902 2.88373 4.21967C2.74308 4.36032 2.66406 4.55109 2.66406 4.75V13.5C2.66406 13.6989 2.74308 13.8897 2.88373 14.0303C3.02438 14.171 3.21515 14.25 3.41406 14.25H12.1641C12.363 14.25 12.5537 14.171 12.6944 14.0303C12.835 13.8897 12.9141 13.6989 12.9141 13.5V4.75C12.9141 4.55109 12.835 4.36032 12.6944 4.21967C12.5537 4.07902 12.363 4 12.1641 4ZM11.4141 12.75H4.16406V5.5H11.4141V12.75ZM15.1641 2.5V11.25C15.1641 11.4489 15.085 11.6397 14.9444 11.7803C14.8037 11.921 14.613 12 14.4141 12C14.2151 12 14.0244 11.921 13.8837 11.7803C13.7431 11.6397 13.6641 11.4489 13.6641 11.25V3.25H5.66406C5.46515 3.25 5.27438 3.17098 5.13373 3.03033C4.99308 2.88968 4.91406 2.69891 4.91406 2.5C4.91406 2.30109 4.99308 2.11032 5.13373 1.96967C5.27438 1.82902 5.46515 1.75 5.66406 1.75H14.4141C14.613 1.75 14.8037 1.82902 14.9444 1.96967C15.085 2.11032 15.1641 2.30109 15.1641 2.5Z" fill="#7D7D7D"/>
</svg>
