<svg width="44" height="84" viewBox="0 0 44 84" fill="none" xmlns="http://www.w3.org/2000/svg">
<path fill-rule="evenodd" clip-rule="evenodd" d="M14.0586 57.8074C14.1167 57.7492 14.1856 57.703 14.2616 57.6715C14.3375 57.64 14.4189 57.6238 14.5011 57.6238C14.5833 57.6238 14.6647 57.64 14.7407 57.6715C14.8166 57.703 14.8856 57.7492 14.9436 57.8074L22.0011 64.8661L29.0586 57.8074C29.1167 57.7493 29.1857 57.7032 29.2616 57.6717C29.3376 57.6403 29.4189 57.6241 29.5011 57.6241C29.5833 57.6241 29.6647 57.6403 29.7406 57.6717C29.8165 57.7032 29.8855 57.7493 29.9436 57.8074C30.0017 57.8655 30.0478 57.9345 30.0793 58.0104C30.1107 58.0863 30.1269 58.1677 30.1269 58.2499C30.1269 58.3321 30.1107 58.4135 30.0793 58.4894C30.0478 58.5653 30.0017 58.6343 29.9436 58.6924L22.4436 66.1924C22.3856 66.2506 22.3166 66.2968 22.2407 66.3283C22.1647 66.3598 22.0833 66.376 22.0011 66.376C21.9189 66.376 21.8375 66.3598 21.7616 66.3283C21.6856 66.2968 21.6167 66.2506 21.5586 66.1924L14.0586 58.6924C14.0004 58.6343 13.9542 58.5654 13.9227 58.4894C13.8912 58.4135 13.875 58.3321 13.875 58.2499C13.875 58.1677 13.8912 58.0863 13.9227 58.0104C13.9542 57.9344 14.0004 57.8655 14.0586 57.8074Z" fill="#222222" stroke="#222222"/>
<path fill-rule="evenodd" clip-rule="evenodd" d="M14.0586 69.8074C14.1167 69.7492 14.1856 69.703 14.2616 69.6715C14.3375 69.64 14.4189 69.6238 14.5011 69.6238C14.5833 69.6238 14.6647 69.64 14.7407 69.6715C14.8166 69.703 14.8856 69.7492 14.9436 69.8074L22.0011 76.8661L29.0586 69.8074C29.1167 69.7493 29.1857 69.7032 29.2616 69.6717C29.3376 69.6403 29.4189 69.6241 29.5011 69.6241C29.5833 69.6241 29.6647 69.6403 29.7406 69.6717C29.8165 69.7032 29.8855 69.7493 29.9436 69.8074C30.0017 69.8655 30.0478 69.9345 30.0793 70.0104C30.1107 70.0863 30.1269 70.1677 30.1269 70.2499C30.1269 70.3321 30.1107 70.4135 30.0793 70.4894C30.0478 70.5653 30.0017 70.6343 29.9436 70.6924L22.4436 78.1924C22.3856 78.2506 22.3166 78.2968 22.2407 78.3283C22.1647 78.3598 22.0833 78.376 22.0011 78.376C21.9189 78.376 21.8375 78.3598 21.7616 78.3283C21.6856 78.2968 21.6167 78.2506 21.5586 78.1924L14.0586 70.6924C14.0004 70.6343 13.9542 70.5654 13.9227 70.4894C13.8912 70.4135 13.875 70.3321 13.875 70.2499C13.875 70.1677 13.8912 70.0863 13.9227 70.0104C13.9542 69.9344 14.0004 69.8655 14.0586 69.8074Z" fill="#222222" stroke="#222222"/>
<g clip-path="url(#clip0_2583_50174)">
<path d="M22 8.25C22.3647 8.25 22.7144 8.39487 22.9723 8.65273C23.2301 8.91059 23.375 9.26033 23.375 9.625V15.125C23.375 15.4897 23.2301 15.8394 22.9723 16.0973C22.7144 16.3551 22.3647 16.5 22 16.5C21.6353 16.5 21.2856 16.3551 21.0277 16.0973C20.7699 15.8394 20.625 15.4897 20.625 15.125V9.625C20.625 9.26033 20.7699 8.91059 21.0277 8.65273C21.2856 8.39487 21.6353 8.25 22 8.25ZM33 30.25C33 33.1674 31.8411 35.9653 29.7782 38.0282C27.7153 40.0911 24.9174 41.25 22 41.25C19.0826 41.25 16.2847 40.0911 14.2218 38.0282C12.1589 35.9653 11 33.1674 11 30.25V13.75C11 10.8326 12.1589 8.03473 14.2218 5.97183C16.2847 3.90893 19.0826 2.75 22 2.75C24.9174 2.75 27.7153 3.90893 29.7782 5.97183C31.8411 8.03473 33 10.8326 33 13.75V30.25ZM22 0C18.3533 0 14.8559 1.44866 12.2773 4.02728C9.69866 6.60591 8.25 10.1033 8.25 13.75V30.25C8.25 33.8967 9.69866 37.3941 12.2773 39.9727C14.8559 42.5513 18.3533 44 22 44C25.6467 44 29.1441 42.5513 31.7227 39.9727C34.3013 37.3941 35.75 33.8967 35.75 30.25V13.75C35.75 10.1033 34.3013 6.60591 31.7227 4.02728C29.1441 1.44866 25.6467 0 22 0V0Z" fill="#222222"/>
</g>
<defs>
<clipPath id="clip0_2583_50174">
<rect width="44" height="44" fill="white"/>
</clipPath>
</defs>
</svg>
