<svg width="20" height="20" viewBox="0 0 20 20" fill="none" xmlns="http://www.w3.org/2000/svg">
<path d="M10.0001 2.5C14.8335 2.5 18.751 5.55333 18.751 9.32083C18.751 13.0875 14.8335 16.1408 10.001 16.1408C9.51979 16.1411 9.03908 16.1104 8.56181 16.0492L4.88848 18.4517C4.47098 18.6725 4.32348 18.6483 4.49514 18.1075L5.23848 15.0425C2.83848 13.8258 1.25098 11.7175 1.25098 9.32083C1.25098 5.55417 5.16764 2.5 10.001 2.5H10.0001ZM14.9235 9.21667L16.1485 8.03C16.2192 7.95659 16.2586 7.85861 16.2585 7.7567C16.2584 7.6548 16.2187 7.55691 16.1478 7.48367C16.077 7.41044 15.9804 7.36756 15.8786 7.36408C15.7767 7.36059 15.6775 7.39677 15.6018 7.465L13.9951 9.02V7.735C13.9951 7.63068 13.9537 7.53064 13.8799 7.45687C13.8062 7.38311 13.7061 7.34167 13.6018 7.34167C13.4975 7.34167 13.3974 7.38311 13.3237 7.45687C13.2499 7.53064 13.2085 7.63068 13.2085 7.735V9.86583C13.1938 9.92662 13.1938 9.99004 13.2085 10.0508V11.25C13.2085 11.3543 13.2499 11.4544 13.3237 11.5281C13.3974 11.6019 13.4975 11.6433 13.6018 11.6433C13.7061 11.6433 13.8062 11.6019 13.8799 11.5281C13.9537 11.4544 13.9951 11.3543 13.9951 11.25V10.1142L14.351 9.77L15.541 11.4642C15.5707 11.5065 15.6084 11.5425 15.6521 11.5702C15.6957 11.5979 15.7444 11.6167 15.7953 11.6256C15.8462 11.6345 15.8984 11.6333 15.9488 11.6221C15.9993 11.6108 16.047 11.5897 16.0893 11.56C16.1316 11.5303 16.1676 11.4925 16.1953 11.4489C16.2231 11.4053 16.2419 11.3566 16.2508 11.3057C16.2597 11.2548 16.2585 11.2026 16.2472 11.1521C16.2359 11.1017 16.2149 11.054 16.1851 11.0117L14.9235 9.21583V9.21667ZM12.4585 10.82H11.2418V7.7475C11.2372 7.64642 11.1937 7.55103 11.1205 7.48114C11.0474 7.41126 10.9501 7.37227 10.8489 7.37227C10.7477 7.37227 10.6504 7.41126 10.5772 7.48114C10.5041 7.55103 10.4606 7.64642 10.456 7.7475V11.2133C10.456 11.43 10.631 11.6067 10.8485 11.6067H12.4585C12.5628 11.6067 12.6628 11.5652 12.7366 11.4915C12.8104 11.4177 12.8518 11.3177 12.8518 11.2133C12.8518 11.109 12.8104 11.009 12.7366 10.9352C12.6628 10.8614 12.5628 10.82 12.4585 10.82ZM7.57764 9.91083L8.15764 8.4875L8.68931 9.91L7.57764 9.91083ZM9.68014 10.3167L9.68181 10.3033C9.68161 10.2042 9.64378 10.1089 9.57598 10.0367L8.70431 7.70333C8.66777 7.59214 8.59817 7.49475 8.5048 7.42416C8.41144 7.35358 8.29875 7.31317 8.18181 7.30833C8.06401 7.30782 7.94884 7.34318 7.85164 7.40972C7.75443 7.47626 7.67979 7.57083 7.63764 7.68083L6.25264 11.0767C6.21319 11.1733 6.21372 11.2815 6.25412 11.3777C6.29452 11.4739 6.37148 11.5501 6.46806 11.5896C6.56464 11.629 6.67294 11.6285 6.76913 11.5881C6.86532 11.5477 6.94153 11.4707 6.98098 11.3742L7.25764 10.6967H8.98264L9.23098 11.3633C9.24792 11.4132 9.27468 11.4591 9.3097 11.4984C9.34471 11.5377 9.38725 11.5696 9.43481 11.5921C9.48236 11.6147 9.53396 11.6275 9.58654 11.6297C9.63913 11.632 9.69163 11.6236 9.74094 11.6052C9.79025 11.5868 9.83536 11.5587 9.87361 11.5225C9.91185 11.4864 9.94245 11.4429 9.96359 11.3947C9.98473 11.3465 9.99598 11.2946 9.99668 11.2419C9.99737 11.1893 9.9875 11.1371 9.96764 11.0883L9.68014 10.3167ZM6.91181 7.75167C6.91181 7.64749 6.87048 7.54757 6.7969 7.47383C6.72332 7.40009 6.62348 7.35855 6.51931 7.35833H3.81514C3.71082 7.35833 3.61078 7.39977 3.53701 7.47354C3.46325 7.5473 3.42181 7.64735 3.42181 7.75167C3.42181 7.85599 3.46325 7.95603 3.53701 8.0298C3.61078 8.10356 3.71082 8.145 3.81514 8.145H4.78181V11.2583C4.78181 11.3627 4.82325 11.4627 4.89701 11.5365C4.97078 11.6102 5.07082 11.6517 5.17514 11.6517C5.27946 11.6517 5.37951 11.6102 5.45327 11.5365C5.52704 11.4627 5.56848 11.3627 5.56848 11.2583V8.145H6.51848C6.6228 8.145 6.72284 8.10356 6.79661 8.0298C6.87037 7.95603 6.91181 7.85599 6.91181 7.75167Z" fill="white"/>
</svg>
