<svg width="350" height="389" viewBox="0 0 350 389" fill="none" xmlns="http://www.w3.org/2000/svg">
<path d="M14.4864 37.0979H12.3584V42.1379H11.0464V31.7539H12.3584V36.0099H14.4864V37.0979ZM9.67037 39.0979C9.17971 39.1939 8.69437 39.2739 8.21437 39.3379C7.74504 39.4019 7.24904 39.4552 6.72637 39.4979C6.20371 39.5299 5.63837 39.5565 5.03037 39.5779C4.43304 39.5885 3.75571 39.5939 2.99837 39.5939H1.87837V33.0019H8.23037V34.0579H3.19037V38.5219C3.89437 38.5219 4.53437 38.5165 5.11037 38.5059C5.68637 38.4845 6.21971 38.4579 6.71037 38.4259C7.21171 38.3939 7.68637 38.3459 8.13437 38.2819C8.59304 38.2179 9.05704 38.1379 9.52637 38.0419L9.67037 39.0979ZM12.9984 44.7139V45.7859H3.43037V41.0979H4.74237V44.7139H12.9984ZM27.3971 46.1219H26.0851V31.7699H27.3971V46.1219ZM20.3251 38.3299C19.7918 38.3299 19.3011 38.2605 18.8531 38.1219C18.4051 37.9725 18.0158 37.7699 17.6851 37.5139C17.3651 37.2579 17.1145 36.9485 16.9331 36.5859C16.7518 36.2232 16.6611 35.8232 16.6611 35.3859C16.6611 34.9485 16.7518 34.5485 16.9331 34.1859C17.1145 33.8232 17.3651 33.5139 17.6851 33.2579C18.0158 32.9912 18.4051 32.7885 18.8531 32.6499C19.3011 32.5005 19.7918 32.4259 20.3251 32.4259C20.8585 32.4259 21.3491 32.5005 21.7971 32.6499C22.2451 32.7885 22.6291 32.9912 22.9491 33.2579C23.2691 33.5139 23.5198 33.8232 23.7011 34.1859C23.8825 34.5485 23.9731 34.9485 23.9731 35.3859C23.9731 35.8232 23.8825 36.2232 23.7011 36.5859C23.5198 36.9485 23.2691 37.2579 22.9491 37.5139C22.6291 37.7699 22.2451 37.9725 21.7971 38.1219C21.3491 38.2605 20.8585 38.3299 20.3251 38.3299ZM20.3251 33.5139C19.9731 33.5139 19.6478 33.5619 19.3491 33.6579C19.0611 33.7432 18.8105 33.8712 18.5971 34.0419C18.3838 34.2019 18.2185 34.3992 18.1011 34.6339C17.9838 34.8579 17.9251 35.1085 17.9251 35.3859C17.9251 35.6632 17.9838 35.9192 18.1011 36.1539C18.2185 36.3779 18.3838 36.5752 18.5971 36.7459C18.8105 36.9059 19.0611 37.0339 19.3491 37.1299C19.6478 37.2152 19.9731 37.2579 20.3251 37.2579C21.0291 37.2579 21.5998 37.0925 22.0371 36.7619C22.4851 36.4205 22.7091 35.9619 22.7091 35.3859C22.7091 34.8099 22.4851 34.3565 22.0371 34.0259C21.5998 33.6845 21.0291 33.5139 20.3251 33.5139ZM25.1571 40.0099C23.7918 40.2552 22.4211 40.4152 21.0451 40.4899V45.6579H19.7331V40.5699C19.0185 40.6019 18.3305 40.6232 17.6691 40.6339C17.0078 40.6445 16.3731 40.6499 15.7651 40.6499L15.5891 39.5459C16.2611 39.5459 16.9811 39.5405 17.7491 39.5299C18.5278 39.5192 19.3225 39.4979 20.1331 39.4659C20.9545 39.4339 21.7811 39.3859 22.6131 39.3219C23.4451 39.2472 24.2558 39.1512 25.0451 39.0339L25.1571 40.0099ZM31.7959 35.6899V37.1939H30.3399V35.6899H31.7959ZM31.7959 42.5059V44.0099H30.3399V42.5059H31.7959ZM48.9469 46.1059H47.6829V38.5859H45.6509V45.3859H44.4189V32.0739H45.6509V37.5139H47.6829V31.7539H48.9469V46.1059ZM38.5629 41.4819C39.0429 41.4819 39.4909 41.4765 39.9069 41.4659C40.3229 41.4445 40.7229 41.4179 41.1069 41.3859C41.5015 41.3539 41.8855 41.3112 42.2589 41.2579C42.6429 41.2045 43.0269 41.1352 43.4109 41.0499L43.5229 42.1379C43.0962 42.2339 42.6802 42.3139 42.2749 42.3779C41.8695 42.4312 41.4535 42.4739 41.0269 42.5059C40.6002 42.5272 40.1575 42.5432 39.6989 42.5539C39.2402 42.5645 38.7442 42.5699 38.2109 42.5699H37.2669V33.4979H42.6109V34.5699H38.5629V41.4819Z" fill="white"/>
<path d="M2.758 376.986L1.782 375.802L4.982 373.066H6.422V383.386H8.646V384.922H2.198V383.386H4.662V375.77C4.662 375.642 4.66733 375.509 4.678 375.37L2.758 376.986ZM17.0413 373.098L13.0412 378.058C13.5959 377.749 14.1933 377.594 14.8333 377.594C15.3666 377.594 15.8466 377.685 16.2733 377.866C16.7106 378.037 17.0786 378.282 17.3773 378.602C17.6866 378.911 17.9213 379.285 18.0813 379.722C18.2519 380.149 18.3373 380.618 18.3373 381.13C18.3373 381.706 18.2306 382.234 18.0173 382.714C17.8039 383.194 17.5106 383.61 17.1373 383.962C16.7639 384.303 16.3266 384.57 15.8253 384.762C15.3239 384.954 14.7853 385.05 14.2092 385.05C13.6013 385.05 13.0466 384.954 12.5452 384.762C12.0546 384.57 11.6332 384.298 11.2812 383.946C10.9399 383.583 10.6732 383.151 10.4812 382.65C10.2999 382.138 10.2092 381.567 10.2092 380.938C10.2092 380.298 10.3479 379.679 10.6252 379.082C10.9132 378.474 11.2439 377.919 11.6172 377.418L14.8493 373.098H17.0413ZM14.1772 383.594C14.5079 383.594 14.8173 383.541 15.1052 383.434C15.4039 383.317 15.6599 383.157 15.8733 382.954C16.0866 382.741 16.2573 382.495 16.3853 382.218C16.5133 381.93 16.5773 381.61 16.5773 381.258C16.5773 380.554 16.3639 379.994 15.9373 379.578C15.5106 379.151 14.9453 378.938 14.2413 378.938C13.9106 378.938 13.6013 378.997 13.3133 379.114C13.0252 379.231 12.7746 379.391 12.5612 379.594C12.3586 379.797 12.1986 380.037 12.0812 380.314C11.9639 380.591 11.9053 380.895 11.9053 381.226C11.9053 381.919 12.0973 382.49 12.4813 382.938C12.8759 383.375 13.4413 383.594 14.1772 383.594ZM29.7885 377.514H25.9485V376.202H29.7885V374.778H25.9485V373.466H29.7885V371.706H31.4365V382.378H29.7885V377.514ZM27.7085 379.85C27.1538 379.946 26.6098 380.026 26.0765 380.09C25.5538 380.154 25.0365 380.207 24.5245 380.25C24.0125 380.282 23.4952 380.309 22.9725 380.33C22.4605 380.341 21.9378 380.346 21.4045 380.346H20.2845V372.698H21.9325V378.986C22.8712 378.975 23.7885 378.938 24.6845 378.874C25.5912 378.81 26.5458 378.687 27.5485 378.506L27.7085 379.85ZM31.8045 384.538V385.882H22.0605V381.434H23.7085V384.538H31.8045ZM46.9553 383.066V384.426H33.8673V383.066H39.5633V379.658H35.4673V372.794H45.3553V374.122H37.1153V378.33H45.4833V379.658H41.2113V383.066H46.9553Z" fill="white"/>
<path d="M62.758 376.986L61.782 375.802L64.982 373.066H66.422V383.386H68.646V384.922H62.198V383.386H64.662V375.77C64.662 375.642 64.6673 375.509 64.678 375.37L62.758 376.986ZM78.3212 374.346L73.1212 384.922H71.2012L75.9693 375.562C76.1079 375.263 76.2946 374.981 76.5293 374.714H70.2092V373.098H78.3212V374.346ZM89.7885 377.514H85.9485V376.202H89.7885V374.778H85.9485V373.466H89.7885V371.706H91.4365V382.378H89.7885V377.514ZM87.7085 379.85C87.1538 379.946 86.6098 380.026 86.0765 380.09C85.5538 380.154 85.0365 380.207 84.5245 380.25C84.0125 380.282 83.4952 380.309 82.9725 380.33C82.4605 380.341 81.9378 380.346 81.4045 380.346H80.2845V372.698H81.9325V378.986C82.8712 378.975 83.7885 378.938 84.6845 378.874C85.5912 378.81 86.5458 378.687 87.5485 378.506L87.7085 379.85ZM91.8045 384.538V385.882H82.0605V381.434H83.7085V384.538H91.8045ZM106.955 383.066V384.426H93.8673V383.066H99.5633V379.658H95.4673V372.794H105.355V374.122H97.1153V378.33H105.483V379.658H101.211V383.066H106.955Z" fill="white"/>
<path d="M120.758 376.986L119.782 375.802L122.982 373.066H124.422V383.386H126.646V384.922H120.198V383.386H122.662V375.77C122.662 375.642 122.667 375.509 122.678 375.37L120.758 376.986ZM134.081 378.746C134.785 378.959 135.324 379.311 135.697 379.802C136.071 380.282 136.257 380.89 136.257 381.626C136.257 382.213 136.145 382.725 135.921 383.162C135.697 383.589 135.393 383.941 135.009 384.218C134.636 384.495 134.204 384.703 133.713 384.842C133.233 384.981 132.732 385.05 132.209 385.05C131.665 385.05 131.148 384.981 130.657 384.842C130.167 384.703 129.735 384.49 129.361 384.202C128.999 383.914 128.705 383.557 128.481 383.13C128.268 382.703 128.161 382.202 128.161 381.626C128.161 380.879 128.348 380.266 128.721 379.786C129.105 379.306 129.649 378.959 130.353 378.746C129.756 378.522 129.308 378.186 129.009 377.738C128.711 377.279 128.561 376.735 128.561 376.106C128.561 375.605 128.663 375.162 128.865 374.778C129.068 374.383 129.335 374.053 129.665 373.786C130.007 373.519 130.396 373.317 130.833 373.178C131.281 373.039 131.74 372.97 132.209 372.97C132.679 372.97 133.132 373.039 133.569 373.178C134.017 373.317 134.407 373.519 134.737 373.786C135.079 374.053 135.351 374.383 135.553 374.778C135.756 375.162 135.857 375.605 135.857 376.106C135.857 376.735 135.708 377.279 135.409 377.738C135.111 378.186 134.668 378.522 134.081 378.746ZM132.209 374.314C131.633 374.314 131.164 374.474 130.801 374.794C130.449 375.114 130.273 375.562 130.273 376.138C130.273 376.767 130.444 377.253 130.785 377.594C131.127 377.925 131.601 378.09 132.209 378.09C132.807 378.09 133.276 377.919 133.617 377.578C133.969 377.237 134.145 376.757 134.145 376.138C134.145 375.551 133.959 375.103 133.585 374.794C133.212 374.474 132.753 374.314 132.209 374.314ZM132.209 383.658C132.519 383.658 132.807 383.615 133.073 383.53C133.351 383.445 133.591 383.317 133.793 383.146C133.996 382.965 134.156 382.746 134.273 382.49C134.391 382.234 134.449 381.935 134.449 381.594C134.449 380.89 134.236 380.367 133.809 380.026C133.383 379.674 132.849 379.498 132.209 379.498C131.569 379.498 131.036 379.674 130.609 380.026C130.183 380.367 129.969 380.89 129.969 381.594C129.969 382.245 130.177 382.751 130.593 383.114C131.02 383.477 131.559 383.658 132.209 383.658ZM147.789 377.514H143.949V376.202H147.789V374.778H143.949V373.466H147.789V371.706H149.437V382.378H147.789V377.514ZM145.709 379.85C145.154 379.946 144.61 380.026 144.077 380.09C143.554 380.154 143.037 380.207 142.525 380.25C142.013 380.282 141.495 380.309 140.973 380.33C140.461 380.341 139.938 380.346 139.405 380.346H138.285V372.698H139.933V378.986C140.871 378.975 141.789 378.938 142.685 378.874C143.591 378.81 144.546 378.687 145.549 378.506L145.709 379.85ZM149.805 384.538V385.882H140.061V381.434H141.709V384.538H149.805ZM164.955 383.066V384.426H151.867V383.066H157.563V379.658H153.467V372.794H163.355V374.122H155.115V378.33H163.483V379.658H159.211V383.066H164.955Z" fill="white"/>
<path d="M178.758 376.986L177.782 375.802L180.982 373.066H182.422V383.386H184.646V384.922H178.198V383.386H180.662V375.77C180.662 375.642 180.667 375.509 180.678 375.37L178.758 376.986ZM187.457 384.922L191.089 380.282L191.649 379.514C191.34 379.727 191.009 379.887 190.657 379.994C190.316 380.09 189.959 380.138 189.585 380.138C189.095 380.138 188.647 380.058 188.241 379.898C187.836 379.727 187.489 379.493 187.201 379.194C186.913 378.885 186.689 378.522 186.529 378.106C186.369 377.69 186.289 377.237 186.289 376.746C186.289 376.191 186.391 375.685 186.593 375.226C186.807 374.757 187.089 374.357 187.441 374.026C187.804 373.695 188.225 373.439 188.705 373.258C189.196 373.066 189.719 372.97 190.273 372.97C190.839 372.97 191.356 373.061 191.825 373.242C192.305 373.423 192.716 373.679 193.057 374.01C193.399 374.341 193.66 374.746 193.841 375.226C194.033 375.695 194.129 376.229 194.129 376.826C194.129 377.551 194.001 378.202 193.745 378.778C193.5 379.354 193.175 379.935 192.769 380.522L189.697 384.922H187.457ZM188.049 376.618C188.049 377.29 188.236 377.823 188.609 378.218C188.983 378.602 189.511 378.794 190.193 378.794C190.524 378.794 190.823 378.741 191.089 378.634C191.367 378.527 191.601 378.383 191.793 378.202C191.996 378.01 192.151 377.781 192.257 377.514C192.375 377.247 192.433 376.954 192.433 376.634C192.433 375.983 192.236 375.455 191.841 375.05C191.457 374.634 190.924 374.426 190.241 374.426C189.921 374.426 189.628 374.479 189.361 374.586C189.095 374.693 188.865 374.842 188.673 375.034C188.481 375.226 188.327 375.455 188.209 375.722C188.103 375.989 188.049 376.287 188.049 376.618ZM205.789 377.514H201.949V376.202H205.789V374.778H201.949V373.466H205.789V371.706H207.437V382.378H205.789V377.514ZM203.709 379.85C203.154 379.946 202.61 380.026 202.077 380.09C201.554 380.154 201.037 380.207 200.525 380.25C200.013 380.282 199.495 380.309 198.973 380.33C198.461 380.341 197.938 380.346 197.405 380.346H196.285V372.698H197.933V378.986C198.871 378.975 199.789 378.938 200.685 378.874C201.591 378.81 202.546 378.687 203.549 378.506L203.709 379.85ZM207.805 384.538V385.882H198.061V381.434H199.709V384.538H207.805ZM222.955 383.066V384.426H209.867V383.066H215.563V379.658H211.467V372.794H221.355V374.122H213.115V378.33H221.483V379.658H217.211V383.066H222.955Z" fill="white"/>
<path d="M242.982 384.922H234.982V383.898L238.966 379.898C239.243 379.621 239.505 379.343 239.75 379.066C239.995 378.789 240.225 378.485 240.438 378.154C240.641 377.791 240.79 377.397 240.886 376.97C240.982 376.543 240.987 376.149 240.902 375.786C240.827 375.413 240.641 375.103 240.342 374.858C240.054 374.602 239.627 374.474 239.062 374.474C238.742 374.474 238.449 374.533 238.182 374.65C237.915 374.757 237.686 374.906 237.494 375.098C237.302 375.29 237.158 375.519 237.062 375.786C236.966 376.053 236.929 376.346 236.95 376.666L235.19 376.346C235.339 375.279 235.761 374.453 236.454 373.866C237.158 373.269 238.059 372.97 239.158 372.97C239.659 372.97 240.129 373.045 240.566 373.194C241.003 373.333 241.382 373.546 241.702 373.834C242.033 374.111 242.294 374.458 242.486 374.874C242.678 375.29 242.774 375.765 242.774 376.298C242.774 376.746 242.705 377.162 242.566 377.546C242.427 377.93 242.241 378.298 242.006 378.65C241.782 378.991 241.526 379.317 241.238 379.626C240.95 379.935 240.657 380.239 240.358 380.538L237.35 383.578C237.595 383.514 237.846 383.461 238.102 383.418C238.369 383.375 238.63 383.354 238.886 383.354H242.982V384.922ZM252.513 379.018C252.513 379.722 252.444 380.431 252.305 381.146C252.167 381.861 251.927 382.511 251.585 383.098C251.255 383.674 250.812 384.143 250.257 384.506C249.703 384.869 249.015 385.05 248.193 385.05C247.372 385.05 246.684 384.869 246.129 384.506C245.575 384.143 245.132 383.674 244.801 383.098C244.471 382.511 244.236 381.861 244.097 381.146C243.959 380.431 243.889 379.722 243.889 379.018C243.889 378.314 243.959 377.605 244.097 376.89C244.236 376.165 244.471 375.514 244.801 374.938C245.132 374.362 245.575 373.893 246.129 373.53C246.684 373.157 247.372 372.97 248.193 372.97C249.025 372.97 249.719 373.157 250.273 373.53C250.828 373.903 251.271 374.383 251.601 374.97C251.932 375.557 252.167 376.207 252.305 376.922C252.444 377.637 252.513 378.335 252.513 379.018ZM250.689 379.018C250.689 378.602 250.663 378.133 250.609 377.61C250.556 377.087 250.439 376.591 250.257 376.122C250.087 375.653 249.836 375.258 249.505 374.938C249.185 374.618 248.748 374.458 248.193 374.458C247.639 374.458 247.196 374.618 246.865 374.938C246.545 375.258 246.295 375.653 246.113 376.122C245.943 376.591 245.831 377.087 245.777 377.61C245.724 378.133 245.697 378.602 245.697 379.018C245.697 379.434 245.724 379.903 245.777 380.426C245.831 380.949 245.943 381.445 246.113 381.914C246.295 382.383 246.551 382.778 246.881 383.098C247.212 383.418 247.649 383.578 248.193 383.578C248.748 383.578 249.185 383.418 249.505 383.098C249.836 382.778 250.087 382.383 250.257 381.914C250.439 381.445 250.556 380.949 250.609 380.426C250.663 379.903 250.689 379.434 250.689 379.018ZM263.789 377.514H259.949V376.202H263.789V374.778H259.949V373.466H263.789V371.706H265.437V382.378H263.789V377.514ZM261.709 379.85C261.154 379.946 260.61 380.026 260.077 380.09C259.554 380.154 259.037 380.207 258.525 380.25C258.013 380.282 257.495 380.309 256.973 380.33C256.461 380.341 255.938 380.346 255.405 380.346H254.285V372.698H255.933V378.986C256.871 378.975 257.789 378.938 258.685 378.874C259.591 378.81 260.546 378.687 261.549 378.506L261.709 379.85ZM265.805 384.538V385.882H256.061V381.434H257.709V384.538H265.805ZM280.955 383.066V384.426H267.867V383.066H273.563V379.658H269.467V372.794H279.355V374.122H271.115V378.33H279.483V379.658H275.211V383.066H280.955Z" fill="white"/>
<path d="M298.247 384.922H290.247V383.898L294.231 379.898C294.509 379.621 294.77 379.343 295.015 379.066C295.261 378.789 295.49 378.485 295.703 378.154C295.906 377.791 296.055 377.397 296.151 376.97C296.247 376.543 296.253 376.149 296.167 375.786C296.093 375.413 295.906 375.103 295.607 374.858C295.319 374.602 294.893 374.474 294.327 374.474C294.007 374.474 293.714 374.533 293.447 374.65C293.181 374.757 292.951 374.906 292.759 375.098C292.567 375.29 292.423 375.519 292.327 375.786C292.231 376.053 292.194 376.346 292.215 376.666L290.455 376.346C290.605 375.279 291.026 374.453 291.719 373.866C292.423 373.269 293.325 372.97 294.423 372.97C294.925 372.97 295.394 373.045 295.831 373.194C296.269 373.333 296.647 373.546 296.967 373.834C297.298 374.111 297.559 374.458 297.751 374.874C297.943 375.29 298.039 375.765 298.039 376.298C298.039 376.746 297.97 377.162 297.831 377.546C297.693 377.93 297.506 378.298 297.271 378.65C297.047 378.991 296.791 379.317 296.503 379.626C296.215 379.935 295.922 380.239 295.623 380.538L292.615 383.578C292.861 383.514 293.111 383.461 293.367 383.418C293.634 383.375 293.895 383.354 294.151 383.354H298.247V384.922ZM301.235 376.986L300.259 375.802L303.459 373.066H304.899V383.386H307.123V384.922H300.675V383.386H303.139V375.77C303.139 375.642 303.144 375.509 303.155 375.37L301.235 376.986ZM319.054 377.514H315.214V376.202H319.054V374.778H315.214V373.466H319.054V371.706H320.702V382.378H319.054V377.514ZM316.974 379.85C316.419 379.946 315.875 380.026 315.342 380.09C314.819 380.154 314.302 380.207 313.79 380.25C313.278 380.282 312.76 380.309 312.238 380.33C311.726 380.341 311.203 380.346 310.67 380.346H309.55V372.698H311.198V378.986C312.136 378.975 313.054 378.938 313.95 378.874C314.856 378.81 315.811 378.687 316.814 378.506L316.974 379.85ZM321.07 384.538V385.882H311.326V381.434H312.974V384.538H321.07ZM333.175 373.098L329.175 378.058C329.729 377.749 330.327 377.594 330.967 377.594C331.5 377.594 331.98 377.685 332.407 377.866C332.844 378.037 333.212 378.282 333.511 378.602C333.82 378.911 334.055 379.285 334.215 379.722C334.385 380.149 334.471 380.618 334.471 381.13C334.471 381.706 334.364 382.234 334.151 382.714C333.937 383.194 333.644 383.61 333.271 383.962C332.897 384.303 332.46 384.57 331.959 384.762C331.457 384.954 330.919 385.05 330.343 385.05C329.735 385.05 329.18 384.954 328.679 384.762C328.188 384.57 327.767 384.298 327.415 383.946C327.073 383.583 326.807 383.151 326.615 382.65C326.433 382.138 326.343 381.567 326.343 380.938C326.343 380.298 326.481 379.679 326.759 379.082C327.047 378.474 327.377 377.919 327.751 377.418L330.983 373.098H333.175ZM330.311 383.594C330.641 383.594 330.951 383.541 331.239 383.434C331.537 383.317 331.793 383.157 332.007 382.954C332.22 382.741 332.391 382.495 332.519 382.218C332.647 381.93 332.711 381.61 332.711 381.258C332.711 380.554 332.497 379.994 332.071 379.578C331.644 379.151 331.079 378.938 330.375 378.938C330.044 378.938 329.735 378.997 329.447 379.114C329.159 379.231 328.908 379.391 328.695 379.594C328.492 379.797 328.332 380.037 328.215 380.314C328.097 380.591 328.039 380.895 328.039 381.226C328.039 381.919 328.231 382.49 328.615 382.938C329.009 383.375 329.575 383.594 330.311 383.594ZM345.922 378.49V371.706H347.57V380.138H345.922V379.514H343.202V378.49H345.922ZM340.21 376.282C339.666 376.282 339.17 376.234 338.722 376.138C338.285 376.031 337.906 375.887 337.586 375.706C337.277 375.514 337.037 375.285 336.866 375.018C336.695 374.751 336.61 374.453 336.61 374.122C336.61 373.791 336.695 373.493 336.866 373.226C337.037 372.959 337.277 372.735 337.586 372.554C337.906 372.362 338.285 372.218 338.722 372.122C339.17 372.015 339.666 371.962 340.21 371.962C340.743 371.962 341.229 372.015 341.666 372.122C342.114 372.218 342.493 372.362 342.802 372.554C343.122 372.735 343.367 372.959 343.538 373.226C343.709 373.493 343.794 373.791 343.794 374.122C343.794 374.453 343.709 374.751 343.538 375.018C343.367 375.285 343.122 375.514 342.802 375.706C342.493 375.887 342.114 376.031 341.666 376.138C341.229 376.234 340.743 376.282 340.21 376.282ZM340.21 373.066C339.57 373.066 339.069 373.157 338.706 373.338C338.343 373.519 338.162 373.781 338.162 374.122C338.162 374.463 338.343 374.725 338.706 374.906C339.069 375.087 339.57 375.178 340.21 375.178C340.829 375.178 341.319 375.087 341.682 374.906C342.055 374.725 342.242 374.463 342.242 374.122C342.242 373.781 342.055 373.519 341.682 373.338C341.319 373.157 340.829 373.066 340.21 373.066ZM339.298 378.122C338.658 378.143 338.045 378.159 337.458 378.17C336.871 378.17 336.306 378.17 335.762 378.17L335.57 376.986C336.263 376.986 336.994 376.986 337.762 376.986C338.541 376.975 339.33 376.959 340.13 376.938C340.93 376.906 341.73 376.869 342.53 376.826C343.341 376.783 344.13 376.725 344.898 376.65L345.01 377.69C344.338 377.786 343.661 377.866 342.978 377.93C342.306 377.983 341.634 378.026 340.962 378.058V380.186H339.298V378.122ZM347.986 384.858V386.026H337.73V382.746H345.938V381.786H337.698V380.65H347.57V383.802H339.362V384.858H347.986Z" fill="white"/>
<path d="M0 300.922H350" stroke="#BECADE"/>
<path d="M0 252.922H350" stroke="#BECADE"/>
<path d="M0 204.922H350" stroke="#BECADE"/>
<path d="M0 156.922H350" stroke="#BECADE"/>
<path d="M0 108.922H350" stroke="#BECADE"/>
<path d="M0 60.9219H350" stroke="#BECADE"/>
<path d="M0 348.922H350" stroke="#BECADE"/>
<path d="M12 348.922C12 343.62 16.2981 339.322 21.6 339.322H30.4C35.7019 339.322 40 343.62 40 348.922H12Z" fill="url(#paint0_linear_596_10318)"/>
<path d="M71.6758 309.437C71.6758 301.705 77.9438 295.437 85.6758 295.437C93.4078 295.437 99.6758 301.705 99.6758 309.437V348.922H71.6758V309.437Z" fill="url(#paint1_linear_596_10318)"/>
<path d="M131.35 253.922C131.35 246.19 137.618 239.922 145.35 239.922C153.082 239.922 159.35 246.19 159.35 253.922V348.95H131.35V253.922Z" fill="url(#paint2_linear_596_10318)"/>
<path d="M191.023 186.693C191.023 178.961 197.291 172.693 205.023 172.693C212.755 172.693 219.023 178.961 219.023 186.693V348.922H191.023V186.693Z" fill="url(#paint3_linear_596_10318)"/>
<path d="M251 106.922C251 99.1899 257.268 92.9219 265 92.9219C272.732 92.9219 279 99.1899 279 106.922V348.922H251V106.922Z" fill="url(#paint4_linear_596_10318)"/>
<path d="M311 74.9219C311 67.1899 317.268 60.9219 325 60.9219C332.732 60.9219 339 67.1899 339 74.9219V348.922H311V74.9219Z" fill="url(#paint5_linear_596_10318)"/>
<rect y="286.922" width="64" height="32" rx="16" fill="white"/>
<path d="M18.4415 296.762C20.6655 296.762 22.2175 298.186 22.2175 300.234C22.1695 301.914 20.9855 303.306 19.8015 304.538L17.3215 307.034C17.7535 306.922 18.1375 306.906 18.5055 306.906H22.3455V308.922H14.0095V307.642L18.0255 303.69C19.2415 302.474 19.9935 301.514 19.9935 300.282C19.9935 299.178 19.3375 298.602 18.2975 298.602C17.4015 298.602 16.7615 299.21 16.5055 299.914C16.4255 300.154 16.3935 300.394 16.3775 300.714L14.2815 300.362C14.6655 297.914 16.2495 296.762 18.4415 296.762ZM31.8288 302.986C31.8288 307.21 29.9248 309.146 27.3647 309.146C24.8687 309.146 22.9487 307.21 22.9487 302.986C22.9487 298.73 24.8687 296.81 27.3647 296.81C29.9248 296.81 31.8288 298.73 31.8288 302.986ZM29.5888 302.986C29.5888 299.578 28.5328 298.65 27.3647 298.65C26.2608 298.65 25.1888 299.578 25.1888 302.986C25.1888 306.378 26.2608 307.29 27.3647 307.29C28.5328 307.29 29.5888 306.378 29.5888 302.986ZM38.368 307.146H40.432V308.922H33.84V307.146H36.176V300.634L36.24 299.594L34.288 301.37L33.024 299.93L36.48 296.954H38.368V307.146ZM50.4753 304.218V306.026H48.9713V308.922H47.0353V306.026H41.3713V304.234C43.2433 301.786 45.0353 299.29 46.9073 296.842H48.9713V304.218H50.4753ZM47.0353 300.522C47.0353 300.378 47.0513 299.946 47.0673 299.514L43.5473 304.25H47.0353V300.522Z" fill="#383B48"/>
<path d="M26 330.922L9.54551 312.172L42.4545 312.172L26 330.922Z" fill="white"/>
<rect x="42" y="243.922" width="88" height="32" rx="16" fill="white"/>
<path d="M60.488 264.146H62.552V265.922H55.96V264.146H58.296V257.634L58.36 256.594L56.408 258.37L55.144 256.93L58.6 253.954H60.488V264.146ZM77.4113 258.546H75.4592V263.314H73.3472V252.562H75.4592V256.818H77.4113V258.546ZM64.2912 260.882V253.778H71.3152V260.882H64.2912ZM66.3552 255.442V259.218H69.2352V255.442H66.3552ZM75.9873 265.362V267.042H65.9552V262.258H68.0672V265.362H75.9873ZM85.979 253.762C88.219 253.81 89.707 255.202 89.659 256.978C89.659 258.338 88.875 259.138 87.867 259.634C89.275 260.162 89.867 261.074 89.867 262.482C89.819 264.93 87.867 266.226 85.627 266.226C83.195 266.226 81.995 265.01 81.355 262.914L83.307 262.146C83.563 263.17 84.459 264.306 85.595 264.306C87.003 264.306 87.691 263.426 87.691 262.53C87.691 261.41 87.387 260.642 84.891 260.642V259.042C87.003 258.994 87.499 258.322 87.499 257.298C87.515 256.194 86.891 255.65 85.851 255.65C84.491 255.65 84.027 256.546 83.819 257.698C83.131 257.586 82.443 257.442 81.739 257.33C82.203 254.882 83.723 253.762 85.979 253.762ZM95.5583 258.482C97.4143 258.482 99.1583 259.682 99.1583 262.13C99.1583 264.386 97.4303 266.226 94.8543 266.226C92.2623 266.226 90.6463 264.498 90.6463 261.922C90.6463 260.834 91.1583 259.602 92.0703 258.322L95.3183 253.938H98.0063C96.7903 255.426 95.6543 256.882 94.4863 258.37L94.0863 258.754L94.2623 258.674C94.6303 258.546 95.0623 258.482 95.5583 258.482ZM92.7583 262.242C92.7583 263.602 93.5903 264.418 94.8223 264.418C96.0383 264.418 97.0143 263.554 97.0143 262.258C97.0143 260.85 96.1343 260.146 94.8383 260.146C93.5583 260.146 92.7583 260.962 92.7583 262.242ZM108.21 255.602L103.362 265.922H100.914C102.274 262.978 103.762 260.242 105.122 257.314C105.186 257.202 105.33 256.914 105.426 256.754V256.738C105.442 256.722 105.442 256.722 105.442 256.722L105.506 256.594C105.506 256.594 105.506 256.578 105.522 256.578V256.562C105.634 256.338 105.746 256.146 105.858 256.002H100.146V254.034H108.21V255.602ZM113.981 258.482C115.837 258.482 117.581 259.682 117.581 262.13C117.581 264.386 115.853 266.226 113.277 266.226C110.685 266.226 109.069 264.498 109.069 261.922C109.069 260.834 109.581 259.602 110.493 258.322L113.741 253.938H116.429C115.213 255.426 114.077 256.882 112.909 258.37L112.509 258.754L112.685 258.674C113.053 258.546 113.485 258.482 113.981 258.482ZM111.181 262.242C111.181 263.602 112.013 264.418 113.245 264.418C114.461 264.418 115.437 263.554 115.437 262.258C115.437 260.85 114.557 260.146 113.261 260.146C111.981 260.146 111.181 260.962 111.181 262.242Z" fill="#383B48"/>
<path d="M86 287.922L69.5455 269.172L102.454 269.172L86 287.922Z" fill="white"/>
<rect x="101" y="187.922" width="88" height="32" rx="16" fill="white"/>
<path d="M117.984 197.762C120.208 197.762 121.76 199.186 121.76 201.234C121.712 202.914 120.528 204.306 119.344 205.538L116.864 208.034C117.296 207.922 117.68 207.906 118.048 207.906H121.888V209.922H113.552V208.642L117.568 204.69C118.784 203.474 119.536 202.514 119.536 201.282C119.536 200.178 118.88 199.602 117.84 199.602C116.944 199.602 116.304 200.21 116.048 200.914C115.968 201.154 115.936 201.394 115.92 201.714L113.824 201.362C114.208 198.914 115.792 197.762 117.984 197.762ZM136.411 202.546H134.459V207.314H132.347V196.562H134.459V200.818H136.411V202.546ZM123.291 204.882V197.778H130.315V204.882H123.291ZM125.355 199.442V203.218H128.235V199.442H125.355ZM134.987 209.362V211.042H124.955V206.258H127.067V209.362H134.987ZM148.787 199.602L143.939 209.922H141.491C142.851 206.978 144.339 204.242 145.699 201.314C145.763 201.202 145.907 200.914 146.003 200.754V200.738C146.019 200.722 146.019 200.722 146.019 200.722L146.083 200.594C146.083 200.594 146.083 200.578 146.099 200.578V200.562C146.211 200.338 146.323 200.146 146.435 200.002H140.723V198.034H148.787V199.602ZM154.19 197.762C156.43 197.81 157.918 199.202 157.87 200.978C157.87 202.338 157.086 203.138 156.078 203.634C157.486 204.162 158.078 205.074 158.078 206.482C158.03 208.93 156.078 210.226 153.838 210.226C151.406 210.226 150.206 209.01 149.566 206.914L151.518 206.146C151.774 207.17 152.67 208.306 153.806 208.306C155.214 208.306 155.902 207.426 155.902 206.53C155.902 205.41 155.598 204.642 153.102 204.642V203.042C155.214 202.994 155.71 202.322 155.71 201.298C155.726 200.194 155.102 199.65 154.062 199.65C152.702 199.65 152.238 200.546 152.03 201.698C151.342 201.586 150.654 201.442 149.95 201.33C150.414 198.882 151.934 197.762 154.19 197.762ZM162.234 199.922L161.834 202.258C162.33 202.178 162.778 202.146 163.21 202.146C165.77 202.146 167.146 203.778 167.146 205.89C167.146 208.466 165.194 210.21 162.618 210.21C161.146 210.21 159.834 209.538 159.018 208.77L160.138 207.138C160.89 207.762 161.722 208.306 162.746 208.306C164.218 208.306 165.002 207.394 165.002 205.986C165.002 204.706 164.25 203.922 162.778 203.97C162.186 204.018 161.61 204.13 161.034 204.338L159.69 203.938C160.186 200.866 160.506 198.978 160.682 197.954H166.73V199.922H162.234ZM172.533 197.762C174.757 197.762 176.309 199.186 176.309 201.234C176.261 202.914 175.077 204.306 173.893 205.538L171.413 208.034C171.845 207.922 172.229 207.906 172.597 207.906H176.437V209.922H168.101V208.642L172.117 204.69C173.333 203.474 174.085 202.514 174.085 201.282C174.085 200.178 173.429 199.602 172.389 199.602C171.493 199.602 170.853 200.21 170.597 200.914C170.517 201.154 170.485 201.394 170.469 201.714L168.373 201.362C168.757 198.914 170.341 197.762 172.533 197.762Z" fill="#383B48"/>
<path d="M145 231.922L128.546 213.172L161.454 213.172L145 231.922Z" fill="white"/>
<rect x="161" y="120.922" width="88" height="32" rx="16" fill="white"/>
<path d="M182.384 138.218V140.026H180.88V142.922H178.944V140.026H173.28V138.234C175.152 135.786 176.944 133.29 178.816 130.842H180.88V138.218H182.384ZM178.944 134.522C178.944 134.378 178.96 133.946 178.976 133.514L175.456 138.25H178.944V134.522ZM196.411 135.546H194.459V140.314H192.347V129.562H194.459V133.818H196.411V135.546ZM183.291 137.882V130.778H190.315V137.882H183.291ZM185.355 132.442V136.218H188.235V132.442H185.355ZM194.987 142.362V144.042H184.955V139.258H187.067V142.362H194.987ZM209.299 138.218V140.026H207.795V142.922H205.859V140.026H200.195V138.234C202.067 135.786 203.859 133.29 205.731 130.842H207.795V138.218H209.299ZM205.859 134.522C205.859 134.378 205.875 133.946 205.891 133.514L202.371 138.25H205.859V134.522ZM217.998 132.602L213.15 142.922H210.702C212.062 139.978 213.55 137.242 214.91 134.314C214.974 134.202 215.118 133.914 215.214 133.754V133.738C215.23 133.722 215.23 133.722 215.23 133.722L215.294 133.594C215.294 133.594 215.294 133.578 215.31 133.578V133.562C215.422 133.338 215.534 133.146 215.646 133.002H209.934V131.034H217.998V132.602ZM222.458 138.138C220.762 138.138 219.098 136.97 219.098 134.666C219.098 132.49 220.794 130.73 223.226 130.73C225.706 130.73 227.242 132.378 227.242 134.73C227.242 136.218 226.33 137.722 225.562 138.906L222.922 142.922H220.362L223.818 138.17C224.122 137.85 224.314 137.658 224.362 137.61L224.026 137.802C223.562 138.074 223.034 138.138 222.458 138.138ZM225.178 134.522C225.178 133.242 224.362 132.522 223.194 132.522C221.978 132.522 221.258 133.338 221.258 134.506C221.258 135.802 221.946 136.426 223.178 136.426C224.474 136.426 225.178 135.674 225.178 134.522ZM232.533 130.762C234.757 130.762 236.309 132.186 236.309 134.234C236.261 135.914 235.077 137.306 233.893 138.538L231.413 141.034C231.845 140.922 232.229 140.906 232.597 140.906H236.437V142.922H228.101V141.642L232.117 137.69C233.333 136.474 234.085 135.514 234.085 134.282C234.085 133.178 233.429 132.602 232.389 132.602C231.493 132.602 230.853 133.21 230.597 133.914C230.517 134.154 230.485 134.394 230.469 134.714L228.373 134.362C228.757 131.914 230.341 130.762 232.533 130.762Z" fill="#383B48"/>
<path d="M205 164.922L188.546 146.172L221.454 146.172L205 164.922Z" fill="white"/>
<rect x="221" y="40.9219" width="88" height="32" rx="16" fill="white"/>
<path d="M238.432 55.4819C240.288 55.4819 242.032 56.6819 242.032 59.1299C242.032 61.3859 240.304 63.2259 237.728 63.2259C235.136 63.2259 233.52 61.4979 233.52 58.9219C233.52 57.8339 234.032 56.6019 234.944 55.3219L238.192 50.9379H240.88C239.664 52.4259 238.528 53.8819 237.36 55.3699L236.96 55.7539L237.136 55.6739C237.504 55.5459 237.936 55.4819 238.432 55.4819ZM235.632 59.2419C235.632 60.6019 236.464 61.4179 237.696 61.4179C238.912 61.4179 239.888 60.5539 239.888 59.2579C239.888 57.8499 239.008 57.1459 237.712 57.1459C236.432 57.1459 235.632 57.9619 235.632 59.2419ZM256.411 55.5459H254.459V60.3139H252.347V49.5619H254.459V53.8179H256.411V55.5459ZM243.291 57.8819V50.7779H250.315V57.8819H243.291ZM245.355 52.4419V56.2179H248.235V52.4419H245.355ZM254.987 62.3619V64.0419H244.955V59.2579H247.067V62.3619H254.987ZM269.299 58.2179V60.0259H267.795V62.9219H265.859V60.0259H260.195V58.2339C262.067 55.7859 263.859 53.2899 265.731 50.8419H267.795V58.2179H269.299ZM265.859 54.5219C265.859 54.3779 265.875 53.9459 265.891 53.5139L262.371 58.2499H265.859V54.5219ZM275.614 61.1459H277.678V62.9219H271.086V61.1459H273.422V54.6339L273.486 53.5939L271.534 55.3699L270.27 53.9299L273.726 50.9539H275.614V61.1459ZM283.098 63.2259C280.602 63.2259 278.858 61.8819 278.858 59.6579C278.858 58.2979 279.466 57.2419 280.874 56.6819C279.85 56.1219 279.274 55.1939 279.274 54.0419C279.274 52.0739 280.874 50.7459 283.098 50.7459C285.354 50.7459 286.97 52.0739 286.97 54.0419C286.97 55.1939 286.378 56.1539 285.338 56.6819C286.746 57.2419 287.354 58.2979 287.354 59.6579C287.354 61.8819 285.61 63.2259 283.098 63.2259ZM283.098 55.8979C284.346 55.8979 284.842 54.9059 284.842 54.0739C284.842 53.1619 284.25 52.4419 283.098 52.4419C281.946 52.4419 281.386 53.1619 281.386 54.0739C281.386 54.9059 281.866 55.8979 283.098 55.8979ZM283.098 61.4659C284.378 61.4659 285.162 60.7299 285.162 59.6259C285.162 58.3459 284.33 57.6259 283.098 57.6259C281.866 57.6259 281.082 58.3459 281.082 59.6259C281.082 60.7299 281.818 61.4659 283.098 61.4659ZM292.309 63.2259C289.813 63.2259 288.069 61.8819 288.069 59.6579C288.069 58.2979 288.677 57.2419 290.085 56.6819C289.061 56.1219 288.485 55.1939 288.485 54.0419C288.485 52.0739 290.085 50.7459 292.309 50.7459C294.565 50.7459 296.181 52.0739 296.181 54.0419C296.181 55.1939 295.589 56.1539 294.549 56.6819C295.957 57.2419 296.565 58.2979 296.565 59.6579C296.565 61.8819 294.821 63.2259 292.309 63.2259ZM292.309 55.8979C293.557 55.8979 294.053 54.9059 294.053 54.0739C294.053 53.1619 293.461 52.4419 292.309 52.4419C291.157 52.4419 290.597 53.1619 290.597 54.0739C290.597 54.9059 291.077 55.8979 292.309 55.8979ZM292.309 61.4659C293.589 61.4659 294.373 60.7299 294.373 59.6259C294.373 58.3459 293.541 57.6259 292.309 57.6259C291.077 57.6259 290.293 58.3459 290.293 59.6259C290.293 60.7299 291.029 61.4659 292.309 61.4659Z" fill="#383B48"/>
<path d="M265.001 84.9219L246.933 66.1719L283.068 66.1719L265.001 84.9219Z" fill="white"/>
<rect x="262" y="0.921875" width="88" height="32" rx="16" fill="white"/>
<path d="M282.872 12.6019L278.024 22.9219H275.576C276.936 19.9779 278.424 17.2419 279.784 14.3139C279.848 14.2019 279.992 13.9139 280.088 13.7539V13.7379C280.104 13.7219 280.104 13.7219 280.104 13.7219L280.168 13.5939C280.168 13.5939 280.168 13.5779 280.184 13.5779V13.5619C280.296 13.3379 280.408 13.1459 280.52 13.0019H274.808V11.0339H282.872V12.6019ZM297.411 15.5459H295.459V20.3139H293.347V9.56187H295.459V13.8179H297.411V15.5459ZM284.291 17.8819V10.7779H291.315V17.8819H284.291ZM286.355 12.4419V16.2179H289.235V12.4419H286.355ZM295.987 22.3619V24.0419H285.955V19.2579H288.067V22.3619H295.987ZM305.899 10.7619C308.123 10.7619 309.675 12.1859 309.675 14.2339C309.627 15.9139 308.443 17.3059 307.259 18.5379L304.779 21.0339C305.211 20.9219 305.595 20.9059 305.963 20.9059H309.803V22.9219H301.467V21.6419L305.483 17.6899C306.699 16.4739 307.451 15.5139 307.451 14.2819C307.451 13.1779 306.795 12.6019 305.755 12.6019C304.859 12.6019 304.219 13.2099 303.963 13.9139C303.883 14.1539 303.851 14.3939 303.835 14.7139L301.739 14.3619C302.123 11.9139 303.707 10.7619 305.899 10.7619ZM316.614 21.1459H318.678V22.9219H312.086V21.1459H314.422V14.6339L314.486 13.5939L312.534 15.3699L311.27 13.9299L314.726 10.9539H316.614V21.1459ZM328.498 16.9859C328.498 21.2099 326.594 23.1459 324.034 23.1459C321.538 23.1459 319.618 21.2099 319.618 16.9859C319.618 12.7299 321.538 10.8099 324.034 10.8099C326.594 10.8099 328.498 12.7299 328.498 16.9859ZM326.258 16.9859C326.258 13.5779 325.202 12.6499 324.034 12.6499C322.93 12.6499 321.858 13.5779 321.858 16.9859C321.858 20.3779 322.93 21.2899 324.034 21.2899C325.202 21.2899 326.258 20.3779 326.258 16.9859ZM332.445 12.9219L332.045 15.2579C332.541 15.1779 332.989 15.1459 333.421 15.1459C335.981 15.1459 337.357 16.7779 337.357 18.8899C337.357 21.4659 335.405 23.2099 332.829 23.2099C331.357 23.2099 330.045 22.5379 329.229 21.7699L330.349 20.1379C331.101 20.7619 331.933 21.3059 332.957 21.3059C334.429 21.3059 335.213 20.3939 335.213 18.9859C335.213 17.7059 334.461 16.9219 332.989 16.9699C332.397 17.0179 331.821 17.1299 331.245 17.3379L329.901 16.9379C330.397 13.8659 330.717 11.9779 330.893 10.9539H336.941V12.9219H332.445Z" fill="#383B48"/>
<path d="M324 44.9219L307.546 26.1719L340.454 26.1719L324 44.9219Z" fill="white"/>
<defs>
<linearGradient id="paint0_linear_596_10318" x1="26" y1="339.322" x2="26" y2="348.922" gradientUnits="userSpaceOnUse">
<stop offset="0.348958" stop-color="#5221CB"/>
<stop offset="1" stop-color="#5221CB" stop-opacity="0"/>
</linearGradient>
<linearGradient id="paint1_linear_596_10318" x1="85.6758" y1="295.437" x2="85.6758" y2="348.922" gradientUnits="userSpaceOnUse">
<stop offset="0.348958" stop-color="#5221CB"/>
<stop offset="1" stop-color="#5221CB" stop-opacity="0"/>
</linearGradient>
<linearGradient id="paint2_linear_596_10318" x1="145.35" y1="239.922" x2="145.35" y2="348.95" gradientUnits="userSpaceOnUse">
<stop offset="0.348958" stop-color="#5221CB"/>
<stop offset="1" stop-color="#5221CB" stop-opacity="0"/>
</linearGradient>
<linearGradient id="paint3_linear_596_10318" x1="205.023" y1="172.693" x2="205.023" y2="348.922" gradientUnits="userSpaceOnUse">
<stop offset="0.348958" stop-color="#5221CB"/>
<stop offset="1" stop-color="#5221CB" stop-opacity="0"/>
</linearGradient>
<linearGradient id="paint4_linear_596_10318" x1="265" y1="92.9219" x2="265" y2="348.922" gradientUnits="userSpaceOnUse">
<stop offset="0.348958" stop-color="#5221CB"/>
<stop offset="1" stop-color="#5221CB" stop-opacity="0"/>
</linearGradient>
<linearGradient id="paint5_linear_596_10318" x1="325" y1="60.9219" x2="325" y2="348.922" gradientUnits="userSpaceOnUse">
<stop offset="0.348958" stop-color="#5221CB"/>
<stop offset="1" stop-color="#5221CB" stop-opacity="0"/>
</linearGradient>
</defs>
</svg>
