<svg xmlns="http://www.w3.org/2000/svg" width="20" height="20" viewBox="0 0 20 20" fill="none">
  <g clip-path="url(#clip0_195_1646)">
    <path fill-rule="evenodd" clip-rule="evenodd" d="M9.99967 0.833313C4.93717 0.833313 0.833008 4.93748 0.833008 9.99998C0.833008 15.0625 4.93717 19.1666 9.99967 19.1666C15.0622 19.1666 19.1663 15.0625 19.1663 9.99998C19.1663 4.93748 15.0622 0.833313 9.99967 0.833313ZM10.833 5.83331C10.833 5.6123 10.7452 5.40034 10.5889 5.24406C10.4327 5.08778 10.2207 4.99998 9.99967 4.99998C9.77866 4.99998 9.5667 5.08778 9.41042 5.24406C9.25414 5.40034 9.16634 5.6123 9.16634 5.83331V10.8333C9.16634 11.0543 9.25414 11.2663 9.41042 11.4226C9.5667 11.5788 9.77866 11.6666 9.99967 11.6666C10.2207 11.6666 10.4327 11.5788 10.5889 11.4226C10.7452 11.2663 10.833 11.0543 10.833 10.8333V5.83331ZM10.833 13.75C10.833 13.529 10.7452 13.317 10.5889 13.1607C10.4327 13.0044 10.2207 12.9166 9.99967 12.9166C9.77866 12.9166 9.5667 13.0044 9.41042 13.1607C9.25414 13.317 9.16634 13.529 9.16634 13.75V14.1666C9.16634 14.3877 9.25414 14.5996 9.41042 14.7559C9.5667 14.9122 9.77866 15 9.99967 15C10.2207 15 10.4327 14.9122 10.5889 14.7559C10.7452 14.5996 10.833 14.3877 10.833 14.1666V13.75Z" fill="#E2E5ED"/>
  </g>
  <defs>
    <clipPath id="clip0_195_1646">
      <rect width="20" height="20" fill="white"/>
    </clipPath>
  </defs>
</svg>