<svg width="126" height="126" viewBox="0 0 126 126" fill="none" xmlns="http://www.w3.org/2000/svg">
<rect x="0.5" y="0.5" width="125" height="125" rx="7.5" stroke="#D6D6D6"/>
<path d="M82.2445 46.5L82.25 46.5055V79.4945L82.2445 79.5H43.7555L43.75 79.4945V46.5055L43.7555 46.5H82.2445ZM82.25 43.75H43.75C42.2375 43.75 41 44.9875 41 46.5V79.5C41 81.0125 42.2375 82.25 43.75 82.25H82.25C83.7625 82.25 85 81.0125 85 79.5V46.5C85 44.9875 83.7625 43.75 82.25 43.75Z" fill="#5221CB"/>
<path d="M76.75 53.3748C76.7496 54.4692 76.3145 55.5186 75.5404 56.2922C74.7663 57.0658 73.7166 57.5002 72.6222 57.4998C71.5279 57.4995 70.4785 57.0644 69.7049 56.2903C68.9313 55.5162 68.4969 54.4665 68.4972 53.3721C68.4976 52.2777 68.9327 51.2283 69.7068 50.4547C70.4809 49.6811 71.5306 49.2467 72.625 49.2471C73.7194 49.2474 74.7688 49.6825 75.5424 50.4566C76.316 51.2307 76.7504 52.2804 76.75 53.3748ZM79.5 76.7498H46.5V71.2498L56.125 54.7498L67.125 68.4998H69.875L79.5 60.2498V76.7498Z" fill="#5221CB"/>
</svg>
