<svg width="100" height="100" viewBox="0 0 100 100" fill="none" xmlns="http://www.w3.org/2000/svg">
<rect x="0.5" y="0.5" width="99" height="99" rx="7.5" stroke="#D6D6D6"/>
<path d="M63.996 38L64 38.004V61.996L63.996 62H36.004L36 61.996V38.004L36.004 38H63.996ZM64 36H36C34.9 36 34 36.9 34 38V62C34 63.1 34.9 64 36 64H64C65.1 64 66 63.1 66 62V38C66 36.9 65.1 36 64 36Z" fill="#5221CB"/>
<path d="M60 43C59.9997 43.796 59.6833 44.5592 59.1203 45.1218C58.5573 45.6844 57.7939 46.0003 56.998 46C56.2021 45.9998 55.4389 45.6834 54.8763 45.1204C54.3137 44.5574 53.9977 43.794 53.998 42.998C53.9983 42.2021 54.3147 41.4389 54.8777 40.8763C55.4407 40.3137 56.2041 39.9978 57 39.998C57.7959 39.9983 58.5591 40.3147 59.1217 40.8777C59.6843 41.4407 60.0003 42.2041 60 43ZM62 60H38V56L45 44L53 54H55L62 48V60Z" fill="#5221CB"/>
</svg>
