<svg width="21" height="21" viewBox="0 0 21 21" fill="none" xmlns="http://www.w3.org/2000/svg">
<g clip-path="url(#clip0_3242_102521)">
<path fill-rule="evenodd" clip-rule="evenodd" d="M6.53188 0.93275C7.55825 0.8855 7.8855 0.875 10.5 0.875C13.1145 0.875 13.4418 0.886375 14.4673 0.93275C15.4928 0.979125 16.1928 1.14275 16.8053 1.37988C17.4466 1.62225 18.0285 2.00112 18.5098 2.49112C18.9998 2.9715 19.3778 3.5525 19.6193 4.19475C19.8573 4.80725 20.02 5.50725 20.0673 6.531C20.1145 7.55913 20.125 7.88638 20.125 10.5C20.125 13.1145 20.1136 13.4418 20.0673 14.4681C20.0209 15.4919 19.8573 16.1919 19.6193 16.8044C19.3777 17.4467 18.9991 18.0287 18.5098 18.5098C18.0285 18.9998 17.4466 19.3778 16.8053 19.6193C16.1928 19.8573 15.4928 20.02 14.469 20.0673C13.4418 20.1145 13.1145 20.125 10.5 20.125C7.8855 20.125 7.55825 20.1136 6.53188 20.0673C5.50813 20.0209 4.80813 19.8573 4.19563 19.6193C3.55331 19.3777 2.97134 18.9991 2.49025 18.5098C2.00058 18.0291 1.62165 17.4474 1.37988 16.8053C1.14275 16.1928 0.98 15.4928 0.93275 14.469C0.8855 13.4409 0.875 13.1136 0.875 10.5C0.875 7.8855 0.886375 7.55825 0.93275 6.53275C0.979125 5.50725 1.14275 4.80725 1.37988 4.19475C1.62201 3.55257 2.00123 2.9709 2.49112 2.49025C2.97154 2.00069 3.55291 1.62176 4.19475 1.37988C4.80725 1.14275 5.50725 0.98 6.531 0.93275H6.53188ZM14.3894 2.66525C13.3744 2.61888 13.0699 2.60925 10.5 2.60925C7.93013 2.60925 7.62563 2.61888 6.61063 2.66525C5.67175 2.70813 5.1625 2.86475 4.823 2.99688C4.37413 3.17188 4.053 3.37925 3.71613 3.71613C3.39679 4.0268 3.15103 4.405 2.99688 4.823C2.86475 5.1625 2.70813 5.67175 2.66525 6.61063C2.61888 7.62563 2.60925 7.93013 2.60925 10.5C2.60925 13.0699 2.61888 13.3744 2.66525 14.3894C2.70813 15.3283 2.86475 15.8375 2.99688 16.177C3.15088 16.5944 3.39675 16.9733 3.71613 17.2839C4.02675 17.6033 4.40563 17.8491 4.823 18.0031C5.1625 18.1353 5.67175 18.2919 6.61063 18.3348C7.62563 18.3811 7.92925 18.3908 10.5 18.3908C13.0708 18.3908 13.3744 18.3811 14.3894 18.3348C15.3283 18.2919 15.8375 18.1353 16.177 18.0031C16.6259 17.8281 16.947 17.6208 17.2839 17.2839C17.6033 16.9733 17.8491 16.5944 18.0031 16.177C18.1353 15.8375 18.2919 15.3283 18.3348 14.3894C18.3811 13.3744 18.3908 13.0699 18.3908 10.5C18.3908 7.93013 18.3811 7.62563 18.3348 6.61063C18.2919 5.67175 18.1353 5.1625 18.0031 4.823C17.8281 4.37413 17.6208 4.053 17.2839 3.71613C16.9732 3.39681 16.595 3.15106 16.177 2.99688C15.8375 2.86475 15.3283 2.70813 14.3894 2.66525ZM9.27063 13.4671C9.9572 13.7529 10.7217 13.7915 11.4336 13.5763C12.1454 13.361 12.7605 12.9053 13.1737 12.287C13.5869 11.6686 13.7725 10.926 13.699 10.186C13.6255 9.44592 13.2974 8.75435 12.7706 8.22938C12.4348 7.89379 12.0288 7.63684 11.5818 7.477C11.1348 7.31717 10.6579 7.25844 10.1854 7.30504C9.71299 7.35164 9.25676 7.50241 8.84958 7.74649C8.4424 7.99057 8.0944 8.3219 7.83064 8.71662C7.56688 9.11134 7.39392 9.55963 7.3242 10.0292C7.25449 10.4988 7.28976 10.978 7.42747 11.4323C7.56519 11.8866 7.80192 12.3048 8.12063 12.6566C8.43934 13.0085 8.8321 13.2853 9.27063 13.4671ZM7.00175 7.00175C7.46115 6.54235 8.00653 6.17794 8.60676 5.92932C9.20699 5.68069 9.85032 5.55273 10.5 5.55273C11.1497 5.55273 11.793 5.68069 12.3932 5.92932C12.9935 6.17794 13.5389 6.54235 13.9983 7.00175C14.4576 7.46115 14.8221 8.00653 15.0707 8.60676C15.3193 9.20699 15.4473 9.85032 15.4473 10.5C15.4473 11.1497 15.3193 11.793 15.0707 12.3932C14.8221 12.9935 14.4576 13.5389 13.9983 13.9983C13.0705 14.926 11.8121 15.4473 10.5 15.4473C9.1879 15.4473 7.92954 14.926 7.00175 13.9983C6.07396 13.0705 5.55273 11.8121 5.55273 10.5C5.55273 9.1879 6.07396 7.92954 7.00175 7.00175ZM16.5445 6.2895C16.6583 6.18211 16.7495 6.05297 16.8125 5.90973C16.8756 5.76648 16.9092 5.61205 16.9115 5.45556C16.9138 5.29908 16.8846 5.14373 16.8258 4.99871C16.767 4.85369 16.6796 4.72195 16.569 4.61128C16.4583 4.50062 16.3266 4.41329 16.1815 4.35445C16.0365 4.29562 15.8812 4.26648 15.7247 4.26876C15.5682 4.27104 15.4138 4.3047 15.2705 4.36773C15.1273 4.43077 14.9981 4.52191 14.8908 4.63575C14.6819 4.85715 14.5676 5.15123 14.572 5.45556C14.5764 5.7599 14.6993 6.05052 14.9145 6.26574C15.1297 6.48096 15.4204 6.60383 15.7247 6.60826C16.029 6.6127 16.3231 6.49835 16.5445 6.2895Z" fill="white"/>
</g>
<defs>
<clipPath id="clip0_3242_102521">
<rect width="21" height="21" fill="white"/>
</clipPath>
</defs>
</svg>
