<svg width="44" height="44" viewBox="0 0 44 44" fill="none" xmlns="http://www.w3.org/2000/svg">
<circle cx="22" cy="22" r="22" fill="#10121E"/>
<path fill-rule="evenodd" clip-rule="evenodd" d="M25.8261 10.6111C26.0127 11.8787 25.4967 13.1206 24.8161 13.9992C24.0879 14.9416 22.8327 15.6705 21.6166 15.6325C21.3946 14.4189 21.963 13.1684 22.6546 12.3278C23.4133 11.4001 24.7136 10.6884 25.8261 10.6111ZM29.4785 28.4536C30.1055 27.4928 30.3397 27.008 30.8264 25.9233C27.2866 24.5771 26.7194 19.5446 30.2226 17.6131C29.1541 16.2731 27.6525 15.4964 26.2351 15.4964C25.2138 15.4964 24.5141 15.7629 23.878 16.0052C23.3478 16.2071 22.8619 16.3922 22.2708 16.3922C21.6321 16.3922 21.0665 16.1894 20.4743 15.977C19.8235 15.7437 19.1406 15.4988 18.2931 15.4988C16.7025 15.4988 15.0095 16.4707 13.9361 18.1322C12.4272 20.4724 12.6846 24.8716 15.1315 28.6193C16.006 29.9605 17.1746 31.4674 18.703 31.4809C19.3372 31.4872 19.7592 31.2979 20.2158 31.0931C20.7386 30.8587 21.3067 30.6039 22.2904 30.5986C23.2798 30.5927 23.839 30.8506 24.3548 31.0885C24.7997 31.2937 25.2124 31.4841 25.8411 31.4772C27.3707 31.465 28.6039 29.7948 29.4785 28.4536Z" fill="white"/>
</svg>
