<svg width="11" height="13" viewBox="0 0 11 13" fill="none" xmlns="http://www.w3.org/2000/svg">
<path d="M9.13125 6.87031C9.125 5.80469 9.60781 5.00156 10.5828 4.40937C10.0375 3.62812 9.2125 3.19844 8.125 3.11562C7.09531 3.03437 5.96875 3.71562 5.55625 3.71562C5.12031 3.71562 4.12344 3.14375 3.33906 3.14375C1.72031 3.16875 0 4.43437 0 7.00937C0 7.77031 0.139062 8.55625 0.417187 9.36562C0.789062 10.4312 2.12969 13.0422 3.52812 13C4.25937 12.9828 4.77656 12.4812 5.72812 12.4812C6.65156 12.4812 7.12969 13 7.94531 13C9.35625 12.9797 10.5688 10.6062 10.9219 9.5375C9.02969 8.64531 9.13125 6.925 9.13125 6.87031ZM7.48906 2.10469C8.28125 1.16406 8.20938 0.307812 8.18594 0C7.48594 0.040625 6.67656 0.476563 6.21562 1.0125C5.70781 1.5875 5.40937 2.29844 5.47344 3.1C6.22969 3.15781 6.92031 2.76875 7.48906 2.10469Z" fill="white"/>
</svg>
