<svg width="177" height="57" viewBox="0 0 177 57" fill="none" xmlns="http://www.w3.org/2000/svg">
<rect y="0.429688" width="177" height="56" rx="28" fill="#222222"/>
<path d="M44.6969 28.2352C44.6875 26.6367 45.4117 25.432 46.8742 24.5437C46.0562 23.3719 44.8188 22.7273 43.1875 22.6031C41.643 22.4812 39.9531 23.5031 39.3344 23.5031C38.6805 23.5031 37.1852 22.6453 36.0086 22.6453C33.5805 22.6828 31 24.5812 31 28.4437C31 29.5852 31.2086 30.7641 31.6258 31.9781C32.1836 33.5766 34.1945 37.493 36.2922 37.4297C37.3891 37.4039 38.1648 36.6516 39.5922 36.6516C40.9773 36.6516 41.6945 37.4297 42.918 37.4297C45.0344 37.3992 46.8531 33.8391 47.3828 32.2359C44.5445 30.8977 44.6969 28.3172 44.6969 28.2352ZM42.2336 21.0867C43.4219 19.6758 43.3141 18.3914 43.2789 17.9297C42.2289 17.9906 41.0148 18.6445 40.3234 19.4484C39.5617 20.3109 39.1141 21.3773 39.2102 22.5797C40.3445 22.6664 41.3805 22.0828 42.2336 21.0867Z" fill="white"/>
<path d="M59.96 31.6297H64.76L65.8 35.4297H68.9L64.14 20.6297H60.66L55.92 35.4297H58.92L59.96 31.6297ZM63.68 27.7097L64.12 29.3297H60.6L61.04 27.7097C61.5 26.1697 61.92 24.4897 62.3 22.8697H62.38C62.84 24.4697 63.22 26.1697 63.68 27.7097ZM72.3925 24.2297H69.9925V39.7297H72.9125V36.3297L72.8325 34.4897C73.6925 35.2697 74.6325 35.7097 75.6125 35.7097C78.0725 35.7097 80.3725 33.4897 80.3725 29.6497C80.3725 26.2097 78.7325 23.9497 75.9725 23.9497C74.7725 23.9497 73.6125 24.5897 72.6725 25.3897H72.5925L72.3925 24.2297ZM74.9525 33.2897C74.3325 33.2897 73.6325 33.0697 72.9125 32.4497V27.5297C73.6925 26.7497 74.3525 26.3697 75.1325 26.3697C76.6725 26.3697 77.3525 27.5297 77.3525 29.6897C77.3525 32.1697 76.3125 33.2897 74.9525 33.2897ZM84.8636 24.2297H82.4636V39.7297H85.3836V36.3297L85.3036 34.4897C86.1636 35.2697 87.1036 35.7097 88.0836 35.7097C90.5436 35.7097 92.8436 33.4897 92.8436 29.6497C92.8436 26.2097 91.2036 23.9497 88.4436 23.9497C87.2436 23.9497 86.0836 24.5897 85.1436 25.3897H85.0636L84.8636 24.2297ZM87.4236 33.2897C86.8036 33.2897 86.1036 33.0697 85.3836 32.4497V27.5297C86.1636 26.7497 86.8236 26.3697 87.6036 26.3697C89.1436 26.3697 89.8236 27.5297 89.8236 29.6897C89.8236 32.1697 88.7836 33.2897 87.4236 33.2897ZM103.726 35.7097C107.146 35.7097 109.166 33.6497 109.166 31.2297C109.166 29.0697 108.026 27.9497 106.186 27.2097L104.246 26.3897C102.986 25.9097 101.926 25.4497 101.926 24.4497C101.926 23.4697 102.766 22.8897 104.066 22.8897C105.286 22.8897 106.266 23.3297 107.206 24.1097L108.706 22.2497C107.506 21.0297 105.826 20.3497 104.066 20.3497C101.086 20.3497 98.9459 22.2097 98.9459 24.6297C98.9459 26.7897 100.446 27.9697 101.946 28.6097L103.926 29.4497C105.266 30.0297 106.146 30.3297 106.146 31.4497C106.146 32.4897 105.326 33.1497 103.786 33.1497C102.486 33.1497 101.086 32.4897 100.026 31.5097L98.3259 33.5497C99.7659 34.9297 101.726 35.7097 103.726 35.7097ZM114.621 35.7097C115.601 35.7097 116.361 35.5097 116.981 35.2897L116.501 33.1497C116.201 33.2897 115.781 33.3897 115.401 33.3897C114.381 33.3897 113.881 32.7697 113.881 31.5097V26.5497H116.641V24.2297H113.881V21.2297H111.421L111.081 24.2297L109.361 24.3697V26.5497H110.941V31.5097C110.941 34.0297 111.961 35.7097 114.621 35.7097ZM122.829 35.7097C125.629 35.7097 128.209 33.5297 128.209 29.8497C128.209 26.1097 125.629 23.9497 122.829 23.9497C120.029 23.9497 117.449 26.1097 117.449 29.8497C117.449 33.5297 120.029 35.7097 122.829 35.7097ZM122.829 33.3097C121.309 33.3097 120.449 31.9497 120.449 29.8497C120.449 27.6897 121.309 26.3497 122.829 26.3497C124.349 26.3497 125.209 27.6897 125.209 29.8497C125.209 31.9497 124.349 33.3097 122.829 33.3097ZM132.668 24.2297H130.268V35.4297H133.188V28.7497C133.828 27.1297 134.888 26.5497 135.768 26.5497C136.228 26.5497 136.548 26.5897 136.928 26.7297L137.448 24.1897C137.108 24.0497 136.748 23.9497 136.128 23.9497C134.928 23.9497 133.768 24.7497 132.948 26.2097H132.868L132.668 24.2297ZM143.439 35.7097C144.879 35.7097 146.239 35.2497 147.359 34.4697L146.359 32.6697C145.559 33.1697 144.779 33.4497 143.839 33.4497C142.159 33.4497 140.979 32.4897 140.739 30.6497H147.639C147.719 30.3897 147.779 29.8497 147.779 29.3097C147.779 26.2097 146.179 23.9497 143.099 23.9497C140.439 23.9497 137.879 26.2297 137.879 29.8497C137.879 33.5297 140.319 35.7097 143.439 35.7097ZM145.259 28.7097H140.699C140.919 27.0897 141.959 26.2297 143.139 26.2297C144.579 26.2297 145.259 27.1897 145.259 28.7097Z" fill="white"/>
</svg>
