<svg width="28" height="28" viewBox="0 0 28 28" fill="none" xmlns="http://www.w3.org/2000/svg">
<circle cx="14" cy="14" r="13.5" fill="white" stroke="#D3D3D3"/>
<path d="M20.1875 9.57031H17.7969L17.2273 7.97422C17.188 7.865 17.1159 7.7706 17.0209 7.7039C16.9259 7.6372 16.8126 7.60146 16.6965 7.60156H11.3035C11.0662 7.60156 10.8535 7.75098 10.7744 7.97422L10.2031 9.57031H7.8125C7.03555 9.57031 6.40625 10.1996 6.40625 10.9766V18.9922C6.40625 19.7691 7.03555 20.3984 7.8125 20.3984H20.1875C20.9645 20.3984 21.5937 19.7691 21.5937 18.9922V10.9766C21.5937 10.1996 20.9645 9.57031 20.1875 9.57031ZM14 17.5859C12.4461 17.5859 11.1875 16.3273 11.1875 14.7734C11.1875 13.2195 12.4461 11.9609 14 11.9609C15.5539 11.9609 16.8125 13.2195 16.8125 14.7734C16.8125 16.3273 15.5539 17.5859 14 17.5859ZM12.3125 14.7734C12.3125 15.221 12.4903 15.6502 12.8068 15.9667C13.1232 16.2831 13.5524 16.4609 14 16.4609C14.4476 16.4609 14.8768 16.2831 15.1932 15.9667C15.5097 15.6502 15.6875 15.221 15.6875 14.7734C15.6875 14.3259 15.5097 13.8967 15.1932 13.5802C14.8768 13.2637 14.4476 13.0859 14 13.0859C13.5524 13.0859 13.1232 13.2637 12.8068 13.5802C12.4903 13.8967 12.3125 14.3259 12.3125 14.7734Z" fill="#D3D3D3"/>
</svg>
