<svg width="120" height="120" viewBox="0 0 120 120" fill="none" xmlns="http://www.w3.org/2000/svg">
<circle cx="60" cy="60" r="59.5" fill="#E2E5ED" stroke="#D3D3D3"/>
<mask id="mask0_3232_76891" style="mask-type:alpha" maskUnits="userSpaceOnUse" x="19" y="26" width="84" height="93">
<path d="M60.5014 63.497C70.4428 63.497 78.5019 55.4379 78.5019 45.4965C78.5019 35.5552 70.4428 27.4961 60.5014 27.4961C50.56 27.4961 42.501 35.5552 42.501 45.4965C42.501 55.4379 50.56 63.497 60.5014 63.497Z" fill="white" stroke="white" stroke-width="2" stroke-linecap="round" stroke-linejoin="round"/>
<path d="M101.002 117.497C101.002 95.1291 82.869 76.9961 60.501 76.9961C38.133 76.9961 20 95.1291 20 117.497" fill="white"/>
<path d="M101.002 117.497C101.002 95.1291 82.869 76.9961 60.501 76.9961C38.133 76.9961 20 95.1291 20 117.497H101.002Z" stroke="white" stroke-width="2" stroke-linecap="round" stroke-linejoin="round"/>
</mask>
<g mask="url(#mask0_3232_76891)">
<circle cx="60" cy="60" r="59.5" fill="white" stroke="#D3D3D3"/>
</g>
</svg>
