<svg width="18" height="21" viewBox="0 0 18 21" fill="none" xmlns="http://www.w3.org/2000/svg">
<path d="M17.5201 13.21L15.7201 11.4V6.94002C15.744 5.28384 15.1679 3.67493 14.0982 2.41035C13.0285 1.14578 11.5373 0.310951 9.90007 0.0600163C8.94989 -0.0651165 7.98394 0.0138312 7.06668 0.291592C6.14942 0.569352 5.30194 1.03954 4.5808 1.67078C3.85965 2.30202 3.28142 3.07979 2.88468 3.95221C2.48794 4.82463 2.28182 5.77163 2.28007 6.73002V11.4L0.480073 13.21C0.253979 13.4399 0.100657 13.7313 0.0392733 14.0478C-0.0221099 14.3643 0.0111694 14.6919 0.134951 14.9897C0.258732 15.2874 0.467524 15.542 0.735224 15.7217C1.00292 15.9014 1.31766 15.9982 1.64007 16H5.00007V16.34C5.04678 17.3552 5.49403 18.3105 6.2438 18.9965C6.99357 19.6826 7.98473 20.0434 9.00007 20C10.0154 20.0434 11.0066 19.6826 11.7563 18.9965C12.5061 18.3105 12.9534 17.3552 13.0001 16.34V16H16.3601C16.6825 15.9982 16.9972 15.9014 17.2649 15.7217C17.5326 15.542 17.7414 15.2874 17.8652 14.9897C17.989 14.6919 18.0223 14.3643 17.9609 14.0478C17.8995 13.7313 17.7462 13.4399 17.5201 13.21ZM11.0001 16.34C10.9446 16.821 10.7057 17.2621 10.3331 17.5713C9.96057 17.8805 9.48306 18.0341 9.00007 18C8.51709 18.0341 8.03957 17.8805 7.667 17.5713C7.29443 17.2621 7.05553 16.821 7.00007 16.34V16H11.0001V16.34ZM2.51007 14L3.69007 12.82C3.87724 12.634 4.02574 12.4127 4.127 12.169C4.22826 11.9253 4.28028 11.6639 4.28007 11.4V6.73002C4.28062 6.05542 4.42546 5.38874 4.70487 4.77473C4.98428 4.16071 5.3918 3.61357 5.90007 3.17002C6.40149 2.7157 6.99565 2.37577 7.64141 2.17375C8.28718 1.97173 8.96914 1.91245 9.64007 2.00002C10.7966 2.18779 11.8463 2.78703 12.596 3.6874C13.3457 4.58776 13.7449 5.72865 13.7201 6.90002V11.4C13.7186 11.6632 13.769 11.9242 13.8685 12.1678C13.9681 12.4115 14.1147 12.6331 14.3001 12.82L15.4901 14H2.51007Z" fill="#222222"/>
</svg>
