<svg width="19" height="21" viewBox="0 0 19 21" fill="none" xmlns="http://www.w3.org/2000/svg">
<path d="M18.0201 13.21L16.2201 11.4V6.94C16.244 5.28382 15.6679 3.67491 14.5982 2.41034C13.5285 1.14576 12.0373 0.310936 10.4001 0.0600011C9.44989 -0.0651318 8.48394 0.013816 7.56668 0.291577C6.64942 0.569337 5.80194 1.03952 5.0808 1.67076C4.35965 2.302 3.78142 3.07978 3.38468 3.9522C2.98794 4.82461 2.78182 5.77161 2.78007 6.73V11.4L0.980073 13.21C0.753979 13.4399 0.600657 13.7313 0.539273 14.0478C0.47789 14.3643 0.511169 14.6919 0.634951 14.9896C0.758732 15.2874 0.967524 15.542 1.23522 15.7217C1.50292 15.9014 1.81766 15.9982 2.14007 16H5.50007V16.34C5.54678 17.3552 5.99403 18.3105 6.7438 18.9965C7.49357 19.6826 8.48473 20.0434 9.50007 20C10.5154 20.0434 11.5066 19.6826 12.2563 18.9965C13.0061 18.3105 13.4534 17.3552 13.5001 16.34V16H16.8601C17.1825 15.9982 17.4972 15.9014 17.7649 15.7217C18.0326 15.542 18.2414 15.2874 18.3652 14.9896C18.489 14.6919 18.5223 14.3643 18.4609 14.0478C18.3995 13.7313 18.2462 13.4399 18.0201 13.21ZM11.5001 16.34C11.4446 16.821 11.2057 17.2621 10.8331 17.5713C10.4606 17.8805 9.98306 18.0341 9.50007 18C9.01709 18.0341 8.53957 17.8805 8.167 17.5713C7.79443 17.2621 7.55553 16.821 7.50007 16.34V16H11.5001V16.34ZM3.01007 14L4.19007 12.82C4.37724 12.6339 4.52574 12.4127 4.627 12.169C4.72826 11.9253 4.78028 11.6639 4.78007 11.4V6.73C4.78062 6.0554 4.92546 5.38872 5.20487 4.77471C5.48428 4.1607 5.8918 3.61355 6.40007 3.17C6.90149 2.71568 7.49565 2.37575 8.14141 2.17373C8.78718 1.97172 9.46914 1.91244 10.1401 2C11.2966 2.18778 12.3463 2.78701 13.096 3.68738C13.8457 4.58775 14.2449 5.72864 14.2201 6.9V11.4C14.2186 11.6632 14.269 11.9241 14.3685 12.1678C14.4681 12.4115 14.6147 12.6331 14.8001 12.82L15.9901 14H3.01007Z" fill="white"/>
</svg>
