<svg width="20" height="20" viewBox="0 0 20 20" fill="none" xmlns="http://www.w3.org/2000/svg">
<mask id="path-1-outside-1_7311_19954" maskUnits="userSpaceOnUse" x="4.25" y="4.875" width="15" height="15" fill="black">
<rect fill="white" x="4.25" y="4.875" width="15" height="15"/>
<path d="M6.25 11.25V14.375C6.25 14.5408 6.31585 14.6997 6.43306 14.8169C6.55027 14.9342 6.70924 15 6.875 15H14.4076L17.5 17.5V7.5C17.5 7.33424 17.4342 7.17527 17.3169 7.05806C17.1997 6.94085 17.0408 6.875 16.875 6.875H13.75"/>
</mask>
<path d="M6.25 11.25V14.375C6.25 14.5408 6.31585 14.6997 6.43306 14.8169C6.55027 14.9342 6.70924 15 6.875 15H14.4076L17.5 17.5V7.5C17.5 7.33424 17.4342 7.17527 17.3169 7.05806C17.1997 6.94085 17.0408 6.875 16.875 6.875H13.75" fill="#222222"/>
<path d="M7.75 11.25C7.75 10.4216 7.07843 9.75 6.25 9.75C5.42157 9.75 4.75 10.4216 4.75 11.25H7.75ZM14.4076 15L15.3506 13.8335C15.0837 13.6177 14.7508 13.5 14.4076 13.5V15ZM17.5 17.5L16.557 18.6665C17.0065 19.0299 17.6247 19.1027 18.1463 18.8536C18.6679 18.6046 19 18.078 19 17.5H17.5ZM13.75 5.375C12.9216 5.375 12.25 6.04657 12.25 6.875C12.25 7.70343 12.9216 8.375 13.75 8.375V5.375ZM4.75 11.25V14.375H7.75V11.25H4.75ZM4.75 14.375C4.75 14.9386 4.97388 15.4791 5.3724 15.8776L7.49372 13.7563C7.65781 13.9204 7.75 14.1429 7.75 14.375H4.75ZM5.3724 15.8776C5.77091 16.2761 6.31142 16.5 6.875 16.5V13.5C7.10706 13.5 7.32962 13.5922 7.49372 13.7563L5.3724 15.8776ZM6.875 16.5H14.4076V13.5H6.875V16.5ZM13.4646 16.1665L16.557 18.6665L18.443 16.3335L15.3506 13.8335L13.4646 16.1665ZM19 17.5V7.5H16V17.5H19ZM19 7.5C19 6.93642 18.7761 6.39591 18.3776 5.9974L16.2563 8.11872C16.0922 7.95462 16 7.73206 16 7.5H19ZM18.3776 5.9974C17.9791 5.59888 17.4386 5.375 16.875 5.375V8.375C16.6429 8.375 16.4204 8.28281 16.2563 8.11872L18.3776 5.9974ZM16.875 5.375H13.75V8.375H16.875V5.375Z" fill="#F3F4F7" mask="url(#path-1-outside-1_7311_19954)"/>
<path d="M1.75 13.75C1.75 14.039 1.91605 14.3023 2.17684 14.4268C2.43763 14.5513 2.74677 14.5149 2.97151 14.3332L5.85766 12H13.125C13.4897 12 13.8394 11.8551 14.0973 11.5973C14.3551 11.3394 14.5 10.9897 14.5 10.625V3.75C14.5 3.38533 14.3551 3.03559 14.0973 2.77773C13.8394 2.51987 13.4897 2.375 13.125 2.375H3.125C2.76033 2.375 2.41059 2.51987 2.15273 2.77773C1.89487 3.03559 1.75 3.38533 1.75 3.75V13.75Z" fill="#222222" stroke="#F3F4F7" stroke-width="1.5" stroke-linecap="round" stroke-linejoin="round"/>
</svg>
