<svg width="30" height="30" viewBox="0 0 30 30" fill="none" xmlns="http://www.w3.org/2000/svg">
<path fill-rule="evenodd" clip-rule="evenodd" d="M14.6667 0.333984C6.56667 0.333984 0 6.90065 0 15.0007C0 23.1006 6.56667 29.6673 14.6667 29.6673C22.7667 29.6673 29.3333 23.1006 29.3333 15.0007C29.3333 6.90065 22.7667 0.333984 14.6667 0.333984ZM21.024 12.5207C21.1411 12.3868 21.2302 12.231 21.2861 12.0622C21.342 11.8934 21.3637 11.7152 21.3497 11.538C21.3357 11.3607 21.2864 11.1881 21.2048 11.0302C21.1231 10.8722 21.0106 10.7323 20.8741 10.6184C20.7375 10.5046 20.5795 10.4193 20.4095 10.3674C20.2394 10.3155 20.0607 10.2982 19.8838 10.3164C19.707 10.3346 19.5356 10.388 19.3797 10.4735C19.2238 10.5589 19.0865 10.6747 18.976 10.814L13.2427 17.6926L10.276 14.7247C10.0245 14.4818 9.68773 14.3474 9.33813 14.3504C8.98854 14.3535 8.65412 14.4937 8.40691 14.7409C8.1597 14.9881 8.01947 15.3225 8.01643 15.6721C8.0134 16.0217 8.14779 16.3585 8.39067 16.61L12.3907 20.61C12.5217 20.7409 12.6785 20.8431 12.8512 20.9101C13.0239 20.977 13.2087 21.0073 13.3937 20.9988C13.5787 20.9904 13.76 20.9436 13.9259 20.8612C14.0918 20.7789 14.2387 20.6629 14.3573 20.5206L21.024 12.5207Z" fill="#5A2DC9"/>
</svg>
