<svg width="30" height="30" viewBox="0 0 30 30" fill="none" xmlns="http://www.w3.org/2000/svg">
<path fill-rule="evenodd" clip-rule="evenodd" d="M14.6667 0.333252C6.56667 0.333252 0 6.89992 0 14.9999C0 23.0999 6.56667 29.6666 14.6667 29.6666C22.7667 29.6666 29.3333 23.0999 29.3333 14.9999C29.3333 6.89992 22.7667 0.333252 14.6667 0.333252ZM21.024 12.5199C21.1411 12.3861 21.2302 12.2302 21.2861 12.0615C21.342 11.8927 21.3637 11.7145 21.3497 11.5372C21.3357 11.36 21.2864 11.1873 21.2048 11.0294C21.1231 10.8715 21.0106 10.7315 20.8741 10.6177C20.7375 10.5039 20.5795 10.4185 20.4095 10.3667C20.2394 10.3148 20.0607 10.2975 19.8838 10.3157C19.707 10.3339 19.5356 10.3873 19.3797 10.4728C19.2238 10.5582 19.0865 10.674 18.976 10.8133L13.2427 17.6919L10.276 14.7239C10.0245 14.481 9.68773 14.3466 9.33813 14.3497C8.98854 14.3527 8.65412 14.4929 8.40691 14.7402C8.1597 14.9874 8.01947 15.3218 8.01643 15.6714C8.0134 16.021 8.14779 16.3578 8.39067 16.6093L12.3907 20.6093C12.5217 20.7402 12.6785 20.8424 12.8512 20.9093C13.0239 20.9763 13.2087 21.0065 13.3937 20.9981C13.5787 20.9897 13.76 20.9428 13.9259 20.8605C14.0918 20.7782 14.2387 20.6622 14.3573 20.5199L21.024 12.5199Z" fill="#5221CB"/>
</svg>
