<svg width="20" height="20" viewBox="0 0 20 20" fill="none" xmlns="http://www.w3.org/2000/svg">
<mask id="path-1-outside-1_3434_58099" maskUnits="userSpaceOnUse" x="4.25006" y="4.875" width="15" height="15" fill="black">
<rect fill="white" x="4.25006" y="4.875" width="15" height="15"/>
<path d="M6.25006 11.25V14.375C6.25006 14.5408 6.31591 14.6997 6.43312 14.8169C6.55033 14.9342 6.7093 15 6.87506 15H14.4076L17.5001 17.5V7.5C17.5001 7.33424 17.4342 7.17527 17.317 7.05806C17.1998 6.94085 17.0408 6.875 16.8751 6.875H13.7501"/>
</mask>
<path d="M6.25006 11.25V14.375C6.25006 14.5408 6.31591 14.6997 6.43312 14.8169C6.55033 14.9342 6.7093 15 6.87506 15H14.4076L17.5001 17.5V7.5C17.5001 7.33424 17.4342 7.17527 17.317 7.05806C17.1998 6.94085 17.0408 6.875 16.8751 6.875H13.7501" fill="#222222"/>
<path d="M7.75006 11.25C7.75006 10.4216 7.07849 9.75 6.25006 9.75C5.42163 9.75 4.75006 10.4216 4.75006 11.25H7.75006ZM14.4076 15L15.3507 13.8335C15.0837 13.6177 14.7509 13.5 14.4076 13.5V15ZM17.5001 17.5L16.557 18.6665C17.0065 19.0299 17.6248 19.1027 18.1464 18.8536C18.668 18.6046 19.0001 18.078 19.0001 17.5H17.5001ZM13.7501 5.375C12.9216 5.375 12.2501 6.04657 12.2501 6.875C12.2501 7.70343 12.9216 8.375 13.7501 8.375V5.375ZM4.75006 11.25V14.375H7.75006V11.25H4.75006ZM4.75006 14.375C4.75006 14.9386 4.97394 15.4791 5.37246 15.8776L7.49378 13.7563C7.65787 13.9204 7.75006 14.1429 7.75006 14.375H4.75006ZM5.37246 15.8776C5.77098 16.2761 6.31148 16.5 6.87506 16.5V13.5C7.10712 13.5 7.32968 13.5922 7.49378 13.7563L5.37246 15.8776ZM6.87506 16.5H14.4076V13.5H6.87506V16.5ZM13.4646 16.1665L16.557 18.6665L18.4431 16.3335L15.3507 13.8335L13.4646 16.1665ZM19.0001 17.5V7.5H16.0001V17.5H19.0001ZM19.0001 7.5C19.0001 6.93642 18.7762 6.39591 18.3777 5.9974L16.2563 8.11872C16.0922 7.95462 16.0001 7.73206 16.0001 7.5H19.0001ZM18.3777 5.9974C17.9791 5.59888 17.4386 5.375 16.8751 5.375V8.375C16.643 8.375 16.4204 8.28281 16.2563 8.11872L18.3777 5.9974ZM16.8751 5.375H13.7501V8.375H16.8751V5.375Z" fill="#F3F4F7" mask="url(#path-1-outside-1_3434_58099)"/>
<path d="M1.75006 13.75C1.75006 14.039 1.91611 14.3023 2.1769 14.4268C2.43769 14.5513 2.74683 14.5149 2.97157 14.3332L5.85772 12H13.1251C13.4897 12 13.8395 11.8551 14.0973 11.5973C14.3552 11.3394 14.5001 10.9897 14.5001 10.625V3.75C14.5001 3.38533 14.3552 3.03559 14.0973 2.77773C13.8395 2.51987 13.4897 2.375 13.1251 2.375H3.12506C2.76039 2.375 2.41065 2.51987 2.15279 2.77773C1.89493 3.03559 1.75006 3.38533 1.75006 3.75V13.75Z" fill="#222222" stroke="#F3F4F7" stroke-width="1.5" stroke-linecap="round" stroke-linejoin="round"/>
</svg>
