<svg width="36" height="36" viewBox="0 0 36 36" fill="none" xmlns="http://www.w3.org/2000/svg">
<path d="M25.1893 10.9958H21.8567C21.7094 10.9958 21.5681 11.0771 21.464 11.2218C21.3598 11.3665 21.3013 11.5627 21.3013 11.7673C21.3013 11.9719 21.3598 12.1681 21.464 12.3128C21.5681 12.4574 21.7094 12.5387 21.8567 12.5387H25.1893C25.3366 12.5387 25.4779 12.4574 25.582 12.3128C25.6862 12.1681 25.7447 11.9719 25.7447 11.7673C25.7447 11.5627 25.6862 11.3665 25.582 11.2218C25.4779 11.0771 25.3366 10.9958 25.1893 10.9958Z" fill="#595757"/>
<path d="M19.6356 10.9958H16.303C16.1557 10.9958 16.0144 11.0771 15.9102 11.2218C15.8061 11.3665 15.7476 11.5627 15.7476 11.7673C15.7476 11.9719 15.8061 12.1681 15.9102 12.3128C16.0144 12.4574 16.1557 12.5387 16.303 12.5387H19.6356C19.7829 12.5387 19.9241 12.4574 20.0283 12.3128C20.1325 12.1681 20.191 11.9719 20.191 11.7673C20.191 11.5627 20.1325 11.3665 20.0283 11.2218C19.9241 11.0771 19.7829 10.9958 19.6356 10.9958Z" fill="#595757"/>
<path d="M14.0809 10.9958H10.7483C10.601 10.9958 10.4597 11.0771 10.3556 11.2218C10.2514 11.3665 10.1929 11.5627 10.1929 11.7673C10.1929 11.9719 10.2514 12.1681 10.3556 12.3128C10.4597 12.4574 10.601 12.5387 10.7483 12.5387H14.0809C14.2282 12.5387 14.3695 12.4574 14.4736 12.3128C14.5778 12.1681 14.6363 11.9719 14.6363 11.7673C14.6363 11.5627 14.5778 11.3665 14.4736 11.2218C14.3695 11.0771 14.2282 10.9958 14.0809 10.9958Z" fill="#595757"/>
<path d="M25.1893 14.3281H21.8567C21.7094 14.3281 21.5681 14.4094 21.464 14.5541C21.3598 14.6987 21.3013 14.895 21.3013 15.0996C21.3013 15.3041 21.3598 15.5004 21.464 15.645C21.5681 15.7897 21.7094 15.871 21.8567 15.871H25.1893C25.3366 15.871 25.4779 15.7897 25.582 15.645C25.6862 15.5004 25.7447 15.3041 25.7447 15.0996C25.7447 14.895 25.6862 14.6987 25.582 14.5541C25.4779 14.4094 25.3366 14.3281 25.1893 14.3281Z" fill="#595757"/>
<path d="M19.6356 14.3281H16.303C16.1557 14.3281 16.0144 14.4094 15.9102 14.5541C15.8061 14.6987 15.7476 14.895 15.7476 15.0996C15.7476 15.3041 15.8061 15.5004 15.9102 15.645C16.0144 15.7897 16.1557 15.871 16.303 15.871H19.6356C19.7829 15.871 19.9241 15.7897 20.0283 15.645C20.1325 15.5004 20.191 15.3041 20.191 15.0996C20.191 14.895 20.1325 14.6987 20.0283 14.5541C19.9241 14.4094 19.7829 14.3281 19.6356 14.3281Z" fill="#595757"/>
<path d="M14.0809 14.3281H10.7483C10.601 14.3281 10.4597 14.4094 10.3556 14.5541C10.2514 14.6987 10.1929 14.895 10.1929 15.0996C10.1929 15.3041 10.2514 15.5004 10.3556 15.645C10.4597 15.7897 10.601 15.871 10.7483 15.871H14.0809C14.2282 15.871 14.3695 15.7897 14.4736 15.645C14.5778 15.5004 14.6363 15.3041 14.6363 15.0996C14.6363 14.895 14.5778 14.6987 14.4736 14.5541C14.3695 14.4094 14.2282 14.3281 14.0809 14.3281Z" fill="#595757"/>
<path d="M25.1893 17.6606H21.8567C21.7094 17.6606 21.5681 17.7419 21.464 17.8866C21.3598 18.0313 21.3013 18.2275 21.3013 18.4321C21.3013 18.6367 21.3598 18.8329 21.464 18.9776C21.5681 19.1222 21.7094 19.2035 21.8567 19.2035H25.1893C25.3366 19.2035 25.4779 19.1222 25.582 18.9776C25.6862 18.8329 25.7447 18.6367 25.7447 18.4321C25.7447 18.2275 25.6862 18.0313 25.582 17.8866C25.4779 17.7419 25.3366 17.6606 25.1893 17.6606Z" fill="#595757"/>
<path d="M19.6356 17.6606H16.303C16.1557 17.6606 16.0144 17.7419 15.9102 17.8866C15.8061 18.0313 15.7476 18.2275 15.7476 18.4321C15.7476 18.6367 15.8061 18.8329 15.9102 18.9776C16.0144 19.1222 16.1557 19.2035 16.303 19.2035H19.6356C19.7829 19.2035 19.9241 19.1222 20.0283 18.9776C20.1325 18.8329 20.191 18.6367 20.191 18.4321C20.191 18.2275 20.1325 18.0313 20.0283 17.8866C19.9241 17.7419 19.7829 17.6606 19.6356 17.6606Z" fill="#595757"/>
<path d="M14.0809 17.6606H10.7483C10.601 17.6606 10.4597 17.7419 10.3556 17.8866C10.2514 18.0313 10.1929 18.2275 10.1929 18.4321C10.1929 18.6367 10.2514 18.8329 10.3556 18.9776C10.4597 19.1222 10.601 19.2035 10.7483 19.2035H14.0809C14.2282 19.2035 14.3695 19.1222 14.4736 18.9776C14.5778 18.8329 14.6363 18.6367 14.6363 18.4321C14.6363 18.2275 14.5778 18.0313 14.4736 17.8866C14.3695 17.7419 14.2282 17.6606 14.0809 17.6606Z" fill="#595757"/>
<path d="M25.1893 20.9934H21.8567C21.7094 20.9934 21.5681 21.0747 21.464 21.2194C21.3598 21.364 21.3013 21.5602 21.3013 21.7648C21.3013 21.9694 21.3598 22.1656 21.464 22.3103C21.5681 22.455 21.7094 22.5363 21.8567 22.5363H25.1893C25.3366 22.5363 25.4779 22.455 25.582 22.3103C25.6862 22.1656 25.7447 21.9694 25.7447 21.7648C25.7447 21.5602 25.6862 21.364 25.582 21.2194C25.4779 21.0747 25.3366 20.9934 25.1893 20.9934Z" fill="#595757"/>
<path d="M19.6356 20.9934H16.303C16.1557 20.9934 16.0144 21.0747 15.9102 21.2194C15.8061 21.364 15.7476 21.5602 15.7476 21.7648C15.7476 21.9694 15.8061 22.1656 15.9102 22.3103C16.0144 22.455 16.1557 22.5363 16.303 22.5363H19.6356C19.7829 22.5363 19.9241 22.455 20.0283 22.3103C20.1325 22.1656 20.191 21.9694 20.191 21.7648C20.191 21.5602 20.1325 21.364 20.0283 21.2194C19.9241 21.0747 19.7829 20.9934 19.6356 20.9934Z" fill="#595757"/>
<path d="M14.0809 20.9934H10.7483C10.601 20.9934 10.4597 21.0747 10.3556 21.2194C10.2514 21.364 10.1929 21.5602 10.1929 21.7648C10.1929 21.9694 10.2514 22.1656 10.3556 22.3103C10.4597 22.455 10.601 22.5363 10.7483 22.5363H14.0809C14.2282 22.5363 14.3695 22.455 14.4736 22.3103C14.5778 22.1656 14.6363 21.9694 14.6363 21.7648C14.6363 21.5602 14.5778 21.364 14.4736 21.2194C14.3695 21.0747 14.2282 20.9934 14.0809 20.9934Z" fill="#595757"/>
<rect x="7.19971" y="6.42871" width="21.6" height="27.7714" rx="1.5" stroke="#595757" stroke-width="2"/>
<path d="M8.74219 3.30029C8.74219 2.47187 9.41376 1.80029 10.2422 1.80029H25.7565C26.5849 1.80029 27.2565 2.47187 27.2565 3.30029V6.42886H8.74219V3.30029Z" stroke="#595757" stroke-width="2"/>
<path d="M14.9141 27.2144C14.9141 26.3859 15.5856 25.7144 16.4141 25.7144H19.5855C20.4139 25.7144 21.0855 26.3859 21.0855 27.2144V34.2001H14.9141V27.2144Z" stroke="#595757" stroke-width="2"/>
</svg>
