<svg width="13" height="13" viewBox="0 0 13 13" fill="none" xmlns="http://www.w3.org/2000/svg">
<path d="M10.1182 1.64436C10.2358 1.52678 10.2872 1.35845 10.2554 1.19523C10.2236 1.03201 10.1128 0.89528 9.95967 0.830418C9.16161 0.492334 8.27799 0.411164 7.4316 0.598836C6.58532 0.786485 5.8186 1.23331 5.23817 1.87712C4.65773 2.52093 4.29246 3.32969 4.1932 4.19082C4.10965 4.91564 4.21812 5.64715 4.50421 6.31314L1.07534 9.27488C1.06606 9.28289 1.05709 9.29124 1.04842 9.29991C0.697122 9.65162 0.499859 10.1284 0.5 10.6255C0.500142 11.1226 0.697676 11.5993 1.04918 11.9508C1.40068 12.3023 1.87738 12.4999 2.37448 12.5C2.87157 12.5001 3.34838 12.3029 3.70009 11.9516C3.70876 11.9429 3.71711 11.9339 3.72512 11.9247L6.68683 8.49586C7.35286 8.78195 8.08439 8.89035 8.80919 8.8068C9.67031 8.70754 10.4791 8.34226 11.1229 7.76183C11.7667 7.18139 12.2135 6.41467 12.4012 5.5684C12.5888 4.72201 12.5077 3.83839 12.1696 3.04033C12.1047 2.88722 11.968 2.77637 11.8048 2.74459C11.6416 2.7128 11.4732 2.76423 11.3556 2.88181L9.14077 5.09668L8.10956 4.89044L7.90332 3.85923L10.1182 1.64436Z" stroke="#222222" stroke-linecap="round" stroke-linejoin="round"/>
</svg>
