<svg width="104" height="20" viewBox="0 0 104 20" fill="none" xmlns="http://www.w3.org/2000/svg">
<path d="M3.43007 10.6499C3.59204 14.2746 6.73058 16.1233 9.40841 16.1233C11.7947 16.1233 13.5583 14.9683 14.5373 13.0906H18.0646C17.2152 15.07 15.9734 16.5519 14.4725 17.5398C12.9681 18.5604 11.2044 19.0579 9.40841 19.0579C3.59204 19.0579 0 14.3436 0 9.59667C0 4.45382 3.98436 0.0664062 9.37602 0.0664062C11.9243 0.0664062 14.2422 1.02161 15.941 2.70321C18.0322 4.84607 18.914 7.64994 18.6189 10.6499H3.43007ZM15.2572 7.98045C15.0952 5.60515 12.7413 2.93566 9.37602 3.00103C5.91355 3.00103 3.65683 5.53977 3.49486 7.98045H15.2572Z" fill="#5221CB"/>
<path d="M44.1279 3.32791V19.0579H40.7302V3.32791H28.752V0.0664062H63.8661V3.32791H44.1279Z" fill="#5221CB"/>
<path d="M50.1838 6.82422H46.7861V19.0603H50.1838V6.82422Z" fill="#5221CB"/>
<path d="M53.4016 0.0664062H66.7296V3.28796L57.0585 15.7601H67.3163V19.0579H52.8438V15.8364L62.5149 3.32428H53.4016V0.0664062Z" fill="#5221CB"/>
<path d="M28.7468 0.0664062C23.5999 0.0664062 19.4248 4.27585 19.4248 9.47318V19.0616H22.8225V9.62936C22.8225 6.56035 25.0504 3.86907 28.0702 3.5313C31.6442 3.13178 34.6676 5.94655 34.6676 9.46955V19.0579H38.0653V9.47318C38.0653 4.27948 33.8937 0.0664062 28.7432 0.0664062H28.7468Z" fill="#5221CB"/>
<path d="M71.8548 14.546C74.511 16.9939 78.0239 16.0605 79.9171 14.1501C81.6051 12.4467 82.0406 10.3729 81.418 8.34624L83.9122 5.8293C84.6969 7.83414 84.8588 9.76997 84.4881 11.5424C84.1426 13.3366 83.2392 14.9455 81.9687 16.2276C77.8547 20.3789 72.0132 19.609 68.6839 16.2494C65.081 12.6138 64.8255 6.66828 68.6371 2.82203C70.4403 1.00242 72.751 0.0254237 75.1301 0C78.1103 0.0217918 80.6981 1.37651 82.5913 3.70823L71.8476 14.5496L71.8548 14.546ZM78.3478 4.22034C76.5698 2.65859 73.0353 2.44794 70.6994 4.89588C68.252 7.36562 68.4355 10.7724 70.03 12.6138L78.3478 4.22034Z" fill="#5221CB"/>
<path d="M94.6814 0.0664062C89.5345 0.0664062 85.3594 4.27585 85.3594 9.47318V19.0616H88.7571V9.62936C88.7571 6.56035 90.985 3.86907 94.0047 3.5313C97.5788 3.13178 100.602 5.94655 100.602 9.46955V19.0579H104V9.47318C104 4.27948 99.8283 0.0664062 94.6778 0.0664062H94.6814Z" fill="#5221CB"/>
</svg>
