<svg width="227" height="20" viewBox="0 0 227 20" fill="none" xmlns="http://www.w3.org/2000/svg">
<path d="M152.947 12.923C153.065 15.5669 155.355 16.9154 157.308 16.9154C159.049 16.9154 160.335 16.073 161.049 14.7033H163.622C163.002 16.1471 162.097 17.228 161.002 17.9486C159.905 18.6931 158.618 19.056 157.308 19.056C153.065 19.056 150.445 15.6173 150.445 12.1547C150.445 8.40341 153.352 5.20312 157.284 5.20312C159.143 5.20312 160.834 5.89987 162.073 7.12647C163.598 8.68952 164.242 10.7347 164.026 12.923H152.947ZM161.574 10.9758C161.456 9.24321 159.739 7.29602 157.284 7.34371C154.759 7.34371 153.113 9.19553 152.995 10.9758H161.574Z" fill="white"/>
<path d="M182.634 7.58214V19.056H180.155V7.58214H171.418V5.20312H197.031V7.58214H182.634Z" fill="white"/>
<path d="M187.053 10.1328H184.574V19.0581H187.053V10.1328Z" fill="white"/>
<path d="M189.395 5.20312H199.117V7.553L192.063 16.6505H199.545V19.056H188.988V16.7061L196.043 7.57949H189.395V5.20312Z" fill="white"/>
<path d="M171.413 5.20312C167.659 5.20312 164.613 8.27359 164.613 12.0647V19.0586H167.092V12.1786C167.092 9.93996 168.717 7.97688 170.919 7.7305C173.526 7.43908 175.732 9.49224 175.732 12.062V19.056H178.21V12.0647C178.21 8.27624 175.167 5.20312 171.41 5.20312H171.413Z" fill="white"/>
<path d="M202.859 15.7645C204.796 17.5501 207.359 16.8692 208.74 15.4757C209.971 14.2332 210.289 12.7205 209.835 11.2422L211.654 9.40632C212.226 10.8687 212.344 12.2807 212.074 13.5736C211.822 14.8823 211.163 16.0559 210.236 16.9911C207.235 20.0192 202.974 19.4575 200.546 17.007C197.918 14.3551 197.732 10.0183 200.512 7.21276C201.827 5.88549 203.513 5.17284 205.248 5.1543C207.422 5.17019 209.309 6.15836 210.69 7.85917L202.854 15.7671L202.859 15.7645ZM207.595 8.23271C206.298 7.09354 203.72 6.93988 202.016 8.72547C200.231 10.527 200.365 13.0119 201.528 14.3551L207.595 8.23271V8.23271Z" fill="white"/>
<path d="M219.507 5.20312C215.752 5.20312 212.707 8.27359 212.707 12.0647V19.0586H215.185V12.1786C215.185 9.93996 216.81 7.97688 219.013 7.7305C221.62 7.43908 223.825 9.49224 223.825 12.062V19.056H226.304V12.0647C226.304 8.27624 223.261 5.20312 219.504 5.20312H219.507Z" fill="white"/>
<g clip-path="url(#clip0_1691_904)">
<path d="M31.9707 2.02148H23.4811C18.551 2.02148 16.336 5.29645 16.336 7.63097C16.336 9.96548 18.2329 11.7704 23.1295 11.7704L24.1294 11.7751C25.2082 11.7751 25.8086 11.9248 25.8254 12.642C25.8326 13.0362 25.5623 13.4969 25.2704 13.7225C24.6126 14.2284 24.0313 14.2806 20.9336 14.2806H5.6481L8.60233 2.03573H3.49282C3.15075 2.03573 3.02397 2.1331 2.9235 2.53683L0.122366 14.0123C-0.403894 16.2946 0.780191 18.3821 3.42584 18.3821H10.4371C12.212 18.3821 14.5897 16.456 15.5537 14.6773C15.6064 14.5775 15.6399 14.5158 15.6805 14.435C15.6805 14.435 15.7021 14.4089 15.7068 14.4445C15.5537 15.0857 15.0155 17.3442 14.9294 17.7147C14.817 18.1945 15.0682 18.3773 15.3002 18.3773H22.8424C29.2389 18.3773 31.7362 15.3541 31.9563 11.7253C32.0783 9.68524 30.7794 8.36718 27.1052 8.36718H24.2825C23.2778 8.36718 22.2492 8.03945 22.2492 7.23198C22.2492 6.42452 23.3687 5.71918 24.8805 5.71918H31.7482C31.7482 5.71918 32.3486 3.33005 32.4682 2.83132C32.6165 2.20435 32.4276 2.02148 31.9659 2.02148" fill="white"/>
<path d="M34.102 3.5837L41.1324 0H27.4688C27.4688 0 33.3868 1.19694 33.913 1.30144C34.4417 1.40831 34.5613 1.68854 34.4704 2.05903C34.3867 2.40813 34.102 3.58133 34.102 3.58133" fill="white"/>
<path d="M68.0852 12.1097L68.3364 11.0956C68.4871 10.5185 68.1139 10.2383 67.7359 10.2383H59.6387C59.1938 10.2383 59.0885 10.3499 58.9952 10.7323L57.5959 16.5032L57.3758 17.4081C57.2347 17.9234 57.3614 18.3746 58.0288 18.3746H65.8964C66.5255 18.3746 66.8174 17.9804 66.9465 17.5149L67.1929 16.5032H59.8612L60.1841 15.1709H65.3247C65.9538 15.1709 66.2457 14.7767 66.3748 14.3112L66.6212 13.2995H60.6386L60.928 12.1097H68.09H68.0852Z" fill="white"/>
<path d="M51.0574 10.2402H49.3184C48.8759 10.2402 48.7682 10.3519 48.6749 10.7342L47.0555 17.4124C46.9143 17.9277 47.0411 18.379 47.7085 18.379H55.4852C56.1143 18.379 56.4062 17.9847 56.5353 17.5193L56.7817 16.5076H49.5385L51.0574 10.2426V10.2402Z" fill="white"/>
<path d="M115.502 10.2407H110.019C107.819 10.2407 106.592 11.0932 106.075 13.1356L105.594 15.1115C105.206 16.8428 105.673 18.377 108.079 18.377H113.751C114.38 18.377 114.672 17.9828 114.799 17.5173L115.045 16.5056H108.926C107.871 16.5056 107.666 15.995 107.831 15.216L108.23 13.5322C108.505 12.4541 109.436 12.1097 110.206 12.1097H115.854L116.105 11.0956C116.256 10.5185 115.882 10.2383 115.504 10.2383L115.502 10.2407Z" fill="white"/>
<path d="M78.1622 10.2407H72.6795C70.4788 10.2407 69.2517 11.0932 68.735 13.1356L68.2542 15.1115C67.8666 16.8428 68.3331 18.377 70.7395 18.377H76.4112C77.0403 18.377 77.3322 17.9828 77.4589 17.5173L77.7053 16.5056H71.5864C70.5314 16.5056 70.3257 15.995 70.4908 15.216L70.8903 13.5322C71.1653 12.4541 72.0959 12.1097 72.8661 12.1097H78.5115L78.7626 11.0956C78.9133 10.5185 78.5402 10.2383 78.1622 10.2383V10.2407Z" fill="white"/>
<path d="M104.687 10.2402H102.993L101.247 17.4124C101.106 17.9277 101.233 18.379 101.9 18.379H103.522L105.287 11.0999C105.438 10.5228 105.065 10.2426 104.687 10.2426V10.2402Z" fill="white"/>
<path d="M90.2559 11.0976C90.4066 10.5205 90.0335 10.2402 89.6555 10.2402H80.2761C79.8336 10.2402 79.7259 10.3519 79.6326 10.7342L79.293 12.1116H83.4241L82.1372 17.4124C81.996 17.9277 82.1228 18.379 82.7902 18.379H84.302L85.821 12.114H90.0071L90.2583 11.0999L90.2559 11.0976Z" fill="white"/>
<path d="M98.2663 10.2402H91.767C91.3244 10.2402 91.2168 10.3519 91.1235 10.7342L89.4969 17.4124C89.3558 17.9277 89.4825 18.379 90.1499 18.379H91.5278L93.0467 12.114H97.8357C99.4097 12.114 99.0629 14.2847 97.2114 14.2847H93.762C93.4199 14.2847 93.2907 14.6314 93.5204 14.8784L94.7021 16.1561L96.1708 17.7425C96.6325 18.2578 96.7545 18.3813 97.4219 18.3813H99.7279L97.5798 16.1418C101.78 15.845 102.744 10.245 98.2663 10.245V10.2402Z" fill="white"/>
<path d="M47.26 8.12305H37.0505C36.4908 8.12305 36.3568 8.26316 36.2396 8.74527L34.4742 16.0219L34.1944 17.1619C34.015 17.8126 34.1776 18.3802 35.0172 18.3802H44.9349C45.729 18.3802 46.095 17.8838 46.2577 17.2972L46.5017 16.3045H36.9644L37.4404 14.3405H44.2124C45.0066 14.3405 45.3726 13.8441 45.5353 13.2576L45.8462 11.9822H38.0121L38.4451 10.1987H47.7671L48.0135 9.20362C48.2025 8.4769 47.7312 8.12305 47.2552 8.12305H47.26Z" fill="white"/>
</g>
<path d="M128.75 7.50781L137.832 16.5875M128.75 16.5875L137.832 7.50781" stroke="white"/>
<defs>
<clipPath id="clip0_1691_904">
<rect width="116.138" height="18.3816" fill="white"/>
</clipPath>
</defs>
</svg>
