<svg width="44" height="44" viewBox="0 0 44 44" fill="none" xmlns="http://www.w3.org/2000/svg">
<circle cx="22" cy="22" r="21.5" fill="white" stroke="#E2E5ED"/>
<path d="M33.2339 19.5904H22.5474V23.9791H28.6536C28.3902 25.398 27.5914 26.5988 26.3893 27.404L30.056 30.2505C32.2019 28.2747 33.4393 25.3665 33.4393 21.9101C33.4393 21.105 33.3675 20.3313 33.2326 19.5891L33.2339 19.5904Z" fill="#3E82F1"/>
<path d="M26.3883 27.404C25.3727 28.0845 24.0723 28.4877 22.5464 28.4877C19.5916 28.4877 17.0891 26.4917 16.197 23.8091L12.4067 26.7488C14.2741 30.4571 18.111 32.9999 22.5464 32.9999C25.6096 32.9999 28.1789 31.9843 30.0564 30.2505L26.3896 27.404H26.3883Z" fill="#32A753"/>
<path d="M16.1971 19.4976L12.4068 16.5579C11.6382 18.0901 11.1997 19.8227 11.1997 21.6535C11.1997 23.4844 11.6382 25.217 12.4068 26.7492L16.1971 23.8095C15.9703 23.1291 15.8418 22.402 15.8418 21.6535C15.8418 20.9051 15.9703 20.178 16.1971 19.4976Z" fill="#F9BB00"/>
<path d="M22.5464 10.3066C18.111 10.3066 14.2741 12.8494 12.4067 16.5578L16.197 19.4975C17.0891 16.8161 19.5903 14.8189 22.5464 14.8189C24.2122 14.8189 25.7079 15.391 26.8835 16.5162L30.1383 13.2615C28.1738 11.4306 25.6046 10.3066 22.5464 10.3066Z" fill="#E74133"/>
</svg>
