<svg width="197" height="57" viewBox="0 0 197 57" fill="none" xmlns="http://www.w3.org/2000/svg">
<rect y="0.429688" width="197" height="56" rx="28" fill="#222222"/>
<g clip-path="url(#clip0_11480_106762)">
<path d="M45.0067 31.7489C47.2428 30.5212 48.9379 29.5856 49.084 29.5129C49.5514 29.2643 50.0341 28.6064 49.084 28.0954C48.7773 27.9347 47.1257 27.0283 45.0067 25.8594L42.0693 28.826L45.0067 31.7489V31.7489Z" fill="#FFD900"/>
<path d="M42.0693 28.8281L32.716 38.2548C32.9355 38.2839 33.1834 38.2257 33.4756 38.065C34.0891 37.7292 40.5929 34.1775 45.0067 31.7518L42.0693 28.8281Z" fill="#F43249"/>
<path d="M42.0693 28.8289L45.0067 25.8769C45.0067 25.8769 34.1335 19.9429 33.4756 19.5926C33.2278 19.4458 32.95 19.4022 32.7015 19.4458L42.0693 28.8289Z" fill="#00EE76"/>
<path d="M42.0693 28.8284L32.7015 19.4453C32.3213 19.5332 32 19.8691 32 20.556V37.1443C32 37.7731 32.2486 38.2259 32.716 38.2696L42.0693 28.8284Z" fill="#00D3FF"/>
</g>
<path d="M64.18 35.7097C66.26 35.7097 67.96 34.9097 68.98 33.9297V27.2497H63.72V29.6697H66.34V32.5897C65.92 32.9697 65.2 33.1497 64.48 33.1497C61.58 33.1497 60.1 31.2097 60.1 27.9897C60.1 24.8097 61.82 22.8897 64.28 22.8897C65.64 22.8897 66.46 23.4297 67.18 24.1297L68.76 22.2497C67.8 21.2697 66.32 20.3497 64.18 20.3497C60.26 20.3497 57.08 23.2097 57.08 28.0897C57.08 33.0297 60.12 35.7097 64.18 35.7097ZM76.1959 35.7097C78.9959 35.7097 81.5759 33.5297 81.5759 29.8497C81.5759 26.1097 78.9959 23.9497 76.1959 23.9497C73.3959 23.9497 70.8159 26.1097 70.8159 29.8497C70.8159 33.5297 73.3959 35.7097 76.1959 35.7097ZM76.1959 33.3097C74.6759 33.3097 73.8159 31.9497 73.8159 29.8497C73.8159 27.6897 74.6759 26.3497 76.1959 26.3497C77.7159 26.3497 78.5759 27.6897 78.5759 29.8497C78.5759 31.9497 77.7159 33.3097 76.1959 33.3097ZM88.3155 35.7097C91.1155 35.7097 93.6955 33.5297 93.6955 29.8497C93.6955 26.1097 91.1155 23.9497 88.3155 23.9497C85.5155 23.9497 82.9355 26.1097 82.9355 29.8497C82.9355 33.5297 85.5155 35.7097 88.3155 35.7097ZM88.3155 33.3097C86.7955 33.3097 85.9355 31.9497 85.9355 29.8497C85.9355 27.6897 86.7955 26.3497 88.3155 26.3497C89.8355 26.3497 90.6955 27.6897 90.6955 29.8497C90.6955 31.9497 89.8355 33.3097 88.3155 33.3097ZM99.695 40.2897C103.455 40.2897 105.775 38.5697 105.775 36.3097C105.775 34.3097 104.355 33.5097 101.615 33.5097H99.715C98.355 33.5097 97.955 33.2097 97.955 32.5897C97.955 32.1297 98.115 31.8897 98.435 31.6297C98.915 31.7897 99.415 31.8897 99.875 31.8897C102.275 31.8897 104.195 30.5897 104.195 28.0897C104.195 27.3897 103.975 26.7697 103.675 26.3897H105.595V24.2297H101.555C101.095 24.0697 100.495 23.9497 99.875 23.9497C97.495 23.9497 95.355 25.3697 95.355 28.0097C95.355 29.3097 96.055 30.3697 96.835 30.9297V31.0097C96.175 31.4897 95.595 32.2497 95.595 33.1097C95.595 34.0497 96.035 34.6097 96.615 34.9897V35.0897C95.595 35.6697 95.015 36.4697 95.015 37.4097C95.015 39.3897 97.055 40.2897 99.695 40.2897ZM99.875 30.0697C98.895 30.0697 98.115 29.3697 98.115 28.0097C98.115 26.6497 98.855 25.9497 99.875 25.9497C100.895 25.9497 101.615 26.6497 101.615 28.0097C101.615 29.3697 100.855 30.0697 99.875 30.0697ZM100.135 38.4297C98.455 38.4297 97.455 37.8897 97.455 36.9497C97.455 36.4897 97.695 36.0497 98.195 35.6497C98.595 35.7497 99.055 35.8097 99.755 35.8097H101.115C102.315 35.8097 102.975 36.0097 102.975 36.8097C102.975 37.6897 101.815 38.4297 100.135 38.4297ZM107.289 19.4697V35.4297H110.209V19.4697H107.289ZM118.057 35.7097C119.497 35.7097 120.857 35.2497 121.977 34.4697L120.977 32.6697C120.177 33.1697 119.397 33.4497 118.457 33.4497C116.777 33.4497 115.597 32.4897 115.357 30.6497H122.257C122.337 30.3897 122.397 29.8497 122.397 29.3097C122.397 26.2097 120.797 23.9497 117.717 23.9497C115.057 23.9497 112.497 26.2297 112.497 29.8497C112.497 33.5297 114.937 35.7097 118.057 35.7097ZM119.877 28.7097H115.317C115.537 27.0897 116.577 26.2297 117.757 26.2297C119.197 26.2297 119.877 27.1897 119.877 28.7097ZM133.65 20.6297H128.79V35.4297H131.75V30.1697H133.73C136.91 30.1697 139.45 28.6497 139.45 25.2697C139.45 21.7497 136.91 20.6297 133.65 20.6297ZM133.53 27.8297H131.75V22.9697H133.43C135.49 22.9697 136.55 23.5297 136.55 25.2697C136.55 26.9697 135.55 27.8297 133.53 27.8297ZM141.489 19.4697V35.4297H144.409V19.4697H141.489ZM150.158 35.6297C151.438 35.6297 152.578 35.1097 153.538 34.2897H153.598L153.818 35.4297H156.218V28.8897C156.218 25.5897 154.778 23.9497 151.918 23.9497C150.158 23.9497 148.478 24.5297 147.258 25.2697L148.138 27.3697C149.158 26.7097 150.338 26.3097 151.378 26.3097C152.238 26.3097 152.778 26.4897 153.018 26.8297C153.238 27.2897 153.338 27.7697 153.278 28.2497C148.638 28.3897 146.698 29.6497 146.838 32.3897C146.838 34.3297 148.158 35.6297 150.158 35.6297ZM151.058 33.3897C150.198 33.3897 149.558 32.8297 149.538 31.8897C149.518 31.0897 149.978 30.4497 151.258 30.2697C151.898 30.1697 152.578 30.1097 153.278 30.0497V32.3097C152.578 33.0097 151.918 33.3697 151.058 33.3897ZM160.274 39.9297H163.174L164.554 35.7497L168.434 24.2297H165.614L164.074 29.4297C163.814 30.4697 163.534 31.5497 163.274 32.5897H163.174C162.854 31.4697 162.574 30.4497 162.234 29.4297L160.454 24.2297H157.494L161.834 35.4897L160.274 39.9297Z" fill="white"/>
<defs>
<clipPath id="clip0_11480_106762">
<rect width="17.635" height="18.875" fill="white" transform="translate(32 19.4297)"/>
</clipPath>
</defs>
</svg>
