<svg width="12" height="12" viewBox="0 0 12 12" fill="none" xmlns="http://www.w3.org/2000/svg">
<path d="M6.63633 5.74397L8.60766 3.77263L2.24033 0.193967C1.81833 -0.0340328 1.42299 -0.0660327 1.07633 0.183301L6.63633 5.74397ZM8.94366 8.05197L10.993 6.8993C11.393 6.6753 11.6123 6.35797 11.6123 6.00597C11.6123 5.65463 11.393 5.33663 10.9937 5.11263L9.13833 4.07063L7.04966 6.15863L8.94366 8.05197ZM0.733659 0.667967C0.690992 0.7993 0.666992 0.945967 0.666992 1.10663V10.91C0.666992 11.164 0.722992 11.3826 0.824326 11.5566L6.22233 6.15797L0.733659 0.667967ZM6.63633 6.5713L1.26833 11.94C1.37099 11.9793 1.48166 12 1.59833 12C1.80633 12 2.02299 11.9386 2.24366 11.816L8.41366 8.3513L6.63633 6.5713Z" fill="white"/>
</svg>
