<svg width="50" height="50" viewBox="0 0 50 50" fill="none" xmlns="http://www.w3.org/2000/svg">
<path d="M47.7809 22.6152H2.22095V46.6452H47.7809V22.6152Z" fill="#EEEDED"/>
<path d="M44.2746 12.0692L48.8831 22.0669C49.001 22.3227 48.8141 22.6147 48.5324 22.6147H1.73804C1.45634 22.6147 1.26944 22.3228 1.38734 22.0669L5.99584 12.0692C6.05894 11.9324 6.19584 11.8447 6.34654 11.8447H43.9239C44.0746 11.8447 44.2115 11.9323 44.2746 12.0692Z" fill="#E9715F"/>
<path d="M28.149 40.835H21.855V46.644H28.149V40.835Z" fill="#696967"/>
<path d="M28.54 39.6074L28.149 40.8354H21.852L21.46 39.6074H28.54Z" fill="#696967"/>
<path d="M28.4475 39.6053H21.4611C21.4611 39.6053 22.7119 39.1603 23.09 38.7153C23.5242 38.2055 24.5331 37.6697 24.9543 37.8814C25.3756 37.6697 26.3844 38.2054 26.8186 38.7153C27.1967 39.1603 28.4475 39.6053 28.4475 39.6053Z" fill="#444445"/>
<path d="M26.8084 40.6926V46.6441H23.1531V40.6926C24.3113 39.9137 25.5325 39.9502 26.8084 40.6926Z" fill="#EEEDED"/>
<path d="M26.4655 41.5492V40.8946C25.9278 40.6093 25.4068 40.4648 24.9143 40.4648C24.424 40.4648 23.9586 40.6011 23.4967 40.8807V41.5493H26.4655V41.5492Z" fill="#CDCCCC"/>
<path d="M26.086 42.2812H23.875V46.6443H26.086V42.2812Z" fill="#CDCCCC"/>
<path d="M27.044 41.8018H22.96V42.0308H27.044V41.8018Z" fill="#CDCCCC"/>
<path d="M12.743 25.1992H7.19897V32.0312H12.743V25.1992Z" fill="white"/>
<path d="M13.433 23.6689L12.743 25.1989H7.19903L6.50903 23.6689H13.433Z" fill="#896A9D"/>
<path d="M13.018 32.0312H6.92603V32.8752H13.018V32.0312Z" fill="#896A9D"/>
<path d="M12.393 25.8877H10.366V28.3577H12.393V25.8877Z" fill="#35A9D9"/>
<path d="M9.57595 28.873H7.54895V31.343H9.57595V28.873Z" fill="#35A9D9"/>
<path d="M12.393 28.873H10.366V31.343H12.393V28.873Z" fill="#35A9D9"/>
<path d="M9.57595 25.8877H7.54895V28.3577H9.57595V25.8877Z" fill="#35A9D9"/>
<path d="M27.9061 25.1992H22.3621V32.0312H27.9061V25.1992Z" fill="white"/>
<path d="M28.596 23.6689L27.906 25.1989H22.362L21.672 23.6689H28.596Z" fill="#896A9D"/>
<path d="M28.181 32.0312H22.089V32.8752H28.181V32.0312Z" fill="#896A9D"/>
<path d="M27.5561 25.8877H25.5291V28.3577H27.5561V25.8877Z" fill="#35A9D9"/>
<path d="M24.739 28.873H22.712V31.343H24.739V28.873Z" fill="#35A9D9"/>
<path d="M27.5561 28.873H25.5291V31.343H27.5561V28.873Z" fill="#35A9D9"/>
<path d="M24.739 25.8877H22.712V28.3577H24.739V25.8877Z" fill="#35A9D9"/>
<path d="M43.069 25.1992H37.525V32.0312H43.069V25.1992Z" fill="white"/>
<path d="M43.759 23.6689L43.069 25.1989H37.525L36.834 23.6689H43.759Z" fill="#896A9D"/>
<path d="M43.344 32.0312H37.252V32.8752H43.344V32.0312Z" fill="#896A9D"/>
<path d="M42.719 25.8877H40.692V28.3577H42.719V25.8877Z" fill="#35A9D9"/>
<path d="M39.902 28.873H37.875V31.343H39.902V28.873Z" fill="#35A9D9"/>
<path d="M42.719 28.873H40.692V31.343H42.719V28.873Z" fill="#35A9D9"/>
<path d="M39.902 25.8877H37.875V28.3577H39.902V25.8877Z" fill="#35A9D9"/>
<path d="M49.136 37.2891H1.349L6.341 34.1631H44.144L49.136 37.2891Z" fill="#F4887F"/>
<path d="M49.136 46.6436H0.86499V48.1546H49.136V46.6436Z" fill="#CDCCCC"/>
<path d="M45.291 38.2021H40.866V45.8601H45.291V38.2021Z" fill="white"/>
<path d="M44.9201 38.6299H41.2371V45.4309H44.9201V38.6299Z" fill="#35A9D9"/>
<path d="M45.167 38.6309V40.2209H41.057V39.7209H42.737V38.6309H43.237V39.7209H44.667V38.6309H45.167Z" fill="white"/>
<path d="M37.137 38.2021H32.712V45.8601H37.137V38.2021Z" fill="white"/>
<path d="M36.766 38.6299H33.083V45.4309H36.766V38.6299Z" fill="#35A9D9"/>
<path d="M37.013 38.6309V40.2209H32.903V39.7209H34.583V38.6309H35.083V39.7209H36.513V38.6309H37.013Z" fill="white"/>
<path d="M17.961 38.2021H13.536V45.8601H17.961V38.2021Z" fill="white"/>
<path d="M17.59 38.6299H13.907V45.4309H17.59V38.6299Z" fill="#35A9D9"/>
<path d="M17.8371 38.6309V40.2209H13.7271V39.7209H15.4071V38.6309H15.9071V39.7209H17.3371V38.6309H17.8371Z" fill="white"/>
<path d="M9.80696 38.2021H5.38196V45.8601H9.80696V38.2021Z" fill="white"/>
<path d="M9.43605 38.6299H5.75305V45.4309H9.43605V38.6299Z" fill="#35A9D9"/>
<path d="M9.683 38.6309V40.2209H5.573V39.7209H7.253V38.6309H7.753V39.7209H9.183V38.6309H9.683Z" fill="white"/>
<path d="M10.901 13.3848H6.51099V14.6848H10.901V13.3848Z" fill="#D75548"/>
<path d="M13.0961 14.6846H8.70605V15.9846H13.0961V14.6846Z" fill="#D75548"/>
<path d="M22.712 18.0088H18.322V19.3088H22.712V18.0088Z" fill="#D75548"/>
<path d="M46.011 19.4873H41.621V20.7873H46.011V19.4873Z" fill="#D75548"/>
</svg>
