<svg width="50" height="50" viewBox="0 0 50 50" fill="none" xmlns="http://www.w3.org/2000/svg">
<path d="M44 47V33.3161L32.87 23H17.1291L6 33.3161V47H44Z" fill="#D14A2F"/>
<path d="M44 47V33.3161L32.87 23H17.1291L6 33.3161" fill="#BC3C1E"/>
<path d="M43 33L32.525 23H17.4741L7 33H43Z" fill="#931C0C"/>
<path d="M17.4741 23L7 33H43" fill="#AA2D15"/>
<path d="M17.1291 23L6 33.438V35H6.17462L17.1291 24.724H32.87L43.8254 35H44V33.438L32.87 23H17.1291Z" fill="#7F1105"/>
<path d="M47 32.0936C46.8271 31.6247 46.5386 31.1977 46.1565 30.845L35.2557 20.957C34.9215 20.6536 34.5247 20.4129 34.0878 20.2487C33.651 20.0845 33.1828 20 32.7099 20H17.291C16.8181 19.9999 16.3498 20.0843 15.913 20.2486C15.4762 20.4128 15.0793 20.6535 14.7452 20.957L3.84441 30.845C3.45371 31.1986 3.17824 31.629 3 32.0928C3.25088 32.3751 3.56809 32.6031 3.92847 32.76C4.28886 32.917 4.68334 32.999 5.08311 33H6.56037L17.291 23.2655H32.709L43.4396 33H44.9187C45.3181 32.999 45.7123 32.9171 46.0723 32.7603C46.4324 32.6035 46.7494 32.3757 47 32.0936Z" fill="#470E0E"/>
<path d="M32.7732 22H17.225C16.7482 21.9999 16.276 22.0867 15.8354 22.2554C15.3949 22.4242 14.9947 22.6716 14.6577 22.9835L4 32.8347C4.28687 32.932 4.59008 33 4.91508 33H6.4048L17.2259 22.9961H32.7741L43.5952 33H45.0867C45.4108 33 45.7122 32.9329 46 32.8347L35.3423 22.9835C35.0049 22.6717 34.6043 22.4243 34.1635 22.2556C33.7227 22.0868 33.2503 22 32.7732 22Z" fill="#260707"/>
<path d="M30.3575 47H19.6434C19.4729 46.9996 19.3095 46.9373 19.189 46.8268C19.0684 46.7163 19.0005 46.5665 19 46.4103V36.5897C19 36.2657 19.2889 36 19.6434 36H30.3566C30.7138 36 31 36.2657 31 36.5897V46.4103C31 46.5665 30.9323 46.7164 30.8119 46.827C30.6914 46.9376 30.528 46.9998 30.3575 47ZM20.2868 45.8205H29.7141V37.1786H20.2868V45.8205Z" fill="#AA2D15"/>
<path d="M20.594 47C20.4365 46.9996 20.2854 46.9316 20.1728 46.8105C20.0621 46.6866 20 46.5198 20 46.346C20 46.1722 20.0621 46.0054 20.1728 45.8815L28.9809 36.1921C29.0364 36.1311 29.1022 36.0828 29.1747 36.0499C29.2471 36.0169 29.3248 36 29.4032 36C29.4816 36 29.5592 36.0171 29.6317 36.0501C29.7041 36.0831 29.7699 36.1315 29.8253 36.1925C29.8807 36.2535 29.9247 36.326 29.9547 36.4056C29.9846 36.4853 30 36.5707 30 36.6569C30 36.7432 29.9845 36.8285 29.9544 36.9082C29.9244 36.9878 29.8804 37.0602 29.8249 37.1211L21.0185 46.8105C20.9044 46.9314 20.7524 46.9992 20.594 47Z" fill="#AA2D15"/>
<path d="M29.4061 47C29.2477 46.9995 29.0955 46.9316 28.9816 46.8105L20.1729 37.121C20.0621 36.9971 20 36.8303 20 36.6565C20 36.4828 20.0621 36.3159 20.1729 36.192C20.2852 36.069 20.4372 36 20.5957 36C20.7542 36 20.9063 36.069 21.0186 36.192L29.8257 45.8815C29.9088 45.973 29.9655 46.0896 29.9885 46.2165C30.0115 46.3434 29.9998 46.4749 29.955 46.5945C29.9101 46.7141 29.834 46.8165 29.7364 46.8886C29.6387 46.9608 29.5238 46.9995 29.4061 47Z" fill="#AA2D15"/>
<path d="M44 47.5C44 47.6326 43.9296 47.7598 43.8044 47.8536C43.6791 47.9473 43.5092 48 43.332 48H6.66798C6.49082 48 6.32092 47.9473 6.19565 47.8536C6.07038 47.7598 6 47.6326 6 47.5C6 47.3674 6.07038 47.2402 6.19565 47.1464C6.32092 47.0527 6.49082 47 6.66798 47H43.332C43.5092 47 43.6791 47.0527 43.8044 47.1464C43.9296 47.2402 44 47.3674 44 47.5Z" fill="#AA2D15"/>
</svg>
