<svg width="50" height="50" viewBox="0 0 50 50" fill="none" xmlns="http://www.w3.org/2000/svg">
<path d="M21.4172 23.645L12.0422 14.27C11.7492 13.9771 11.3518 13.8125 10.9375 13.8125C10.5232 13.8125 10.1258 13.9771 9.83281 14.27L0.457813 23.645C0.164767 23.9379 8.84959e-05 24.3353 0 24.7497L0 46.6247C0 47.0391 0.16462 47.4365 0.457646 47.7295C0.750671 48.0225 1.1481 48.1872 1.5625 48.1872H21.875V24.7497C21.8749 24.3353 21.7102 23.9379 21.4172 23.645Z" fill="url(#paint0_linear_556_1560)"/>
<path d="M7.8125 27.875C6.95312 27.875 6.25 28.5781 6.25 29.4375V32.5625C6.25 33.4219 6.95312 34.125 7.8125 34.125H14.0625C14.9219 34.125 15.625 33.4219 15.625 32.5625V29.4375C15.625 28.5781 14.9219 27.875 14.0625 27.875H7.8125Z" fill="url(#paint1_linear_556_1560)"/>
<path d="M49.5422 23.6453L40.1672 14.2703C39.8742 13.9773 39.4769 13.8126 39.0625 13.8125H10.9375C11.3519 13.8126 11.7492 13.9773 12.0422 14.2703L21.4172 23.6453C21.7102 23.9383 21.8749 24.3356 21.875 24.75H50C49.9999 24.3356 49.8352 23.9383 49.5422 23.6453Z" fill="url(#paint2_linear_556_1560)"/>
<path d="M21.875 24.75V48.1875H48.4375C48.8519 48.1875 49.2493 48.0229 49.5424 47.7299C49.8354 47.4368 50 47.0394 50 46.625V24.75H21.875Z" fill="url(#paint3_linear_556_1560)"/>
<path d="M29.6875 31H37.5V40.375H29.6875V31Z" fill="url(#paint4_linear_556_1560)"/>
<path d="M37.5 31H45.3125V40.375H37.5V31Z" fill="url(#paint5_linear_556_1560)"/>
<path d="M15.625 38.8125C15.625 37.9531 14.9219 37.25 14.0625 37.25H7.8125C6.95312 37.25 6.25 37.9531 6.25 38.8125V48.1875H15.625V38.8125Z" fill="url(#paint6_linear_556_1560)"/>
<defs>
<linearGradient id="paint0_linear_556_1560" x1="-0.0937504" y1="47.1778" x2="22.4281" y2="24.6559" gradientUnits="userSpaceOnUse">
<stop stop-color="#AA283C"/>
<stop offset="1" stop-color="#FF468C"/>
</linearGradient>
<linearGradient id="paint1_linear_556_1560" x1="7.49141" y1="34.4484" x2="14.3859" y2="27.5539" gradientUnits="userSpaceOnUse">
<stop stop-color="#FFC8AA"/>
<stop offset="1" stop-color="#FFDCD2"/>
</linearGradient>
<linearGradient id="paint2_linear_556_1560" x1="23.4383" y1="26.3133" x2="37.8242" y2="11.9273" gradientUnits="userSpaceOnUse">
<stop stop-color="#5A3C3C"/>
<stop offset="1" stop-color="#7D324F"/>
</linearGradient>
<linearGradient id="paint3_linear_556_1560" x1="22.8187" y1="49.1312" x2="48.6" y2="23.35" gradientUnits="userSpaceOnUse">
<stop stop-color="#FF5A5A"/>
<stop offset="1" stop-color="#FF8296"/>
</linearGradient>
<linearGradient id="paint4_linear_556_1560" x1="29.2969" y1="39.9844" x2="37.8906" y2="31.3906" gradientUnits="userSpaceOnUse">
<stop stop-color="#AA283C"/>
<stop offset="1" stop-color="#FF468C"/>
</linearGradient>
<linearGradient id="paint5_linear_556_1560" x1="37.1094" y1="39.9844" x2="45.7031" y2="31.3906" gradientUnits="userSpaceOnUse">
<stop stop-color="#FFC8AA"/>
<stop offset="1" stop-color="#FFDCD2"/>
</linearGradient>
<linearGradient id="paint6_linear_556_1560" x1="6.08906" y1="48.0266" x2="15.7859" y2="38.3297" gradientUnits="userSpaceOnUse">
<stop stop-color="#FF5A5A"/>
<stop offset="1" stop-color="#FF8296"/>
</linearGradient>
</defs>
</svg>
