<svg width="44" height="44" viewBox="0 0 44 44" fill="none" xmlns="http://www.w3.org/2000/svg">
<circle cx="22" cy="22" r="22" fill="#FFE812"/>
<path d="M22.4135 10.6709C15.3393 10.6709 9.60449 15.2079 9.60449 20.8045C9.60449 24.4228 12.002 27.5977 15.6085 29.3905C15.4123 30.0695 14.3477 33.7583 14.3052 34.0482C14.3052 34.0482 14.2798 34.2658 14.4203 34.3489C14.5609 34.432 14.7261 34.3675 14.7261 34.3675C15.1291 34.311 19.3993 31.3013 20.1385 30.7787C20.8768 30.8836 21.6371 30.9381 22.4135 30.9381C29.4878 30.9381 35.2225 26.4012 35.2225 20.8045C35.2225 15.2079 29.4878 10.6709 22.4135 10.6709Z" fill="#381F1F"/>
</svg>
