<svg width="6" height="11" viewBox="0 0 6 11" fill="none" xmlns="http://www.w3.org/2000/svg">
<path d="M4.81106 10.2719L0.152082 5.62672C0.0967825 5.57142 0.05752 5.51151 0.0342942 5.447C0.0110684 5.38248 -0.000360022 5.31336 8.64062e-06 5.23962C8.64062e-06 5.16589 0.0114371 5.09677 0.0342942 5.03225C0.0571513 4.96774 0.0964138 4.90783 0.152082 4.85253L4.81106 0.193548C4.94009 0.064516 5.10138 0 5.29493 0C5.48848 0 5.65438 0.0691243 5.79263 0.207373C5.93088 0.345622 6 0.506912 6 0.691243C6 0.875575 5.93088 1.03686 5.79263 1.17511L1.72812 5.23962L5.79263 9.30413C5.92166 9.43317 5.98618 9.59224 5.98618 9.78137C5.98618 9.97049 5.91705 10.134 5.7788 10.2719C5.64055 10.4101 5.47926 10.4792 5.29493 10.4792C5.1106 10.4792 4.94931 10.4101 4.81106 10.2719Z" fill="black"/>
</svg>
