<svg width="16" height="14" viewBox="0 0 16 14" fill="none" xmlns="http://www.w3.org/2000/svg">
<path d="M15.9163 4.07333V11.0625C15.9163 12.2708 14.9372 13.25 13.7288 13.25H2.27051C1.69035 13.25 1.13395 13.0195 0.723712 12.6093C0.313476 12.1991 0.0830078 11.6427 0.0830078 11.0625V4.07333L7.74884 8.29C7.90509 8.37583 8.09467 8.37583 8.25051 8.29L15.9163 4.07292V4.07333ZM13.7288 0.75C14.2999 0.750053 14.8483 0.973397 15.2568 1.37232C15.6654 1.77125 15.9018 2.31413 15.9155 2.885L7.99967 7.23917L0.0838411 2.88458L0.0846746 2.84708C0.108009 2.28302 0.348511 1.74983 0.755887 1.35899C1.16326 0.968155 1.70597 0.749948 2.27051 0.75H13.7288Z" fill="#222222"/>
</svg>
