<svg width="53" height="52" viewBox="0 0 53 52" fill="none" xmlns="http://www.w3.org/2000/svg">
<g filter="url(#filter0_d_10756_89236)">
<rect x="10.5" y="10" width="32" height="32" rx="4" fill="white"/>
<path d="M27.6881 25.4367C27.5224 25.4367 27.3634 25.3709 27.2462 25.2537C27.1291 25.1365 27.0632 24.9776 27.0632 24.8119C27.0632 24.6461 27.1291 24.4872 27.2462 24.37L32.3662 19.25H28.9062C28.7405 19.25 28.5815 19.1842 28.4643 19.0669C28.3471 18.9497 28.2812 18.7908 28.2812 18.625C28.2812 18.4592 28.3471 18.3003 28.4643 18.1831C28.5815 18.0658 28.7405 18 28.9062 18H33.875C34.0407 18 34.1997 18.0658 34.3169 18.1831C34.4341 18.3003 34.5 18.4592 34.5 18.625V23.5937C34.5 23.7595 34.4341 23.9185 34.3169 24.0357C34.1997 24.1529 34.0407 24.2187 33.875 24.2187C33.7092 24.2187 33.5502 24.1529 33.433 24.0357C33.3158 23.9185 33.25 23.7595 33.25 23.5937V20.1337L28.13 25.2537C28.0128 25.3709 27.8538 25.4367 27.6881 25.4367Z" fill="#A6A9B0"/>
<path d="M25.3119 26.5633C25.4776 26.5633 25.6366 26.6291 25.7538 26.7463C25.8709 26.8635 25.9368 27.0224 25.9368 27.1881C25.9368 27.3539 25.8709 27.5128 25.7538 27.63L20.6338 32.75L24.0938 32.75C24.2595 32.75 24.4185 32.8158 24.5357 32.9331C24.6529 33.0503 24.7188 33.2092 24.7188 33.375C24.7188 33.5408 24.6529 33.6997 24.5357 33.8169C24.4185 33.9342 24.2595 34 24.0938 34L19.125 34C18.9593 34 18.8003 33.9342 18.6831 33.8169C18.5659 33.6997 18.5 33.5408 18.5 33.375L18.5 28.4062C18.5 28.2405 18.5659 28.0815 18.6831 27.9643C18.8003 27.8471 18.9593 27.7812 19.125 27.7812C19.2908 27.7812 19.4498 27.8471 19.567 27.9643C19.6842 28.0815 19.75 28.2405 19.75 28.4062L19.75 31.8662L24.87 26.7463C24.9872 26.6291 25.1462 26.5633 25.3119 26.5633Z" fill="#A6A9B0"/>
<rect x="11" y="10.5" width="31" height="31" rx="3.5" stroke="#E9EAEE"/>
</g>
<defs>
<filter id="filter0_d_10756_89236" x="0.5" y="0" width="52" height="52" filterUnits="userSpaceOnUse" color-interpolation-filters="sRGB">
<feFlood flood-opacity="0" result="BackgroundImageFix"/>
<feColorMatrix in="SourceAlpha" type="matrix" values="0 0 0 0 0 0 0 0 0 0 0 0 0 0 0 0 0 0 127 0" result="hardAlpha"/>
<feOffset/>
<feGaussianBlur stdDeviation="5"/>
<feComposite in2="hardAlpha" operator="out"/>
<feColorMatrix type="matrix" values="0 0 0 0 0.537255 0 0 0 0 0.639216 0 0 0 0 0.788235 0 0 0 0.2 0"/>
<feBlend mode="normal" in2="BackgroundImageFix" result="effect1_dropShadow_10756_89236"/>
<feBlend mode="normal" in="SourceGraphic" in2="effect1_dropShadow_10756_89236" result="shape"/>
</filter>
</defs>
</svg>
