<svg width="25" height="36" viewBox="0 0 25 36" fill="none" xmlns="http://www.w3.org/2000/svg">
<ellipse cx="12.5" cy="33.5" rx="5.5" ry="2" fill="#C4C4C4"/>
<path d="M25 13C25 24.25 12.5 33 12.5 33C12.5 33 0 24.25 0 13C0 9.68479 1.31696 6.50537 3.66117 4.16117C6.00537 1.81696 9.18479 0.5 12.5 0.5C15.8152 0.5 18.9946 1.81696 21.3388 4.16117C23.683 6.50537 25 9.68479 25 13Z" fill="#5221CB"/>
<path d="M12.5 18C15.2614 18 17.5 15.7614 17.5 13C17.5 10.2386 15.2614 8 12.5 8C9.73858 8 7.5 10.2386 7.5 13C7.5 15.7614 9.73858 18 12.5 18Z" fill="white"/>
</svg>
