<svg width="24" height="24" viewBox="0 0 24 24" fill="none" xmlns="http://www.w3.org/2000/svg">
<path d="M12 12.7495C13.6569 12.7495 15 11.4064 15 9.74951C15 8.09266 13.6569 6.74951 12 6.74951C10.3431 6.74951 9 8.09266 9 9.74951C9 11.4064 10.3431 12.7495 12 12.7495Z" stroke="#A6A9B0" stroke-width="2" stroke-linecap="round" stroke-linejoin="round"/>
<path d="M19.499 9.74951C19.499 16.4995 11.999 21.7495 11.999 21.7495C11.999 21.7495 4.49902 16.4995 4.49902 9.74951C4.49902 7.76039 5.2892 5.85273 6.69572 4.44621C8.10225 3.03969 10.0099 2.24951 11.999 2.24951C13.9881 2.24951 15.8958 3.03969 17.3023 4.44621C18.7088 5.85273 19.499 7.76039 19.499 9.74951Z" stroke="#A6A9B0" stroke-width="2" stroke-linecap="round" stroke-linejoin="round"/>
</svg>
