<svg width="14" height="14" viewBox="0 0 14 14" fill="none" xmlns="http://www.w3.org/2000/svg">
<path d="M11.9856 11.814C11.9856 12.2798 11.6085 12.6569 11.1426 12.6569" stroke="#222222" stroke-linecap="round" stroke-linejoin="round"/>
<path d="M11.9854 11.8141V5.07031" stroke="#222222" stroke-linecap="round" stroke-linejoin="round"/>
<path d="M10.7212 4.12207C10.7212 4.64619 11.0983 5.07042 11.5642 5.07042" stroke="#222222" stroke-miterlimit="10" stroke-linecap="round"/>
<path d="M13.25 4.12207C13.25 4.64619 12.8729 5.07042 12.407 5.07042" stroke="#222222" stroke-miterlimit="10" stroke-linecap="round"/>
<path d="M11.564 5.07031H12.4069" stroke="#222222" stroke-miterlimit="10" stroke-linecap="round"/>
<path d="M10.7212 2.43604V4.12199" stroke="#222222" stroke-miterlimit="10" stroke-linecap="round"/>
<path d="M13.25 2.43604V4.12199" stroke="#222222" stroke-miterlimit="10" stroke-linecap="round"/>
<path d="M10.7212 2.43604H13.2501" stroke="#222222" stroke-miterlimit="10" stroke-linecap="round"/>
<path d="M11.1426 0.75V2.43595" stroke="#222222" stroke-miterlimit="10" stroke-linecap="round"/>
<path d="M12.8286 0.75V2.43595" stroke="#222222" stroke-miterlimit="10" stroke-linecap="round"/>
<path d="M7.34912 7.59912H8.61358" stroke="#222222" stroke-linecap="round" stroke-linejoin="round"/>
<path d="M9.45654 11.814C9.45654 12.2798 9.83363 12.6569 10.2995 12.6569" stroke="#222222" stroke-linecap="round" stroke-linejoin="round"/>
<path d="M9.45654 11.8143V8.44238" stroke="#222222" stroke-linecap="round" stroke-linejoin="round"/>
<path d="M9.4565 8.4421C9.4565 7.97621 9.07941 7.59912 8.61353 7.59912" stroke="#222222" stroke-linecap="round" stroke-linejoin="round"/>
<path d="M10.2996 12.6572H11.1425" stroke="#222222" stroke-linecap="round" stroke-linejoin="round"/>
<path d="M0.928073 0.75C0.691491 0.75 0.5 0.940117 0.5 1.175V13.075C0.5 13.3099 0.691491 13.5 0.928073 13.5H6.9211C7.15768 13.5 7.34917 13.3099 7.34917 13.075V1.175C7.34917 0.940117 7.15768 0.75 6.9211 0.75" stroke="#222222" stroke-linecap="round" stroke-linejoin="round"/>
<path d="M1 0.75H6.12" stroke="#222222" stroke-linecap="round" stroke-linejoin="round"/>
<path d="M6 0.75L7 0.75" stroke="#222222" stroke-linecap="round" stroke-linejoin="round"/>
<path d="M3.87178 5.4917L3.02881 7.17765" stroke="#222222" stroke-linecap="round" stroke-linejoin="round"/>
<path d="M4.82013 7.17773H3.02881" stroke="#222222" stroke-linecap="round" stroke-linejoin="round"/>
<path d="M3.87183 8.86368L4.82017 7.17773" stroke="#222222" stroke-linecap="round" stroke-linejoin="round"/>
</svg>
