<svg width="13" height="13" viewBox="0 0 13 13" fill="none" xmlns="http://www.w3.org/2000/svg">
<g clip-path="url(#clip0_9496_73369)">
<path d="M9.33771 8.21494C10.8284 7.39643 11.9585 6.77273 12.0559 6.72423C12.3675 6.55853 12.6893 6.11995 12.0559 5.77929C11.8514 5.67214 10.7503 5.06787 9.33771 4.28857L7.37939 6.26632L9.33771 8.2149V8.21494Z" fill="#FFD900"/>
<path d="M7.3793 6.26611L1.1438 12.5506C1.29016 12.5699 1.4554 12.5311 1.65021 12.424C2.05921 12.2002 6.39504 9.83234 9.33762 8.2152L7.3793 6.26611Z" fill="#F43249"/>
<path d="M7.37922 6.26613L9.33754 4.29812C9.33754 4.29812 2.08871 0.342132 1.65013 0.108606C1.4849 0.0107403 1.29973 -0.0183299 1.13403 0.0107403L7.37922 6.26613Z" fill="#00EE76"/>
<path d="M7.37934 6.26613L1.13415 0.0107422C0.880696 0.0693419 0.666504 0.29327 0.666504 0.75123V11.8101C0.666504 12.2292 0.832246 12.5312 1.14384 12.5603L7.37934 6.26613Z" fill="#00D3FF"/>
</g>
<defs>
<clipPath id="clip0_9496_73369">
<rect width="11.7567" height="12.5833" fill="white" transform="translate(0.666504)"/>
</clipPath>
</defs>
</svg>
