<svg width="100" height="100" viewBox="0 0 100 100" fill="none" xmlns="http://www.w3.org/2000/svg">
<path d="M81.1592 80.0898C81.1592 83.0016 78.8024 85.3584 75.8906 85.3584" stroke="#CACCD1" stroke-width="3" stroke-linecap="round" stroke-linejoin="round"/>
<path d="M81.1602 80.0863V37.9375" stroke="#CACCD1" stroke-width="3" stroke-linecap="round" stroke-linejoin="round"/>
<path d="M73.2539 32.0117C73.2539 35.2875 75.6107 37.9389 78.5225 37.9389" stroke="#CACCD1" stroke-width="3" stroke-miterlimit="10" stroke-linecap="round"/>
<path d="M89.0655 32.0117C89.0655 35.2875 86.7087 37.9389 83.7969 37.9389" stroke="#CACCD1" stroke-width="3" stroke-miterlimit="10" stroke-linecap="round"/>
<path d="M78.5273 37.9375H83.7959" stroke="#CACCD1" stroke-width="3" stroke-miterlimit="10" stroke-linecap="round"/>
<path d="M73.2539 21.4727V32.0098" stroke="#CACCD1" stroke-width="3" stroke-miterlimit="10" stroke-linecap="round"/>
<path d="M89.0625 21.4727V32.0098" stroke="#CACCD1" stroke-width="3" stroke-miterlimit="10" stroke-linecap="round"/>
<path d="M73.2539 21.4727H89.0597" stroke="#CACCD1" stroke-width="3" stroke-miterlimit="10" stroke-linecap="round"/>
<path d="M75.8906 10.9375V21.4747" stroke="#CACCD1" stroke-width="3" stroke-miterlimit="10" stroke-linecap="round"/>
<path d="M86.4258 10.9375V21.4747" stroke="#CACCD1" stroke-width="3" stroke-miterlimit="10" stroke-linecap="round"/>
<path d="M52.1836 53.7461H60.0865" stroke="#CACCD1" stroke-width="3" stroke-linecap="round" stroke-linejoin="round"/>
<path d="M65.3555 80.0898C65.3555 83.0016 67.7123 85.3584 70.6241 85.3584" stroke="#CACCD1" stroke-width="3" stroke-linecap="round" stroke-linejoin="round"/>
<path d="M65.3555 80.09V59.0156" stroke="#CACCD1" stroke-width="3" stroke-linecap="round" stroke-linejoin="round"/>
<path d="M65.3506 59.0147C65.3506 56.1029 62.9938 53.7461 60.082 53.7461" stroke="#CACCD1" stroke-width="3" stroke-linecap="round" stroke-linejoin="round"/>
<path d="M70.625 85.3594H75.8936" stroke="#CACCD1" stroke-width="3" stroke-linecap="round" stroke-linejoin="round"/>
<path d="M12.0505 10.9375C10.5718 10.9375 9.375 12.1257 9.375 13.5937V87.9687C9.375 89.4368 10.5718 90.625 12.0505 90.625H49.5069C50.9855 90.625 52.1823 89.4368 52.1823 87.9687V13.5937C52.1823 12.1257 50.9855 10.9375 49.5069 10.9375" stroke="#CACCD1" stroke-width="3" stroke-linecap="round" stroke-linejoin="round"/>
<path d="M12.5 10.9375H28.125" stroke="#CACCD1" stroke-width="3" stroke-linecap="round" stroke-linejoin="round"/>
<path d="M43.75 10.9375L50 10.9375" stroke="#CACCD1" stroke-width="3" stroke-linecap="round" stroke-linejoin="round"/>
<path d="M34.375 10.9375L37.5 10.9375" stroke="#CACCD1" stroke-width="3" stroke-linecap="round" stroke-linejoin="round"/>
<path d="M30.4522 40.5781L25.1836 51.1153" stroke="#CACCD1" stroke-width="3" stroke-linecap="round" stroke-linejoin="round"/>
<path d="M36.3794 51.1094H25.1836" stroke="#CACCD1" stroke-width="3" stroke-linecap="round" stroke-linejoin="round"/>
<path d="M30.4492 61.6466L36.3764 51.1094" stroke="#CACCD1" stroke-width="3" stroke-linecap="round" stroke-linejoin="round"/>
</svg>
