<svg width="24" height="24" viewBox="0 0 24 24" fill="none" xmlns="http://www.w3.org/2000/svg">
<path d="M20.625 16.4375V7.56266C20.625 7.42984 20.5897 7.29941 20.5228 7.18469C20.4559 7.06998 20.3597 6.97509 20.244 6.90974L12.369 2.45865C12.2565 2.39501 12.1293 2.36157 12 2.36157C11.8707 2.36157 11.7435 2.39501 11.631 2.45865L3.75596 6.90974C3.64033 6.97509 3.54414 7.06998 3.4772 7.18469C3.41027 7.29941 3.375 7.42984 3.375 7.56266V16.4375C3.375 16.5703 3.41027 16.7007 3.4772 16.8154C3.54414 16.9301 3.64033 17.025 3.75596 17.0904L11.631 21.5415C11.7435 21.6051 11.8707 21.6385 12 21.6385C12.1293 21.6385 12.2565 21.6051 12.369 21.5415L20.244 17.0904C20.3597 17.025 20.4559 16.9301 20.5228 16.8154C20.5897 16.7007 20.625 16.5703 20.625 16.4375V16.4375Z" stroke="#747780" stroke-width="2" stroke-linecap="round" stroke-linejoin="round"/>
<path d="M12 15.375C13.864 15.375 15.375 13.864 15.375 12C15.375 10.136 13.864 8.625 12 8.625C10.136 8.625 8.625 10.136 8.625 12C8.625 13.864 10.136 15.375 12 15.375Z" stroke="#747780" stroke-width="2" stroke-linecap="round" stroke-linejoin="round"/>
</svg>
