<svg width="24" height="24" viewBox="0 0 24 24" fill="none" xmlns="http://www.w3.org/2000/svg">
<path d="M20.625 16.4372V7.56241C20.625 7.4296 20.5897 7.29917 20.5228 7.18445C20.4559 7.06973 20.3597 6.97485 20.244 6.90949L12.369 2.45841C12.2565 2.39477 12.1293 2.36133 12 2.36133C11.8707 2.36133 11.7435 2.39477 11.631 2.45841L3.75596 6.90949C3.64033 6.97485 3.54414 7.06973 3.4772 7.18445C3.41027 7.29917 3.375 7.4296 3.375 7.56241V16.4372C3.375 16.57 3.41027 16.7005 3.4772 16.8152C3.54414 16.9299 3.64033 17.0248 3.75596 17.0901L11.631 21.5412C11.7435 21.6049 11.8707 21.6383 12 21.6383C12.1293 21.6383 12.2565 21.6049 12.369 21.5412L20.244 17.0901C20.3597 17.0248 20.4559 16.9299 20.5228 16.8152C20.5897 16.7005 20.625 16.57 20.625 16.4372V16.4372Z" stroke="white" stroke-width="2" stroke-linecap="round" stroke-linejoin="round"/>
<path d="M12 15.375C13.864 15.375 15.375 13.864 15.375 12C15.375 10.136 13.864 8.625 12 8.625C10.136 8.625 8.625 10.136 8.625 12C8.625 13.864 10.136 15.375 12 15.375Z" stroke="white" stroke-width="2" stroke-linecap="round" stroke-linejoin="round"/>
</svg>
