<svg width="36" height="36" viewBox="0 0 36 36" fill="none" xmlns="http://www.w3.org/2000/svg">
<circle cx="18" cy="18" r="18" fill="#A6A9B0"/>
<g clip-path="url(#clip0_3242_102518)">
<path fill-rule="evenodd" clip-rule="evenodd" d="M14.5319 8.93275C15.5583 8.8855 15.8855 8.875 18.5 8.875C21.1145 8.875 21.4418 8.88637 22.4673 8.93275C23.4928 8.97912 24.1928 9.14275 24.8053 9.37988C25.4466 9.62225 26.0285 10.0011 26.5098 10.4911C26.9998 10.9715 27.3778 11.5525 27.6193 12.1948C27.8573 12.8073 28.02 13.5073 28.0673 14.531C28.1145 15.5591 28.125 15.8864 28.125 18.5C28.125 21.1145 28.1136 21.4418 28.0673 22.4681C28.0209 23.4919 27.8573 24.1919 27.6193 24.8044C27.3777 25.4467 26.9991 26.0287 26.5098 26.5098C26.0285 26.9998 25.4466 27.3778 24.8053 27.6193C24.1928 27.8573 23.4928 28.02 22.469 28.0673C21.4418 28.1145 21.1145 28.125 18.5 28.125C15.8855 28.125 15.5583 28.1136 14.5319 28.0673C13.5081 28.0209 12.8081 27.8573 12.1956 27.6193C11.5533 27.3777 10.9713 26.9991 10.4903 26.5098C10.0006 26.0291 9.62165 25.4474 9.37988 24.8053C9.14275 24.1928 8.98 23.4928 8.93275 22.469C8.8855 21.4409 8.875 21.1136 8.875 18.5C8.875 15.8855 8.88637 15.5583 8.93275 14.5328C8.97912 13.5073 9.14275 12.8073 9.37988 12.1948C9.62201 11.5526 10.0012 10.9709 10.4911 10.4903C10.9715 10.0007 11.5529 9.62176 12.1948 9.37988C12.8073 9.14275 13.5073 8.98 14.531 8.93275H14.5319ZM22.3894 10.6653C21.3744 10.6189 21.0699 10.6093 18.5 10.6093C15.9301 10.6093 15.6256 10.6189 14.6106 10.6653C13.6718 10.7081 13.1625 10.8648 12.823 10.9969C12.3741 11.1719 12.053 11.3793 11.7161 11.7161C11.3968 12.0268 11.151 12.405 10.9969 12.823C10.8648 13.1625 10.7081 13.6718 10.6653 14.6106C10.6189 15.6256 10.6093 15.9301 10.6093 18.5C10.6093 21.0699 10.6189 21.3744 10.6653 22.3894C10.7081 23.3283 10.8648 23.8375 10.9969 24.177C11.1509 24.5944 11.3968 24.9733 11.7161 25.2839C12.0268 25.6033 12.4056 25.8491 12.823 26.0031C13.1625 26.1353 13.6718 26.2919 14.6106 26.3348C15.6256 26.3811 15.9293 26.3908 18.5 26.3908C21.0708 26.3908 21.3744 26.3811 22.3894 26.3348C23.3283 26.2919 23.8375 26.1353 24.177 26.0031C24.6259 25.8281 24.947 25.6208 25.2839 25.2839C25.6033 24.9733 25.8491 24.5944 26.0031 24.177C26.1353 23.8375 26.2919 23.3283 26.3348 22.3894C26.3811 21.3744 26.3908 21.0699 26.3908 18.5C26.3908 15.9301 26.3811 15.6256 26.3348 14.6106C26.2919 13.6718 26.1353 13.1625 26.0031 12.823C25.8281 12.3741 25.6208 12.053 25.2839 11.7161C24.9732 11.3968 24.595 11.1511 24.177 10.9969C23.8375 10.8648 23.3283 10.7081 22.3894 10.6653V10.6653ZM17.2706 21.4671C17.9572 21.7529 18.7217 21.7915 19.4336 21.5763C20.1454 21.361 20.7605 20.9053 21.1737 20.287C21.5868 19.6686 21.7725 18.926 21.699 18.186C21.6255 17.4459 21.2974 16.7544 20.7706 16.2294C20.4348 15.8938 20.0288 15.6368 19.5818 15.477C19.1348 15.3172 18.6579 15.2584 18.1854 15.305C17.713 15.3516 17.2568 15.5024 16.8496 15.7465C16.4424 15.9906 16.0944 16.3219 15.8306 16.7166C15.5669 17.1113 15.3939 17.5596 15.3242 18.0292C15.2545 18.4988 15.2898 18.978 15.4275 19.4323C15.5652 19.8866 15.8019 20.3048 16.1206 20.6566C16.4393 21.0085 16.8321 21.2853 17.2706 21.4671ZM15.0018 15.0018C15.4611 14.5424 16.0065 14.1779 16.6068 13.9293C17.207 13.6807 17.8503 13.5527 18.5 13.5527C19.1497 13.5527 19.793 13.6807 20.3932 13.9293C20.9935 14.1779 21.5389 14.5424 21.9983 15.0018C22.4576 15.4611 22.8221 16.0065 23.0707 16.6068C23.3193 17.207 23.4473 17.8503 23.4473 18.5C23.4473 19.1497 23.3193 19.793 23.0707 20.3932C22.8221 20.9935 22.4576 21.5389 21.9983 21.9983C21.0705 22.926 19.8121 23.4473 18.5 23.4473C17.1879 23.4473 15.9295 22.926 15.0018 21.9983C14.074 21.0705 13.5527 19.8121 13.5527 18.5C13.5527 17.1879 14.074 15.9295 15.0018 15.0018V15.0018ZM24.5445 14.2895C24.6583 14.1821 24.7495 14.053 24.8125 13.9097C24.8756 13.7665 24.9092 13.612 24.9115 13.4556C24.9138 13.2991 24.8846 13.1437 24.8258 12.9987C24.767 12.8537 24.6796 12.7219 24.569 12.6113C24.4583 12.5006 24.3266 12.4133 24.1815 12.3545C24.0365 12.2956 23.8812 12.2665 23.7247 12.2688C23.5682 12.271 23.4138 12.3047 23.2705 12.3677C23.1273 12.4308 22.9981 12.5219 22.8908 12.6358C22.6819 12.8572 22.5676 13.1512 22.572 13.4556C22.5764 13.7599 22.6993 14.0505 22.9145 14.2657C23.1297 14.481 23.4204 14.6038 23.7247 14.6083C24.029 14.6127 24.3231 14.4984 24.5445 14.2895V14.2895Z" fill="white"/>
</g>
<defs>
<clipPath id="clip0_3242_102518">
<rect width="21" height="21" fill="white" transform="translate(8 8)"/>
</clipPath>
</defs>
</svg>
