<svg width="6" height="11" viewBox="0 0 6 11" fill="none" xmlns="http://www.w3.org/2000/svg">
<path d="M1.18894 10.2719L5.84792 5.62672C5.90322 5.57142 5.94248 5.51151 5.96571 5.447C5.98893 5.38248 6.00036 5.31336 5.99999 5.23962C5.99999 5.16589 5.98856 5.09677 5.96571 5.03225C5.94285 4.96774 5.90359 4.90783 5.84792 4.85253L1.18894 0.193548C1.05991 0.064516 0.898616 0 0.705068 0C0.511519 0 0.345622 0.0691243 0.207373 0.207373C0.0691242 0.345622 -4.76837e-07 0.506912 -4.76837e-07 0.691243C-4.76837e-07 0.875575 0.0691242 1.03686 0.207373 1.17511L4.27188 5.23962L0.207373 9.30413C0.0783405 9.43317 0.0138245 9.59224 0.0138245 9.78137C0.0138245 9.97049 0.0829487 10.134 0.221198 10.2719C0.359446 10.4101 0.520736 10.4792 0.705068 10.4792C0.889399 10.4792 1.05069 10.4101 1.18894 10.2719Z" fill="black"/>
</svg>
