<svg width="224" height="389" viewBox="0 0 224 389" fill="none" xmlns="http://www.w3.org/2000/svg">
<mask id="mask0_3067_47952" style="mask-type:alpha" maskUnits="userSpaceOnUse" x="0" y="0" width="224" height="389">
<rect width="224" height="389" fill="#D9D9D9"/>
</mask>
<g mask="url(#mask0_3067_47952)">
<g clip-path="url(#clip0_3067_47952)">
<path d="M0 30C0 13.4315 13.4315 0 30 0H194C210.569 0 224 13.4315 224 30V407H0V30Z" fill="#FBFCFF"/>
<g filter="url(#filter0_d_3067_47952)">
<rect y="4" width="224" height="604.637" rx="10.8846" fill="white" shape-rendering="crispEdges"/>
<g filter="url(#filter1_d_3067_47952)">
<rect width="224" height="129" fill="white"/>
</g>
<path d="M211.613 95.4375L207.531 99.5192L203.449 95.4375" stroke="#222222" stroke-width="0.816342" stroke-linecap="round" stroke-linejoin="round"/>
<path d="M25.3158 95.9947H26.7199V94.8083H25.3158V90.9769H23.879V100.991H25.3158V95.9947ZM22.6491 91.9456H18.0449V93.0885H21.2232C21.1906 93.5674 21.1144 93.9919 21.0164 94.4164L17.5116 94.6233L17.6966 95.8423L20.6028 95.5593C20.0368 96.6587 19.0681 97.5947 17.4245 98.4111L18.1864 99.5213C21.9198 97.6056 22.6491 95.026 22.6491 91.9456ZM35.9601 101.023V90.9878H34.5995V101.023H35.9601ZM33.9464 91.1946H32.6076V94.645H31.6498V95.8967H32.6076V100.555H33.9464V91.1946ZM31.2579 97.4206V93.2627H31.9001V92.1198H27.3395V93.2627H27.949V97.573H27.1653L27.3177 98.7376C28.5694 98.7376 30.5831 98.7158 32.1396 98.3675L32.0416 97.3335C31.7913 97.3662 31.53 97.3879 31.2579 97.4206ZM29.2334 97.5403V93.2627H29.9735V97.5077C29.7341 97.5294 29.4837 97.5403 29.2334 97.5403ZM46.4907 98.4437H47.8513V90.9878H46.4907V98.4437ZM43.8675 94.8518H44.4988V98.1498H45.8376V91.162H44.4988V93.6981H43.8784C43.6716 92.5334 42.8008 91.7171 41.6362 91.7171C40.3083 91.7171 39.3395 92.762 39.3395 94.2423C39.3395 95.7335 40.3083 96.7784 41.6362 96.7784C42.7682 96.7784 43.6389 96.0165 43.8675 94.8518ZM40.6239 94.2423C40.6239 93.4151 41.0266 92.947 41.6362 92.947C42.2457 92.947 42.6484 93.4151 42.6484 94.2423C42.6484 95.0695 42.2457 95.5376 41.6362 95.5376C41.0266 95.5376 40.6239 95.0695 40.6239 94.2423ZM48.1016 100.838V99.6955H42.5396V97.4968H41.1028V100.838H48.1016ZM57.4506 101.023V90.9878H56.003V101.023H57.4506ZM51.0722 97.5947V95.7335H54.2941V94.6124H51.0722V92.9797H54.7077V91.815H49.6355V98.7485H50.5062C52.3131 98.7485 53.7063 98.6941 55.2737 98.4655L55.1431 97.3226C53.7825 97.5294 52.5634 97.5947 51.0722 97.5947ZM59.3001 94.46L59.8226 95.592C61.7492 95.3743 62.9138 94.6015 63.4254 93.5566C63.9587 94.6015 65.1125 95.3743 67.039 95.592L67.5615 94.46C65.5805 94.2314 64.6227 93.4259 64.4485 92.5987H67.1479V91.4558H59.7246V92.5987H62.4131C62.239 93.4259 61.2593 94.2314 59.3001 94.46ZM67.9751 97.2355V96.0927H58.8974V97.2355H67.9751ZM66.9411 99.6955H61.4335V97.8886H59.9967V100.838H66.9411V99.6955Z" fill="#222222"/>
<path d="M23.0344 113.709V106.867H22.4096V109.184H20.8248V109.694H22.4096V113.709H23.0344ZM19.7962 108.681V107.454H19.1715V108.681C19.1715 109.938 18.3943 111.271 17.4038 111.759L17.7848 112.254C18.5543 111.85 19.1791 110.982 19.4839 109.968C19.7962 110.921 20.4363 111.744 21.1982 112.132L21.5639 111.637C20.5734 111.172 19.7962 109.915 19.7962 108.681ZM27.3463 109.313C28.8777 109.313 29.7463 108.902 29.7463 108.132C29.7463 107.363 28.8777 106.944 27.3463 106.944C25.8453 106.944 24.9462 107.363 24.9462 108.132C24.9462 108.902 25.8453 109.313 27.3463 109.313ZM27.3463 107.416C28.4815 107.416 29.1063 107.675 29.1063 108.132C29.1063 108.589 28.4815 108.848 27.3463 108.848C26.211 108.848 25.5862 108.589 25.5862 108.132C25.5862 107.675 26.211 107.416 27.3463 107.416ZM27.6587 110.906V110.266H30.432V109.763H24.2605V110.266H27.0339V110.906H25.0072V111.378H29.0301V111.987H25.0224V113.626H29.853V113.138H25.6319V112.445H29.6473V110.906H27.6587ZM36.7097 113.717V106.867H36.0849V113.717H36.7097ZM33.5401 108.688V107.462H32.9229V108.688C32.9229 109.999 32.0848 111.286 31.0867 111.774L31.4677 112.285C32.2677 111.858 32.9229 111.035 33.2353 109.991C33.5629 110.974 34.2029 111.766 34.9953 112.155L35.3687 111.652C34.3629 111.203 33.5401 109.938 33.5401 108.688ZM45.7045 110.753V110.25H44.1807V109.283C44.7064 109.069 45.0112 108.719 45.0112 108.262C45.0112 107.469 44.0969 106.989 42.6111 106.989C41.133 106.989 40.2111 107.469 40.2111 108.262C40.2111 108.726 40.493 109.069 41.0492 109.29V110.25H39.5177V110.753H45.7045ZM40.8511 108.262C40.8511 107.766 41.5064 107.477 42.6111 107.477C43.7159 107.477 44.3712 107.766 44.3712 108.262C44.3712 108.749 43.7159 109.046 42.6111 109.046C41.5064 109.046 40.8511 108.749 40.8511 108.262ZM43.5635 110.25H41.6664V109.45C41.9483 109.504 42.2683 109.526 42.6111 109.526C42.9769 109.526 43.2969 109.504 43.5635 109.45V110.25ZM42.6111 111.264C41.1483 111.264 40.272 111.698 40.272 112.483C40.272 113.267 41.1483 113.694 42.6111 113.694C44.0816 113.694 44.9502 113.267 44.9502 112.483C44.9502 111.698 44.0816 111.264 42.6111 111.264ZM42.6111 113.214C41.5368 113.214 40.9044 112.947 40.9044 112.483C40.9044 112.018 41.5368 111.751 42.6111 111.751C43.6854 111.751 44.3178 112.018 44.3178 112.483C44.3178 112.947 43.6854 113.214 42.6111 113.214ZM52.6984 109.481V108.963H51.685V106.86H51.0602V111.911H51.685V109.481H52.6984ZM50.0545 110.799L50.3669 110.304C49.3612 109.938 48.683 109.077 48.683 108.14V107.279H48.0583V108.125C48.0583 109.184 47.3954 110.106 46.3516 110.471L46.6792 110.966C47.5021 110.662 48.104 110.052 48.3859 109.229C48.6907 109.961 49.285 110.517 50.0545 110.799ZM51.9822 113.039H48.0735V111.431H47.4487V113.549H51.9822V113.039ZM56.6369 110.761H59.4255V110.25H58.4122C58.6026 109.267 58.6026 108.544 58.6026 107.904V107.309H54.0159V107.812H57.9931V107.904C57.9931 108.544 57.9931 109.267 57.7798 110.25H53.2463V110.761H56.0045V113.709H56.6369V110.761ZM61.6698 108.208H65.7003V107.705H63.9936V106.875H63.3689V107.705H61.6698V108.208ZM67.9632 109.648V109.123H66.9499V106.875H66.3251V111.995H66.9499V109.648H67.9632ZM65.3194 109.854C65.3194 109.092 64.6565 108.589 63.6812 108.589C62.7136 108.589 62.0507 109.092 62.0507 109.854C62.0507 110.624 62.7136 111.126 63.6812 111.126C64.6565 111.126 65.3194 110.624 65.3194 109.854ZM62.645 109.854C62.645 109.366 63.0412 109.077 63.6812 109.077C64.2984 109.077 64.7251 109.366 64.7251 109.854C64.7251 110.342 64.2984 110.639 63.6812 110.639C63.0412 110.639 62.645 110.342 62.645 109.854ZM67.2546 113.039H63.3231V111.591H62.6984V113.549H67.2546V113.039ZM74.8199 109.153V108.635H73.8066V106.867H73.1818V110.951H73.8066V109.153H74.8199ZM71.9627 107.378H68.8084V107.881H71.2846C71.1627 109.069 70.1417 109.984 68.5188 110.471L68.7703 110.974C70.7513 110.387 71.9627 109.115 71.9627 107.378ZM71.6656 111.043C70.317 111.043 69.4408 111.546 69.4408 112.368C69.4408 113.191 70.317 113.694 71.6656 113.694C73.0142 113.694 73.8904 113.191 73.8904 112.368C73.8904 111.546 73.0142 111.043 71.6656 111.043ZM71.6656 113.199C70.6827 113.199 70.0579 112.887 70.0579 112.368C70.0579 111.843 70.6827 111.53 71.6656 111.53C72.6484 111.53 73.2732 111.843 73.2732 112.368C73.2732 112.887 72.6484 113.199 71.6656 113.199ZM81.5623 112.856V112.346H78.7661V111.058H80.9528V110.555H76.747V109.45H80.7928V107.37H76.1146V107.881H80.1832V108.947H76.1298V111.058H78.1337V112.346H75.3527V112.856H81.5623ZM85.9656 113.138V112.521H83.7636C83.5732 112.521 83.3446 112.551 83.1313 112.612L84.6932 111.066C85.3256 110.433 85.8589 109.854 85.8589 109.024C85.8589 108.033 85.1199 107.454 84.1675 107.454C83.2151 107.454 82.476 108.01 82.3312 109.039L83.017 109.153C83.017 108.513 83.4894 108.056 84.1294 108.056C84.7084 108.056 85.1351 108.368 85.158 109.039C85.158 109.694 84.7313 110.174 84.1446 110.799L82.217 112.65V113.138H85.9656ZM91.8606 110.159H92.9578V109.641H91.8606V106.867H91.2358V113.702H91.8606V110.159ZM90.0929 107.599H86.9691V108.117H89.4758C89.331 109.763 88.4243 111.027 86.6491 111.919L86.9919 112.406C89.2015 111.309 90.0929 109.542 90.0929 107.599ZM98.6154 113.138V112.574H97.5183V107.523H96.9621L95.4611 108.818L95.8344 109.267L96.8478 108.361C96.8402 108.414 96.8402 108.483 96.8402 108.551V112.574H95.5982V113.138H98.6154ZM103.002 113.138V112.574H101.905V107.523H101.348L99.8475 108.818L100.221 109.267L101.234 108.361C101.227 108.414 101.227 108.483 101.227 108.551V112.574H99.9846V113.138H103.002ZM107.716 110.357C107.716 108.368 106.817 107.462 105.666 107.462C104.508 107.462 103.617 108.368 103.617 110.357C103.617 112.338 104.508 113.245 105.666 113.245C106.817 113.245 107.716 112.338 107.716 110.357ZM107.015 110.357C107.015 112.094 106.375 112.681 105.666 112.681C104.958 112.681 104.325 112.094 104.325 110.357C104.325 108.612 104.958 108.033 105.666 108.033C106.375 108.033 107.015 108.612 107.015 110.357ZM111.775 113.138V112.574H110.677V107.523H110.121L108.62 108.818L108.994 109.267L110.007 108.361C109.999 108.414 109.999 108.483 109.999 108.551V112.574H108.757V113.138H111.775Z" fill="#222222"/>
<path d="M25.1633 45.0892L21.0815 41.0075L25.1633 36.9258" stroke="#222222" stroke-width="1.08846" stroke-linecap="round" stroke-linejoin="round"/>
<path d="M102.587 45.217V37.1972H101.49V40.2884H100.767V37.3452H99.696V44.8425H100.767V41.2201H101.49V45.217H102.587ZM97.1795 42.2825V38.0941H96.0301V43.2752H96.5873C97.3885 43.2752 98.3028 43.2403 99.3564 43.04L99.2606 42.0735C98.4943 42.2128 97.8064 42.2564 97.1795 42.2825ZM109.244 39.6615H110.907V40.5409H109.113V41.464H110.907V43.1097H112.056V37.2059H110.907V38.7472H109.54C109.601 38.3727 109.636 38.0593 109.636 37.8067H105.883V38.7211H108.39C108.208 39.914 107.224 40.8457 105.456 41.3682L105.926 42.2825C107.607 41.7861 108.686 40.8893 109.244 39.6615ZM112.257 45.0863V44.172H107.964V42.535H106.814V45.0863H112.257ZM119.893 41.9777V37.2146H118.743V39.1216H117.559V40.0446H118.743V41.9777H119.893ZM117.463 41.76L118.02 40.8631C116.784 40.4452 116.235 39.4786 116.209 38.5643H117.768V37.65H113.458V38.5643H115.034C115.008 39.5657 114.442 40.5671 113.144 41.0112L113.728 41.9168C114.668 41.612 115.286 40.985 115.643 40.1839C115.983 40.9154 116.584 41.4727 117.463 41.76ZM119.893 42.3347H114.424V43.249H118.743V45.2344H119.893V42.3347ZM127.755 45.2431V37.1972H126.605V39.7137H125.064V40.6367H126.605V45.2431H127.755ZM124.037 38.9823V37.8242H122.879V38.9823C122.879 40.5061 122.278 42.0648 120.911 42.6917L121.625 43.6147C122.53 43.162 123.122 42.3521 123.471 41.2985C123.81 42.2825 124.385 43.0488 125.264 43.4754L125.944 42.5611C124.62 41.9777 124.037 40.4887 124.037 38.9823Z" fill="#222222"/>
<path d="M175.181 39.5831H177.001V40.6193H175.067V41.3508H177.001V43.1184H177.897V37.2843H177.001V38.8517H175.424C175.494 38.5469 175.529 38.2247 175.529 37.8938H171.907V38.6166H174.562C174.397 39.914 173.23 40.9502 171.497 41.5075L171.88 42.2302C173.509 41.7078 174.623 40.8109 175.181 39.5831ZM178.098 44.2678H173.753V42.5437H172.856V44.9993H178.098V44.2678ZM185.734 37.2756H184.837V39.2522H183.461V39.9924H184.837V41.9777H185.734V37.2756ZM183.452 41.7078L183.896 41.0112C182.712 40.5932 182.05 39.6179 182.05 38.6427V38.4947H183.687V37.7719H179.482V38.4947H181.145V38.6514C181.145 39.7137 180.431 40.7499 179.212 41.1679L179.673 41.8732C180.614 41.551 181.267 40.8718 181.615 40.0272C181.955 40.7935 182.581 41.403 183.452 41.7078ZM180.431 42.3696V43.0923H184.837V45.1473H185.734V42.3696H180.431ZM193.561 37.2843H192.664V45.156H193.561V37.2843ZM187.379 40.5235L187.744 41.2114C188.685 41.0025 189.329 40.5322 189.669 39.9053C190.017 40.4713 190.644 40.898 191.55 41.0982L191.907 40.4016C190.749 40.1665 190.113 39.5657 190.104 38.8342H191.75V38.1289H190.104V37.3017H189.199V38.1289H187.562V38.8342H189.207C189.199 39.6005 188.537 40.271 187.379 40.5235ZM192.211 42.0822L192.159 41.4204C190.461 41.6555 188.519 41.6729 187.057 41.6729L187.17 42.4131C187.797 42.4131 188.476 42.4044 189.207 42.3783V44.9209H190.104V42.326C190.801 42.2912 191.515 42.2128 192.211 42.0822ZM201.336 41.7513L201.711 41.0025C200.161 40.7499 198.898 39.5657 198.898 38.3553V37.7632H197.949V38.3553C197.949 39.5657 196.686 40.7499 195.128 41.0025L195.511 41.7513C196.791 41.4988 197.914 40.7151 198.428 39.6702C198.977 40.7848 200.143 41.5162 201.336 41.7513ZM202.016 43.4319H198.863V41.5946H197.967V43.4319H194.893V44.172H202.016V43.4319Z" fill="#747780"/>
<rect x="17" y="69.3074" width="34.8846" height="13.5307" rx="6.76537" fill="#F75015"/>
<path d="M25.6229 74.9025H26.9878V75.6796H25.538V76.2282H26.9878V77.554H27.6604V73.1784H26.9878V74.3539H25.8057C25.858 74.1253 25.8841 73.8837 25.8841 73.6355H23.1673V74.1776H25.1592C25.0351 75.1506 24.16 75.9278 22.8603 76.3458L23.1477 76.8878C24.369 76.496 25.2049 75.8233 25.6229 74.9025ZM27.8106 78.416H24.5518V77.1229H23.8791V78.9646H27.8106V78.416ZM33.5376 73.1718H32.8649V74.6543H31.8331V75.2094H32.8649V76.6984H33.5376V73.1718ZM31.8265 76.496L32.1596 75.9735C31.2714 75.66 30.7751 74.9286 30.7751 74.1972V74.0861H32.0029V73.5441H28.8485V74.0861H30.0959V74.2037C30.0959 75.0004 29.5604 75.7776 28.6461 76.0911L28.9922 76.6201C29.6975 76.3784 30.1873 75.869 30.4486 75.2355C30.7033 75.8103 31.1735 76.2674 31.8265 76.496ZM29.5604 76.9923V77.5344H32.8649V79.0756H33.5376V76.9923H29.5604ZM40.0156 76.0388V75.4837H39.0947V73.1784H38.4221V79.0822H39.0947V76.0388H40.0156ZM34.7322 73.7531V77.6062H37.4947V73.7531H34.7322ZM35.3983 77.0707V74.2886H36.8286V77.0707H35.3983ZM45.847 75.0984V74.5433H45.0111V73.1718H44.3384V76.5025H45.0111V75.0984H45.847ZM43.3915 73.531H40.642V74.0796H42.6665C42.5555 74.9743 41.7849 75.6927 40.3743 76.0584L40.6355 76.5939C42.3792 76.1237 43.3915 75.0657 43.3915 73.531ZM41.2428 76.7572V79.0038H45.0111V76.7572H41.2428ZM41.909 78.4617V77.2927H44.3449V78.4617H41.909Z" fill="white"/>
<path d="M117.15 154.019L111.707 159.462L106.265 154.019" stroke="#CACCD1" stroke-width="1.08846" stroke-linecap="round" stroke-linejoin="round"/>
<path d="M117.15 148.577L111.707 154.019L106.265 148.577" stroke="#CACCD1" stroke-width="1.08846" stroke-linecap="round" stroke-linejoin="round"/>
<g filter="url(#filter2_d_3067_47952)">
<rect x="17" y="246.726" width="87.0765" height="100.138" rx="4.35382" fill="white"/>
</g>
<g filter="url(#filter3_d_3067_47952)">
<rect x="17" y="353.395" width="87.0765" height="100.138" rx="4.35382" fill="white"/>
</g>
<g filter="url(#filter4_d_3067_47952)">
<rect x="120.242" y="353.395" width="87.0765" height="100.138" rx="4.35382" fill="white"/>
</g>
<g filter="url(#filter5_d_3067_47952)">
<rect x="120.242" y="246.726" width="87.0765" height="100.138" rx="4.35382" fill="white"/>
</g>
<path d="M24.1582 303.342V308.148H24.9158V306.326H25.6407C26.6856 306.326 27.4497 305.843 27.4497 304.792C27.4497 303.714 26.6856 303.342 25.6146 303.342H24.1582ZM25.5688 305.719H24.9158V303.949H25.5427C26.3068 303.949 26.7052 304.158 26.7052 304.792C26.7052 305.425 26.3591 305.719 25.5688 305.719ZM28.1515 302.95V308.148H28.896V302.95H28.1515ZM30.8973 308.233C31.3936 308.233 31.7397 307.998 32.0728 307.606H32.0924L32.1512 308.148H32.765V304.557H32.014V307.051C31.7201 307.424 31.485 307.587 31.152 307.587C30.7275 307.587 30.5511 307.352 30.5511 306.725V304.557H29.8001V306.816C29.8001 307.737 30.1332 308.233 30.8973 308.233ZM34.7446 308.233C35.6328 308.233 36.1096 307.744 36.1096 307.143C36.1096 306.464 35.5544 306.241 35.0516 306.052C34.6597 305.908 34.2875 305.791 34.2875 305.484C34.2875 305.229 34.4703 305.04 34.8622 305.04C35.1691 305.04 35.4108 305.17 35.6655 305.353L36.0181 304.89C35.7242 304.661 35.3455 304.465 34.8491 304.465C34.0589 304.465 33.5756 304.916 33.5756 305.517C33.5756 306.13 34.1307 306.372 34.601 306.561C34.9928 306.718 35.3977 306.849 35.3977 307.182C35.3977 307.463 35.2083 307.665 34.7642 307.665C34.3724 307.665 34.0654 307.508 33.7454 307.254L33.3928 307.737C33.7389 308.024 34.2483 308.233 34.7446 308.233ZM40.0482 308.233C40.6752 308.233 41.1519 307.985 41.5438 307.541L41.1389 307.064C40.8515 307.378 40.5185 307.574 40.0744 307.574C39.2254 307.574 38.6899 306.875 38.6899 305.732C38.6899 304.609 39.258 303.91 40.094 303.91C40.4858 303.91 40.7797 304.086 41.0344 304.341L41.4458 303.858C41.1519 303.538 40.6817 303.25 40.0809 303.25C38.8597 303.25 37.9127 304.184 37.9127 305.758C37.9127 307.326 38.8401 308.233 40.0482 308.233ZM42.2 302.943V308.148H42.9445V305.601C43.2645 305.281 43.4931 305.112 43.8262 305.112C44.2507 305.112 44.4335 305.353 44.4335 305.98V308.148H45.1846V305.889C45.1846 304.968 44.845 304.465 44.0809 304.465C43.5845 304.465 43.2319 304.726 42.9184 305.033L42.9445 304.321V302.943H42.2ZM46.9681 308.233C47.4122 308.233 47.7779 308.037 48.111 307.757H48.1305L48.1959 308.148H48.8097V305.987C48.8097 305.014 48.3983 304.465 47.5036 304.465C46.9289 304.465 46.4391 304.674 46.0668 304.909L46.2889 305.458C46.5958 305.255 46.9811 305.079 47.373 305.079C47.902 305.079 48.0587 305.438 48.0587 305.863C47.3207 305.915 46.7787 305.974 46.413 306.176C46.0407 306.405 45.9101 306.797 45.9101 307.195C45.9101 307.828 46.3477 308.233 46.9681 308.233ZM47.1966 307.639C46.8766 307.639 46.635 307.508 46.635 307.143C46.635 306.992 46.6089 306.823 46.7983 306.646C47.0268 306.437 47.3664 306.437 48.0587 306.352V307.241C47.7648 307.508 47.5101 307.639 47.1966 307.639ZM49.7449 304.557V308.148H50.4894V305.908C50.718 305.34 51.0707 305.138 51.3645 305.138C51.5147 305.138 51.5996 305.151 51.7237 305.197L51.8609 304.543C51.7498 304.491 51.6323 304.465 51.456 304.465C51.0641 304.465 50.6919 304.733 50.4372 305.203H50.4176L50.3588 304.557H49.7449ZM53.4442 309.762C54.6001 309.762 55.325 309.206 55.325 308.508C55.325 307.881 54.9005 307.633 54.0319 307.633H53.3723C52.9086 307.633 52.7715 307.495 52.7715 307.28C52.7715 307.104 52.8433 307.006 52.9674 306.901C53.1503 306.973 53.3201 307.012 53.4703 307.012C54.2213 307.012 54.8156 306.561 54.8156 305.778C54.8156 305.497 54.7177 305.268 54.5805 305.118H55.2662V304.557H53.9927C53.8556 304.504 53.6727 304.465 53.4703 304.465C52.7258 304.465 52.0792 304.948 52.0792 305.758C52.0792 306.183 52.3078 306.522 52.5495 306.712V306.738C52.347 306.888 52.1511 307.123 52.1511 307.404C52.1511 307.698 52.2948 307.887 52.4776 307.998V308.031C52.1446 308.233 51.9552 308.508 51.9552 308.815C51.9552 309.442 52.5821 309.762 53.4442 309.762ZM53.4703 306.529C53.098 306.529 52.7911 306.235 52.7911 305.758C52.7911 305.262 53.0784 304.994 53.4703 304.994C53.8621 304.994 54.1495 305.262 54.1495 305.758C54.1495 306.235 53.8425 306.529 53.4703 306.529ZM53.5552 309.265C52.9544 309.265 52.5952 309.069 52.5952 308.704C52.5952 308.521 52.6866 308.338 52.9021 308.181C53.0654 308.214 53.2221 308.233 53.3854 308.233H53.9274C54.3715 308.233 54.6001 308.318 54.6001 308.625C54.6001 308.965 54.1821 309.265 53.5552 309.265ZM57.2485 308.233C57.7187 308.233 58.1301 308.083 58.4632 307.855L58.202 307.378C57.9407 307.554 57.6664 307.646 57.3464 307.646C56.7195 307.646 56.295 307.234 56.2362 306.548H58.5677C58.5873 306.45 58.6003 306.326 58.6003 306.17C58.6003 305.151 58.0909 304.465 57.1375 304.465C56.295 304.465 55.4982 305.183 55.4982 306.359C55.4982 307.541 56.2754 308.233 57.2485 308.233ZM57.9538 306.032H56.2297C56.3015 305.406 56.7064 305.053 57.1505 305.053C57.673 305.053 57.9538 305.406 57.9538 306.032Z" fill="#747780"/>
<path d="M29.1999 319.251V318.696H28.3771C28.5273 317.86 28.5273 317.246 28.5273 316.691V316.175H24.5043V316.717H27.8677C27.8677 317.259 27.8742 317.879 27.6979 318.696H23.8643V319.251H26.1697V321.713H26.8489V319.251H29.1999ZM35.0706 318.715H32.7456V318.101H34.4763V317.559H31.0737V316.593H34.424V316.051H30.4076V318.101H32.0664V318.715H29.7415V319.257H35.0706V318.715ZM30.3292 319.754V320.296H33.7579V321.752H34.4305V319.754H30.3292ZM40.9608 320.465H39.5893V319.447H40.4579V318.905H36.9248V318.088H40.3273V316.227H36.2521V316.769H39.6611V317.553H36.2652V319.447H37.0489V320.465H35.6186V321.021H40.9608V320.465ZM37.715 320.465V319.447H38.9232V320.465H37.715Z" fill="#CACCD1"/>
<path d="M136.442 319.251V318.696H135.619C135.769 317.86 135.769 317.246 135.769 316.691V316.175H131.747V316.717H135.11C135.11 317.259 135.116 317.879 134.94 318.696H131.107V319.251H133.412V321.713H134.091V319.251H136.442ZM142.313 318.715H139.988V318.101H141.718V317.559H138.316V316.593H141.666V316.051H137.65V318.101H139.309V318.715H136.984V319.257H142.313V318.715ZM137.571 319.754V320.296H141V321.752H141.673V319.754H137.571ZM148.203 320.465H146.831V319.447H147.7V318.905H144.167V318.088H147.569V316.227H143.494V316.769H146.903V317.553H143.507V319.447H144.291V320.465H142.861V321.021H148.203V320.465ZM144.957 320.465V319.447H146.165V320.465H144.957Z" fill="#CACCD1"/>
<path d="M133.621 306.777L134.026 308.148H134.829L133.236 303.342H132.36L130.767 308.148H131.538L131.949 306.777H133.621ZM133.438 306.183H132.125L132.321 305.536C132.478 305.014 132.628 304.485 132.765 303.936H132.791C132.942 304.485 133.085 305.014 133.249 305.536L133.438 306.183ZM134.968 307.691V308.148H138.338V307.508H135.908L138.311 303.792V303.342H135.19V303.975H137.378L134.968 307.691ZM142.335 308.233C142.962 308.233 143.438 307.985 143.83 307.541L143.425 307.064C143.138 307.378 142.805 307.574 142.361 307.574C141.512 307.574 140.976 306.875 140.976 305.732C140.976 304.609 141.545 303.91 142.38 303.91C142.772 303.91 143.066 304.086 143.321 304.341L143.732 303.858C143.438 303.538 142.968 303.25 142.367 303.25C141.146 303.25 140.199 304.184 140.199 305.758C140.199 307.326 141.127 308.233 142.335 308.233ZM145.923 308.233C146.811 308.233 147.615 307.541 147.615 306.359C147.615 305.157 146.811 304.465 145.923 304.465C145.035 304.465 144.232 305.157 144.232 306.359C144.232 307.541 145.035 308.233 145.923 308.233ZM145.923 307.619C145.368 307.619 145.009 307.117 145.009 306.359C145.009 305.595 145.349 305.086 145.923 305.086C146.498 305.086 146.844 305.595 146.844 306.359C146.844 307.117 146.491 307.619 145.923 307.619ZM148.361 304.557V308.148H149.105V305.601C149.425 305.281 149.654 305.112 149.987 305.112C150.412 305.112 150.594 305.353 150.594 305.98V308.148H151.345V305.889C151.345 304.968 151.006 304.465 150.242 304.465C149.752 304.465 149.386 304.733 149.053 305.053H149.034L148.975 304.557H148.361ZM152.306 304.557V308.148H153.05V305.601C153.37 305.281 153.599 305.112 153.932 305.112C154.356 305.112 154.539 305.353 154.539 305.98V308.148H155.29V305.889C155.29 304.968 154.951 304.465 154.186 304.465C153.697 304.465 153.331 304.733 152.998 305.053H152.978L152.92 304.557H152.306ZM157.746 308.233C158.216 308.233 158.628 308.083 158.961 307.855L158.699 307.378C158.438 307.554 158.164 307.646 157.844 307.646C157.217 307.646 156.792 307.234 156.734 306.548H159.065C159.085 306.45 159.098 306.326 159.098 306.17C159.098 305.151 158.588 304.465 157.635 304.465C156.792 304.465 155.996 305.183 155.996 306.359C155.996 307.541 156.773 308.233 157.746 308.233ZM158.451 306.032H156.727C156.799 305.406 157.204 305.053 157.648 305.053C158.17 305.053 158.451 305.406 158.451 306.032ZM161.282 308.233C161.7 308.233 162.111 308.083 162.444 307.789L162.137 307.293C161.922 307.476 161.661 307.619 161.354 307.619C160.753 307.619 160.341 307.117 160.341 306.359C160.341 305.595 160.779 305.086 161.373 305.086C161.628 305.086 161.817 305.19 162.02 305.366L162.392 304.877C162.131 304.648 161.811 304.465 161.341 304.465C160.394 304.465 159.564 305.157 159.564 306.359C159.564 307.541 160.309 308.233 161.282 308.233ZM164.194 308.233C164.455 308.233 164.696 308.175 164.899 308.103L164.762 307.548C164.657 307.593 164.501 307.633 164.376 307.633C164.004 307.633 163.854 307.424 163.854 306.979V305.157H164.788V304.557H163.854V303.564H163.221L163.136 304.557L162.581 304.596V305.157H163.103V306.973C163.103 307.73 163.384 308.233 164.194 308.233Z" fill="#747780"/>
<path d="M27.084 333.305V327.758H26.0565L24.1756 329.378L24.8635 330.161L25.9259 329.195L25.891 329.761V333.305H24.6197V334.271H28.2073V333.305H27.084ZM30.8083 331.668C31.1217 331.668 31.4091 331.633 31.6616 331.485L31.8445 331.381C31.8183 331.407 31.7139 331.511 31.5484 331.685L29.6676 334.271H31.0608L32.4975 332.086C32.9155 331.441 33.4118 330.623 33.4118 329.813C33.4118 328.533 32.5759 327.636 31.2262 327.636C29.9027 327.636 28.9797 328.594 28.9797 329.778C28.9797 331.032 29.8852 331.668 30.8083 331.668ZM32.2886 329.7C32.2886 330.327 31.9054 330.736 31.2001 330.736C30.5296 330.736 30.1552 330.397 30.1552 329.691C30.1552 329.056 30.547 328.612 31.2088 328.612C31.8445 328.612 32.2886 329.003 32.2886 329.7ZM35.6994 328.829H38.1462V327.758H34.8547C34.7589 328.315 34.5848 329.343 34.3149 331.015L35.0463 331.233C35.3598 331.119 35.6733 331.058 35.9954 331.032C36.7965 331.006 37.2058 331.433 37.2058 332.129C37.2058 332.896 36.7791 333.392 35.978 333.392C35.4207 333.392 34.9679 333.096 34.5587 332.756L33.9491 333.645C34.3932 334.063 35.1073 334.428 35.9084 334.428C37.3103 334.428 38.3726 333.479 38.3726 332.077C38.3726 330.928 37.6238 330.04 36.2305 330.04C35.9954 330.04 35.7516 330.057 35.4817 330.101L35.6994 328.829ZM40.3641 333.166H39.0928L38.7358 334.986H39.7197L40.3641 333.166ZM45.5375 331.041C45.5375 328.725 44.5012 327.68 43.108 327.68C41.7496 327.68 40.7047 328.725 40.7047 331.041C40.7047 333.34 41.7496 334.393 43.108 334.393C44.5012 334.393 45.5375 333.34 45.5375 331.041ZM44.3184 331.041C44.3184 332.887 43.7437 333.383 43.108 333.383C42.5072 333.383 41.9238 332.887 41.9238 331.041C41.9238 329.186 42.5072 328.681 43.108 328.681C43.7437 328.681 44.3184 329.186 44.3184 331.041ZM50.5505 331.041C50.5505 328.725 49.5143 327.68 48.121 327.68C46.7626 327.68 45.7177 328.725 45.7177 331.041C45.7177 333.34 46.7626 334.393 48.121 334.393C49.5143 334.393 50.5505 333.34 50.5505 331.041ZM49.3314 331.041C49.3314 332.887 48.7567 333.383 48.121 333.383C47.5202 333.383 46.9368 332.887 46.9368 331.041C46.9368 329.186 47.5202 328.681 48.121 328.681C48.7567 328.681 49.3314 329.186 49.3314 331.041ZM55.5635 331.041C55.5635 328.725 54.5273 327.68 53.1341 327.68C51.7757 327.68 50.7307 328.725 50.7307 331.041C50.7307 333.34 51.7757 334.393 53.1341 334.393C54.5273 334.393 55.5635 333.34 55.5635 331.041ZM54.3444 331.041C54.3444 332.887 53.7697 333.383 53.1341 333.383C52.5332 333.383 51.9498 332.887 51.9498 331.041C51.9498 329.186 52.5332 328.681 53.1341 328.681C53.7697 328.681 54.3444 329.186 54.3444 331.041ZM63.3417 327.001V331.659H61.8353V332.443H63.3417V333.079H64.4911V327.001H63.3417ZM60.2941 330.135C61.4522 330.135 62.2881 329.561 62.2881 328.707C62.2881 327.845 61.4522 327.271 60.2941 327.271C59.1185 327.271 58.2913 327.845 58.2913 328.707C58.2913 329.561 59.1185 330.135 60.2941 330.135ZM60.2941 328.106C60.8252 328.106 61.1997 328.315 61.1997 328.707C61.1997 329.099 60.8252 329.299 60.2941 329.299C59.7368 329.299 59.3798 329.099 59.3798 328.707C59.3798 328.315 59.7368 328.106 60.2941 328.106ZM64.6653 334.881V333.967H59.8674V332.87H60.9733V331.354C61.635 331.311 62.262 331.241 62.8889 331.128L62.8106 330.31C61.1213 330.518 59.1708 330.553 57.7079 330.553L57.8559 331.468C58.4567 331.468 59.1272 331.459 59.8326 331.424V332.495H58.718V334.881H64.6653Z" fill="#222222"/>
<path d="M133.508 327.654C132.315 327.654 131.453 328.281 131.244 329.613L132.384 329.804C132.393 329.63 132.41 329.5 132.454 329.369C132.593 328.986 132.942 328.655 133.429 328.655C133.995 328.655 134.352 328.969 134.352 329.569C134.352 330.24 133.943 330.762 133.281 331.424L131.096 333.575V334.271H135.632V333.174H133.542C133.342 333.174 133.133 333.183 132.898 333.244L134.248 331.886C134.892 331.215 135.537 330.458 135.563 329.543C135.563 328.429 134.718 327.654 133.508 327.654ZM140.793 331.041C140.793 328.725 139.757 327.68 138.364 327.68C137.006 327.68 135.961 328.725 135.961 331.041C135.961 333.34 137.006 334.393 138.364 334.393C139.757 334.393 140.793 333.34 140.793 331.041ZM139.574 331.041C139.574 332.887 139 333.383 138.364 333.383C137.763 333.383 137.18 332.887 137.18 331.041C137.18 329.186 137.763 328.681 138.364 328.681C139 328.681 139.574 329.186 139.574 331.041ZM144.352 333.305V327.758H143.325L141.444 329.378L142.132 330.161L143.194 329.195L143.159 329.761V333.305H141.888V334.271H145.475V333.305H144.352ZM147.606 333.166H146.335L145.978 334.986H146.962L147.606 333.166ZM152.78 331.041C152.78 328.725 151.743 327.68 150.35 327.68C148.992 327.68 147.947 328.725 147.947 331.041C147.947 333.34 148.992 334.393 150.35 334.393C151.743 334.393 152.78 333.34 152.78 331.041ZM151.561 331.041C151.561 332.887 150.986 333.383 150.35 333.383C149.749 333.383 149.166 332.887 149.166 331.041C149.166 329.186 149.749 328.681 150.35 328.681C150.986 328.681 151.561 329.186 151.561 331.041ZM157.793 331.041C157.793 328.725 156.756 327.68 155.363 327.68C154.005 327.68 152.96 328.725 152.96 331.041C152.96 333.34 154.005 334.393 155.363 334.393C156.756 334.393 157.793 333.34 157.793 331.041ZM156.574 331.041C156.574 332.887 155.999 333.383 155.363 333.383C154.762 333.383 154.179 332.887 154.179 331.041C154.179 329.186 154.762 328.681 155.363 328.681C155.999 328.681 156.574 329.186 156.574 331.041ZM162.806 331.041C162.806 328.725 161.769 327.68 160.376 327.68C159.018 327.68 157.973 328.725 157.973 331.041C157.973 333.34 159.018 334.393 160.376 334.393C161.769 334.393 162.806 333.34 162.806 331.041ZM161.587 331.041C161.587 332.887 161.012 333.383 160.376 333.383C159.775 333.383 159.192 332.887 159.192 331.041C159.192 329.186 159.775 328.681 160.376 328.681C161.012 328.681 161.587 329.186 161.587 331.041ZM170.584 327.001V331.659H169.078V332.443H170.584V333.079H171.733V327.001H170.584ZM167.536 330.135C168.694 330.135 169.53 329.561 169.53 328.707C169.53 327.845 168.694 327.271 167.536 327.271C166.361 327.271 165.533 327.845 165.533 328.707C165.533 329.561 166.361 330.135 167.536 330.135ZM167.536 328.106C168.067 328.106 168.442 328.315 168.442 328.707C168.442 329.099 168.067 329.299 167.536 329.299C166.979 329.299 166.622 329.099 166.622 328.707C166.622 328.315 166.979 328.106 167.536 328.106ZM171.907 334.881V333.967H167.11V332.87H168.215V331.354C168.877 331.311 169.504 331.241 170.131 331.128L170.053 330.31C168.363 330.518 166.413 330.553 164.95 330.553L165.098 331.468C165.699 331.468 166.369 331.459 167.075 331.424V332.495H165.96V334.881H171.907Z" fill="#222222"/>
<path d="M91.4526 329.592L94.1738 332.313L91.4526 335.034" stroke="#A6A9B0" stroke-width="0.816342" stroke-linecap="round" stroke-linejoin="round"/>
<path d="M194.609 329.137L197.33 331.858L194.609 334.579" stroke="#A6A9B0" stroke-width="0.816342" stroke-linecap="round" stroke-linejoin="round"/>
<path d="M20.9968 189.79C22.7383 189.79 23.879 189.146 23.879 188.136C23.879 187.125 22.7383 186.472 20.9968 186.472C19.2814 186.472 18.1146 187.125 18.1146 188.136C18.1146 189.146 19.2814 189.79 20.9968 189.79ZM20.9968 187.387C22.0156 187.387 22.6426 187.639 22.6426 188.136C22.6426 188.623 22.0156 188.876 20.9968 188.876C19.978 188.876 19.3598 188.623 19.3598 188.136C19.3598 187.639 19.978 187.387 20.9968 187.387ZM24.6366 191.114V190.199H17.3831V191.114H19.8561V192.542H20.9968V191.114H21.7979V192.55H22.9473V191.114H24.6366ZM23.9226 193.29H19.3424V191.854H18.2017V194.205H23.9226V193.29ZM32.0897 194.344V186.324H31.0012V194.344H32.0897ZM30.4439 186.455H29.3729V189.032H28.3715V189.964H29.3729V193.987H30.4439V186.455ZM27.7707 188.327V187.021H26.6648V188.371C26.6648 189.738 26.2381 191.174 25.0626 191.889L25.7505 192.751C26.4819 192.306 26.9435 191.566 27.2221 190.661C27.4746 191.471 27.8839 192.15 28.5805 192.568L29.2074 191.68C28.119 190.957 27.7707 189.625 27.7707 188.327ZM39.3251 190.295H40.4919V189.346H39.3251V186.324H38.1756V194.344H39.3251V190.295ZM35.1976 186.882C33.9786 186.882 33.0904 187.979 33.0904 189.738C33.0904 191.505 33.9786 192.611 35.1976 192.611C36.408 192.611 37.3049 191.505 37.3049 189.738C37.3049 187.979 36.408 186.882 35.1976 186.882ZM35.1976 191.566C34.5968 191.566 34.1962 190.931 34.1962 189.738C34.1962 188.545 34.5968 187.918 35.1976 187.918C35.7897 187.918 36.199 188.545 36.199 189.738C36.199 190.931 35.7897 191.566 35.1976 191.566ZM49.3344 190.809V186.316H48.1849V190.809H49.3344ZM47.6712 190.086L47.5319 189.154C46.4782 189.389 45.4682 189.459 44.2752 189.485V186.786H43.1345V190.434H43.8311C45.2679 190.434 46.4347 190.347 47.6712 190.086ZM49.3344 191.157H44.0053V194.248H49.3344V191.157ZM48.2111 193.351H45.1373V192.054H48.2111V193.351ZM51.9373 192.489H50.6659L50.3089 194.309H51.2929L51.9373 192.489ZM17.6792 202.093L18.0188 202.947C19.5252 202.842 20.4744 202.433 20.9968 201.797C21.4931 202.433 22.4249 202.842 23.9661 202.947L24.3057 202.093C22.599 201.998 21.7979 201.475 21.6586 200.944H23.9226V200.047H21.5628V199.342H20.4134V200.047H18.0623V200.944H20.3263C20.187 201.475 19.3859 201.998 17.6792 202.093ZM24.6192 204.244V203.347H21.5628V202.581H20.4134V203.347H17.3744V204.244H24.6192ZM20.9794 204.627C19.1595 204.627 18.2017 205.106 18.2017 205.986C18.2017 206.865 19.2292 207.353 20.9794 207.353C22.7296 207.353 23.7658 206.865 23.7658 205.986C23.7658 205.106 22.7296 204.627 20.9794 204.627ZM20.9794 206.499C19.8996 206.499 19.3598 206.325 19.3598 205.986C19.3598 205.611 19.8909 205.472 20.9794 205.472C22.0679 205.472 22.599 205.611 22.599 205.986C22.599 206.325 22.0591 206.499 20.9794 206.499ZM46.546 207.361V199.316H45.3966V207.361H46.546ZM42.436 199.855C41.1821 199.855 40.233 200.683 40.233 201.832C40.233 202.982 41.1821 203.809 42.436 203.809C43.6899 203.809 44.6477 202.982 44.6477 201.832C44.6477 200.683 43.6899 199.855 42.436 199.855ZM42.436 200.839C43.0629 200.839 43.5245 201.205 43.5245 201.832C43.5245 202.459 43.0629 202.825 42.436 202.825C41.809 202.825 41.3475 202.459 41.3475 201.832C41.3475 201.205 41.809 200.839 42.436 200.839ZM39.8934 204.801L40.0414 205.733C41.4259 205.733 43.3068 205.716 45.0309 205.367L44.9612 204.54C43.2719 204.793 41.304 204.801 39.8934 204.801ZM53.6644 204.122H56.7469V203.199H55.6933C55.8935 202.076 55.8935 201.266 55.8935 200.509V199.786H50.3293V200.709H54.7702C54.7702 201.405 54.7528 202.18 54.5526 203.199H49.5021V204.122H52.4975V207.344H53.6644V204.122ZM64.5831 204.114V203.199H61.5267V202.503H63.7907V201.597H59.3585V200.552H63.721V199.647H58.2178V202.503H60.3773V203.199H57.3383V204.114H64.5831ZM63.7297 204.653H58.1307V205.559H62.5803V207.37H63.7297V204.653ZM72.5412 202.137V201.188H71.4789V199.333H70.3295V204.07H71.4789V202.137H72.5412ZM69.2932 203.765L69.8941 202.877C68.6315 202.476 68.0916 201.545 68.0916 200.578V199.76H66.9248V200.482C66.9248 201.571 66.3936 202.642 65.0439 203.086L65.6447 203.992C66.559 203.678 67.1773 203.069 67.5256 202.268C67.8652 202.964 68.4486 203.487 69.2932 203.765ZM68.8579 204.253C67.1773 204.253 66.1411 204.828 66.1411 205.794C66.1411 206.769 67.1773 207.344 68.8579 207.344C70.5297 207.344 71.5659 206.769 71.5659 205.794C71.5659 204.828 70.5297 204.253 68.8579 204.253ZM68.8579 206.456C67.8042 206.456 67.2818 206.238 67.2818 205.794C67.2818 205.359 67.8042 205.141 68.8579 205.141C69.8767 205.141 70.4252 205.35 70.4252 205.794C70.4252 206.247 69.8767 206.456 68.8579 206.456ZM73.6377 200.456H74.6565V201.667H73.6899V202.581H79.5415V201.667H78.5836V200.456H79.6024V199.542H73.6377V200.456ZM75.7972 200.456H77.4429V201.667H75.7972V200.456ZM77.1991 204.645V203.992H80.2468V203.077H73.002V203.992H76.0497V204.645H73.8467V207.257H79.3847V204.645H77.1991ZM74.9699 205.542H78.2527V206.351H74.9699V205.542ZM87.4822 207.361V199.316H86.3328V207.361H87.4822ZM83.1719 199.882C81.9615 199.882 81.0646 200.979 81.0646 202.738C81.0646 204.505 81.9615 205.611 83.1719 205.611C84.3822 205.611 85.2791 204.505 85.2791 202.738C85.2791 200.979 84.3822 199.882 83.1719 199.882ZM83.1719 200.918C83.764 200.918 84.1733 201.545 84.1733 202.738C84.1733 203.931 83.764 204.566 83.1719 204.566C82.5798 204.566 82.1705 203.931 82.1705 202.738C82.1705 201.545 82.5798 200.918 83.1719 200.918ZM97.7353 206.438V205.498H94.6702V203.826H96.9603V202.903H92.4759V200.796H96.8993V199.873H91.3177V203.826H93.5208V205.498H90.4731V206.438H97.7353ZM102.576 203.983L103.099 203.086C101.818 202.738 101.279 201.91 101.252 201.066H102.837V200.16H101.252V199.298H100.103V200.16H98.5357V201.066H100.103C100.077 201.971 99.5371 202.877 98.2484 203.225L98.7969 204.122C99.7112 203.844 100.347 203.286 100.695 202.581C101.052 203.243 101.67 203.739 102.576 203.983ZM104.622 202.241H105.685V201.301H104.622V199.324H103.473V204.235H104.622V202.241ZM104.622 204.575H99.2671V205.489H103.473V207.353H104.622V204.575ZM110.229 204.183H111.3V202.311H111.893V204.262H112.981V199.324H111.893V201.379H111.3V199.429H110.229V204.183ZM106.102 200.987H110.003V200.099H108.618V199.377H107.486V200.099H106.102V200.987ZM108.07 204.035C109.08 204.035 109.794 203.469 109.794 202.633C109.794 201.797 109.08 201.24 108.07 201.24C107.051 201.24 106.337 201.797 106.337 202.633C106.337 203.469 107.051 204.035 108.07 204.035ZM108.07 202.059C108.488 202.059 108.775 202.259 108.775 202.633C108.775 203.008 108.488 203.217 108.07 203.217C107.643 203.217 107.356 203.008 107.356 202.633C107.356 202.259 107.643 202.059 108.07 202.059ZM112.11 204.68V204.523H110.97V204.68C110.97 205.211 110.7 205.838 110.073 206.256C109.446 205.864 109.193 205.272 109.193 204.68V204.523H108.079V204.68C108.079 205.367 107.635 206.108 106.59 206.412L107.121 207.248C107.861 207.013 108.349 206.569 108.636 206.012C108.906 206.604 109.359 207.065 110.09 207.318C110.822 207.048 111.257 206.578 111.527 205.986C111.805 206.578 112.302 207.013 113.068 207.248L113.599 206.412C112.563 206.134 112.11 205.42 112.11 204.68ZM120.46 202.459L120.869 201.571C119.067 201.362 118.196 200.465 118.196 199.655V199.411H117.012V199.655C117.012 200.465 116.141 201.362 114.339 201.571L114.739 202.459C116.106 202.285 117.082 201.728 117.604 200.961C118.127 201.728 119.093 202.294 120.46 202.459ZM121.226 203.73V202.825H113.982V203.73H121.226ZM120.312 204.131H119.18V204.801H115.967V204.131H114.826V207.248H120.312V204.131ZM115.967 205.663H119.18V206.36H115.967V205.663ZM128.514 207.335V199.316H127.365V207.335H128.514ZM123.377 204.383V200.082H122.236V205.367H122.95C124.178 205.367 125.501 205.28 126.868 204.993L126.746 204.035C125.553 204.27 124.43 204.357 123.377 204.383ZM135.932 203.234H137.099V202.285H135.932V199.324H134.783V207.361H135.932V203.234ZM131.108 204.479V200.996H133.703V200.064H129.959V205.437H130.647C132.04 205.437 133.137 205.385 134.348 205.176L134.234 204.227C133.198 204.401 132.249 204.471 131.108 204.479ZM137.682 206.717H138.953V205.481H137.682V206.717Z" fill="#222222"/>
<path d="M31.485 200.979V200.125H27.0964V201.196H30.205C30.1441 201.275 30.0831 201.379 30.0222 201.501V201.51C30.0134 201.51 30.0134 201.519 30.0134 201.519L29.9786 201.588C29.9786 201.588 29.9786 201.588 29.9699 201.597V201.606C29.9177 201.693 29.8393 201.85 29.8045 201.91C29.0643 203.504 28.2545 204.993 27.5143 206.595H28.8466L31.485 200.979ZM38.8927 207.344V199.324H37.7955V202.346H37.0815V199.533H36.0104V207.004H37.0815V203.269H37.7955V207.344H38.8927ZM35.488 200.317H32.3271V201.231H34.356C34.2167 202.79 33.52 203.974 31.9178 204.906L32.5883 205.707C34.8262 204.401 35.488 202.564 35.488 200.317Z" fill="#5A2DC9"/>
<path d="M22.7732 219.311H21.9372V217.848H21.2646V221.394H21.9372V219.866H22.7732V219.311ZM20.409 221.081L20.7617 220.552C19.8866 220.251 19.3837 219.553 19.3837 218.789V218.155H18.7045V218.736C18.7045 219.592 18.2017 220.395 17.2743 220.709L17.6335 221.244C18.3127 220.989 18.796 220.5 19.0572 219.847C19.3119 220.402 19.7756 220.852 20.409 221.081ZM20.0368 221.538C18.8221 221.538 18.071 221.943 18.071 222.642C18.071 223.34 18.8221 223.752 20.0368 223.752C21.2646 223.752 22.0025 223.34 22.0025 222.642C22.0025 221.943 21.2646 221.538 20.0368 221.538ZM20.0368 223.223C19.1943 223.223 18.7372 223.034 18.7372 222.642C18.7372 222.276 19.1943 222.067 20.0368 222.067C20.8793 222.067 21.3364 222.276 21.3364 222.642C21.3364 223.034 20.8793 223.223 20.0368 223.223ZM28.2454 217.855H27.6054V223.752H28.2454V217.855ZM26.4038 217.966V219.918H25.5352V220.467H26.4038V223.478H27.0372V217.966H26.4038ZM25.0192 219.429V218.397H24.3662V219.461C24.3662 220.467 23.9613 221.518 23.1253 222.021L23.5368 222.531C24.1115 222.185 24.4902 221.577 24.6992 220.839C24.9017 221.499 25.2413 222.067 25.7899 222.4L26.1686 221.878C25.3784 221.368 25.0192 220.389 25.0192 219.429ZM35.4329 217.855H34.7928V220.199H34.094V217.972H33.4606V223.458H34.094V220.754H34.7928V223.752H35.4329V217.855ZM31.3511 221.688V218.534H30.6785V222.263H31.0703C31.6973 222.263 32.3634 222.237 33.1536 222.087L33.0818 221.512C32.4287 221.636 31.8736 221.669 31.3511 221.688ZM41.6235 220.722H40.35V219.944C40.8006 219.742 41.0618 219.455 41.0618 219.063C41.0618 218.364 40.2455 217.953 38.9589 217.953C37.6724 217.953 36.856 218.364 36.856 219.063C36.856 219.455 37.1107 219.749 37.5548 219.938V220.722H36.2879V221.257H41.6235V220.722ZM38.9589 218.475C39.8536 218.475 40.363 218.671 40.363 219.063C40.363 219.455 39.8536 219.657 38.9589 219.657C38.0642 219.657 37.5483 219.455 37.5483 219.063C37.5483 218.671 38.0642 218.475 38.9589 218.475ZM38.2275 220.722V220.121C38.443 220.153 38.6977 220.173 38.9589 220.173C39.2202 220.173 39.4618 220.153 39.6773 220.121V220.722H38.2275ZM38.9459 221.636C37.6463 221.636 36.9148 222.015 36.9148 222.694C36.9148 223.373 37.6789 223.752 38.9459 223.752C40.252 223.752 40.9769 223.373 40.9769 222.694C40.9769 222.015 40.252 221.636 38.9459 221.636ZM38.9459 223.236C38.0773 223.236 37.6005 223.06 37.6005 222.694C37.6005 222.328 38.0773 222.152 38.9459 222.152C39.8145 222.152 40.2977 222.328 40.2977 222.694C40.2977 223.06 39.8145 223.236 38.9459 223.236ZM44.8361 219.977C46.188 219.977 46.939 219.618 46.939 218.965C46.939 218.305 46.188 217.946 44.8361 217.946C43.4777 217.946 42.7332 218.305 42.7332 218.965C42.7332 219.618 43.4777 219.977 44.8361 219.977ZM44.8361 218.449C45.7569 218.449 46.2402 218.625 46.2402 218.965C46.2402 219.298 45.7569 219.474 44.8361 219.474C43.9153 219.474 43.432 219.298 43.432 218.965C43.432 218.625 43.9153 218.449 44.8361 218.449ZM47.5072 220.323H42.165V220.859H47.5072V220.323ZM43.4777 223.184V222.694H46.8345V221.283H42.7985V221.793H46.1749V222.217H42.8116V223.7H47.0043V223.184H43.4777ZM54.2309 217.848H53.5517V223.765H54.2309V217.848ZM50.3582 218.338H49.692V222.361H52.5264V218.338H51.8537V219.84H50.3582V218.338ZM50.3582 221.819V220.375H51.8537V221.819H50.3582ZM59.357 218.952V219.024C59.357 219.735 59.357 220.545 59.148 221.616L59.8207 221.695C60.0297 220.552 60.0297 219.762 60.0297 219.024V218.403H55.7847V218.952H59.357ZM60.5848 222.426H58.606V220.519H57.9399V222.426H57.1496V220.519H56.4835V222.426H55.2557V222.981H60.5848V222.426ZM66.155 217.855H65.515V220.297H64.8881V217.979H64.2611V223.478H64.8881V220.852H65.515V223.752H66.155V217.855ZM62.9027 218.815V218.024H62.2366V218.815H61.1198V219.357H64.0064V218.815H62.9027ZM62.5696 219.69C61.8186 219.69 61.2896 220.245 61.2896 221.061C61.2896 221.871 61.8186 222.433 62.5696 222.433C63.3207 222.433 63.8497 221.871 63.8497 221.061C63.8497 220.245 63.3207 219.69 62.5696 219.69ZM62.5696 221.871C62.1713 221.871 61.8904 221.558 61.8904 221.061C61.8904 220.565 62.1713 220.245 62.5696 220.245C62.968 220.245 63.2488 220.565 63.2488 221.061C63.2488 221.558 62.968 221.871 62.5696 221.871ZM72.3522 222.478H70.0076V221.29H71.7383V218.246H71.0721V219.239H68.277V218.246H67.6109V221.29H69.335V222.478H67.01V223.034H72.3522V222.478ZM68.277 220.748V219.781H71.0721V220.748H68.277ZM76.9624 218.952V218.984C76.9624 219.683 76.9624 220.526 76.7338 221.682L77.413 221.753C77.6416 220.532 77.6416 219.709 77.6416 218.984V218.403H73.4423V218.952H76.9624ZM78.2163 222.426H75.5517V220.349H74.8725V222.426H72.8872V222.981H78.2163V222.426ZM78.8101 222.42L78.5619 223.778H79.1627L79.5807 222.42H78.8101ZM86.8264 220.709V220.153H85.9317V217.855H85.259V223.752H85.9317V220.709H86.8264ZM82.2418 221.721V218.429H81.5691V222.282H82.0589C82.9537 222.282 83.8614 222.224 84.8606 222.021L84.7823 221.466C83.8875 221.649 83.0581 221.714 82.2418 221.721ZM92.279 217.855H91.639V223.745H92.279V217.855ZM90.457 217.966V220.088H89.8235C89.7516 218.984 89.2814 218.312 88.5696 218.312C87.812 218.312 87.3026 219.109 87.3026 220.402C87.3026 221.688 87.812 222.498 88.5696 222.498C89.2749 222.498 89.7778 221.793 89.83 220.643H90.457V223.471H91.0839V217.966H90.457ZM88.5696 221.865C88.1516 221.865 87.9165 221.349 87.9165 220.402C87.9165 219.455 88.1516 218.945 88.5696 218.945C88.9875 218.945 89.2226 219.455 89.2226 220.402C89.2226 221.349 88.9875 221.865 88.5696 221.865ZM98.1627 217.855H97.5162V223.752H98.1627V217.855ZM96.2819 217.998V220.199H95.4133C95.5896 219.696 95.6614 219.154 95.6614 218.58H93.3692V219.122H94.9953C94.8973 220.33 94.3161 221.296 93.0883 222.028L93.4736 222.505C94.29 222.008 94.8516 221.42 95.1978 220.741H96.2819V223.471H96.9153V217.998H96.2819ZM105.768 219.206H104.932V217.848H104.26V221.192H104.932V219.762H105.768V219.206ZM103.293 220.8V218.24H100.53V220.8H103.293ZM102.633 218.782V220.264H101.197V218.782H102.633ZM103.437 222.047H105.017V221.512H101.118V222.047H102.705C102.601 222.602 101.902 223.086 100.877 223.223L101.125 223.732C102.046 223.602 102.731 223.21 103.071 222.661C103.411 223.21 104.116 223.615 105.011 223.739L105.259 223.236C104.24 223.079 103.541 222.589 103.437 222.047ZM110.94 220.095V219.546H107.564V218.064H106.891V220.095H110.94ZM111.554 220.8H106.199V221.342H111.554V220.8ZM107.524 223.079V221.884H106.852V223.621H110.973V223.079H107.524ZM118.852 219.311H118.016V217.848H117.344V221.394H118.016V219.866H118.852V219.311ZM116.488 221.081L116.841 220.552C115.966 220.251 115.463 219.553 115.463 218.789V218.155H114.784V218.736C114.784 219.592 114.281 220.395 113.353 220.709L113.713 221.244C114.392 220.989 114.875 220.5 115.136 219.847C115.391 220.402 115.855 220.852 116.488 221.081ZM116.116 221.538C114.901 221.538 114.15 221.943 114.15 222.642C114.15 223.34 114.901 223.752 116.116 223.752C117.344 223.752 118.082 223.34 118.082 222.642C118.082 221.943 117.344 221.538 116.116 221.538ZM116.116 223.223C115.273 223.223 114.816 223.034 114.816 222.642C114.816 222.276 115.273 222.067 116.116 222.067C116.958 222.067 117.416 222.276 117.416 222.642C117.416 223.034 116.958 223.223 116.116 223.223ZM120.595 218.566V219.651H119.792V220.193H124.096V219.651H123.299V218.566H124.129V218.024H119.76V218.566H120.595ZM122.627 218.566V219.651H121.268V218.566H122.627ZM122.287 221.205H124.618V220.663H119.283V221.205H121.614V221.806H119.923V223.68H123.972V221.806H122.287V221.205ZM123.312 222.341V223.145H120.589V222.341H123.312ZM127.831 219.977C129.183 219.977 129.934 219.618 129.934 218.965C129.934 218.305 129.183 217.946 127.831 217.946C126.473 217.946 125.728 218.305 125.728 218.965C125.728 219.618 126.473 219.977 127.831 219.977ZM127.831 218.449C128.752 218.449 129.235 218.625 129.235 218.965C129.235 219.298 128.752 219.474 127.831 219.474C126.91 219.474 126.427 219.298 126.427 218.965C126.427 218.625 126.91 218.449 127.831 218.449ZM130.502 220.323H125.16V220.859H130.502V220.323ZM126.473 223.184V222.694H129.829V221.283H125.793V221.793H129.17V222.217H125.807V223.7H129.999V223.184H126.473ZM136.586 219.735V222.243H137.259V217.855H136.586V219.18H135.391V219.735H136.586ZM135.495 221.316L135.854 220.793C134.973 220.48 134.476 219.696 134.476 218.913V218.214H133.791V218.9C133.791 219.775 133.281 220.598 132.36 220.931L132.72 221.453C133.399 221.192 133.889 220.669 134.15 220.01C134.405 220.611 134.862 221.081 135.495 221.316ZM137.396 223.092H134.098V221.78H133.418V223.641H137.396V223.092ZM143.24 217.855H142.6V219.35H141.947V217.966H141.32V221.401H141.947V219.899H142.6V221.44H143.24V217.855ZM141.026 221.022L140.954 220.473C140.38 220.578 139.87 220.617 139.126 220.617V219.958H140.706V219.435H139.126V218.815H140.772V218.273H138.473V221.166H138.871C139.792 221.166 140.347 221.146 141.026 221.022ZM139.237 221.727V222.269H142.567V223.758H143.24V221.727H139.237ZM149.15 217.855H148.51V220.297H147.883V217.979H147.256V223.478H147.883V220.852H148.51V223.752H149.15V217.855ZM145.898 218.815V218.024H145.232V218.815H144.115V219.357H147.001V218.815H145.898ZM145.565 219.69C144.814 219.69 144.285 220.245 144.285 221.061C144.285 221.871 144.814 222.433 145.565 222.433C146.316 222.433 146.845 221.871 146.845 221.061C146.845 220.245 146.316 219.69 145.565 219.69ZM145.565 221.871C145.166 221.871 144.885 221.558 144.885 221.061C144.885 220.565 145.166 220.245 145.565 220.245C145.963 220.245 146.244 220.565 146.244 221.061C146.244 221.558 145.963 221.871 145.565 221.871ZM155.347 222.478H153.003V221.29H154.733V218.246H154.067V219.239H151.272V218.246H150.606V221.29H152.33V222.478H150.005V223.034H155.347V222.478ZM151.272 220.748V219.781H154.067V220.748H151.272ZM160.917 217.855H160.277V223.752H160.917V217.855ZM159.076 217.966V219.918H158.207V220.467H159.076V223.478H159.709V217.966H159.076ZM157.691 219.429V218.397H157.038V219.461C157.038 220.467 156.633 221.518 155.797 222.021L156.209 222.531C156.783 222.185 157.162 221.577 157.371 220.839C157.574 221.499 157.913 222.067 158.462 222.4L158.841 221.878C158.05 221.368 157.691 220.389 157.691 219.429ZM167.101 222.478H165.841V220.944C166.311 220.676 166.592 220.258 166.592 219.735C166.592 218.795 165.678 218.194 164.424 218.194C163.163 218.194 162.256 218.795 162.256 219.735C162.256 220.258 162.536 220.682 163.007 220.944V222.478H161.759V223.027H167.101V222.478ZM164.424 218.723C165.312 218.723 165.932 219.115 165.932 219.735C165.932 220.362 165.312 220.754 164.424 220.754C163.529 220.754 162.909 220.362 162.909 219.735C162.909 219.115 163.529 218.723 164.424 218.723ZM163.679 222.478V221.198C163.908 221.251 164.156 221.277 164.424 221.277C164.685 221.277 164.94 221.251 165.168 221.192V222.478H163.679ZM168.675 221.904L168.805 218.331H168.048L168.067 219.102L168.172 221.904H168.675ZM168.041 223.334H168.812V222.524H168.041V223.334Z" fill="#A6A9B0"/>
<rect x="23.5352" y="255.433" width="34.8306" height="34.8306" rx="4.35382" fill="white"/>
<rect x="130.77" y="255.433" width="34.8306" height="34.8306" rx="4.35382" fill="white"/>
<rect x="23.5352" y="362.102" width="34.8306" height="34.8306" rx="4.35382" fill="white"/>
<rect x="130.77" y="362.102" width="34.8306" height="34.8306" rx="4.35382" fill="white"/>
<g clip-path="url(#clip1_3067_47952)">
<path d="M35.0434 272.849C35.0434 267.038 41.47 262.508 41.47 262.508H34.6079V269.355H27.8838V276.342H34.6079V283.189H41.4702C41.4702 283.189 35.0436 278.66 35.0436 272.849L35.0434 272.849Z" fill="#231F20"/>
<path d="M37.6798 270.213H48.1941V269.355H41.47V262.508C41.47 262.508 35.2811 266.87 35.0503 272.525C35.2378 271.217 36.3435 270.213 37.6798 270.213Z" fill="#FCE82B"/>
<path d="M37.574 275.632C36.2626 275.632 35.1731 274.665 34.9561 273.393C35.3308 278.943 41.3645 283.196 41.3645 283.196V276.349H48.0885V275.632H37.574V275.632Z" fill="#FCE82B"/>
<path d="M37.1092 273.815H36.5942V271.798H37.4141C37.6365 271.798 37.807 271.857 37.9251 271.975C38.0432 272.092 38.1025 272.258 38.1025 272.472C38.1025 272.686 38.0435 272.852 37.9251 272.97C37.8068 273.088 37.6365 273.146 37.4141 273.146H37.1092V273.815ZM37.1092 272.724H37.28C37.4692 272.724 37.5637 272.64 37.5637 272.472C37.5637 272.305 37.4692 272.221 37.28 272.221H37.1092V272.724Z" fill="#26A9E0"/>
<path d="M38.7998 271.595V273.815H38.3242V271.595H38.7998Z" fill="#26A9E0"/>
<path d="M39.6067 272.443V273.216C39.6067 273.386 39.6872 273.47 39.8483 273.47C40.0095 273.47 40.09 273.386 40.09 273.216V272.443H40.5656V273.31C40.5656 273.496 40.5055 273.635 40.3855 273.727C40.2654 273.82 40.0863 273.866 39.8481 273.866C39.6099 273.866 39.4308 273.82 39.3107 273.727C39.1906 273.635 39.1309 273.496 39.1309 273.31V272.443H39.6065H39.6067Z" fill="#26A9E0"/>
<path d="M41.7818 272.796C41.6942 272.75 41.6083 272.727 41.5241 272.727C41.4803 272.727 41.4449 272.736 41.4179 272.754C41.3905 272.771 41.377 272.795 41.377 272.826C41.377 272.842 41.3792 272.855 41.3836 272.865C41.3881 272.874 41.3977 272.884 41.4124 272.893C41.4272 272.902 41.4491 272.91 41.4781 272.917C41.5069 272.924 41.5451 272.933 41.5923 272.944C41.7237 272.97 41.8219 273.018 41.8866 273.087C41.9513 273.155 41.9838 273.243 41.9838 273.35C41.9838 273.43 41.968 273.503 41.9365 273.567C41.905 273.631 41.8612 273.685 41.8051 273.729C41.749 273.773 41.6816 273.806 41.6029 273.83C41.5241 273.854 41.4373 273.866 41.3428 273.866C41.1605 273.866 40.9811 273.814 40.8042 273.709L40.9777 273.366C41.1108 273.459 41.237 273.505 41.3561 273.505C41.3999 273.505 41.4358 273.495 41.4639 273.476C41.4919 273.456 41.5059 273.431 41.5059 273.401C41.5059 273.383 41.5037 273.368 41.4993 273.357C41.4949 273.345 41.4858 273.335 41.4717 273.325C41.4577 273.315 41.437 273.306 41.41 273.298C41.3829 273.29 41.3472 273.281 41.3037 273.273C41.1565 273.242 41.0537 273.197 40.9949 273.138C40.9361 273.078 40.9068 272.995 40.9068 272.89C40.9068 272.813 40.9208 272.744 40.9489 272.683C40.9769 272.621 41.0173 272.569 41.0697 272.526C41.1223 272.483 41.1858 272.45 41.2601 272.427C41.3344 272.404 41.4174 272.392 41.5084 272.392C41.6573 272.392 41.8017 272.422 41.9419 272.481L41.7818 272.796V272.796Z" fill="#26A9E0"/>
<path d="M44.5853 272.473C44.4662 272.325 44.319 272.251 44.1438 272.251C44.0668 272.251 43.9955 272.265 43.9298 272.294C43.8641 272.322 43.8075 272.361 43.7602 272.41C43.713 272.459 43.6756 272.517 43.6485 272.585C43.6215 272.653 43.6077 272.726 43.6077 272.804C43.6077 272.883 43.6212 272.959 43.6485 273.026C43.6756 273.094 43.7133 273.153 43.7615 273.203C43.8097 273.253 43.866 273.292 43.931 273.321C43.9957 273.349 44.0658 273.364 44.1411 273.364C44.3057 273.364 44.4539 273.292 44.5853 273.15V273.77L44.5326 273.789C44.4539 273.818 44.3803 273.839 44.3119 273.852C44.2435 273.865 44.1761 273.872 44.1096 273.872C43.9731 273.872 43.8419 273.846 43.7169 273.793C43.5917 273.74 43.4812 273.667 43.3858 273.571C43.2903 273.476 43.2138 273.362 43.1559 273.231C43.0981 273.1 43.0693 272.957 43.0693 272.802C43.0693 272.647 43.0979 272.505 43.1547 272.375C43.2116 272.246 43.2878 272.135 43.3833 272.041C43.4788 271.947 43.5895 271.874 43.7157 271.821C43.8419 271.769 43.9741 271.742 44.1123 271.742C44.1911 271.742 44.2686 271.751 44.3449 271.768C44.4211 271.785 44.5011 271.811 44.5853 271.847V272.473Z" fill="black"/>
<path d="M44.8674 271.595H45.343V272.617C45.4078 272.537 45.4735 272.483 45.5401 272.455C45.6066 272.428 45.6846 272.413 45.7739 272.413C45.9437 272.413 46.0721 272.461 46.1587 272.557C46.2453 272.652 46.2889 272.781 46.2889 272.943V273.815H45.8133V273.122C45.8133 273.053 45.8081 272.996 45.7975 272.954C45.7869 272.911 45.7695 272.878 45.7449 272.855C45.7028 272.817 45.6521 272.799 45.5925 272.799C45.5118 272.799 45.4501 272.823 45.4073 272.872C45.3642 272.921 45.3428 272.991 45.3428 273.082V273.815H44.8672V271.595L44.8674 271.595Z" fill="black"/>
<path d="M47.6525 272.443H48.1306V273.815H47.6525V273.663C47.5509 273.793 47.4134 273.858 47.2401 273.858C47.142 273.858 47.0519 273.84 46.9695 273.803C46.8871 273.767 46.8152 273.715 46.754 273.65C46.6927 273.584 46.645 273.506 46.6107 273.417C46.5765 273.328 46.5596 273.23 46.5596 273.125C46.5596 273.027 46.5763 272.934 46.6095 272.846C46.6427 272.757 46.6892 272.68 46.7488 272.614C46.8083 272.548 46.8792 272.496 46.9616 272.458C47.044 272.419 47.1351 272.4 47.235 272.4C47.403 272.4 47.5423 272.46 47.6528 272.579V272.443L47.6525 272.443ZM47.0534 273.125C47.0534 273.17 47.0613 273.211 47.077 273.25C47.0928 273.288 47.1142 273.322 47.1415 273.35C47.1685 273.379 47.201 273.401 47.2387 273.417C47.2763 273.433 47.3172 273.441 47.361 273.441C47.4048 273.441 47.4429 273.433 47.4805 273.417C47.5182 273.401 47.5507 273.379 47.5777 273.35C47.6048 273.321 47.6267 273.288 47.6434 273.251C47.6602 273.214 47.6683 273.173 47.6683 273.13C47.6683 273.088 47.6599 273.047 47.6434 273.009C47.6267 272.97 47.6048 272.937 47.5777 272.908C47.5504 272.88 47.5182 272.858 47.4805 272.842C47.4429 272.826 47.403 272.818 47.361 272.818C47.3189 272.818 47.2763 272.826 47.2387 272.842C47.201 272.858 47.1685 272.88 47.1415 272.908C47.1142 272.937 47.0928 272.97 47.077 273.006C47.0613 273.043 47.0534 273.082 47.0534 273.125Z" fill="black"/>
<path d="M48.4517 272.443H48.9273V272.668C48.978 272.586 49.0402 272.523 49.1138 272.479C49.1874 272.436 49.2732 272.414 49.3714 272.414H49.4122C49.427 272.414 49.4442 272.415 49.4634 272.419V272.882C49.4004 272.85 49.332 272.833 49.2585 272.833C49.148 272.833 49.0653 272.867 49.0102 272.934C48.9551 273.001 48.9275 273.098 48.9275 273.227V273.815H48.4519V272.443L48.4517 272.443Z" fill="black"/>
<path d="M51.1962 272.443V273.722C51.1962 273.799 51.1918 273.867 51.1832 273.928C51.1743 273.988 51.162 274.042 51.1463 274.088C51.1253 274.147 51.0924 274.202 51.0478 274.253C51.0031 274.304 50.9494 274.348 50.8862 274.386C50.8232 274.423 50.7518 274.452 50.6721 274.474C50.5924 274.495 50.506 274.506 50.4133 274.506C50.3082 274.506 50.2118 274.492 50.1242 274.466C50.0366 274.439 49.96 274.402 49.8943 274.355C49.8286 274.307 49.7748 274.252 49.7327 274.189C49.6906 274.125 49.6626 274.056 49.6485 273.981H50.1844C50.2177 274.072 50.2929 274.118 50.4103 274.118C50.5102 274.118 50.5867 274.089 50.6401 274.032C50.6935 273.975 50.7203 273.896 50.7203 273.794V273.663C50.6852 273.697 50.6514 273.725 50.6192 273.747C50.5867 273.77 50.554 273.788 50.5208 273.802C50.4876 273.817 50.4524 273.827 50.4157 273.833C50.3788 273.839 50.3387 273.842 50.2949 273.842C50.1985 273.842 50.1101 273.825 50.0294 273.791C49.949 273.758 49.8791 273.71 49.8205 273.65C49.7617 273.589 49.7162 273.516 49.684 273.432C49.6515 273.347 49.6353 273.253 49.6353 273.149C49.6353 273.046 49.6527 272.946 49.6879 272.856C49.7228 272.767 49.7706 272.688 49.8311 272.621C49.8916 272.554 49.9632 272.501 50.0467 272.463C50.1298 272.425 50.2204 272.406 50.3185 272.406C50.478 272.406 50.6118 272.466 50.7206 272.587V272.443H51.1962V272.443ZM50.1293 273.123C50.1293 273.167 50.1372 273.209 50.1529 273.247C50.1687 273.285 50.1901 273.319 50.2174 273.347C50.2445 273.376 50.277 273.398 50.3146 273.414C50.3522 273.43 50.3931 273.438 50.4369 273.438C50.4807 273.438 50.5188 273.43 50.5565 273.414C50.5941 273.398 50.6266 273.376 50.6537 273.347C50.6807 273.319 50.7026 273.285 50.7194 273.247C50.7361 273.209 50.7442 273.168 50.7442 273.125C50.7442 273.082 50.7358 273.04 50.7194 273.002C50.7026 272.965 50.6802 272.932 50.6524 272.903C50.6244 272.875 50.5917 272.852 50.554 272.836C50.5164 272.82 50.4772 272.812 50.4371 272.812C50.397 272.812 50.3557 272.821 50.3188 272.838C50.2819 272.855 50.2496 272.877 50.2216 272.905C50.1935 272.932 50.1712 272.965 50.1547 273.002C50.1379 273.04 50.1298 273.08 50.1298 273.123L50.1293 273.123Z" fill="black"/>
<path d="M51.9818 273.211C51.9818 273.42 52.0782 273.524 52.2709 273.524C52.3742 273.524 52.4522 273.481 52.5046 273.395H52.9645C52.8717 273.709 52.6395 273.866 52.2682 273.866C52.1542 273.866 52.0502 273.849 51.9554 273.814C51.8609 273.779 51.7798 273.73 51.7123 273.666C51.6449 273.601 51.5928 273.525 51.5561 273.436C51.5192 273.346 51.501 273.246 51.501 273.136C51.501 273.025 51.5184 272.919 51.5536 272.827C51.5886 272.735 51.6385 272.657 51.7035 272.593C51.7682 272.529 51.8467 272.479 51.9387 272.444C52.0307 272.41 52.1343 272.392 52.25 272.392C52.3656 272.392 52.4662 272.41 52.5573 272.444C52.6483 272.479 52.7253 272.53 52.7886 272.596C52.8516 272.661 52.8998 272.742 52.933 272.838C52.9662 272.933 52.9829 273.04 52.9829 273.16V273.211H51.9818V273.211ZM52.5388 272.93C52.5231 272.863 52.4906 272.808 52.4416 272.767C52.3927 272.726 52.3329 272.706 52.263 272.706C52.1894 272.706 52.1294 272.725 52.0831 272.764C52.0366 272.804 52.0073 272.859 51.995 272.93H52.5391H52.5388Z" fill="black"/>
</g>
<g clip-path="url(#clip2_3067_47952)">
<path d="M142.152 380.6C140.845 382.508 136.81 388.409 136.995 388.22C137.216 387.996 145.683 379.803 145.683 379.803L145.653 379.785L142.152 380.6V380.6Z" fill="#B9E0E3"/>
<path d="M136.378 380.304C142.833 382.858 146.266 378.321 151.692 379.773C145.917 377.397 142.523 382.038 136.378 380.304Z" fill="#B9E0E3"/>
<path d="M147.846 370.81L140.461 375.078L143.271 376.267L140.396 379.042L144.735 378.336L147.846 375.103L145.181 374.371L147.846 370.81Z" fill="#171C61"/>
<path d="M151.892 379.304C144.944 376.172 141.472 383.236 132.948 378.246C140.926 381.069 143.947 374.917 151.892 379.304Z" fill="#171C61"/>
<path d="M144.077 387.075C143.914 387.075 143.766 387.038 143.63 386.964C143.495 386.89 143.388 386.788 143.309 386.657C143.231 386.526 143.191 386.378 143.191 386.213C143.191 386.086 143.219 385.967 143.274 385.855C143.329 385.743 143.406 385.647 143.506 385.569C143.418 385.493 143.347 385.402 143.293 385.297C143.239 385.192 143.212 385.083 143.212 384.971C143.212 384.808 143.25 384.663 143.328 384.537C143.405 384.411 143.51 384.312 143.642 384.239C143.774 384.166 143.919 384.129 144.076 384.129H145.334V384.782H144.234C144.184 384.782 144.139 384.792 144.099 384.811C144.06 384.831 144.028 384.859 144.004 384.895C143.981 384.932 143.969 384.975 143.969 385.026C143.969 385.073 143.981 385.115 144.004 385.15C144.028 385.185 144.06 385.213 144.099 385.234C144.139 385.255 144.184 385.266 144.234 385.266H145.189V385.914H144.242C144.189 385.914 144.142 385.925 144.101 385.946C144.06 385.967 144.027 385.997 144.004 386.036C143.981 386.075 143.969 386.12 143.969 386.171C143.969 386.221 143.981 386.266 144.004 386.304C144.028 386.342 144.06 386.371 144.101 386.392C144.142 386.414 144.189 386.424 144.242 386.424H145.334V387.076H144.076L144.077 387.075Z" fill="#171C61"/>
<path d="M147.008 387.131C146.865 387.131 146.737 387.096 146.624 387.027C146.51 386.958 146.429 386.857 146.379 386.722L145.486 384.129H146.322L146.967 386.323C146.972 386.334 146.978 386.344 146.985 386.352C146.992 386.361 147 386.365 147.008 386.365C147.019 386.365 147.029 386.361 147.037 386.352C147.046 386.344 147.051 386.334 147.054 386.323L147.699 384.129H148.531L147.641 386.718C147.592 386.855 147.51 386.958 147.395 387.027C147.281 387.096 147.152 387.131 147.009 387.131H147.008Z" fill="#171C61"/>
<path d="M150.563 387.075C150.4 387.075 150.252 387.038 150.116 386.964C149.982 386.89 149.875 386.788 149.796 386.657C149.718 386.526 149.678 386.378 149.678 386.213C149.678 386.086 149.705 385.967 149.76 385.855C149.816 385.743 149.893 385.647 149.992 385.569C149.904 385.493 149.833 385.402 149.779 385.297C149.725 385.192 149.698 385.083 149.698 384.971C149.698 384.808 149.737 384.663 149.814 384.537C149.891 384.411 149.996 384.312 150.128 384.239C150.261 384.166 150.405 384.129 150.563 384.129H151.82V384.782H150.72C150.67 384.782 150.625 384.792 150.586 384.811C150.546 384.831 150.514 384.859 150.491 384.895C150.467 384.932 150.455 384.975 150.455 385.026C150.455 385.073 150.467 385.115 150.491 385.15C150.514 385.185 150.546 385.213 150.586 385.234C150.625 385.255 150.67 385.266 150.72 385.266H151.675V385.914H150.728C150.676 385.914 150.629 385.925 150.588 385.946C150.546 385.967 150.514 385.997 150.491 386.036C150.467 386.075 150.455 386.12 150.455 386.171C150.455 386.221 150.467 386.266 150.491 386.304C150.514 386.342 150.547 386.371 150.588 386.392C150.629 386.414 150.676 386.424 150.728 386.424H151.82V387.076H150.563L150.563 387.075Z" fill="#171C61"/>
<path d="M152.184 387.076V384.003H152.899V387.076H152.184Z" fill="#171C61"/>
<path d="M154.468 387.076C154.228 387.076 154.017 387.032 153.833 386.945C153.65 386.859 153.505 386.733 153.399 386.571C153.293 386.408 153.24 386.216 153.24 385.994C153.24 385.747 153.291 385.539 153.393 385.371C153.495 385.202 153.63 385.075 153.798 384.987C153.966 384.901 154.146 384.857 154.34 384.857C154.549 384.857 154.731 384.901 154.883 384.99C155.036 385.078 155.155 385.202 155.239 385.362C155.323 385.522 155.365 385.709 155.365 385.922C155.365 385.967 155.363 386.018 155.359 386.076C155.355 386.134 155.347 386.182 155.336 386.221H153.984C154 386.283 154.027 386.335 154.064 386.375C154.102 386.416 154.151 386.446 154.214 386.466C154.276 386.485 154.347 386.495 154.427 386.495H155.13V387.076H154.468V387.076ZM153.959 385.796H154.687C154.687 385.753 154.681 385.715 154.67 385.68C154.659 385.645 154.644 385.612 154.625 385.581C154.606 385.55 154.582 385.524 154.555 385.502C154.527 385.479 154.494 385.462 154.455 385.451C154.417 385.44 154.375 385.434 154.331 385.434C154.273 385.434 154.222 385.444 154.178 385.464C154.134 385.483 154.097 385.509 154.066 385.541C154.036 385.574 154.012 385.612 153.994 385.655C153.976 385.699 153.964 385.746 153.958 385.796L153.959 385.796Z" fill="#171C61"/>
<path d="M156.775 387.076C156.555 387.076 156.358 387.029 156.184 386.936C156.011 386.843 155.874 386.716 155.775 386.553C155.675 386.39 155.625 386.204 155.625 385.993C155.625 385.783 155.675 385.595 155.775 385.431C155.874 385.268 156.01 385.139 156.184 385.046C156.358 384.953 156.555 384.907 156.775 384.907H157.143V385.513H156.821C156.724 385.513 156.64 385.534 156.568 385.576C156.497 385.619 156.441 385.676 156.403 385.749C156.364 385.822 156.345 385.903 156.345 385.993C156.345 386.083 156.364 386.165 156.403 386.239C156.441 386.314 156.497 386.372 156.568 386.414C156.64 386.456 156.724 386.477 156.821 386.477H157.143V387.075H156.775V387.076Z" fill="#171C61"/>
<path d="M157.314 385.48V384.908H158.939V385.48H157.314ZM158.294 387.076C158.093 387.076 157.935 387.017 157.82 386.901C157.706 386.785 157.649 386.625 157.649 386.423V384.39H158.364V386.368C158.364 386.399 158.375 386.425 158.397 386.446C158.419 386.467 158.446 386.478 158.475 386.478H158.938V387.076H158.293H158.294Z" fill="#171C61"/>
<path d="M159.282 387.076V385.56C159.282 385.359 159.34 385.199 159.454 385.083C159.568 384.966 159.727 384.908 159.932 384.908H160.585V385.481H160.151C160.106 385.481 160.07 385.495 160.043 385.523C160.016 385.551 160.001 385.588 160.001 385.633V387.076H159.282L159.282 387.076Z" fill="#171C61"/>
<path d="M161.206 384.672C161.095 384.672 161.001 384.632 160.922 384.55C160.844 384.468 160.804 384.374 160.804 384.264C160.804 384.155 160.843 384.056 160.922 383.976C161.001 383.896 161.095 383.855 161.206 383.855C161.316 383.855 161.41 383.895 161.489 383.976C161.568 384.056 161.607 384.152 161.607 384.264C161.607 384.377 161.568 384.469 161.489 384.55C161.411 384.632 161.316 384.672 161.206 384.672ZM160.846 387.075V384.908H161.565V387.075H160.846Z" fill="#171C61"/>
<path d="M163.051 387.076C162.83 387.076 162.633 387.029 162.46 386.936C162.286 386.843 162.149 386.716 162.05 386.553C161.951 386.39 161.901 386.204 161.901 385.993C161.901 385.783 161.951 385.595 162.05 385.431C162.149 385.268 162.286 385.139 162.46 385.046C162.634 384.953 162.831 384.907 163.051 384.907H163.418V385.513H163.096C163 385.513 162.915 385.534 162.844 385.576C162.772 385.619 162.717 385.676 162.678 385.749C162.64 385.822 162.621 385.903 162.621 385.993C162.621 386.083 162.64 386.165 162.678 386.239C162.717 386.314 162.772 386.372 162.844 386.414C162.915 386.456 162.999 386.477 163.096 386.477H163.418V387.075H163.051V387.076Z" fill="#171C61"/>
</g>
<g clip-path="url(#clip3_3067_47952)">
<path d="M134.032 274.563L152.138 274.385L161.788 264.685L134.032 274.563Z" fill="#204FD1"/>
<path d="M161.785 264.685L152.135 274.385L156.327 281.556L161.785 264.685Z" fill="#7D9FFD"/>
<path d="M136 279.438L135.907 278.811H135.4L135.304 279.438H134.656L135.209 276.689H136.093L136.646 279.438H135.999H136ZM135.66 277.126L135.473 278.348H135.841L135.659 277.126H135.66Z" fill="#222222"/>
<path d="M136.778 279.438V278.901L137.727 277.172H136.898V276.689H138.413V277.23L137.464 278.951H138.436V279.438H136.778Z" fill="#222222"/>
<path d="M141.431 278.636C141.431 279.251 141.229 279.473 140.516 279.473C139.846 279.473 139.672 279.208 139.672 278.795V277.355C139.672 276.93 139.905 276.638 140.54 276.638C141.174 276.638 141.414 276.915 141.414 277.374V277.705H140.763V277.343C140.763 277.175 140.702 277.117 140.535 277.117C140.368 277.117 140.329 277.214 140.329 277.366V278.732C140.329 278.908 140.353 279.005 140.55 279.005C140.729 279.005 140.763 278.919 140.763 278.732V278.39H141.43V278.635L141.431 278.636Z" fill="#204FD1"/>
<path d="M143.25 278.804C143.25 279.275 143.021 279.501 142.479 279.501C141.91 279.501 141.678 279.252 141.678 278.843V278.029C141.678 277.574 141.852 277.317 142.464 277.317C142.909 277.317 143.25 277.469 143.25 277.959V278.804ZM142.642 277.975C142.642 277.889 142.642 277.741 142.464 277.741C142.285 277.741 142.285 277.913 142.285 277.986V278.858C142.285 278.932 142.285 279.061 142.464 279.061C142.642 279.061 142.642 278.897 142.642 278.827V277.975Z" fill="#204FD1"/>
<path d="M144.55 279.438V277.955C144.55 277.834 144.508 277.74 144.368 277.74C144.268 277.74 144.182 277.791 144.182 277.935V279.438H143.566V277.371H144.182V277.566C144.232 277.504 144.384 277.313 144.643 277.313C144.945 277.313 145.162 277.515 145.162 277.893V279.438H144.55Z" fill="#204FD1"/>
<path d="M146.484 279.438V277.955C146.484 277.834 146.442 277.74 146.302 277.74C146.201 277.74 146.116 277.791 146.116 277.935V279.438H145.5V277.371H146.116V277.566C146.166 277.504 146.317 277.313 146.577 277.313C146.879 277.313 147.096 277.515 147.096 277.893V279.438H146.484Z" fill="#204FD1"/>
<path d="M148.994 278.893C148.994 279.407 148.545 279.496 148.208 279.496C147.538 279.496 147.411 279.162 147.411 278.737V278.118C147.411 277.565 147.574 277.312 148.201 277.312C148.619 277.312 148.971 277.421 148.971 277.955V278.542H148.034V278.881C148.034 278.943 148.034 279.079 148.208 279.079C148.344 279.079 148.402 279.021 148.402 278.873V278.752H148.994V278.892V278.893ZM148.391 278.15V277.935C148.391 277.858 148.391 277.709 148.22 277.709C148.034 277.709 148.034 277.865 148.034 277.935V278.15H148.39H148.391Z" fill="#204FD1"/>
<path d="M150.818 278.944C150.818 279.092 150.772 279.496 150.07 279.496C149.64 279.496 149.257 279.384 149.257 278.881V278.005C149.257 277.795 149.277 277.619 149.447 277.476C149.614 277.339 149.831 277.316 150.032 277.316C150.543 277.316 150.818 277.53 150.818 277.88V278.16H150.206V277.927C150.206 277.798 150.16 277.732 150.047 277.732C149.928 277.732 149.873 277.79 149.873 277.927V278.904C149.873 278.966 149.877 279.095 150.051 279.095C150.199 279.095 150.206 278.982 150.206 278.923V278.709H150.818V278.943V278.944Z" fill="#204FD1"/>
<path d="M151.733 279.438C151.314 279.438 151.194 279.282 151.194 278.928V277.756H150.919V277.37H151.194V276.688H151.806V277.37H152.081V277.756H151.806V278.83C151.806 278.998 151.852 279.025 152.081 279.025V279.438H151.733Z" fill="#204FD1"/>
</g>
<g clip-path="url(#clip4_3067_47952)">
<path d="M51.9153 375.683C51.5851 376.001 51.255 376.319 50.9284 376.64C50.5994 376.959 50.2758 377.283 49.9498 377.604L48.979 378.575L48.0154 379.552L47.0584 380.534C46.7384 380.861 46.4244 381.192 46.1068 381.521L45.6318 382.015L45.1599 382.512L44.2172 383.506L43.2811 384.506L42.8134 385.006L42.3486 385.509L41.4191 386.515L40.4962 387.526C40.2079 387.843 39.9172 388.159 39.6301 388.478L39.9453 386.849L40.3526 384.665L40.5488 383.571C40.6134 383.206 40.681 382.842 40.7438 382.477L40.8353 381.941L40.3454 381.773L38.8698 381.266L38.1305 381.016L37.3906 380.767C36.8978 380.6 36.4025 380.44 35.9084 380.276C35.6614 380.194 35.4144 380.113 35.1661 380.033L34.9335 379.959C35.1117 379.727 35.2899 379.495 35.4688 379.264L35.906 378.689C36.0514 378.497 36.1979 378.306 36.3421 378.113L36.7751 377.535L37.2052 376.954L37.6317 376.37C37.7728 376.175 37.9134 375.979 38.0528 375.782C37.8775 375.95 37.7035 376.119 37.53 376.288L37.0126 376.798L36.4988 377.311L35.9886 377.826C35.8181 377.998 35.65 378.171 35.4808 378.344L34.9747 378.863C34.6398 379.211 34.3018 379.557 33.9698 379.907L33.605 380.291L34.1337 380.52L34.8485 380.83C35.0866 380.934 35.3252 381.036 35.5645 381.137C36.0424 381.34 36.5191 381.546 36.9988 381.745L37.7172 382.046L38.4362 382.345L39.3639 382.726C39.3184 382.923 39.2736 383.12 39.2281 383.316L38.9793 384.4L38.496 386.57L38.0276 388.742L37.5737 390.918L37.0006 393.665L38.9129 391.553C39.2191 391.215 39.52 390.872 39.8233 390.531L40.7312 389.508C41.0339 389.167 41.3324 388.822 41.6332 388.48L42.5335 387.45L43.4277 386.414L43.8745 385.897L44.3183 385.376L45.2054 384.335L46.0858 383.289L46.5255 382.765L46.9621 382.239C47.2528 381.887 47.5459 381.538 47.8336 381.185L48.6997 380.126L49.5598 379.062L50.4128 377.992C50.6945 377.633 50.9786 377.277 51.258 376.916C51.5391 376.556 51.8166 376.195 52.0942 375.832C52.3699 375.469 52.6462 375.105 52.916 374.737C52.5781 375.048 52.2467 375.365 51.9147 375.682L51.9153 375.683Z" fill="url(#paint0_radial_3067_47952)"/>
<path d="M47.2706 378.583L46.5516 378.27C46.3124 378.165 46.0719 378.062 45.8321 377.96L45.1113 377.651C44.8715 377.548 44.6304 377.447 44.3899 377.346L43.6674 377.042L43.3061 376.89L42.9442 376.74L42.0123 376.356L42.1475 375.77C42.2301 375.409 42.3156 375.048 42.3957 374.687L42.638 373.602C42.7175 373.24 42.8013 372.879 42.8778 372.517L43.1123 371.43C43.1901 371.068 43.2702 370.706 43.345 370.344L43.7978 368.168L44.381 365.367L42.4568 367.531L40.7054 369.501L39.8363 370.492C39.5468 370.822 39.2555 371.151 38.9696 371.484L38.1077 372.481C37.8194 372.812 37.5352 373.147 37.2499 373.481L36.3952 374.484L35.5464 375.491C35.2623 375.826 34.983 376.166 34.7024 376.503C34.4219 376.841 34.1402 377.178 33.8626 377.519C33.5845 377.859 33.3046 378.197 33.0282 378.538L32.2004 379.563L31.3792 380.594C31.1076 380.939 30.8342 381.283 30.5657 381.631C30.2953 381.977 30.0274 382.326 29.7606 382.675C29.495 383.025 29.2288 383.375 28.9692 383.731C29.2958 383.432 29.6164 383.127 29.937 382.823C30.2564 382.517 30.5747 382.212 30.8905 381.904C31.2081 381.597 31.5209 381.286 31.8355 380.977L32.7734 380.044L33.7041 379.106C34.014 378.793 34.3202 378.477 34.6289 378.162C34.9375 377.848 35.2426 377.531 35.5482 377.214C35.8539 376.897 36.1607 376.581 36.4628 376.262L37.3731 375.306L38.2775 374.345C38.5784 374.025 38.8811 373.705 39.1789 373.382L40.0755 372.415C40.3758 372.093 40.6707 371.768 40.9674 371.444L41.7378 370.601C41.7025 370.783 41.6678 370.965 41.6325 371.146L41.4214 372.237C41.3496 372.601 41.2844 372.965 41.2162 373.33L41.0128 374.422C40.9446 374.786 40.8812 375.151 40.8154 375.515L40.6199 376.609L40.5236 377.149L41.0218 377.32L42.507 377.829L42.8784 377.956L43.2505 378.081L43.9952 378.331C44.2434 378.415 44.4916 378.498 44.7405 378.579L45.4869 378.825C45.7358 378.906 45.9846 378.988 46.234 379.068L46.4613 379.141C46.2902 379.355 46.1198 379.568 45.9487 379.781L45.5145 380.33C45.3703 380.513 45.225 380.695 45.082 380.88L44.6519 381.432L44.2255 381.986L43.802 382.544C43.6614 382.731 43.522 382.918 43.3839 383.106C43.5573 382.948 43.7302 382.789 43.9013 382.628L44.4139 382.146L44.9229 381.661L45.4283 381.172C45.5976 381.01 45.7639 380.846 45.9314 380.682L46.4332 380.19C46.7652 379.861 47.0995 379.533 47.4291 379.201L47.8101 378.817L47.2712 378.582L47.2706 378.583Z" fill="url(#paint1_radial_3067_47952)"/>
</g>
</g>
</g>
<path d="M30 2.5H194C209.188 2.5 221.5 14.8122 221.5 30V404.5H2.5V30C2.5 14.8122 14.8122 2.5 30 2.5Z" stroke="#C8CDDC" stroke-width="5"/>
</g>
<defs>
<filter id="filter0_d_3067_47952" x="-5.44228" y="-5.44228" width="234.885" height="619.522" filterUnits="userSpaceOnUse" color-interpolation-filters="sRGB">
<feFlood flood-opacity="0" result="BackgroundImageFix"/>
<feColorMatrix in="SourceAlpha" type="matrix" values="0 0 0 0 0 0 0 0 0 0 0 0 0 0 0 0 0 0 127 0" result="hardAlpha"/>
<feOffset/>
<feGaussianBlur stdDeviation="2.72114"/>
<feComposite in2="hardAlpha" operator="out"/>
<feColorMatrix type="matrix" values="0 0 0 0 0.537255 0 0 0 0 0.639216 0 0 0 0 0.788235 0 0 0 0.2 0"/>
<feBlend mode="normal" in2="BackgroundImageFix" result="effect1_dropShadow_3067_47952"/>
<feBlend mode="normal" in="SourceGraphic" in2="effect1_dropShadow_3067_47952" result="shape"/>
</filter>
<filter id="filter1_d_3067_47952" x="-5.44228" y="-3.26537" width="234.885" height="139.885" filterUnits="userSpaceOnUse" color-interpolation-filters="sRGB">
<feFlood flood-opacity="0" result="BackgroundImageFix"/>
<feColorMatrix in="SourceAlpha" type="matrix" values="0 0 0 0 0 0 0 0 0 0 0 0 0 0 0 0 0 0 127 0" result="hardAlpha"/>
<feOffset dy="2.17691"/>
<feGaussianBlur stdDeviation="2.72114"/>
<feComposite in2="hardAlpha" operator="out"/>
<feColorMatrix type="matrix" values="0 0 0 0 0.537255 0 0 0 0 0.639216 0 0 0 0 0.788235 0 0 0 0.4 0"/>
<feBlend mode="normal" in2="BackgroundImageFix" result="effect1_dropShadow_3067_47952"/>
<feBlend mode="normal" in="SourceGraphic" in2="effect1_dropShadow_3067_47952" result="shape"/>
</filter>
<filter id="filter2_d_3067_47952" x="11.5577" y="241.283" width="97.9612" height="111.023" filterUnits="userSpaceOnUse" color-interpolation-filters="sRGB">
<feFlood flood-opacity="0" result="BackgroundImageFix"/>
<feColorMatrix in="SourceAlpha" type="matrix" values="0 0 0 0 0 0 0 0 0 0 0 0 0 0 0 0 0 0 127 0" result="hardAlpha"/>
<feOffset/>
<feGaussianBlur stdDeviation="2.72114"/>
<feComposite in2="hardAlpha" operator="out"/>
<feColorMatrix type="matrix" values="0 0 0 0 0.537255 0 0 0 0 0.639216 0 0 0 0 0.788235 0 0 0 0.2 0"/>
<feBlend mode="normal" in2="BackgroundImageFix" result="effect1_dropShadow_3067_47952"/>
<feBlend mode="normal" in="SourceGraphic" in2="effect1_dropShadow_3067_47952" result="shape"/>
</filter>
<filter id="filter3_d_3067_47952" x="11.5577" y="347.952" width="97.9612" height="111.023" filterUnits="userSpaceOnUse" color-interpolation-filters="sRGB">
<feFlood flood-opacity="0" result="BackgroundImageFix"/>
<feColorMatrix in="SourceAlpha" type="matrix" values="0 0 0 0 0 0 0 0 0 0 0 0 0 0 0 0 0 0 127 0" result="hardAlpha"/>
<feOffset/>
<feGaussianBlur stdDeviation="2.72114"/>
<feComposite in2="hardAlpha" operator="out"/>
<feColorMatrix type="matrix" values="0 0 0 0 0.537255 0 0 0 0 0.639216 0 0 0 0 0.788235 0 0 0 0.2 0"/>
<feBlend mode="normal" in2="BackgroundImageFix" result="effect1_dropShadow_3067_47952"/>
<feBlend mode="normal" in="SourceGraphic" in2="effect1_dropShadow_3067_47952" result="shape"/>
</filter>
<filter id="filter4_d_3067_47952" x="114.8" y="347.952" width="97.9612" height="111.023" filterUnits="userSpaceOnUse" color-interpolation-filters="sRGB">
<feFlood flood-opacity="0" result="BackgroundImageFix"/>
<feColorMatrix in="SourceAlpha" type="matrix" values="0 0 0 0 0 0 0 0 0 0 0 0 0 0 0 0 0 0 127 0" result="hardAlpha"/>
<feOffset/>
<feGaussianBlur stdDeviation="2.72114"/>
<feComposite in2="hardAlpha" operator="out"/>
<feColorMatrix type="matrix" values="0 0 0 0 0.537255 0 0 0 0 0.639216 0 0 0 0 0.788235 0 0 0 0.2 0"/>
<feBlend mode="normal" in2="BackgroundImageFix" result="effect1_dropShadow_3067_47952"/>
<feBlend mode="normal" in="SourceGraphic" in2="effect1_dropShadow_3067_47952" result="shape"/>
</filter>
<filter id="filter5_d_3067_47952" x="114.8" y="241.283" width="97.9612" height="111.023" filterUnits="userSpaceOnUse" color-interpolation-filters="sRGB">
<feFlood flood-opacity="0" result="BackgroundImageFix"/>
<feColorMatrix in="SourceAlpha" type="matrix" values="0 0 0 0 0 0 0 0 0 0 0 0 0 0 0 0 0 0 127 0" result="hardAlpha"/>
<feOffset/>
<feGaussianBlur stdDeviation="2.72114"/>
<feComposite in2="hardAlpha" operator="out"/>
<feColorMatrix type="matrix" values="0 0 0 0 0.537255 0 0 0 0 0.639216 0 0 0 0 0.788235 0 0 0 0.2 0"/>
<feBlend mode="normal" in2="BackgroundImageFix" result="effect1_dropShadow_3067_47952"/>
<feBlend mode="normal" in="SourceGraphic" in2="effect1_dropShadow_3067_47952" result="shape"/>
</filter>
<radialGradient id="paint0_radial_3067_47952" cx="0" cy="0" r="1" gradientUnits="userSpaceOnUse" gradientTransform="translate(52.8119 374.82) scale(25.4545 24.6703)">
<stop stop-color="#1F26C3"/>
<stop offset="1" stop-color="#183D75"/>
</radialGradient>
<radialGradient id="paint1_radial_3067_47952" cx="0" cy="0" r="1" gradientUnits="userSpaceOnUse" gradientTransform="translate(44.1369 365.618) scale(24.1817 23.4366)">
<stop stop-color="#3023CC"/>
<stop offset="1" stop-color="#EA1FB1"/>
</radialGradient>
<clipPath id="clip0_3067_47952">
<path d="M0 30C0 13.4315 13.4315 0 30 0H194C210.569 0 224 13.4315 224 30V407H0V30Z" fill="white"/>
</clipPath>
<clipPath id="clip1_3067_47952">
<rect width="25.5787" height="20.6807" fill="white" transform="translate(27.8828 262.508)"/>
</clipPath>
<clipPath id="clip2_3067_47952">
<rect width="30.4768" height="17.4153" fill="white" transform="translate(132.941 370.81)"/>
</clipPath>
<clipPath id="clip3_3067_47952">
<rect width="27.7556" height="16.8711" fill="white" transform="translate(134.031 264.685)"/>
</clipPath>
<clipPath id="clip4_3067_47952">
<rect width="23.946" height="28.2999" fill="white" transform="translate(28.9688 365.367)"/>
</clipPath>
</defs>
</svg>
