<svg width="20" height="20" viewBox="0 0 20 20" fill="none" xmlns="http://www.w3.org/2000/svg">
<g id="akar-icons:circle-alert-fill" clip-path="url(#clip0_1624_2843)">
<path id="Vector" fill-rule="evenodd" clip-rule="evenodd" d="M10.0007 0.833984C4.93815 0.833984 0.833984 4.93815 0.833984 10.0007C0.833984 15.0632 4.93815 19.1673 10.0007 19.1673C15.0632 19.1673 19.1673 15.0632 19.1673 10.0007C19.1673 4.93815 15.0632 0.833984 10.0007 0.833984ZM10.834 5.83398C10.834 5.61297 10.7462 5.40101 10.5899 5.24473C10.4336 5.08845 10.2217 5.00065 10.0007 5.00065C9.77964 5.00065 9.56768 5.08845 9.4114 5.24473C9.25512 5.40101 9.16732 5.61297 9.16732 5.83398V10.834C9.16732 11.055 9.25512 11.267 9.4114 11.4232C9.56768 11.5795 9.77964 11.6673 10.0007 11.6673C10.2217 11.6673 10.4336 11.5795 10.5899 11.4232C10.7462 11.267 10.834 11.055 10.834 10.834V5.83398ZM10.834 13.7507C10.834 13.5296 10.7462 13.3177 10.5899 13.1614C10.4336 13.0051 10.2217 12.9173 10.0007 12.9173C9.77964 12.9173 9.56768 13.0051 9.4114 13.1614C9.25512 13.3177 9.16732 13.5296 9.16732 13.7507V14.1673C9.16732 14.3883 9.25512 14.6003 9.4114 14.7566C9.56768 14.9129 9.77964 15.0007 10.0007 15.0007C10.2217 15.0007 10.4336 14.9129 10.5899 14.7566C10.7462 14.6003 10.834 14.3883 10.834 14.1673V13.7507Z" fill="#E2E5ED"/>
</g>
<defs>
<clipPath id="clip0_1624_2843">
<rect width="20" height="20" fill="white"/>
</clipPath>
</defs>
</svg>
