<svg width="281" height="280" viewBox="0 0 281 280" fill="none" xmlns="http://www.w3.org/2000/svg">
<g id="Frame 12139">
<g id="Rectangle 8774" filter="url(#filter0_d_353_777)">
<rect width="280.5" height="280" rx="8" fill="white"/>
<rect x="0.5" y="0.5" width="279.5" height="279" rx="7.5" stroke="#E2E5ED"/>
</g>
<g id="Group 9134">
<g id="Group 1302">
<g id="Group">
<path id="Vector" d="M194.562 190.682V180.514H184.394V200.85" stroke="#A3A7B3" stroke-width="3" stroke-linecap="round" stroke-linejoin="round"/>
<path id="Vector_2" d="M238.626 217.796V243.214H179.313V217.796" stroke="#A3A7B3" stroke-width="3" stroke-linecap="round" stroke-linejoin="round"/>
<path id="Vector_3" d="M209.815 175.429L172.534 212.712L179.311 219.489L209.815 188.985L240.319 219.489L247.099 212.712L209.815 175.429Z" stroke="#A3A7B3" stroke-width="3" stroke-linecap="round" stroke-linejoin="round"/>
<path id="Vector_4" d="M204.732 217.796H191.176V243.216H204.732V217.796Z" stroke="#A3A7B3" stroke-width="3" stroke-linecap="round" stroke-linejoin="round"/>
<path id="Vector_5" d="M228.458 217.796H211.511V231.353H228.458V217.796Z" stroke="#A3A7B3" stroke-width="3" stroke-linecap="round" stroke-linejoin="round"/>
<path id="Vector_6" d="M169.144 243.214H250.487" stroke="#A3A7B3" stroke-width="3" stroke-linecap="round" stroke-linejoin="round"/>
</g>
</g>
</g>
<g id="Group 12394">
<g id="Group 12393">
<path id="&#234;&#176;&#156;&#236;&#157;&#184;&#236;&#154;&#169;&#235;&#143;&#132;" d="M51.968 57.064H48.944V45.832H46.976V56.128H44.024V35.536H46.976V43.288H48.944V34.96H51.968V57.064ZM42.584 37.696C42.584 39.248 42.456 40.728 42.2 42.136C41.944 43.528 41.512 44.848 40.904 46.096C40.296 47.344 39.472 48.512 38.432 49.6C37.408 50.672 36.128 51.656 34.592 52.552L32.744 50.344C34.952 49.064 36.576 47.592 37.616 45.928C38.656 44.264 39.272 42.36 39.464 40.216H33.872V37.696H42.584ZM69.7981 50.848V34.984H72.9901V50.848H69.7981ZM66.9661 41.992C66.9661 42.792 66.8141 43.536 66.5101 44.224C66.2061 44.912 65.7821 45.504 65.2381 46C64.6941 46.496 64.0541 46.888 63.3181 47.176C62.5981 47.448 61.8141 47.584 60.9661 47.584C60.1181 47.584 59.3261 47.448 58.5901 47.176C57.8541 46.888 57.2141 46.496 56.6701 46C56.1421 45.504 55.7181 44.912 55.3981 44.224C55.0941 43.536 54.9421 42.792 54.9421 41.992C54.9421 41.176 55.0941 40.424 55.3981 39.736C55.7181 39.048 56.1421 38.456 56.6701 37.96C57.2141 37.464 57.8541 37.08 58.5901 36.808C59.3261 36.52 60.1181 36.376 60.9661 36.376C61.8141 36.376 62.5981 36.52 63.3181 36.808C64.0541 37.08 64.6941 37.464 65.2381 37.96C65.7821 38.456 66.2061 39.048 66.5101 39.736C66.8141 40.424 66.9661 41.176 66.9661 41.992ZM58.0381 41.992C58.0381 42.904 58.3181 43.608 58.8781 44.104C59.4541 44.6 60.1501 44.848 60.9661 44.848C61.7981 44.848 62.4861 44.6 63.0301 44.104C63.5901 43.608 63.8701 42.904 63.8701 41.992C63.8701 41.08 63.5901 40.376 63.0301 39.88C62.4861 39.368 61.7981 39.112 60.9661 39.112C60.1501 39.112 59.4541 39.368 58.8781 39.88C58.3181 40.376 58.0381 41.08 58.0381 41.992ZM73.5421 56.68H58.2781V49.288H61.4461V54.16H73.5421V56.68ZM96.1963 47.944H76.2283V45.448H80.7163V42.784C79.0523 42.032 78.2203 40.952 78.2203 39.544C78.2203 38.888 78.4043 38.296 78.7723 37.768C79.1563 37.24 79.6923 36.792 80.3803 36.424C81.0843 36.056 81.9243 35.776 82.9003 35.584C83.8923 35.392 84.9963 35.296 86.2123 35.296C87.4443 35.296 88.5483 35.392 89.5243 35.584C90.5163 35.776 91.3563 36.056 92.0443 36.424C92.7483 36.792 93.2843 37.24 93.6523 37.768C94.0363 38.296 94.2283 38.888 94.2283 39.544C94.2283 40.264 94.0043 40.896 93.5563 41.44C93.1083 41.984 92.4763 42.44 91.6603 42.808V45.448H96.1963V47.944ZM86.2123 37.696C84.7083 37.696 83.5403 37.848 82.7083 38.152C81.8923 38.456 81.4843 38.92 81.4843 39.544C81.4843 40.152 81.8923 40.608 82.7083 40.912C83.5403 41.216 84.7083 41.368 86.2123 41.368C87.7643 41.368 88.9403 41.216 89.7403 40.912C90.5563 40.608 90.9643 40.152 90.9643 39.544C90.9643 38.92 90.5563 38.456 89.7403 38.152C88.9403 37.848 87.7643 37.696 86.2123 37.696ZM88.4923 45.448V43.624C88.1403 43.656 87.7723 43.688 87.3883 43.72C87.0203 43.736 86.6283 43.744 86.2123 43.744C85.3803 43.744 84.6043 43.696 83.8843 43.6V45.448H88.4923ZM86.1643 49.048C87.3643 49.048 88.4363 49.136 89.3803 49.312C90.3243 49.488 91.1243 49.752 91.7803 50.104C92.4523 50.44 92.9643 50.856 93.3163 51.352C93.6683 51.848 93.8443 52.416 93.8443 53.056C93.8443 53.696 93.6683 54.272 93.3163 54.784C92.9643 55.28 92.4523 55.696 91.7803 56.032C91.1243 56.384 90.3243 56.648 89.3803 56.824C88.4363 57 87.3643 57.088 86.1643 57.088C84.9643 57.088 83.8923 57 82.9483 56.824C82.0043 56.648 81.2043 56.384 80.5483 56.032C79.8923 55.696 79.3883 55.28 79.0363 54.784C78.6843 54.272 78.5083 53.696 78.5083 53.056C78.5083 52.416 78.6843 51.848 79.0363 51.352C79.3883 50.856 79.8923 50.44 80.5483 50.104C81.2043 49.752 82.0043 49.488 82.9483 49.312C83.8923 49.136 84.9643 49.048 86.1643 49.048ZM86.1643 54.688C89.1403 54.688 90.6283 54.144 90.6283 53.056C90.6283 52.496 90.2603 52.088 89.5243 51.832C88.7883 51.576 87.6683 51.448 86.1643 51.448C84.6603 51.448 83.5403 51.576 82.8043 51.832C82.0683 52.088 81.7003 52.496 81.7003 53.056C81.7003 54.144 83.1883 54.688 86.1643 54.688ZM117.842 54.568H97.8264V51.976H106.226V47.368H100.154V36.472H115.538V39.016H103.346V44.824H115.706V47.368H109.394V51.976H117.842V54.568Z" fill="#222222"/>
<path id="&#236;&#158;&#144;&#237;&#131;&#157;, &#236;&#130;&#172;&#236;&#151;&#133;&#236;&#158;&#165;" d="M43.888 83.728V91.184H42.576V76.848H43.888V82.624H46.256V83.728H43.888ZM37.68 81.216C37.68 81.792 37.776 82.3733 37.968 82.96C38.16 83.536 38.4213 84.0853 38.752 84.608C39.0933 85.1307 39.488 85.6053 39.936 86.032C40.384 86.448 40.8693 86.7787 41.392 87.024L40.64 88.08C40.2453 87.8773 39.8613 87.6267 39.488 87.328C39.1253 87.0187 38.7893 86.6773 38.48 86.304C38.1707 85.92 37.8933 85.5093 37.648 85.072C37.4027 84.624 37.2 84.16 37.04 83.68C36.88 84.2027 36.672 84.7093 36.416 85.2C36.1707 85.68 35.888 86.128 35.568 86.544C35.248 86.9493 34.9013 87.3173 34.528 87.648C34.1653 87.968 33.7813 88.2293 33.376 88.432L32.608 87.392C33.12 87.136 33.6053 86.784 34.064 86.336C34.5227 85.888 34.9227 85.3867 35.264 84.832C35.6053 84.2773 35.8773 83.6907 36.08 83.072C36.2827 82.4427 36.384 81.824 36.384 81.216V79.392H33.104V78.304H40.864V79.392H37.68V81.216ZM59.3588 85.536H58.0948V81.648H56.1748V85.44H54.9268V77.104H56.1748V80.576H58.0948V76.848H59.3588V85.536ZM54.0948 84.384C53.6788 84.4693 53.2734 84.5387 52.8788 84.592C52.4948 84.6453 52.0948 84.688 51.6788 84.72C51.2628 84.7413 50.8201 84.7573 50.3508 84.768C49.8814 84.7787 49.3588 84.784 48.7828 84.784H47.8708V77.888H53.4068V78.944H49.1348V80.752H53.2468V81.76H49.1348V83.712C49.6468 83.712 50.1161 83.7067 50.5428 83.696C50.9694 83.6853 51.3748 83.664 51.7588 83.632C52.1428 83.6 52.5108 83.5627 52.8628 83.52C53.2254 83.4667 53.5934 83.4027 53.9668 83.328L54.0948 84.384ZM59.3588 86.288V91.184H58.0468V87.344H49.7108V86.288H59.3588ZM63.1495 87.968L62.1735 91.2H61.1175L61.6935 87.968H63.1495ZM78.6549 83.744V91.184H77.3429V76.848H78.6549V82.656H81.0229V83.744H78.6549ZM72.4309 80.656C72.4309 81.2853 72.5269 81.9147 72.7189 82.544C72.9109 83.1627 73.1722 83.744 73.5029 84.288C73.8335 84.832 74.2175 85.3227 74.6549 85.76C75.1029 86.1973 75.5775 86.544 76.0789 86.8L75.2629 87.84C74.8789 87.6373 74.5109 87.3867 74.1589 87.088C73.8069 86.7787 73.4815 86.432 73.1829 86.048C72.8949 85.664 72.6282 85.248 72.3829 84.8C72.1482 84.3413 71.9509 83.8667 71.7909 83.376C71.4815 84.4427 71.0122 85.392 70.3829 86.224C69.7535 87.0453 69.0335 87.68 68.2229 88.128L67.4389 87.072C67.9509 86.8053 68.4309 86.4427 68.8789 85.984C69.3375 85.5253 69.7322 85.0133 70.0629 84.448C70.3935 83.872 70.6549 83.2587 70.8469 82.608C71.0389 81.9573 71.1349 81.3067 71.1349 80.656V78.08H72.4309V80.656ZM93.8376 84.544H92.5096V81.328H89.5976C89.5336 81.7547 89.4003 82.144 89.1976 82.496C88.995 82.8373 88.7336 83.1307 88.4136 83.376C88.0936 83.6213 87.7256 83.8133 87.3096 83.952C86.8936 84.08 86.435 84.144 85.9336 84.144C85.4003 84.144 84.9043 84.064 84.4456 83.904C83.9976 83.744 83.6083 83.52 83.2776 83.232C82.9576 82.9333 82.7016 82.5813 82.5096 82.176C82.3283 81.76 82.2376 81.3067 82.2376 80.816C82.2376 80.3253 82.3283 79.8773 82.5096 79.472C82.7016 79.0667 82.9576 78.72 83.2776 78.432C83.6083 78.1333 83.9976 77.904 84.4456 77.744C84.9043 77.584 85.4003 77.504 85.9336 77.504C86.4136 77.504 86.8616 77.5733 87.2776 77.712C87.6936 77.84 88.0616 78.0267 88.3816 78.272C88.7016 78.5067 88.963 78.7947 89.1656 79.136C89.379 79.4667 89.5176 79.84 89.5816 80.256H92.5096V76.848H93.8376V84.544ZM85.9336 83.056C86.2856 83.056 86.611 83.0027 86.9096 82.896C87.219 82.7787 87.4803 82.624 87.6936 82.432C87.907 82.2293 88.0723 81.9947 88.1896 81.728C88.3176 81.4507 88.3816 81.1467 88.3816 80.816C88.3816 80.4853 88.3176 80.1867 88.1896 79.92C88.0723 79.6427 87.907 79.408 87.6936 79.216C87.4803 79.0133 87.219 78.8587 86.9096 78.752C86.611 78.6453 86.2856 78.592 85.9336 78.592C85.5816 78.592 85.251 78.6453 84.9416 78.752C84.643 78.8587 84.387 79.0133 84.1736 79.216C83.9603 79.408 83.7896 79.6427 83.6616 79.92C83.5443 80.1867 83.4856 80.4853 83.4856 80.816C83.4856 81.1467 83.5443 81.4507 83.6616 81.728C83.7896 81.9947 83.9603 82.2293 84.1736 82.432C84.387 82.624 84.643 82.7787 84.9416 82.896C85.251 83.0027 85.5816 83.056 85.9336 83.056ZM93.8376 85.248V90.992H84.6536V85.248H85.9496V87.056H92.5256V85.248H93.8376ZM85.9496 88.08V89.936H92.5256V88.08H85.9496ZM109.676 81.568H107.548V85.504H106.236V76.848H107.548V80.464H109.676V81.568ZM104.108 84.8C103.276 84.5333 102.567 84.1333 101.98 83.6C101.394 83.056 100.946 82.4267 100.636 81.712C100.327 82.544 99.863 83.264 99.2444 83.872C98.6257 84.4693 97.8844 84.9227 97.0204 85.232L96.3484 84.192C96.8924 84 97.383 83.7493 97.8204 83.44C98.2684 83.12 98.647 82.7573 98.9564 82.352C99.2764 81.9467 99.5217 81.504 99.6924 81.024C99.863 80.544 99.9484 80.0427 99.9484 79.52V78.96H96.7324V77.904H104.428V78.96H101.26V79.52C101.26 79.9893 101.34 80.4427 101.5 80.88C101.66 81.3173 101.89 81.7227 102.188 82.096C102.498 82.4693 102.866 82.8 103.292 83.088C103.719 83.376 104.199 83.6053 104.732 83.776L104.108 84.8ZM102.988 85.872C103.714 85.872 104.364 85.9307 104.94 86.048C105.527 86.1653 106.023 86.3413 106.428 86.576C106.844 86.8 107.159 87.0773 107.372 87.408C107.596 87.728 107.708 88.096 107.708 88.512C107.708 88.928 107.596 89.3013 107.372 89.632C107.159 89.9627 106.844 90.24 106.428 90.464C106.023 90.6987 105.527 90.8747 104.94 90.992C104.364 91.1093 103.714 91.168 102.988 91.168C101.516 91.168 100.359 90.9333 99.5164 90.464C98.6737 90.0053 98.2524 89.3547 98.2524 88.512C98.2524 87.68 98.6737 87.0347 99.5164 86.576C100.359 86.1067 101.516 85.872 102.988 85.872ZM102.988 90.128C104.055 90.128 104.887 89.9893 105.484 89.712C106.092 89.424 106.396 89.024 106.396 88.512C106.396 88 106.092 87.6053 105.484 87.328C104.887 87.0507 104.055 86.912 102.988 86.912C101.89 86.912 101.042 87.0507 100.444 87.328C99.8577 87.6053 99.5644 88 99.5644 88.512C99.5644 89.024 99.8577 89.424 100.444 89.712C101.042 89.9893 101.89 90.128 102.988 90.128Z" fill="#4E5055"/>
</g>
</g>
</g>
<defs>
<filter id="filter0_d_353_777" x="-10" y="-10" width="300.5" height="300" filterUnits="userSpaceOnUse" color-interpolation-filters="sRGB">
<feFlood flood-opacity="0" result="BackgroundImageFix"/>
<feColorMatrix in="SourceAlpha" type="matrix" values="0 0 0 0 0 0 0 0 0 0 0 0 0 0 0 0 0 0 127 0" result="hardAlpha"/>
<feOffset/>
<feGaussianBlur stdDeviation="5"/>
<feComposite in2="hardAlpha" operator="out"/>
<feColorMatrix type="matrix" values="0 0 0 0 0.537255 0 0 0 0 0.639216 0 0 0 0 0.788235 0 0 0 0.2 0"/>
<feBlend mode="normal" in2="BackgroundImageFix" result="effect1_dropShadow_353_777"/>
<feBlend mode="normal" in="SourceGraphic" in2="effect1_dropShadow_353_777" result="shape"/>
</filter>
</defs>
</svg>
