<svg width="281" height="280" viewBox="0 0 281 280" fill="none" xmlns="http://www.w3.org/2000/svg">
<g id="Frame 12141">
<g id="Rectangle 8774" filter="url(#filter0_d_353_828)">
<rect width="280.5" height="280" rx="8" fill="white"/>
<rect x="0.5" y="0.5" width="279.5" height="279" rx="7.5" stroke="#E2E5ED"/>
</g>
<g id="Group 12394">
<g id="Group 12393">
<path id="&#235;&#170;&#168;&#234;&#176;&#157;&#236;&#154;&#169;&#235;&#143;&#132;" d="M53.048 54.496H33.032V51.928H41.432V47.44H35.144V36.592H50.864V47.44H44.6V51.928H53.048V54.496ZM47.768 44.944V39.088H38.24V44.944H47.768ZM73.4701 47.872H70.4701V42.616H68.5741V47.8H65.6221V35.344H68.5741V40.072H70.4701V34.96H73.4701V47.872ZM64.2061 36.496C64.2061 39.296 63.5341 41.64 62.1901 43.528C60.8461 45.416 58.7341 46.92 55.8541 48.04L54.3901 45.736C56.4541 44.984 57.9981 44.048 59.0221 42.928C60.0621 41.808 60.6941 40.504 60.9181 39.016H55.4461V36.496H64.2061ZM73.4701 48.784V57.088H70.3021V51.328H58.1581V48.784H73.4701ZM96.1963 47.944H76.2283V45.448H80.7163V42.784C79.0523 42.032 78.2203 40.952 78.2203 39.544C78.2203 38.888 78.4043 38.296 78.7723 37.768C79.1563 37.24 79.6923 36.792 80.3803 36.424C81.0843 36.056 81.9243 35.776 82.9003 35.584C83.8923 35.392 84.9963 35.296 86.2123 35.296C87.4443 35.296 88.5483 35.392 89.5243 35.584C90.5163 35.776 91.3563 36.056 92.0443 36.424C92.7483 36.792 93.2843 37.24 93.6523 37.768C94.0363 38.296 94.2283 38.888 94.2283 39.544C94.2283 40.264 94.0043 40.896 93.5563 41.44C93.1083 41.984 92.4763 42.44 91.6603 42.808V45.448H96.1963V47.944ZM86.2123 37.696C84.7083 37.696 83.5403 37.848 82.7083 38.152C81.8923 38.456 81.4843 38.92 81.4843 39.544C81.4843 40.152 81.8923 40.608 82.7083 40.912C83.5403 41.216 84.7083 41.368 86.2123 41.368C87.7643 41.368 88.9403 41.216 89.7403 40.912C90.5563 40.608 90.9643 40.152 90.9643 39.544C90.9643 38.92 90.5563 38.456 89.7403 38.152C88.9403 37.848 87.7643 37.696 86.2123 37.696ZM88.4923 45.448V43.624C88.1403 43.656 87.7723 43.688 87.3883 43.72C87.0203 43.736 86.6283 43.744 86.2123 43.744C85.3803 43.744 84.6043 43.696 83.8843 43.6V45.448H88.4923ZM86.1643 49.048C87.3643 49.048 88.4363 49.136 89.3803 49.312C90.3243 49.488 91.1243 49.752 91.7803 50.104C92.4523 50.44 92.9643 50.856 93.3163 51.352C93.6683 51.848 93.8443 52.416 93.8443 53.056C93.8443 53.696 93.6683 54.272 93.3163 54.784C92.9643 55.28 92.4523 55.696 91.7803 56.032C91.1243 56.384 90.3243 56.648 89.3803 56.824C88.4363 57 87.3643 57.088 86.1643 57.088C84.9643 57.088 83.8923 57 82.9483 56.824C82.0043 56.648 81.2043 56.384 80.5483 56.032C79.8923 55.696 79.3883 55.28 79.0363 54.784C78.6843 54.272 78.5083 53.696 78.5083 53.056C78.5083 52.416 78.6843 51.848 79.0363 51.352C79.3883 50.856 79.8923 50.44 80.5483 50.104C81.2043 49.752 82.0043 49.488 82.9483 49.312C83.8923 49.136 84.9643 49.048 86.1643 49.048ZM86.1643 54.688C89.1403 54.688 90.6283 54.144 90.6283 53.056C90.6283 52.496 90.2603 52.088 89.5243 51.832C88.7883 51.576 87.6683 51.448 86.1643 51.448C84.6603 51.448 83.5403 51.576 82.8043 51.832C82.0683 52.088 81.7003 52.496 81.7003 53.056C81.7003 54.144 83.1883 54.688 86.1643 54.688ZM117.842 54.568H97.8264V51.976H106.226V47.368H100.154V36.472H115.538V39.016H103.346V44.824H115.706V47.368H109.394V51.976H117.842V54.568Z" fill="#222222"/>
<path id="&#236;&#185;&#180;&#237;&#142;&#152;, &#236;&#136;&#153;&#235;&#176;&#149;&#236;&#151;&#133;" d="M43.888 83.744V91.184H42.576V76.832H43.888V82.656H46.192V83.744H43.888ZM40.24 78.32C40.24 79.3547 40.1387 80.368 39.936 81.36C39.7333 82.3413 39.3813 83.28 38.88 84.176C38.3893 85.072 37.7227 85.9147 36.88 86.704C36.0373 87.4827 34.976 88.192 33.696 88.832L32.976 87.824C34.3093 87.1627 35.3813 86.432 36.192 85.632C37.0133 84.8213 37.648 83.9307 38.096 82.96L33.264 83.424L33.04 82.272L38.496 81.904C38.7413 81.104 38.8853 80.2667 38.928 79.392H33.76V78.32H40.24ZM59.5028 91.184H58.2388V76.848H59.5028V91.184ZM56.7028 77.184V90.432H55.4708V83.456H53.5188V82.304H55.4708V77.184H56.7028ZM52.7508 86.368C53.0068 86.3467 53.2628 86.3253 53.5188 86.304C53.7748 86.272 54.0201 86.24 54.2548 86.208L54.3348 87.168C53.7801 87.2747 53.1828 87.36 52.5428 87.424C51.9134 87.488 51.2788 87.536 50.6388 87.568C50.0094 87.6 49.4014 87.6213 48.8148 87.632C48.2281 87.6427 47.7001 87.648 47.2308 87.648L47.1028 86.56H48.1588C48.2868 86.56 48.4201 86.5547 48.5588 86.544V79.712H47.3748V78.656H53.9348V79.712H52.7508V86.368ZM49.7588 86.512C50.0574 86.5013 50.3508 86.496 50.6388 86.496C50.9374 86.4853 51.2414 86.4693 51.5508 86.448V79.712H49.7588V86.512ZM63.1495 87.968L62.1735 91.2H61.1175L61.6935 87.968H63.1495ZM79.3589 82.496C78.8042 82.4107 78.2602 82.2773 77.7269 82.096C77.2042 81.904 76.7082 81.6747 76.2389 81.408C75.7802 81.1307 75.3642 80.8213 74.9909 80.48C74.6282 80.128 74.3349 79.7547 74.1109 79.36C73.8869 79.776 73.5882 80.1547 73.2149 80.496C72.8522 80.8373 72.4415 81.1413 71.9829 81.408C71.5242 81.664 71.0282 81.888 70.4949 82.08C69.9615 82.2613 69.4175 82.4 68.8629 82.496L68.3669 81.456C69.0069 81.3707 69.6309 81.2107 70.2389 80.976C70.8469 80.7413 71.3855 80.4587 71.8549 80.128C72.3349 79.7867 72.7189 79.408 73.0069 78.992C73.2949 78.5653 73.4389 78.1227 73.4389 77.664V77.024H74.7829V77.664C74.7829 78.1227 74.9269 78.5653 75.2149 78.992C75.5029 79.408 75.8815 79.7867 76.3509 80.128C76.8309 80.4587 77.3749 80.7413 77.9829 80.976C78.5909 81.2107 79.2095 81.3707 79.8389 81.456L79.3589 82.496ZM74.7509 86.512H78.9909V91.2H77.6789V87.568H69.0549V86.512H73.4389V84.688H67.6149V83.632H80.5909V84.688H74.7509V86.512ZM93.1496 81.648V85.504H91.8376V76.848H93.1496V80.56H95.2776V81.648H93.1496ZM82.6056 84.528V77.744H83.9016V79.984H87.9656V77.744H89.2456V84.528H82.6056ZM83.9016 81.008V83.472H87.9656V81.008H83.9016ZM93.1496 86.272V91.2H91.8376V87.328H83.8216V86.272H93.1496ZM108.236 84.544H106.908V81.328H103.996C103.932 81.7547 103.799 82.144 103.596 82.496C103.394 82.8373 103.132 83.1307 102.812 83.376C102.492 83.6213 102.124 83.8133 101.708 83.952C101.292 84.08 100.834 84.144 100.332 84.144C99.799 84.144 99.303 84.064 98.8444 83.904C98.3964 83.744 98.007 83.52 97.6764 83.232C97.3564 82.9333 97.1004 82.5813 96.9084 82.176C96.727 81.76 96.6364 81.3067 96.6364 80.816C96.6364 80.3253 96.727 79.8773 96.9084 79.472C97.1004 79.0667 97.3564 78.72 97.6764 78.432C98.007 78.1333 98.3964 77.904 98.8444 77.744C99.303 77.584 99.799 77.504 100.332 77.504C100.812 77.504 101.26 77.5733 101.676 77.712C102.092 77.84 102.46 78.0267 102.78 78.272C103.1 78.5067 103.362 78.7947 103.564 79.136C103.778 79.4667 103.916 79.84 103.98 80.256H106.908V76.848H108.236V84.544ZM100.332 83.056C100.684 83.056 101.01 83.0027 101.308 82.896C101.618 82.7787 101.879 82.624 102.092 82.432C102.306 82.2293 102.471 81.9947 102.588 81.728C102.716 81.4507 102.78 81.1467 102.78 80.816C102.78 80.4853 102.716 80.1867 102.588 79.92C102.471 79.6427 102.306 79.408 102.092 79.216C101.879 79.0133 101.618 78.8587 101.308 78.752C101.01 78.6453 100.684 78.592 100.332 78.592C99.9804 78.592 99.6497 78.6453 99.3404 78.752C99.0417 78.8587 98.7857 79.0133 98.5724 79.216C98.359 79.408 98.1884 79.6427 98.0604 79.92C97.943 80.1867 97.8844 80.4853 97.8844 80.816C97.8844 81.1467 97.943 81.4507 98.0604 81.728C98.1884 81.9947 98.359 82.2293 98.5724 82.432C98.7857 82.624 99.0417 82.7787 99.3404 82.896C99.6497 83.0027 99.9804 83.056 100.332 83.056ZM108.236 85.248V90.992H99.0524V85.248H100.348V87.056H106.924V85.248H108.236ZM100.348 88.08V89.936H106.924V88.08H100.348Z" fill="#4E5055"/>
</g>
</g>
<g id="Group 1306">
<g id="Group 1304">
<g id="Group 1301">
<g id="Group">
<path id="Vector" d="M177 207.961C177 211.555 179.914 214.469 183.507 214.469C187.101 214.469 190.015 211.555 190.015 207.961C190.015 211.555 192.929 214.469 196.522 214.469C200.115 214.469 203.03 211.555 203.03 207.961C203.03 211.555 205.944 214.469 209.537 214.469C213.13 214.469 216.044 211.555 216.044 207.961C216.044 211.555 218.958 214.469 222.552 214.469C226.145 214.469 229.059 211.555 229.059 207.961C229.059 211.555 231.973 214.469 235.566 214.469C239.16 214.469 242.074 211.555 242.074 207.961V198.201H177.008V207.961H177Z" stroke="#A3A7B2" stroke-width="3" stroke-linecap="round" stroke-linejoin="round"/>
<path id="Vector_2" d="M190.016 204.709V207.962" stroke="#A3A7B2" stroke-width="3" stroke-linecap="round" stroke-linejoin="round"/>
<path id="Vector_3" d="M203.026 204.709V207.962" stroke="#A3A7B2" stroke-width="3" stroke-linecap="round" stroke-linejoin="round"/>
<path id="Vector_4" d="M216.043 204.709V207.962" stroke="#A3A7B2" stroke-width="3" stroke-linecap="round" stroke-linejoin="round"/>
<path id="Vector_5" d="M229.059 204.709V207.962" stroke="#A3A7B2" stroke-width="3" stroke-linecap="round" stroke-linejoin="round"/>
<path id="Vector_6" d="M237.187 214.467V243.747H181.879V214.467" stroke="#A3A7B2" stroke-width="3" stroke-linecap="round" stroke-linejoin="round"/>
<path id="Vector_7" d="M203.031 220.975H188.391V243.747H203.031V220.975Z" stroke="#A3A7B2" stroke-width="3" stroke-linecap="round" stroke-linejoin="round"/>
<path id="Vector_8" d="M198.148 230.732V233.987" stroke="#A3A7B2" stroke-width="3" stroke-linecap="round" stroke-linejoin="round"/>
<path id="Vector_9" d="M230.68 185.188H188.387L177 196.575V198.2H242.068V196.575L230.68 185.188Z" stroke="#A3A7B2" stroke-width="3" stroke-linecap="round" stroke-linejoin="round"/>
<path id="Vector_10" d="M230.684 175.428H188.391V185.188H230.684V175.428Z" stroke="#A3A7B2" stroke-width="3" stroke-linecap="round" stroke-linejoin="round"/>
<path id="Vector_11" d="M190.016 198.2V196.575L194.896 188.44V185.188" stroke="#A3A7B2" stroke-width="3" stroke-linecap="round" stroke-linejoin="round"/>
<path id="Vector_12" d="M229.052 198.2V196.575L224.172 188.44V185.188" stroke="#A3A7B2" stroke-width="3" stroke-linecap="round" stroke-linejoin="round"/>
<path id="Vector_13" d="M203.026 198.2V196.575L204.654 188.44V185.188" stroke="#A3A7B2" stroke-width="3" stroke-linecap="round" stroke-linejoin="round"/>
<path id="Vector_14" d="M216.04 198.2V196.575L214.415 188.44V185.188" stroke="#A3A7B2" stroke-width="3" stroke-linecap="round" stroke-linejoin="round"/>
<path id="Vector_15" d="M230.686 220.975H209.538V233.987H230.686V220.975Z" stroke="#A3A7B2" stroke-width="3" stroke-linecap="round" stroke-linejoin="round"/>
</g>
</g>
</g>
</g>
</g>
<defs>
<filter id="filter0_d_353_828" x="-10" y="-10" width="300.5" height="300" filterUnits="userSpaceOnUse" color-interpolation-filters="sRGB">
<feFlood flood-opacity="0" result="BackgroundImageFix"/>
<feColorMatrix in="SourceAlpha" type="matrix" values="0 0 0 0 0 0 0 0 0 0 0 0 0 0 0 0 0 0 127 0" result="hardAlpha"/>
<feOffset/>
<feGaussianBlur stdDeviation="5"/>
<feComposite in2="hardAlpha" operator="out"/>
<feColorMatrix type="matrix" values="0 0 0 0 0.537255 0 0 0 0 0.639216 0 0 0 0 0.788235 0 0 0 0.2 0"/>
<feBlend mode="normal" in2="BackgroundImageFix" result="effect1_dropShadow_353_828"/>
<feBlend mode="normal" in="SourceGraphic" in2="effect1_dropShadow_353_828" result="shape"/>
</filter>
</defs>
</svg>
