<svg width="281" height="280" viewBox="0 0 281 280" fill="none" xmlns="http://www.w3.org/2000/svg">
<g id="Frame 12142">
<g id="Rectangle 8774" filter="url(#filter0_d_353_854)">
<rect width="280.5" height="280" rx="8" fill="white"/>
<rect x="0.5" y="0.5" width="279.5" height="279" rx="7.5" stroke="#E2E5ED"/>
</g>
<g id="Group 12394">
<g id="Group 12393">
<path id="&#236;&#182;&#169;&#236;&#160;&#132;&#236;&#136;&#152;&#236;&#157;&#181;" d="M33.872 42.52C35.04 42.456 36.048 42.328 36.896 42.136C37.76 41.944 38.48 41.712 39.056 41.44C39.648 41.152 40.112 40.84 40.448 40.504C40.784 40.152 41.016 39.792 41.144 39.424H34.928V36.952H41.408V35.008H44.576V36.952H51.08V39.424H44.864C44.976 39.792 45.2 40.152 45.536 40.504C45.872 40.84 46.336 41.152 46.928 41.44C47.52 41.712 48.248 41.944 49.112 42.136C49.976 42.328 50.984 42.456 52.136 42.52L51.2 44.872C49.072 44.728 47.344 44.384 46.016 43.84C44.704 43.296 43.704 42.584 43.016 41.704C42.296 42.584 41.264 43.296 39.92 43.84C38.592 44.384 36.888 44.728 34.808 44.872L33.872 42.52ZM44.576 49.624C46.512 49.768 48.008 50.152 49.064 50.776C50.12 51.4 50.648 52.248 50.648 53.32C50.648 54.536 49.968 55.464 48.608 56.104C47.264 56.744 45.384 57.064 42.968 57.064C40.44 57.064 38.528 56.744 37.232 56.104C35.952 55.464 35.312 54.536 35.312 53.32C35.312 52.248 35.84 51.4 36.896 50.776C37.968 50.152 39.472 49.768 41.408 49.624V48.064H33.032V45.592H53V48.064H44.576V49.624ZM47.432 53.32C47.432 52.808 47.064 52.448 46.328 52.24C45.592 52.016 44.472 51.904 42.968 51.904C41.464 51.904 40.344 52.016 39.608 52.24C38.872 52.448 38.504 52.808 38.504 53.32C38.504 54.264 39.992 54.736 42.968 54.736C45.944 54.736 47.432 54.264 47.432 53.32ZM69.9421 34.96H73.1101V51.088H69.9421V43.24H66.4861V40.672H69.9421V34.96ZM66.4141 48.232C65.1981 47.832 64.1741 47.256 63.3421 46.504C62.5101 45.752 61.8621 44.872 61.3981 43.864C60.9021 44.968 60.2141 45.936 59.3341 46.768C58.4701 47.6 57.3901 48.232 56.0941 48.664L54.5101 46.144C55.4221 45.856 56.2061 45.464 56.8621 44.968C57.5181 44.472 58.0541 43.92 58.4701 43.312C58.9021 42.704 59.2141 42.056 59.4061 41.368C59.6141 40.664 59.7181 39.968 59.7181 39.28V38.968H55.3741V36.448H67.2541V38.968H62.9581V39.256C62.9581 39.912 63.0541 40.568 63.2461 41.224C63.4381 41.864 63.7341 42.472 64.1341 43.048C64.5501 43.624 65.0701 44.152 65.6941 44.632C66.3341 45.096 67.0861 45.472 67.9501 45.76L66.4141 48.232ZM73.6141 56.68H58.5421V49.744H61.7101V54.16H73.6141V56.68ZM94.3003 45.352C92.3643 45.064 90.7163 44.504 89.3563 43.672C88.0123 42.824 86.9803 41.8 86.2603 40.6C85.5403 41.8 84.5003 42.824 83.1403 43.672C81.7803 44.504 80.1323 45.064 78.1963 45.352L76.9963 42.808C78.2603 42.632 79.3643 42.336 80.3083 41.92C81.2523 41.504 82.0363 41.016 82.6603 40.456C83.3003 39.88 83.7723 39.264 84.0763 38.608C84.3963 37.952 84.5563 37.304 84.5563 36.664V35.608H87.9403V36.664C87.9403 37.304 88.1003 37.952 88.4203 38.608C88.7403 39.264 89.2123 39.88 89.8363 40.456C90.4763 41.016 91.2683 41.504 92.2123 41.92C93.1563 42.336 94.2523 42.632 95.5003 42.808L94.3003 45.352ZM87.7483 49.552V57.088H84.5803V49.552H76.2523V46.984H96.2203V49.552H87.7483ZM116.186 47.944H112.994V34.984H116.186V47.944ZM104.138 36.16C105.002 36.16 105.794 36.296 106.514 36.568C107.25 36.84 107.89 37.216 108.434 37.696C108.978 38.176 109.402 38.752 109.706 39.424C110.01 40.08 110.162 40.8 110.162 41.584C110.162 42.368 110.01 43.096 109.706 43.768C109.402 44.424 108.978 44.992 108.434 45.472C107.89 45.952 107.25 46.328 106.514 46.6C105.794 46.856 105.002 46.984 104.138 46.984C103.29 46.984 102.498 46.856 101.762 46.6C101.042 46.328 100.41 45.952 99.8664 45.472C99.3224 44.992 98.8984 44.424 98.5944 43.768C98.2904 43.096 98.1384 42.368 98.1384 41.584C98.1384 40.8 98.2904 40.08 98.5944 39.424C98.8984 38.752 99.3224 38.176 99.8664 37.696C100.41 37.216 101.042 36.84 101.762 36.568C102.498 36.296 103.29 36.16 104.138 36.16ZM104.138 38.848C103.306 38.848 102.61 39.088 102.05 39.568C101.506 40.048 101.234 40.72 101.234 41.584C101.234 42.448 101.506 43.12 102.05 43.6C102.61 44.08 103.306 44.32 104.138 44.32C105.002 44.32 105.706 44.08 106.25 43.6C106.794 43.12 107.066 42.448 107.066 41.584C107.066 40.72 106.794 40.048 106.25 39.568C105.706 39.088 105.002 38.848 104.138 38.848ZM116.186 57.088H112.994V51.472H101.114V48.952H116.186V57.088Z" fill="#222222"/>
<path id="&#236;&#160;&#132;&#234;&#184;&#176;&#236;&#176;&#168; &#236;&#182;&#169;&#236;&#160;&#132; &#236;&#130;&#172;&#236;&#151;&#133;" d="M43.344 76.848H44.672V87.36H43.344V81.872H40.464V80.8H43.344V76.848ZM40.656 85.2C39.856 84.912 39.1573 84.4853 38.56 83.92C37.9627 83.344 37.5093 82.688 37.2 81.952C36.8907 82.784 36.4213 83.5093 35.792 84.128C35.1627 84.7467 34.4267 85.2107 33.584 85.52L32.896 84.496C33.4293 84.304 33.9147 84.048 34.352 83.728C34.8 83.3973 35.184 83.0293 35.504 82.624C35.824 82.208 36.0693 81.76 36.24 81.28C36.4213 80.8 36.512 80.304 36.512 79.792V79.072H33.312V78H40.976V79.072H37.824V79.776C37.824 80.2347 37.9093 80.6933 38.08 81.152C38.2507 81.6 38.4853 82.0213 38.784 82.416C39.0933 82.8 39.4613 83.1467 39.888 83.456C40.3147 83.7547 40.7893 83.9947 41.312 84.176L40.656 85.2ZM45.072 90.864H35.488V86.432H36.816V89.792H45.072V90.864ZM59.0228 91.184H57.7108V76.832H59.0228V91.184ZM54.8148 78.384C54.8148 79.4187 54.6921 80.4213 54.4468 81.392C54.2014 82.352 53.8068 83.264 53.2628 84.128C52.7294 84.9813 52.0414 85.7813 51.1988 86.528C50.3561 87.264 49.3374 87.9253 48.1428 88.512L47.4388 87.44C49.3694 86.5227 50.8254 85.3867 51.8068 84.032C52.7881 82.6773 53.3481 81.1467 53.4868 79.44H48.0948V78.384H54.8148ZM72.6855 83.824V91.184H71.3735V76.832H72.6855V82.736H75.0535V83.824H72.6855ZM66.4455 81.488C66.4455 82.064 66.5308 82.6347 66.7015 83.2C66.8722 83.7653 67.1068 84.2987 67.4055 84.8C67.7148 85.3013 68.0828 85.7547 68.5095 86.16C68.9468 86.5653 69.4215 86.8907 69.9335 87.136L69.1975 88.16C68.3975 87.776 67.7095 87.2213 67.1335 86.496C66.5575 85.76 66.1148 84.9227 65.8055 83.984C65.4962 84.9867 65.0322 85.8773 64.4135 86.656C63.8055 87.424 63.0855 88.0107 62.2535 88.416L61.5175 87.424C62.0402 87.168 62.5202 86.832 62.9575 86.416C63.4055 86 63.7895 85.5307 64.1095 85.008C64.4402 84.4853 64.6962 83.9253 64.8775 83.328C65.0588 82.72 65.1495 82.1067 65.1495 81.488V80.368H61.9015V79.312H65.1335V77.088H66.4455V79.312H69.6295V80.368H66.4455V81.488ZM80.0704 82.144C80.7317 82.0907 81.3557 81.984 81.9424 81.824C82.5397 81.664 83.0624 81.4613 83.5104 81.216C83.9584 80.96 84.321 80.672 84.5984 80.352C84.8757 80.0213 85.0304 79.664 85.0624 79.28H80.6464V78.24H85.1424V76.784H86.4544V78.24H90.9504V79.28H86.5184C86.5504 79.664 86.705 80.0213 86.9824 80.352C87.2597 80.672 87.6224 80.96 88.0704 81.216C88.5184 81.4613 89.0357 81.664 89.6224 81.824C90.2197 81.984 90.8544 82.0907 91.5264 82.144L91.1264 83.168C90.5397 83.104 89.969 83.0027 89.4144 82.864C88.8704 82.7253 88.3637 82.5547 87.8944 82.352C87.4357 82.1387 87.025 81.8933 86.6624 81.616C86.2997 81.328 86.0117 81.008 85.7984 80.656C85.5744 81.008 85.281 81.328 84.9184 81.616C84.5664 81.8933 84.1557 82.1387 83.6864 82.352C83.2277 82.5547 82.7264 82.7253 82.1824 82.864C81.6384 83.0027 81.0677 83.104 80.4704 83.168L80.0704 82.144ZM86.4384 86.416C87.825 86.4693 88.881 86.6987 89.6064 87.104C90.3317 87.5093 90.6944 88.0693 90.6944 88.784C90.6944 89.5627 90.273 90.1547 89.4304 90.56C88.5877 90.9653 87.377 91.168 85.7984 91.168C84.209 91.168 82.9877 90.9653 82.1344 90.56C81.2917 90.1547 80.8704 89.5627 80.8704 88.784C80.8704 88.0693 81.233 87.5093 81.9584 87.104C82.6837 86.6987 83.745 86.4693 85.1424 86.416V84.976H79.3024V83.92H92.2784V84.976H86.4384V86.416ZM89.3664 88.784C89.3664 88.336 89.0517 87.9947 88.4224 87.76C87.793 87.5147 86.913 87.392 85.7824 87.392C84.6197 87.392 83.729 87.5147 83.1104 87.76C82.5024 87.9947 82.1984 88.336 82.1984 88.784C82.1984 89.232 82.5024 89.5787 83.1104 89.824C83.729 90.0587 84.6197 90.176 85.7824 90.176C86.913 90.176 87.793 90.0587 88.4224 89.824C89.0517 89.5787 89.3664 89.232 89.3664 88.784ZM104.197 76.848H105.525V87.36H104.197V81.872H101.317V80.8H104.197V76.848ZM101.509 85.2C100.709 84.912 100.01 84.4853 99.4131 83.92C98.8158 83.344 98.3625 82.688 98.0531 81.952C97.7438 82.784 97.2745 83.5093 96.6451 84.128C96.0158 84.7467 95.2798 85.2107 94.4371 85.52L93.7491 84.496C94.2825 84.304 94.7678 84.048 95.2051 83.728C95.6531 83.3973 96.0371 83.0293 96.3571 82.624C96.6771 82.208 96.9225 81.76 97.0931 81.28C97.2745 80.8 97.3651 80.304 97.3651 79.792V79.072H94.1651V78H101.829V79.072H98.6771V79.776C98.6771 80.2347 98.7625 80.6933 98.9331 81.152C99.1038 81.6 99.3385 82.0213 99.6371 82.416C99.9465 82.8 100.314 83.1467 100.741 83.456C101.168 83.7547 101.642 83.9947 102.165 84.176L101.509 85.2ZM105.925 90.864H96.3411V86.432H97.6691V89.792H105.925V90.864ZM122.398 83.744V91.184H121.086V76.848H122.398V82.656H124.766V83.744H122.398ZM116.174 80.656C116.174 81.2853 116.27 81.9147 116.462 82.544C116.654 83.1627 116.915 83.744 117.246 84.288C117.577 84.832 117.961 85.3227 118.398 85.76C118.846 86.1973 119.321 86.544 119.822 86.8L119.006 87.84C118.622 87.6373 118.254 87.3867 117.902 87.088C117.55 86.7787 117.225 86.432 116.926 86.048C116.638 85.664 116.371 85.248 116.126 84.8C115.891 84.3413 115.694 83.8667 115.534 83.376C115.225 84.4427 114.755 85.392 114.126 86.224C113.497 87.0453 112.777 87.68 111.966 88.128L111.182 87.072C111.694 86.8053 112.174 86.4427 112.622 85.984C113.081 85.5253 113.475 85.0133 113.806 84.448C114.137 83.872 114.398 83.2587 114.59 82.608C114.782 81.9573 114.878 81.3067 114.878 80.656V78.08H116.174V80.656ZM137.581 84.544H136.253V81.328H133.341C133.277 81.7547 133.143 82.144 132.941 82.496C132.738 82.8373 132.477 83.1307 132.157 83.376C131.837 83.6213 131.469 83.8133 131.053 83.952C130.637 84.08 130.178 84.144 129.677 84.144C129.143 84.144 128.647 84.064 128.189 83.904C127.741 83.744 127.351 83.52 127.021 83.232C126.701 82.9333 126.445 82.5813 126.253 82.176C126.071 81.76 125.981 81.3067 125.981 80.816C125.981 80.3253 126.071 79.8773 126.253 79.472C126.445 79.0667 126.701 78.72 127.021 78.432C127.351 78.1333 127.741 77.904 128.189 77.744C128.647 77.584 129.143 77.504 129.677 77.504C130.157 77.504 130.605 77.5733 131.021 77.712C131.437 77.84 131.805 78.0267 132.125 78.272C132.445 78.5067 132.706 78.7947 132.909 79.136C133.122 79.4667 133.261 79.84 133.325 80.256H136.253V76.848H137.581V84.544ZM129.677 83.056C130.029 83.056 130.354 83.0027 130.653 82.896C130.962 82.7787 131.223 82.624 131.437 82.432C131.65 82.2293 131.815 81.9947 131.933 81.728C132.061 81.4507 132.125 81.1467 132.125 80.816C132.125 80.4853 132.061 80.1867 131.933 79.92C131.815 79.6427 131.65 79.408 131.437 79.216C131.223 79.0133 130.962 78.8587 130.653 78.752C130.354 78.6453 130.029 78.592 129.677 78.592C129.325 78.592 128.994 78.6453 128.685 78.752C128.386 78.8587 128.13 79.0133 127.917 79.216C127.703 79.408 127.533 79.6427 127.405 79.92C127.287 80.1867 127.229 80.4853 127.229 80.816C127.229 81.1467 127.287 81.4507 127.405 81.728C127.533 81.9947 127.703 82.2293 127.917 82.432C128.13 82.624 128.386 82.7787 128.685 82.896C128.994 83.0027 129.325 83.056 129.677 83.056ZM137.581 85.248V90.992H128.397V85.248H129.693V87.056H136.269V85.248H137.581ZM129.693 88.08V89.936H136.269V88.08H129.693Z" fill="#4E5055"/>
</g>
</g>
<g id="Group 1303">
<g id="Group 1299">
<g id="Group 1298">
<g id="Group">
<path id="Vector" d="M229.45 242.972V209.986C229.45 207.96 227.81 206.32 225.785 206.32H209.291C207.266 206.32 205.626 207.96 205.626 209.986V242.972" stroke="#A3A7B2" stroke-width="3" stroke-linecap="round" stroke-linejoin="round"/>
<path id="Vector_2" d="M223.954 213.652H211.126V220.983H223.954V213.652Z" stroke="#A3A7B2" stroke-width="3" stroke-linecap="round" stroke-linejoin="round"/>
<path id="Vector_3" d="M205.623 232.894C204.86 234.687 202.57 236.559 199.495 236.559C195.83 236.559 193.643 233.256 195.17 229.4C196.334 226.461 198.293 220.982 198.293 220.982V215.445L200.125 209.986" stroke="#A3A7B2" stroke-width="3" stroke-linecap="round" stroke-linejoin="round"/>
<path id="Vector_4" d="M173.861 242.77L244.821 242.77" stroke="#A3A7B2" stroke-width="3" stroke-linecap="round" stroke-linejoin="round"/>
<path id="Vector_5" d="M244.821 177H173.861V185.654H244.821V177Z" stroke="#A3A7B2" stroke-width="3" stroke-linecap="round" stroke-linejoin="round"/>
<path id="Vector_6" d="M238.611 186.162V242.973" stroke="#A3A7B2" stroke-width="3" stroke-linecap="round" stroke-linejoin="round"/>
<path id="Vector_7" d="M229.45 186.162V200.823" stroke="#A3A7B2" stroke-width="3" stroke-linecap="round" stroke-linejoin="round"/>
<path id="Vector_8" d="M198.295 215.447L200.7 217.319" stroke="#A3A7B2" stroke-width="3" stroke-linecap="round" stroke-linejoin="round"/>
</g>
</g>
</g>
</g>
</g>
<defs>
<filter id="filter0_d_353_854" x="-10" y="-10" width="300.5" height="300" filterUnits="userSpaceOnUse" color-interpolation-filters="sRGB">
<feFlood flood-opacity="0" result="BackgroundImageFix"/>
<feColorMatrix in="SourceAlpha" type="matrix" values="0 0 0 0 0 0 0 0 0 0 0 0 0 0 0 0 0 0 127 0" result="hardAlpha"/>
<feOffset/>
<feGaussianBlur stdDeviation="5"/>
<feComposite in2="hardAlpha" operator="out"/>
<feColorMatrix type="matrix" values="0 0 0 0 0.537255 0 0 0 0 0.639216 0 0 0 0 0.788235 0 0 0 0.2 0"/>
<feBlend mode="normal" in2="BackgroundImageFix" result="effect1_dropShadow_353_854"/>
<feBlend mode="normal" in="SourceGraphic" in2="effect1_dropShadow_353_854" result="shape"/>
</filter>
</defs>
</svg>
