<svg width="281" height="280" viewBox="0 0 281 280" fill="none" xmlns="http://www.w3.org/2000/svg">
<g id="Frame 12149">
<g id="Rectangle 8774" filter="url(#filter0_d_576_1883)">
<rect width="280.5" height="280" rx="8" fill="#383B48"/>
<rect x="0.5" y="0.5" width="279.5" height="279" rx="7.5" stroke="#E2E5ED"/>
</g>
<g id="Group 12394">
<g id="Group 12393">
<path id="&#236;&#158;&#133;&#236;&#163;&#188;&#235;&#175;&#188;&#234;&#179;&#181;&#236;&#154;&#169;" d="M51.392 46.84H48.2V34.96H51.392V46.84ZM39.368 35.872C40.232 35.872 41.024 36 41.744 36.256C42.48 36.512 43.112 36.872 43.64 37.336C44.184 37.8 44.608 38.352 44.912 38.992C45.216 39.632 45.368 40.328 45.368 41.08C45.368 41.848 45.216 42.552 44.912 43.192C44.608 43.832 44.184 44.384 43.64 44.848C43.112 45.312 42.48 45.672 41.744 45.928C41.024 46.184 40.232 46.312 39.368 46.312C38.504 46.312 37.704 46.184 36.968 45.928C36.248 45.672 35.616 45.312 35.072 44.848C34.528 44.384 34.104 43.832 33.8 43.192C33.496 42.552 33.344 41.848 33.344 41.08C33.344 40.328 33.496 39.632 33.8 38.992C34.104 38.352 34.528 37.8 35.072 37.336C35.616 36.872 36.248 36.512 36.968 36.256C37.704 36 38.504 35.872 39.368 35.872ZM39.368 38.488C38.504 38.488 37.8 38.72 37.256 39.184C36.712 39.632 36.44 40.264 36.44 41.08C36.44 41.912 36.712 42.56 37.256 43.024C37.8 43.472 38.504 43.696 39.368 43.696C40.232 43.696 40.928 43.472 41.456 43.024C42 42.56 42.272 41.912 42.272 41.08C42.272 40.264 42 39.632 41.456 39.184C40.928 38.72 40.232 38.488 39.368 38.488ZM39.848 49.864H48.248V47.8H51.392V56.8H36.704V47.8H39.848V49.864ZM48.248 54.304V52.288H39.848V54.304H48.248ZM55.5901 43.432C56.7261 43.288 57.7181 43.056 58.5661 42.736C59.4301 42.416 60.1581 42.04 60.7501 41.608C61.3581 41.176 61.8221 40.704 62.1421 40.192C62.4781 39.664 62.6861 39.136 62.7661 38.608H56.4061V36.088H72.7981V38.608H66.5341C66.6141 39.136 66.8141 39.664 67.1341 40.192C67.4701 40.704 67.9341 41.176 68.5261 41.608C69.1181 42.04 69.8381 42.416 70.6861 42.736C71.5501 43.056 72.5421 43.288 73.6621 43.432L72.5341 45.904C70.5981 45.632 68.9661 45.112 67.6381 44.344C66.3101 43.576 65.3101 42.616 64.6381 41.464C63.9661 42.616 62.9661 43.576 61.6381 44.344C60.3101 45.112 58.6781 45.632 56.7421 45.904L55.5901 43.432ZM66.1501 49.696V57.112H62.9821V49.696H54.6541V47.176H74.6221V49.696H66.1501ZM91.3963 50.68V34.96H94.5883V50.68H91.3963ZM77.3323 47.392V36.712H88.0603V47.392H77.3323ZM80.4523 39.208V44.896H84.9643V39.208H80.4523ZM95.1403 56.608H79.8763V49.288H83.0443V54.064H95.1403V56.608ZM111.674 43.36C111.93 42.352 112.09 41.464 112.154 40.696C112.218 39.928 112.25 39.176 112.25 38.44H100.106V35.944H115.418V37.768C115.418 38.648 115.386 39.568 115.322 40.528C115.274 41.472 115.098 42.52 114.794 43.672L111.674 43.36ZM117.77 47.344H97.8744V44.848H105.242V40.984H108.41V44.848H117.77V47.344ZM107.69 48.736C108.89 48.736 109.97 48.832 110.93 49.024C111.89 49.216 112.714 49.496 113.402 49.864C114.09 50.216 114.618 50.648 114.986 51.16C115.354 51.672 115.538 52.256 115.538 52.912C115.538 53.552 115.354 54.128 114.986 54.64C114.618 55.152 114.09 55.584 113.402 55.936C112.714 56.304 111.89 56.584 110.93 56.776C109.97 56.968 108.89 57.064 107.69 57.064C106.506 57.064 105.426 56.968 104.45 56.776C103.49 56.584 102.666 56.304 101.978 55.936C101.306 55.584 100.786 55.152 100.418 54.64C100.05 54.128 99.8664 53.552 99.8664 52.912C99.8664 52.256 100.05 51.672 100.418 51.16C100.786 50.648 101.306 50.216 101.978 49.864C102.666 49.496 103.49 49.216 104.45 49.024C105.426 48.832 106.506 48.736 107.69 48.736ZM107.69 54.688C109.194 54.688 110.354 54.544 111.17 54.256C111.986 53.952 112.394 53.504 112.394 52.912C112.394 52.304 111.986 51.856 111.17 51.568C110.354 51.264 109.194 51.112 107.69 51.112C106.186 51.112 105.026 51.264 104.21 51.568C103.41 51.856 103.01 52.304 103.01 52.912C103.01 53.504 103.41 53.952 104.21 54.256C105.026 54.544 106.186 54.688 107.69 54.688ZM139.393 47.944H119.425V45.448H123.913V42.784C122.249 42.032 121.417 40.952 121.417 39.544C121.417 38.888 121.601 38.296 121.969 37.768C122.353 37.24 122.889 36.792 123.577 36.424C124.281 36.056 125.121 35.776 126.097 35.584C127.089 35.392 128.193 35.296 129.409 35.296C130.641 35.296 131.745 35.392 132.721 35.584C133.713 35.776 134.553 36.056 135.241 36.424C135.945 36.792 136.481 37.24 136.849 37.768C137.233 38.296 137.425 38.888 137.425 39.544C137.425 40.264 137.201 40.896 136.753 41.44C136.305 41.984 135.673 42.44 134.857 42.808V45.448H139.393V47.944ZM129.409 37.696C127.905 37.696 126.737 37.848 125.905 38.152C125.089 38.456 124.681 38.92 124.681 39.544C124.681 40.152 125.089 40.608 125.905 40.912C126.737 41.216 127.905 41.368 129.409 41.368C130.961 41.368 132.137 41.216 132.937 40.912C133.753 40.608 134.161 40.152 134.161 39.544C134.161 38.92 133.753 38.456 132.937 38.152C132.137 37.848 130.961 37.696 129.409 37.696ZM131.689 45.448V43.624C131.337 43.656 130.969 43.688 130.585 43.72C130.217 43.736 129.825 43.744 129.409 43.744C128.577 43.744 127.801 43.696 127.081 43.6V45.448H131.689ZM129.361 49.048C130.561 49.048 131.633 49.136 132.577 49.312C133.521 49.488 134.321 49.752 134.977 50.104C135.649 50.44 136.161 50.856 136.513 51.352C136.865 51.848 137.041 52.416 137.041 53.056C137.041 53.696 136.865 54.272 136.513 54.784C136.161 55.28 135.649 55.696 134.977 56.032C134.321 56.384 133.521 56.648 132.577 56.824C131.633 57 130.561 57.088 129.361 57.088C128.161 57.088 127.089 57 126.145 56.824C125.201 56.648 124.401 56.384 123.745 56.032C123.089 55.696 122.585 55.28 122.233 54.784C121.881 54.272 121.705 53.696 121.705 53.056C121.705 52.416 121.881 51.848 122.233 51.352C122.585 50.856 123.089 50.44 123.745 50.104C124.401 49.752 125.201 49.488 126.145 49.312C127.089 49.136 128.161 49.048 129.361 49.048ZM129.361 54.688C132.337 54.688 133.825 54.144 133.825 53.056C133.825 52.496 133.457 52.088 132.721 51.832C131.985 51.576 130.865 51.448 129.361 51.448C127.857 51.448 126.737 51.576 126.001 51.832C125.265 52.088 124.897 52.496 124.897 53.056C124.897 54.144 126.385 54.688 129.361 54.688Z" fill="white"/>
<path id="&#236;&#149;&#132;&#237;&#140;&#140;&#237;&#138;&#184;" d="M43.888 83.664V91.184H42.576V76.848H43.888V82.56H46.256V83.664H43.888ZM36.672 77.936C37.2053 77.936 37.6907 78.0533 38.128 78.288C38.5653 78.5227 38.944 78.8587 39.264 79.296C39.584 79.7333 39.8293 80.2613 40 80.88C40.1813 81.488 40.272 82.176 40.272 82.944C40.272 83.712 40.1813 84.4053 40 85.024C39.8293 85.632 39.584 86.1547 39.264 86.592C38.944 87.0293 38.5653 87.3653 38.128 87.6C37.6907 87.8347 37.2053 87.952 36.672 87.952C36.1387 87.952 35.648 87.8347 35.2 87.6C34.7627 87.3653 34.384 87.0293 34.064 86.592C33.744 86.1547 33.4933 85.632 33.312 85.024C33.1413 84.4053 33.056 83.712 33.056 82.944C33.056 82.176 33.1413 81.488 33.312 80.88C33.4933 80.2613 33.744 79.7333 34.064 79.296C34.384 78.8587 34.7627 78.5227 35.2 78.288C35.648 78.0533 36.1387 77.936 36.672 77.936ZM36.672 86.784C37.0133 86.784 37.328 86.6933 37.616 86.512C37.904 86.3307 38.1493 86.0747 38.352 85.744C38.5653 85.4027 38.7307 84.9973 38.848 84.528C38.9653 84.0587 39.024 83.5307 39.024 82.944C39.024 82.368 38.9653 81.8453 38.848 81.376C38.7307 80.896 38.5653 80.4907 38.352 80.16C38.1493 79.8293 37.904 79.5733 37.616 79.392C37.328 79.2107 37.0133 79.12 36.672 79.12C36.32 79.12 36 79.2107 35.712 79.392C35.424 79.5733 35.1733 79.8293 34.96 80.16C34.7573 80.4907 34.5973 80.896 34.48 81.376C34.3627 81.8453 34.304 82.368 34.304 82.944C34.304 83.5307 34.3627 84.0587 34.48 84.528C34.5973 84.9973 34.7573 85.4027 34.96 85.744C35.1733 86.0747 35.424 86.3307 35.712 86.512C36 86.6933 36.32 86.784 36.672 86.784ZM58.2868 83.664V91.184H56.9748V76.848H58.2868V82.576H60.6548V83.664H58.2868ZM53.8868 86.336C54.2601 86.3147 54.6281 86.288 54.9908 86.256C55.3641 86.224 55.7268 86.1813 56.0788 86.128L56.1748 87.104C55.4281 87.2213 54.6601 87.3173 53.8708 87.392C53.0814 87.456 52.2974 87.5093 51.5188 87.552C50.7508 87.584 49.9988 87.6053 49.2628 87.616C48.5374 87.6267 47.8601 87.632 47.2308 87.632L47.0708 86.528H48.4788C48.6388 86.528 48.8041 86.5227 48.9748 86.512V79.44H47.4388V78.384H55.4228V79.44H53.8868V86.336ZM50.2548 86.496C50.6388 86.4853 51.0281 86.4747 51.4228 86.464C51.8174 86.4533 52.2121 86.4373 52.6068 86.416V79.44H50.2548V86.496ZM63.3095 85.632V78.08H73.0215V79.136H64.6375V81.264H72.7015V82.304H64.6375V84.576H73.1655V85.632H63.3095ZM74.6535 89.328H61.6295V88.256H74.6535V89.328Z" fill="white" fill-opacity="0.8"/>
</g>
</g>
<g id="Group 9153">
<g id="Group 1308">
<g id="Group 1307">
<g id="Group 1300">
<g id="Group">
<path id="Vector" d="M229.45 242.972V209.986C229.45 207.96 227.81 206.32 225.785 206.32H209.291C207.266 206.32 205.626 207.96 205.626 209.986V242.972" stroke="#A3A7B2" stroke-width="3" stroke-linecap="round" stroke-linejoin="round"/>
<path id="Vector_2" d="M223.954 213.652H211.126V220.983H223.954V213.652Z" stroke="#A3A7B2" stroke-width="3" stroke-linecap="round" stroke-linejoin="round"/>
<path id="Vector_3" d="M205.623 232.894C204.86 234.687 202.57 236.559 199.495 236.559C195.83 236.559 193.643 233.256 195.17 229.4C196.334 226.461 198.293 220.982 198.293 220.982V215.445L200.125 209.986" stroke="#A3A7B2" stroke-width="3" stroke-linecap="round" stroke-linejoin="round"/>
<path id="Vector_4" d="M173.861 242.77L244.821 242.77" stroke="#A3A7B2" stroke-width="3" stroke-linecap="round" stroke-linejoin="round"/>
<path id="Vector_5" d="M244.821 177H173.861V185.654H244.821V177Z" stroke="#A3A7B2" stroke-width="3" stroke-linecap="round" stroke-linejoin="round"/>
<path id="Vector_6" d="M238.611 186.162V242.973" stroke="#A3A7B2" stroke-width="3" stroke-linecap="round" stroke-linejoin="round"/>
<path id="Vector_7" d="M229.45 186.162V200.823" stroke="#A3A7B2" stroke-width="3" stroke-linecap="round" stroke-linejoin="round"/>
<path id="Vector_8" d="M198.295 215.447L200.7 217.319" stroke="#A3A7B2" stroke-width="3" stroke-linecap="round" stroke-linejoin="round"/>
</g>
</g>
</g>
</g>
</g>
</g>
<defs>
<filter id="filter0_d_576_1883" x="-10" y="-10" width="300.5" height="300" filterUnits="userSpaceOnUse" color-interpolation-filters="sRGB">
<feFlood flood-opacity="0" result="BackgroundImageFix"/>
<feColorMatrix in="SourceAlpha" type="matrix" values="0 0 0 0 0 0 0 0 0 0 0 0 0 0 0 0 0 0 127 0" result="hardAlpha"/>
<feOffset/>
<feGaussianBlur stdDeviation="5"/>
<feComposite in2="hardAlpha" operator="out"/>
<feColorMatrix type="matrix" values="0 0 0 0 0.537255 0 0 0 0 0.639216 0 0 0 0 0.788235 0 0 0 0.2 0"/>
<feBlend mode="normal" in2="BackgroundImageFix" result="effect1_dropShadow_576_1883"/>
<feBlend mode="normal" in="SourceGraphic" in2="effect1_dropShadow_576_1883" result="shape"/>
</filter>
</defs>
</svg>
