<svg width="16" height="16" viewBox="0 0 16 16" fill="none" xmlns="http://www.w3.org/2000/svg">
<path d="M2 12.1333C2 9.69395 2 3.9 2 3.9C2 2.85066 2.89543 2 4 2H12V10.2333C12 10.2333 5.7442 10.2333 4 10.2333C2.9 10.2333 2 11.0833 2 12.1333Z" fill="white" stroke="#222222" stroke-linejoin="round"/>
<path d="M12 10.2333C12 10.2333 4.38457 10.2333 4 10.2333C2.89543 10.2333 2 11.084 2 12.1333C2 13.1826 2.89543 14.0333 4 14.0333C4.73637 14.0333 8.9586 14.0333 14 14.0333V2.6333" stroke="#222222" stroke-linecap="round" stroke-linejoin="round"/>
<path d="M4.33301 12.1333H11.6663" stroke="#222222" stroke-linecap="round" stroke-linejoin="round"/>
</svg>
