<svg width="14" height="14" viewBox="0 0 14 14" fill="none" xmlns="http://www.w3.org/2000/svg">
<mask id="path-1-outside-1_3434_50800" maskUnits="userSpaceOnUse" x="3.25" y="3.25" width="11" height="11" fill="black">
<rect fill="white" x="3.25" y="3.25" width="11" height="11"/>
<path d="M4.25 7.575V9.95C4.25 10.076 4.30004 10.1968 4.38912 10.2859C4.4782 10.375 4.59902 10.425 4.725 10.425H10.4498L12.8 12.325V4.725C12.8 4.59902 12.75 4.4782 12.6609 4.38912C12.5718 4.30004 12.451 4.25 12.325 4.25H9.95"/>
</mask>
<path d="M4.25 7.575V9.95C4.25 10.076 4.30004 10.1968 4.38912 10.2859C4.4782 10.375 4.59902 10.425 4.725 10.425H10.4498L12.8 12.325V4.725C12.8 4.59902 12.75 4.4782 12.6609 4.38912C12.5718 4.30004 12.451 4.25 12.325 4.25H9.95" fill="white"/>
<path d="M5.25 7.575C5.25 7.02271 4.80228 6.575 4.25 6.575C3.69772 6.575 3.25 7.02271 3.25 7.575H5.25ZM10.4498 10.425L11.0784 9.64734C10.9005 9.50348 10.6786 9.425 10.4498 9.425V10.425ZM12.8 12.325L12.1713 13.1027C12.471 13.3449 12.8832 13.3934 13.2309 13.2274C13.5786 13.0614 13.8 12.7103 13.8 12.325H12.8ZM9.95 3.25C9.39772 3.25 8.95 3.69772 8.95 4.25C8.95 4.80228 9.39772 5.25 9.95 5.25V3.25ZM3.25 7.575V9.95H5.25V7.575H3.25ZM3.25 9.95C3.25 10.3412 3.4054 10.7164 3.68202 10.993L5.09623 9.57877C5.19469 9.67722 5.25 9.81076 5.25 9.95H3.25ZM3.68202 10.993C3.95864 11.2696 4.33381 11.425 4.725 11.425V9.425C4.86424 9.425 4.99777 9.48031 5.09623 9.57877L3.68202 10.993ZM4.725 11.425H10.4498V9.425H4.725V11.425ZM9.82108 11.2027L12.1713 13.1027L13.4287 11.5473L11.0784 9.64734L9.82108 11.2027ZM13.8 12.325V4.725H11.8V12.325H13.8ZM13.8 4.725C13.8 4.33381 13.6446 3.95863 13.368 3.68202L11.9538 5.09623C11.8553 4.99777 11.8 4.86424 11.8 4.725H13.8ZM13.368 3.68202C13.0914 3.4054 12.7162 3.25 12.325 3.25V5.25C12.1858 5.25 12.0522 5.19469 11.9538 5.09623L13.368 3.68202ZM12.325 3.25H9.95V5.25H12.325V3.25Z" fill="#222222" mask="url(#path-1-outside-1_3434_50800)"/>
<path d="M0.899902 9.47503C0.899902 9.66769 1.0106 9.84321 1.18446 9.92623C1.35832 10.0092 1.56442 9.98498 1.71424 9.86386L3.92697 8.07503H9.4749C9.73349 8.07503 9.98148 7.9723 10.1643 7.78945C10.3472 7.60661 10.4499 7.35861 10.4499 7.10003V1.87502C10.4499 1.61644 10.3472 1.36844 10.1643 1.1856C9.98148 1.00275 9.73349 0.900024 9.4749 0.900024H1.8749C1.61632 0.900024 1.36832 1.00275 1.18547 1.1856C1.00263 1.36844 0.899902 1.61644 0.899902 1.87502V9.47503Z" fill="white" stroke="#222222" stroke-linecap="round" stroke-linejoin="round"/>
</svg>
