<svg width="233" height="82" viewBox="0 0 233 82" fill="none" xmlns="http://www.w3.org/2000/svg">
<rect x="44" width="189" height="82" rx="8" fill="#F3F4F7"/>
<path d="M68.112 17.288H65.984V22.392H64.672V11.832H65.984V16.2H68.112V17.288ZM62.608 16.376C62.608 18.472 61.008 19.912 58.864 19.912C56.72 19.912 55.12 18.472 55.12 16.376C55.12 14.28 56.72 12.84 58.864 12.84C61.008 12.84 62.608 14.28 62.608 16.376ZM56.4 16.376C56.4 17.784 57.456 18.776 58.864 18.776C60.272 18.776 61.328 17.784 61.328 16.376C61.328 14.968 60.272 13.976 58.864 13.976C57.456 13.976 56.4 14.968 56.4 16.376ZM66.624 24.792V25.864H57.056V21.32H58.368V24.792H66.624ZM75.7108 17.08V16.056H79.7428V14.552H75.7108V13.528H79.7428V11.832H81.0708V20.648H79.7428V17.08H75.7108ZM77.6148 19.128C75.5668 19.56 73.7748 19.656 71.1988 19.656H70.1108V12.696H71.4068V18.568C73.8228 18.568 75.5348 18.44 77.4548 18.056L77.6148 19.128ZM76.3348 20.776C79.2788 20.776 81.1188 21.752 81.1188 23.48C81.1188 25.192 79.2788 26.184 76.3348 26.184C73.3908 26.184 71.5508 25.192 71.5508 23.48C71.5508 21.752 73.3908 20.776 76.3348 20.776ZM76.3348 25.144C78.5268 25.144 79.8068 24.52 79.8068 23.48C79.8068 22.392 78.5268 21.8 76.3348 21.8C74.1428 21.8 72.8628 22.392 72.8628 23.48C72.8628 24.52 74.1428 25.144 76.3348 25.144ZM94.7015 18.84V26.184H93.3895V11.848H94.7015V17.736H97.0535V18.84H94.7015ZM92.0295 14.136V15.192H83.5655V14.136H87.1815V12.008H88.4935V14.136H92.0295ZM87.8535 16.376C89.9015 16.376 91.3575 17.768 91.3575 19.688C91.3575 21.656 89.9015 22.984 87.8535 22.984C85.8375 22.984 84.3815 21.656 84.3815 19.688C84.3815 17.768 85.8375 16.376 87.8535 16.376ZM87.8535 21.896C89.1815 21.896 90.1095 20.968 90.1095 19.688C90.1095 18.408 89.1815 17.464 87.8535 17.464C86.5575 17.464 85.6135 18.408 85.6135 19.688C85.6135 20.968 86.5575 21.896 87.8535 21.896ZM110.236 26.184H108.988V11.832H110.236V26.184ZM107.308 12.152V25.48H106.076V18.072H103.708V16.984H106.076V12.152H107.308ZM102.3 15.88C102.3 18.184 103.388 20.616 105.26 21.768L104.508 22.792C103.148 21.96 102.188 20.44 101.676 18.696C101.164 20.632 100.124 22.216 98.7003 23.112L97.8843 22.12C99.8523 20.968 101.036 18.408 101.036 15.928V13.192H102.3V15.88ZM125.467 24.344H112.427V23.256H115.627V19.384C114.411 18.76 113.707 17.72 113.707 16.424C113.707 14.2 115.883 12.744 118.923 12.744C121.979 12.744 124.139 14.2 124.139 16.424C124.139 17.72 123.467 18.744 122.251 19.368V23.256H125.467V24.344ZM118.923 13.768C116.619 13.768 114.971 14.824 114.971 16.424C114.971 18.024 116.619 19.08 118.923 19.08C121.227 19.08 122.891 18.024 122.891 16.424C122.891 14.824 121.227 13.768 118.923 13.768ZM120.939 23.256V19.88C120.251 20.024 119.579 20.104 118.923 20.104C118.219 20.104 117.563 20.024 116.939 19.88V23.256H120.939ZM140.948 22.568V11.848H142.212V22.568H140.948ZM136.74 17C136.532 18.76 135.236 19.928 133.508 19.928C131.636 19.928 130.244 18.504 130.244 16.44C130.244 14.392 131.636 12.952 133.508 12.952C135.236 12.952 136.532 14.168 136.74 15.928H138.244V12.12H139.476V22.152H138.244V17H136.74ZM131.412 16.44C131.412 17.816 132.308 18.808 133.508 18.808C134.708 18.808 135.588 17.816 135.588 16.44C135.588 15.032 134.724 14.088 133.508 14.088C132.308 14.088 131.412 15.032 131.412 16.44ZM142.628 25.864H132.852V21.192H134.164V24.792H142.628V25.864ZM156.275 26.168H154.963V11.832H156.275V26.168ZM146.707 21.656C149.315 21.656 151.171 21.56 153.315 21.176L153.443 22.248C151.219 22.632 149.267 22.728 146.547 22.728H145.411V13.128H152.371V14.2H146.707V17.16H151.843V18.216H146.707V21.656ZM159.681 17.208C162.241 16.872 164.545 15.432 164.545 13.688V13.656H160.081V12.6H170.705V13.656H166.241V13.688C166.241 15.432 168.561 16.872 171.089 17.208L170.609 18.28C168.305 17.896 166.161 16.76 165.393 15.096C164.625 16.76 162.481 17.896 160.177 18.28L159.681 17.208ZM171.905 20.392H158.881V19.32H171.905V20.392ZM170.433 24.792V25.864H160.561V21.704H161.873V24.792H170.433ZM185.072 19.544H183.76V11.848H185.072V19.544ZM177.36 12.52C179.536 12.52 181.12 13.848 181.12 15.816C181.12 17.8 179.536 19.128 177.36 19.128C175.2 19.128 173.632 17.8 173.632 15.816C173.632 13.848 175.2 12.52 177.36 12.52ZM177.36 13.608C175.936 13.608 174.912 14.52 174.912 15.816C174.912 17.144 175.936 18.04 177.36 18.04C178.832 18.04 179.84 17.16 179.84 15.816C179.84 14.52 178.816 13.608 177.36 13.608ZM177.12 22.008H183.776V20.248H185.072V25.992H175.824V20.248H177.12V22.008ZM183.776 24.936V23.032H177.12V24.936H183.776ZM199.455 26.168H198.143V11.832H199.455V26.168ZM189.903 21.352C192.095 21.352 194.287 21.176 196.671 20.68L196.815 21.8C194.303 22.312 192.079 22.472 189.775 22.472H188.591V13.224H189.903V21.352ZM213.134 18.584V26.216H211.822V11.832H213.134V17.496H215.502V18.584H213.134ZM204.014 21.512C206.574 21.512 208.414 21.416 210.478 21.032L210.622 22.12C208.446 22.552 206.526 22.632 203.838 22.632H202.702V13.208H209.374V14.296H204.014V21.512ZM217.772 23.72V25.224H216.316V23.72H217.772ZM62 42.888C64.736 43.016 66.288 43.912 66.288 45.512C66.288 47.224 64.416 48.168 61.344 48.168C58.16 48.168 56.352 47.24 56.352 45.512C56.352 43.912 57.904 43.016 60.672 42.888V40.632H54.848V39.576H64.496C64.896 37.848 64.896 36.6 64.896 35.512H56.512V34.44H66.192V35.48C66.192 36.568 66.192 37.848 65.824 39.576H67.856V40.632H62V42.888ZM64.976 45.512C64.976 44.488 63.6 43.928 61.344 43.928C59.024 43.928 57.664 44.488 57.664 45.512C57.664 46.536 59.024 47.112 61.344 47.112C63.6 47.112 64.976 46.536 64.976 45.512ZM82.2708 40.936H69.2308V39.88H78.8788C79.2788 38.088 79.2948 36.792 79.2948 35.656H70.8948V34.6H80.5908V35.656C80.5908 36.792 80.5908 38.072 80.2068 39.88H82.2708V40.936ZM80.6388 42.888V47.992H70.8468V42.888H80.6388ZM79.3428 46.936V43.944H72.1268V46.936H79.3428ZM94.7015 40.84V48.184H93.3895V33.848H94.7015V39.736H97.0535V40.84H94.7015ZM92.0295 36.136V37.192H83.5655V36.136H87.1815V34.008H88.4935V36.136H92.0295ZM87.8535 38.376C89.9015 38.376 91.3575 39.768 91.3575 41.688C91.3575 43.656 89.9015 44.984 87.8535 44.984C85.8375 44.984 84.3815 43.656 84.3815 41.688C84.3815 39.768 85.8375 38.376 87.8535 38.376ZM87.8535 43.896C89.1815 43.896 90.1095 42.968 90.1095 41.688C90.1095 40.408 89.1815 39.464 87.8535 39.464C86.5575 39.464 85.6135 40.408 85.6135 41.688C85.6135 42.968 86.5575 43.896 87.8535 43.896ZM108.508 44.36V33.832H109.82V44.36H108.508ZM105.996 42.024C104.332 41.4 103.1 40.136 102.46 38.472C101.836 40.216 100.556 41.608 98.8763 42.312L98.1883 41.24C100.364 40.424 101.788 38.328 101.788 36.088V34.632H103.1V36.088C103.1 38.248 104.572 40.216 106.684 40.984L105.996 42.024ZM110.252 47.864H100.588V43.384H101.9V46.792H110.252V47.864ZM127.877 48.168H126.613V40.76H124.581V47.448H123.349V34.152H124.581V39.672H126.613V33.832H127.877V48.168ZM117.717 43.32C119.125 43.304 120.597 43.208 122.325 42.872L122.453 44.008C120.517 44.376 118.869 44.456 117.317 44.456H116.405V35.576H117.717V43.32ZM143.076 41.992H130.084V40.936H133.3V38.92C132.132 38.456 131.54 37.736 131.54 36.76C131.54 35.096 133.476 34.088 136.58 34.088C139.7 34.088 141.62 35.096 141.62 36.76C141.62 37.72 140.98 38.456 139.876 38.904V40.936H143.076V41.992ZM132.884 36.76C132.884 37.784 134.26 38.408 136.58 38.408C138.9 38.408 140.276 37.784 140.276 36.76C140.276 35.72 138.9 35.112 136.58 35.112C134.26 35.112 132.884 35.72 132.884 36.76ZM138.58 40.936V39.256C138.02 39.368 137.348 39.416 136.58 39.416C135.86 39.416 135.188 39.368 134.596 39.256V40.936H138.58ZM136.58 43.064C139.668 43.064 141.492 43.976 141.492 45.624C141.492 47.272 139.668 48.168 136.58 48.168C133.508 48.168 131.668 47.272 131.668 45.624C131.668 43.976 133.508 43.064 136.58 43.064ZM136.58 47.16C138.836 47.16 140.164 46.6 140.164 45.624C140.164 44.648 138.836 44.088 136.58 44.088C134.324 44.088 132.996 44.648 132.996 45.624C132.996 46.6 134.324 47.16 136.58 47.16ZM156.243 48.216H154.931V33.832H156.243V48.216ZM148.675 34.936C150.803 34.936 152.323 36.888 152.323 39.944C152.323 43 150.803 44.952 148.675 44.952C146.547 44.952 145.027 43 145.027 39.944C145.027 36.888 146.547 34.936 148.675 34.936ZM148.675 36.12C147.267 36.12 146.275 37.624 146.275 39.944C146.275 42.28 147.267 43.784 148.675 43.784C150.067 43.784 151.059 42.28 151.059 39.944C151.059 37.624 150.067 36.12 148.675 36.12ZM172.62 42.04V33.848H173.932V42.04H172.62ZM166.22 41.368C164.06 41.368 162.492 40.008 162.492 38.024C162.492 36.04 164.06 34.68 166.22 34.68C168.396 34.68 169.98 36.04 169.98 38.024C169.98 40.008 168.396 41.368 166.22 41.368ZM166.22 35.768C164.796 35.768 163.772 36.696 163.772 38.024C163.772 39.352 164.796 40.28 166.22 40.28C167.644 40.28 168.7 39.352 168.7 38.024C168.7 36.696 167.644 35.768 166.22 35.768ZM172.332 43.432C172.332 44.92 173.372 46.408 175.212 47L174.556 47.992C173.148 47.48 172.172 46.504 171.676 45.288C171.228 46.456 170.364 47.544 169.02 48.12C167.612 47.56 166.78 46.552 166.348 45.336C165.836 46.488 164.86 47.48 163.516 47.992L162.86 47C164.668 46.36 165.74 44.824 165.74 43.432V42.664H167.004V43.432C167.004 44.712 167.644 46.056 168.988 46.84C170.364 45.976 171.052 44.552 171.052 43.432V42.664H172.332V43.432ZM187.594 40.584V48.216H186.282V33.832H187.594V39.496H189.962V40.584H187.594ZM178.474 43.512C181.034 43.512 182.874 43.416 184.938 43.032L185.082 44.12C182.906 44.552 180.986 44.632 178.298 44.632H177.162V35.208H183.834V36.296H178.474V43.512ZM191.609 41.784V35.096H198.153V36.36H201.449V33.848H202.777V44.312H201.449V40.504H198.153V41.784H191.609ZM192.905 36.136V40.744H196.873V36.136H192.905ZM198.153 39.432H201.449V37.432H198.153V39.432ZM203.113 47.864H193.545V43.384H194.857V46.792H203.113V47.864ZM62.944 62.376V61.304H65.344V59.624H62.944V58.568H65.344V55.848H66.672V66.504H65.344V62.376H62.944ZM63.36 63.864C60.624 64.296 57.344 64.344 55.04 64.344L54.896 63.256H55.776C56.08 63.256 56.384 63.256 56.704 63.24V58.056H55.28V57H62.832V58.056H61.408V63.064C62.048 63.016 62.688 62.968 63.28 62.888L63.36 63.864ZM57.968 63.224C58.672 63.208 59.408 63.192 60.128 63.144V58.056H57.968V63.224ZM67.04 69.864H57.472V65.64H58.784V68.792H67.04V69.864ZM80.3028 62.84V70.184H78.9908V55.848H80.3028V61.736H82.6548V62.84H80.3028ZM77.6308 58.136V59.192H69.1668V58.136H72.7828V56.008H74.0948V58.136H77.6308ZM73.4548 60.376C75.5028 60.376 76.9588 61.768 76.9588 63.688C76.9588 65.656 75.5028 66.984 73.4548 66.984C71.4388 66.984 69.9828 65.656 69.9828 63.688C69.9828 61.768 71.4388 60.376 73.4548 60.376ZM73.4548 65.896C74.7828 65.896 75.7108 64.968 75.7108 63.688C75.7108 62.408 74.7828 61.464 73.4548 61.464C72.1588 61.464 71.2148 62.408 71.2148 63.688C71.2148 64.968 72.1588 65.896 73.4548 65.896ZM95.8375 70.184H94.5895V55.832H95.8375V70.184ZM92.8455 56.216V69.464H91.5975V62.76H88.6535C87.7575 64.424 86.4295 65.88 84.4295 67.096L83.6615 66.152C86.7495 64.296 88.2695 61.752 88.5095 58.728H84.2695V57.656H89.8055C89.8055 59.064 89.6135 60.424 89.1175 61.704H91.5975V56.216H92.8455ZM111.75 63.288V55.848H113.062V63.288H111.75ZM109.478 63C107.798 62.488 106.47 61.352 105.814 59.88C105.19 61.48 103.862 62.712 102.118 63.304L101.494 62.264C103.654 61.592 105.126 59.816 105.126 57.864V57.704H101.846V56.648H109.718V57.704H106.47V57.864C106.47 59.704 107.958 61.336 110.086 61.976L109.478 63ZM113.558 70.024H103.814V66.44H111.782V65H103.782V63.976H113.078V67.416H105.11V68.984H113.558V70.024ZM117.365 61.544V56.504H127.013V61.544H117.365ZM118.645 57.56V60.488H125.717V57.56H118.645ZM128.709 64.232H122.949V67.128H121.637V64.232H115.669V63.176H128.709V64.232ZM127.253 68.792V69.864H117.333V65.768H118.645V68.792H127.253ZM142.26 70.168H140.996V62.952H139.156V69.48H137.924V56.152H139.156V61.88H140.996V55.816H142.26V70.168ZM137.204 58.28V59.352H130.084V58.28H132.996V56.248H134.292V58.28H137.204ZM133.652 60.312C135.428 60.312 136.724 61.656 136.724 63.576C136.724 65.528 135.428 66.856 133.652 66.856C131.876 66.856 130.58 65.528 130.58 63.576C130.58 61.656 131.876 60.312 133.652 60.312ZM133.652 65.768C134.756 65.768 135.556 64.856 135.556 63.576C135.556 62.328 134.756 61.416 133.652 61.416C132.5 61.416 131.748 62.296 131.748 63.576C131.748 64.856 132.548 65.768 133.652 65.768ZM145.283 61.768C147.779 61.384 150.259 59.752 150.259 57.864V57.784H145.731V56.728H156.211V57.784H151.715V57.864C151.715 59.752 154.195 61.384 156.723 61.768L156.211 62.808C153.987 62.424 151.843 61.24 150.995 59.528C150.099 61.24 148.019 62.424 145.779 62.808L145.283 61.768ZM151.619 65.08V70.184H150.307V65.08H144.515V64.008H157.475L157.491 65.08H151.619ZM171.089 70.184H169.841V55.832H171.089V70.184ZM168.161 56.152V69.48H166.929V62.072H164.561V60.984H166.929V56.152H168.161ZM163.153 59.88C163.153 62.184 164.241 64.616 166.113 65.768L165.361 66.792C164.001 65.96 163.041 64.44 162.529 62.696C162.017 64.632 160.977 66.216 159.553 67.112L158.737 66.12C160.705 64.968 161.889 62.408 161.889 59.928V57.192H163.153V59.88ZM186.32 68.344H173.28V67.256H176.48V63.384C175.264 62.76 174.56 61.72 174.56 60.424C174.56 58.2 176.736 56.744 179.776 56.744C182.832 56.744 184.992 58.2 184.992 60.424C184.992 61.72 184.32 62.744 183.104 63.368V67.256H186.32V68.344ZM179.776 57.768C177.472 57.768 175.824 58.824 175.824 60.424C175.824 62.024 177.472 63.08 179.776 63.08C182.08 63.08 183.744 62.024 183.744 60.424C183.744 58.824 182.08 57.768 179.776 57.768ZM181.792 67.256V63.88C181.104 64.024 180.432 64.104 179.776 64.104C179.072 64.104 178.416 64.024 177.792 63.88V67.256H181.792ZM192.863 64.408C191.439 64.408 190.703 62.888 189.679 62.888C189.167 62.888 188.735 63.208 188.303 63.976L187.487 63.4C188.143 62.248 188.943 61.8 189.727 61.8C191.135 61.8 191.871 63.304 192.895 63.304C193.407 63.304 193.855 62.984 194.255 62.216L195.087 62.808C194.431 63.96 193.631 64.408 192.863 64.408ZM198.442 58.68L198.25 66.136H197.242L197.05 58.68L197.002 57.016H198.49L198.442 58.68ZM197.018 69.208V67.704H198.474V69.208H197.018Z" fill="#222222"/>
<circle cx="16" cy="16" r="16" fill="#5221CB"/>
<path d="M20.9152 11.3926H13.2773V9.33313H25.032L23.5581 11.3926H20.9173H20.9152Z" fill="white"/>
<path d="M23.5573 13.6021H21.3906V21.3327H23.5573V13.6021Z" fill="#FFC043"/>
<path d="M13.2773 9.33313C9.99538 9.33313 7.33398 11.9945 7.33398 15.2764V21.3331H9.50062V15.2764C9.50062 13.1902 11.1911 11.4998 13.2773 11.4998C15.3635 11.4998 17.054 13.1902 17.054 15.2764V21.3331H19.2206V15.2764C19.2206 11.9945 16.5592 9.33313 13.2773 9.33313Z" fill="white"/>
</svg>
