<svg xmlns="http://www.w3.org/2000/svg" width="20" height="21" viewBox="0 0 20 21" fill="none">
  <g clip-path="url(#clip0_454_7642)">
    <path d="M16.875 8.44061C16.8757 7.28201 16.5836 6.14204 16.0258 5.12656C15.468 4.11109 14.6626 3.25305 13.6844 2.63214C12.7062 2.01124 11.587 1.64761 10.4307 1.57503C9.27438 1.50245 8.11847 1.72327 7.07034 2.21698C6.02221 2.7107 5.11584 3.46129 4.43544 4.39904C3.75503 5.3368 3.32265 6.4313 3.17846 7.58088C3.03426 8.73047 3.18293 9.89785 3.61065 10.9746C4.03837 12.0513 4.73128 13.0025 5.625 13.7398V19.6906C5.62492 19.7972 5.65211 19.902 5.70397 19.9952C5.75584 20.0883 5.83065 20.1666 5.92131 20.2226C6.01197 20.2787 6.11546 20.3106 6.22195 20.3154C6.32843 20.3202 6.43437 20.2977 6.52969 20.25L10 18.5187L13.4711 20.2539C13.5581 20.2955 13.6535 20.3166 13.75 20.3156C13.9158 20.3156 14.0747 20.2498 14.1919 20.1325C14.3092 20.0153 14.375 19.8564 14.375 19.6906V13.7398C15.157 13.0958 15.7867 12.2866 16.2189 11.3704C16.6512 10.4542 16.8752 9.45366 16.875 8.44061ZM4.375 8.44061C4.375 7.32809 4.7049 6.24055 5.32298 5.31552C5.94107 4.3905 6.81957 3.66953 7.84741 3.24378C8.87524 2.81804 10.0062 2.70665 11.0974 2.92369C12.1885 3.14073 13.1908 3.67646 13.9775 4.46313C14.7641 5.2498 15.2999 6.25208 15.5169 7.34322C15.734 8.43437 15.6226 9.56537 15.1968 10.5932C14.7711 11.621 14.0501 12.4995 13.1251 13.1176C12.2001 13.7357 11.1125 14.0656 10 14.0656C8.50867 14.064 7.07889 13.4708 6.02435 12.4163C4.96982 11.3617 4.37666 9.93194 4.375 8.44061ZM13.125 18.6797L10.2789 17.257C10.1921 17.2136 10.0963 17.1909 9.99922 17.1909C9.90212 17.1909 9.80636 17.2136 9.71953 17.257L6.875 18.6797V14.5633C7.84247 15.0578 8.91348 15.3156 10 15.3156C11.0865 15.3156 12.1575 15.0578 13.125 14.5633V18.6797ZM10 12.8156C10.8653 12.8156 11.7112 12.559 12.4306 12.0783C13.1501 11.5976 13.7108 10.9143 14.042 10.1148C14.3731 9.31542 14.4597 8.43575 14.2909 7.58709C14.1221 6.73842 13.7054 5.95887 13.0936 5.34701C12.4817 4.73516 11.7022 4.31848 10.8535 4.14967C10.0049 3.98086 9.12519 4.0675 8.32576 4.39863C7.52633 4.72977 6.84305 5.29052 6.36232 6.00999C5.88159 6.72945 5.625 7.57531 5.625 8.44061C5.62624 9.60055 6.08758 10.7126 6.90778 11.5328C7.72798 12.353 8.84006 12.8144 10 12.8156ZM10 5.31561C10.6181 5.31561 11.2223 5.49888 11.7362 5.84226C12.2501 6.18564 12.6506 6.6737 12.8871 7.24472C13.1236 7.81574 13.1855 8.44407 13.065 9.05026C12.9444 9.65645 12.6467 10.2133 12.2097 10.6503C11.7727 11.0874 11.2158 11.385 10.6097 11.5056C10.0035 11.6261 9.37513 11.5643 8.80412 11.3277C8.2331 11.0912 7.74504 10.6907 7.40166 10.1768C7.05828 9.66286 6.875 9.05867 6.875 8.44061C6.875 7.6118 7.20424 6.81695 7.79029 6.2309C8.37634 5.64485 9.1712 5.31561 10 5.31561Z" fill="#868A94"/>
  </g>
  <defs>
    <clipPath id="clip0_454_7642">
      <rect width="20" height="20" fill="white" transform="translate(0 0.94043)"/>
    </clipPath>
  </defs>
</svg>