<svg width="30" height="30" viewBox="0 0 30 30" fill="none" xmlns="http://www.w3.org/2000/svg">
<path d="M27.7237 22.9716C27.6446 22.8456 27.5655 22.7225 27.4863 22.5995C26.9883 21.8202 26.4903 21.0438 25.9893 20.2645C25.1953 19.0253 24.3985 17.7831 23.6045 16.5438L20.8887 12.3075L18.416 8.45204C17.8653 7.59364 17.3145 6.73231 16.7637 5.87391C16.6465 5.69227 16.5322 5.51356 16.4151 5.33192C16.2891 5.13563 16.1426 4.96864 15.9551 4.83094C15.4541 4.45887 14.7569 4.43251 14.2119 4.72548C13.8809 4.90126 13.6787 5.1913 13.4854 5.49598C13.3154 5.75966 13.1455 6.02333 12.9785 6.287C12.3516 7.26552 11.7246 8.2411 11.0977 9.21962C10.2422 10.5526 9.38674 11.8886 8.53127 13.2216C7.63186 14.6278 6.72951 16.0311 5.8301 17.4374C5.08303 18.6005 4.33889 19.7665 3.59182 20.9296L2.36721 22.8427C2.08596 23.2821 1.93947 23.7831 2.09768 24.3016C2.3174 25.037 2.98537 25.4823 3.7383 25.4823H26.3613C26.9795 25.4647 27.5654 25.1102 27.8203 24.536C28.043 24.0204 28.0196 23.4462 27.7237 22.9716ZM15.8819 20.8388C15.8819 21.3309 15.4776 21.6972 15.0029 21.7177C14.5283 21.7382 14.124 21.2987 14.124 20.8388V20.288C14.124 19.7958 14.5283 19.4296 15.0029 19.4091C15.4776 19.3886 15.8819 19.828 15.8819 20.288V20.8388ZM15.8819 17.0067C15.8819 17.4989 15.4776 17.8651 15.0029 17.8856C14.5283 17.9061 14.124 17.4667 14.124 17.0067V11.1444C14.124 10.6522 14.5283 10.286 15.0029 10.2655C15.4776 10.245 15.8819 10.6845 15.8819 11.1444V17.0067Z" fill="#F75015"/>
</svg>
