<svg width="12" height="8" viewBox="0 0 12 8" fill="none" xmlns="http://www.w3.org/2000/svg">
<path d="M10.3235 0.666992C10.1503 0.671754 9.98584 0.743723 9.86482 0.867659L5.00282 5.72566L2.14082 2.86566C2.07932 2.80199 2.00576 2.7512 1.92442 2.71626C1.84309 2.68132 1.75561 2.66293 1.66709 2.66216C1.57857 2.66139 1.49078 2.67826 1.40885 2.71178C1.32692 2.7453 1.25249 2.7948 1.18989 2.8574C1.1273 2.91999 1.07779 2.99443 1.04427 3.07636C1.01075 3.15829 0.993885 3.24607 0.994654 3.33459C0.995423 3.42311 1.01381 3.51059 1.04875 3.59193C1.08369 3.67326 1.13448 3.74683 1.19815 3.80833L4.53149 7.13899C4.65651 7.26397 4.82604 7.33418 5.00282 7.33418C5.1796 7.33418 5.34914 7.26397 5.47415 7.13899L10.8075 1.80966C10.9029 1.7159 10.9679 1.59559 10.9941 1.46439C11.0202 1.33318 11.0063 1.19715 10.9541 1.07397C10.9019 0.950791 10.8138 0.846169 10.7014 0.773706C10.5889 0.701244 10.4572 0.663626 10.3235 0.666992Z" fill="white"/>
</svg>
