<svg width="16" height="16" viewBox="0 0 16 16" fill="none" xmlns="http://www.w3.org/2000/svg">
<path d="M7.99992 1.3335C4.33325 1.3335 1.33325 4.3335 1.33325 8.00016C1.33325 11.6668 4.33325 14.6668 7.99992 14.6668C11.6666 14.6668 14.6666 11.6668 14.6666 8.00016C14.6666 4.3335 11.6666 1.3335 7.99992 1.3335ZM7.99992 11.3335C7.59992 11.3335 7.33325 11.0668 7.33325 10.6668C7.33325 10.2668 7.59992 10.0002 7.99992 10.0002C8.39992 10.0002 8.66658 10.2668 8.66658 10.6668C8.66658 11.0668 8.39992 11.3335 7.99992 11.3335ZM8.66658 8.00016C8.66658 8.40016 8.39992 8.66683 7.99992 8.66683C7.59992 8.66683 7.33325 8.40016 7.33325 8.00016V5.3335C7.33325 4.9335 7.59992 4.66683 7.99992 4.66683C8.39992 4.66683 8.66658 4.9335 8.66658 5.3335V8.00016Z" fill="#F75015"/>
</svg>
