<svg width="82" height="82" viewBox="0 0 82 82" fill="none" xmlns="http://www.w3.org/2000/svg">
<path d="M65.9328 0H16.0672C7.19352 0 0 7.19352 0 16.0672V65.9328C0 74.8065 7.19352 82 16.0672 82H65.9328C74.8065 82 82 74.8065 82 65.9328V16.0672C82 7.19352 74.8065 0 65.9328 0Z" fill="#5A2DC9"/>
<path d="M56.919 28.9513H33.5652V22.6543H69.5068L64.9999 28.9513H56.9253H56.919Z" fill="white"/>
<path d="M64.9998 35.709H58.375V59.3465H64.9998V35.709Z" fill="#FFC043"/>
<path d="M33.5651 22.6543C23.5302 22.6543 15.3926 30.7919 15.3926 40.8268V59.346H22.0174V40.8268C22.0174 34.4478 27.1861 29.2791 33.5651 29.2791C39.944 29.2791 45.1128 34.4478 45.1128 40.8268V59.346H51.7376V40.8268C51.7376 30.7919 43.6 22.6543 33.5651 22.6543Z" fill="white"/>
</svg>
