<svg xmlns="http://www.w3.org/2000/svg" width="56" height="56" viewBox="0 0 56 56" fill="none">
  <g clip-path="url(#clip0_113_10053)">
    <path d="M21.2796 21.2796H0V0H21.2796V21.2796ZM4.033 17.2466H17.2466V4.033H4.033V17.2466Z" fill="#727171"/>
    <path d="M13.3672 7.91895H7.91895V13.3672H13.3672V7.91895Z" fill="#727171"/>
    <path d="M56.0003 56.0003H34.7207V34.7207H56.0003V56.0003ZM38.7537 51.9673H51.9673V38.7537H38.7537V51.9673Z" fill="#727171"/>
    <path d="M48.081 42.6328H42.6328V48.081H48.081V42.6328Z" fill="#727171"/>
    <path d="M21.2796 56.0003H0V34.7207H21.2796V56.0003ZM4.033 51.9673H17.2466V38.7537H4.033V51.9673Z" fill="#727171"/>
    <path d="M13.3672 42.6328H7.91895V48.081H13.3672V42.6328Z" fill="#727171"/>
    <path d="M56.0003 21.2796H34.7207V0H56.0003V21.2796ZM38.7537 17.2466H51.9673V4.033H38.7537V17.2466Z" fill="#727171"/>
    <path d="M48.081 7.91895H42.6328V13.3672H48.081V7.91895Z" fill="#727171"/>
    <path d="M9.01169 25.2764H3.56348V30.7246H9.01169V25.2764Z" fill="#727171"/>
    <path d="M19.8642 25.2764H14.416V30.7246H19.8642V25.2764Z" fill="#5221CB"/>
    <path d="M30.7246 25.2764H25.2764V30.7246H30.7246V25.2764Z" fill="#727171"/>
    <path d="M41.5761 25.2764H36.1279V30.7246H41.5761V25.2764Z" fill="#5221CB"/>
    <path d="M52.4365 25.2764H46.9883V30.7246H52.4365V25.2764Z" fill="#727171"/>
    <path d="M30.7246 3.56348H25.2764V9.01169H30.7246V3.56348Z" fill="#727171"/>
    <path d="M30.7246 14.4238H25.2764V19.872H30.7246V14.4238Z" fill="#5221CB"/>
    <path d="M30.7246 36.1279H25.2764V41.5761H30.7246V36.1279Z" fill="#5221CB"/>
    <path d="M30.7246 46.9883H25.2764V52.4365H30.7246V46.9883Z" fill="#727171"/>
  </g>
  <defs>
    <clipPath id="clip0_113_10053">
      <rect width="56" height="56" fill="white"/>
    </clipPath>
  </defs>
</svg>