<svg xmlns="http://www.w3.org/2000/svg" width="56" height="56" viewBox="0 0 56 56" fill="none">
  <g clip-path="url(#clip0_113_10078)">
    <path d="M31.2379 55.9997C17.5815 55.9997 6.47559 44.9199 6.47559 31.2957V29.2792H10.5181V31.2957C10.5181 42.6908 19.8086 51.9667 31.2379 51.9667C36.7725 51.9667 41.9763 49.8182 45.8865 45.9099C49.8041 42.0088 51.9577 36.8173 51.9577 31.2957C51.9577 19.9007 42.6672 10.6248 31.2379 10.6248C25.7033 10.6248 20.4995 12.7733 16.5892 16.6816L15.1633 18.1042L12.3042 15.2517L13.7301 13.8292C18.4047 9.16558 24.6228 6.5918 31.2379 6.5918C44.8943 6.5918 56.0002 17.6715 56.0002 31.2957C56.0002 37.8952 53.4277 44.0987 48.7457 48.7623C44.0711 53.4259 37.8529 55.9997 31.2379 55.9997Z" fill="#727171"/>
    <path d="M30.1062 45.3891L26.5929 43.402L32.3186 33.3121H23.2266L32.37 17.2021L35.8907 19.1893L30.165 29.2791H39.257L30.1062 45.3891Z" fill="#5221CB"/>
    <path d="M31.2375 10.082C28.4518 10.082 26.1807 7.82353 26.1807 5.0371C26.1807 2.25067 28.4445 -0.0078125 31.2375 -0.0078125C34.0305 -0.0078125 36.2943 2.25067 36.2943 5.0371C36.2943 7.82353 34.0305 10.082 31.2375 10.082ZM31.2375 4.03252C30.6789 4.03252 30.2232 4.48715 30.2232 5.04443C30.2232 5.60172 30.6789 6.05635 31.2375 6.05635C31.7961 6.05635 32.2518 5.60172 32.2518 5.04443C32.2518 4.48715 31.7961 4.03252 31.2375 4.03252Z" fill="#727171"/>
    <path d="M14.2958 35.4903L8.5775 29.7928L2.85917 35.4903L0 32.6452L8.5775 24.0879L17.1477 32.6452L14.2958 35.4903Z" fill="#727171"/>
  </g>
  <defs>
    <clipPath id="clip0_113_10078">
      <rect width="56" height="56" fill="white"/>
    </clipPath>
  </defs>
</svg>