<svg width="48" height="48" viewBox="0 0 48 48" fill="none" xmlns="http://www.w3.org/2000/svg">
<g id="carbon:next-filled">
<path id="Vector" d="M3 24C3 28.1534 4.23163 32.2135 6.53914 35.667C8.84665 39.1204 12.1264 41.812 15.9636 43.4015C19.8009 44.9909 24.0233 45.4068 28.0969 44.5965C32.1705 43.7862 35.9123 41.7861 38.8492 38.8492C41.7861 35.9123 43.7862 32.1705 44.5965 28.0969C45.4068 24.0233 44.9909 19.8009 43.4015 15.9636C41.812 12.1264 39.1204 8.84665 35.667 6.53914C32.2135 4.23163 28.1534 3 24 3C18.4305 3 13.089 5.21249 9.15076 9.15076C5.21249 13.089 3 18.4305 3 24ZM12 22.5H30.225L21.855 14.0895L24 12L36 24L24 36L21.855 33.8595L30.225 25.5H12V22.5Z" fill="#A6A9B0"/>
</g>
</svg>
