<svg width="52" height="52" viewBox="0 0 52 52" fill="none" xmlns="http://www.w3.org/2000/svg">
<path d="M6.5 24.7952C6.5 26.9185 8.22192 28.6404 10.3453 28.6404C12.4686 28.6404 14.1905 26.9185 14.1905 24.7952C14.1905 26.9185 15.9124 28.6404 18.0358 28.6404C20.1591 28.6404 21.8811 26.9185 21.8811 24.7952C21.8811 26.9185 23.603 28.6404 25.7263 28.6404C27.8497 28.6404 29.5716 26.9185 29.5716 24.7952C29.5716 26.9185 31.2935 28.6404 33.4169 28.6404C35.5402 28.6404 37.2621 26.9185 37.2621 24.7952C37.2621 26.9185 38.984 28.6404 41.1074 28.6404C43.2307 28.6404 44.9527 26.9185 44.9527 24.7952V19.0278H6.50461V24.7952H6.5Z" stroke="#5A2DC9" stroke-width="2" stroke-linecap="round" stroke-linejoin="round"/>
<path d="M14.1904 22.873V24.7951" stroke="#5A2DC9" stroke-width="2" stroke-linecap="round" stroke-linejoin="round"/>
<path d="M21.8799 22.873V24.7951" stroke="#5A2DC9" stroke-width="2" stroke-linecap="round" stroke-linejoin="round"/>
<path d="M29.5693 22.873V24.7951" stroke="#5A2DC9" stroke-width="2" stroke-linecap="round" stroke-linejoin="round"/>
<path d="M37.2598 22.873V24.7951" stroke="#5A2DC9" stroke-width="2" stroke-linecap="round" stroke-linejoin="round"/>
<path d="M42.0657 28.6406V45.9426H9.38379V28.6406" stroke="#5A2DC9" stroke-width="2" stroke-linecap="round" stroke-linejoin="round"/>
<path d="M21.88 32.4858H13.229V45.9425H21.88V32.4858Z" stroke="#5A2DC9" stroke-width="2" stroke-linecap="round" stroke-linejoin="round"/>
<path d="M18.9961 38.252V40.1752" stroke="#5A2DC9" stroke-width="2" stroke-linecap="round" stroke-linejoin="round"/>
<path d="M38.2203 11.3384H13.2289L6.5 18.0673V19.0278H44.9492V18.0673L38.2203 11.3384Z" stroke="#5A2DC9" stroke-width="2" stroke-linecap="round" stroke-linejoin="round"/>
<path d="M38.2204 5.57129H13.229V11.3386H38.2204V5.57129Z" stroke="#5A2DC9" stroke-width="2" stroke-linecap="round" stroke-linejoin="round"/>
<path d="M14.1904 19.0278V18.0673L17.0741 13.2604V11.3384" stroke="#5A2DC9" stroke-width="2" stroke-linecap="round" stroke-linejoin="round"/>
<path d="M37.2596 19.0278V18.0673L34.376 13.2604V11.3384" stroke="#5A2DC9" stroke-width="2" stroke-linecap="round" stroke-linejoin="round"/>
<path d="M21.8799 19.0278V18.0673L22.8415 13.2604V11.3384" stroke="#5A2DC9" stroke-width="2" stroke-linecap="round" stroke-linejoin="round"/>
<path d="M29.5693 19.0278V18.0673L28.6089 13.2604V11.3384" stroke="#5A2DC9" stroke-width="2" stroke-linecap="round" stroke-linejoin="round"/>
<path d="M38.2213 32.4858H25.7251V40.1752H38.2213V32.4858Z" stroke="#5A2DC9" stroke-width="2" stroke-linecap="round" stroke-linejoin="round"/>
</svg>
