<svg width="60" height="60" viewBox="0 0 60 60" fill="none" xmlns="http://www.w3.org/2000/svg">
<path d="M33.7874 26.2153C36.1833 28.6112 36.1833 32.4945 33.7874 34.8904C31.3915 37.2863 27.5083 37.2863 25.1124 34.8904C22.7165 32.4945 22.7165 28.6112 25.1124 26.2153C26.7116 24.6161 28.9724 24.0914 31.0115 24.6258" stroke="#5A2DC9" stroke-width="3" stroke-linecap="round" stroke-linejoin="round"/>
<path d="M38.8465 21.1533C44.0376 26.3444 44.0376 34.759 38.8465 39.9502C33.6553 45.1413 25.2407 45.1413 20.0496 39.9502C14.8585 34.759 14.8585 26.3444 20.0496 21.1533C24.4884 16.7145 31.2768 16.0856 36.3985 19.2358" stroke="#222222" stroke-width="3" stroke-linecap="round" stroke-linejoin="round"/>
<path d="M38.1406 12.0405C30.5612 8.48139 21.2496 9.83174 14.9898 16.0935C7.00341 24.0799 7.00341 37.0259 14.9898 45.0122C22.9761 52.9986 35.9221 52.9986 43.9085 45.0122C50.9612 37.9595 51.781 27.0391 46.3758 19.0836" stroke="#222222" stroke-width="3" stroke-linecap="round" stroke-linejoin="round"/>
<path d="M40.0869 19.9127L40.7428 19.2568" stroke="#5A2DC9" stroke-width="3" stroke-linecap="round" stroke-linejoin="round"/>
<path d="M38.8471 21.1533L33.7871 26.2152" stroke="#5A2DC9" stroke-width="3" stroke-linecap="round" stroke-linejoin="round"/>
<path d="M33.7863 26.2148L29.1758 30.8253" stroke="#5A2DC9" stroke-width="3" stroke-linecap="round" stroke-linejoin="round"/>
<path d="M40.7422 19.2564L42.8159 17.1846" stroke="#5A2DC9" stroke-width="3" stroke-linecap="round" stroke-linejoin="round"/>
<path d="M38.8457 21.1535L40.0861 19.9131" stroke="#5A2DC9" stroke-width="3" stroke-linecap="round" stroke-linejoin="round"/>
<path d="M40.0059 19.1758L40.0869 19.9127" stroke="#5A2DC9" stroke-width="3" stroke-linecap="round" stroke-linejoin="round"/>
<path d="M45.5439 14.4552V13.3652" stroke="#5A2DC9" stroke-width="3" stroke-linecap="round" stroke-linejoin="round"/>
<path d="M42.2705 12.2736L45.5441 9V13.3655" stroke="#5A2DC9" stroke-width="3" stroke-linecap="round" stroke-linejoin="round"/>
<path d="M40.918 13.6257L42.2702 12.2734" stroke="#5A2DC9" stroke-width="3" stroke-linecap="round" stroke-linejoin="round"/>
<path d="M40.9184 13.626L39.543 15.0014L40.0059 19.1759" stroke="#5A2DC9" stroke-width="3" stroke-linecap="round" stroke-linejoin="round"/>
<path d="M40.0869 19.9125L44.9983 20.4584L46.3738 19.0811" stroke="#5A2DC9" stroke-width="3" stroke-linecap="round" stroke-linejoin="round"/>
<path d="M46.6358 14.4551H45.5439" stroke="#5A2DC9" stroke-width="3" stroke-linecap="round" stroke-linejoin="round"/>
<path d="M46.374 19.081L50.9999 14.4551H46.6364" stroke="#5A2DC9" stroke-width="3" stroke-linecap="round" stroke-linejoin="round"/>
<path d="M40.0059 19.1758L40.7428 19.2568" stroke="#5A2DC9" stroke-width="3" stroke-linecap="round" stroke-linejoin="round"/>
</svg>
