<svg width="48" height="48" viewBox="0 0 48 48" fill="none" xmlns="http://www.w3.org/2000/svg">
<path d="M24 42C33.9411 42 42 33.9411 42 24C42 14.0589 33.9411 6 24 6C14.0589 6 6 14.0589 6 24C6 33.9411 14.0589 42 24 42Z" fill="#5A2DC9"/>
<g clip-path="url(#clip0_3434_53664)">
<path d="M15 19.4994V31.7752C15 32.4531 15.5415 33.0023 16.2098 33.0023H31.7902C32.4585 33.0023 33 32.4531 33 31.7752V19.4994H15Z" fill="#DCDDDD"/>
<path d="M33 16.2271C33 15.5493 32.4585 15 31.7902 15H16.2098C15.5415 15 15 15.5493 15 16.2271V18.6767H33V16.2271Z" fill="#C0AFE9"/>
<path d="M15 18.6767V30.9525C15 31.6303 15.5415 32.1796 16.2098 32.1796H31.7902C32.4585 32.1796 33 31.6303 33 30.9525V18.6767H15Z" fill="white"/>
<path d="M18.1156 16.7881C18.1156 16.4819 17.8713 16.2365 17.5717 16.2365C17.2722 16.2365 17.0279 16.4842 17.0279 16.7881C17.0279 17.0919 17.2722 17.3397 17.5717 17.3397C17.8713 17.3397 18.1156 17.0919 18.1156 16.7881Z" fill="white"/>
<path d="M30.9744 16.7881C30.9744 16.4819 30.7301 16.2365 30.4305 16.2365C30.1309 16.2365 29.8867 16.4842 29.8867 16.7881C29.8867 17.0919 30.1309 17.3397 30.4305 17.3397C30.7301 17.3397 30.9744 17.0919 30.9744 16.7881Z" fill="white"/>
<path d="M19.4222 20.9883H17.4611V22.9774H19.4222V20.9883Z" fill="#967BD7"/>
<path d="M23.1278 20.9883H21.1667V22.9774H23.1278V20.9883Z" fill="#967BD7"/>
<path d="M26.8333 20.9883H24.8722V22.9774H26.8333V20.9883Z" fill="#967BD7"/>
<path d="M30.5388 20.9883H28.5778V22.9774H30.5388V20.9883Z" fill="#967BD7"/>
<path d="M19.4222 24.5247H17.4611V26.5138H19.4222V24.5247Z" fill="#967BD7"/>
<path d="M23.1278 24.5247H21.1667V26.5138H23.1278V24.5247Z" fill="#967BD7"/>
<path d="M26.8333 24.5247H24.8722V26.5138H26.8333V24.5247Z" fill="#967BD7"/>
<path d="M30.5388 24.5247H28.5778V26.5138H30.5388V24.5247Z" fill="#967BD7"/>
<path d="M19.4222 28.0635H17.4611V30.0526H19.4222V28.0635Z" fill="#967BD7"/>
<path d="M23.1278 28.0635H21.1667V30.0526H23.1278V28.0635Z" fill="#967BD7"/>
<path d="M26.8333 28.0635H24.8722V30.0526H26.8333V28.0635Z" fill="#967BD7"/>
<path d="M30.5388 28.0635H28.5778V30.0526H30.5388V28.0635Z" fill="#967BD7"/>
</g>
<defs>
<clipPath id="clip0_3434_53664">
<rect width="18" height="18" fill="white" transform="translate(15 15)"/>
</clipPath>
</defs>
</svg>
