<svg width="48" height="48" viewBox="0 0 48 48" fill="none" xmlns="http://www.w3.org/2000/svg">
<path d="M24 42C33.9411 42 42 33.9411 42 24C42 14.0589 33.9411 6 24 6C14.0589 6 6 14.0589 6 24C6 33.9411 14.0589 42 24 42Z" fill="#FFD177"/>
<g clip-path="url(#clip0_3434_53729)">
<path d="M25.8968 22.1032C24.8525 21.0589 23.1594 21.0589 22.1151 22.1032L14.7838 29.4369C13.7395 30.4811 13.7395 32.1743 14.7838 33.2185C15.8281 34.2628 17.5212 34.2628 18.5655 33.2185L25.8991 25.8873C26.9434 24.843 26.9434 23.1499 25.8991 22.1056L25.8968 22.1032ZM15.8139 32.1861C15.435 31.8072 15.435 31.1915 15.8139 30.8103C16.1928 30.4314 16.8084 30.4314 17.1897 30.8103C17.5686 31.1892 17.5686 31.8049 17.1897 32.1861C16.8108 32.565 16.1951 32.565 15.8139 32.1861Z" fill="white"/>
<path d="M33.4624 17.6325L29.9081 21.1868C29.0533 22.0417 27.668 22.0417 26.8155 21.1868C25.9607 20.332 25.9607 18.9467 26.8155 18.0942L30.3699 14.5399C28.1037 13.5217 25.3497 13.9432 23.4909 15.802C21.0874 18.2055 21.0874 22.1056 23.4909 24.5091C25.8944 26.915 29.7944 26.9126 32.1979 24.5091C34.0568 22.6502 34.4783 19.8963 33.4601 17.6325H33.4624Z" fill="white"/>
<path d="M19.7873 29.3611C19.47 29.6785 18.9586 29.6785 18.6412 29.3611C18.3239 29.0438 18.3239 28.5323 18.6412 28.215L22.0014 24.8549C22.3187 24.5376 22.8302 24.5376 23.1475 24.8549C23.4648 25.1722 23.4648 25.6837 23.1475 26.001L19.7873 29.3611Z" fill="#FFEDC9"/>
</g>
<defs>
<clipPath id="clip0_3434_53729">
<rect width="20" height="20" fill="white" transform="translate(14 14)"/>
</clipPath>
</defs>
</svg>
