<svg width="48" height="48" viewBox="0 0 48 48" fill="none" xmlns="http://www.w3.org/2000/svg">
<path d="M24 42C33.9411 42 42 33.9411 42 24C42 14.0589 33.9411 6 24 6C14.0589 6 6 14.0589 6 24C6 33.9411 14.0589 42 24 42Z" fill="#FDA282"/>
<g clip-path="url(#clip0_3434_53735)">
<path d="M28.1788 18.2533H19.8184V13H28.1788V18.2533ZM21.0285 17.0406H26.966V14.2127H21.0312V17.0406H21.0285Z" fill="#FBE3DA"/>
<path d="M15.827 17.1922V32.7262C15.827 33.9802 16.8441 34.9973 18.0983 34.9973H29.8989C31.1532 34.9973 32.1703 33.9802 32.1703 32.7262V17.1922H15.827Z" fill="white"/>
<path d="M32.1703 17.1922H15.827V18.9369H32.1703V17.1922Z" fill="#EEEBEA"/>
<path d="M19.0879 31.0862C19.0879 31.4115 18.8233 31.6761 18.498 31.6761C18.1728 31.6761 17.9081 31.4115 17.9081 31.0862V18.7357C17.9081 18.4105 18.1728 18.1459 18.498 18.1459C18.8233 18.1459 19.0879 18.4105 19.0879 18.7357V31.089V31.0862Z" fill="#EEEBEA"/>
<path d="M22.7568 31.0862C22.7568 31.4115 22.4922 31.6761 22.1669 31.6761C21.8417 31.6761 21.577 31.4115 21.577 31.0862V18.7357C21.577 18.4105 21.8417 18.1459 22.1669 18.1459C22.4922 18.1459 22.7568 18.4105 22.7568 18.7357V31.089V31.0862Z" fill="#EEEBEA"/>
<path d="M26.423 31.0862C26.423 31.4115 26.1584 31.6761 25.8331 31.6761C25.5078 31.6761 25.2432 31.4115 25.2432 31.0862V18.7357C25.2432 18.4105 25.5078 18.1459 25.8331 18.1459C26.1584 18.1459 26.423 18.4105 26.423 18.7357V31.089V31.0862Z" fill="#EEEBEA"/>
<path d="M30.0919 31.0862C30.0919 31.4115 29.8273 31.6761 29.502 31.6761C29.1767 31.6761 28.9121 31.4115 28.9121 31.0862V18.7357C28.9121 18.4105 29.1767 18.1459 29.502 18.1459C29.8273 18.1459 30.0919 18.4105 30.0919 18.7357V31.089V31.0862Z" fill="#EEEBEA"/>
<path d="M33 17.0571C33 17.5891 32.5672 18.0218 32.0352 18.0218H15.9648C15.4328 18.0218 15 17.5891 15 17.0571C15 16.5252 15.43 16.0925 15.9648 16.0925H32.0352C32.5672 16.0925 33 16.5252 33 17.0571Z" fill="#F75015"/>
</g>
<defs>
<clipPath id="clip0_3434_53735">
<rect width="18" height="22" fill="white" transform="translate(15 13)"/>
</clipPath>
</defs>
</svg>
