<svg width="48" height="48" viewBox="0 0 48 48" fill="none" xmlns="http://www.w3.org/2000/svg">
<path d="M24 42C33.9411 42 42 33.9411 42 24C42 14.0589 33.9411 6 24 6C14.0589 6 6 14.0589 6 24C6 33.9411 14.0589 42 24 42Z" fill="#7FDDE3"/>
<g clip-path="url(#clip0_3434_53719)">
<path d="M31.8453 18.034H22.963V17.7489C22.963 17.0932 22.4468 16.5586 21.8083 16.5586H17.7129C17.0745 16.5586 16.5582 17.0908 16.5582 17.7489V31.5578C16.5582 32.2159 17.0745 32.7481 17.7129 32.7481H31.8453C32.4837 32.7481 33 32.2159 33 31.5578V19.2244C33 18.5686 32.4837 18.034 31.8453 18.034Z" fill="#41B4BB"/>
<path d="M31.1401 15H18.4205V27.1861H31.1401V15Z" fill="#468D91"/>
<path d="M32.9586 31.812C33.1291 32.4701 32.7511 33.0024 32.115 33.0024H17.9826C17.3442 33.0024 16.6896 32.4701 16.5191 31.812L14.0415 22.2774C13.871 21.6193 14.249 21.0871 14.8874 21.0871H29.0198C29.6559 21.0871 30.3128 21.6193 30.4833 22.2774L32.9609 31.8096L32.9586 31.812Z" fill="white"/>
<path d="M29.619 17.1454C29.619 17.364 29.4461 17.5422 29.2341 17.5422H20.3241C20.1121 17.5422 19.9392 17.364 19.9392 17.1454C19.9392 16.9269 20.1121 16.7487 20.3241 16.7487H29.2364C29.4484 16.7487 29.6213 16.9269 29.6213 17.1454H29.619Z" fill="#326C70"/>
<path d="M29.619 18.887C29.619 19.1056 29.4461 19.2838 29.2341 19.2838H20.3241C20.1121 19.2838 19.9392 19.1056 19.9392 18.887C19.9392 18.6684 20.1121 18.4902 20.3241 18.4902H29.2364C29.4484 18.4902 29.6213 18.6684 29.6213 18.887H29.619Z" fill="#326C70"/>
</g>
<defs>
<clipPath id="clip0_3434_53719">
<rect width="19" height="18" fill="white" transform="translate(14 15)"/>
</clipPath>
</defs>
</svg>
