<svg width="48" height="48" viewBox="0 0 48 48" fill="none" xmlns="http://www.w3.org/2000/svg">
<path d="M24 42C33.9411 42 42 33.9411 42 24C42 14.0589 33.9411 6 24 6C14.0589 6 6 14.0589 6 24C6 33.9411 14.0589 42 24 42Z" fill="#7492FD"/>
<g clip-path="url(#clip0_3434_53703)">
<path d="M33.0986 16.0745L35 17.9758V15.0131C35 14.4541 34.5459 14 33.9869 14H15.0131C14.4541 14 14 14.4541 14 15.0131V33.9869C14 34.5459 14.4541 35 15.0131 35H17.9758L16.0745 33.0986L33.0986 16.0745Z" fill="#567BFF"/>
<path d="M35 33.9869V17.9758L33.0987 16.0745L16.0745 33.0987L17.9758 35H33.9869C34.5459 35 35 34.5459 35 33.9869Z" fill="#2E59F2"/>
<path d="M33.669 17.553C33.669 16.327 32.6758 15.3309 31.447 15.3309H17.553C16.327 15.3309 15.3309 16.3242 15.3309 17.553V24.5H33.669V17.553Z" fill="#EFEFEF"/>
<path d="M15.3309 24.5V31.447C15.3309 32.673 16.3242 33.6691 17.553 33.6691H31.447C32.673 33.6691 33.669 32.6758 33.669 31.447V24.5H15.3309Z" fill="white"/>
<path d="M33.669 18.1461C33.669 17.0251 32.6758 16.1142 31.447 16.1142H17.553C16.327 16.1142 15.3309 17.0251 15.3309 18.1461V24.5H33.669V18.1461Z" fill="white"/>
<path d="M33.669 19.5111C33.669 18.6313 32.6758 17.9162 31.447 17.9162H17.553C16.327 17.9162 15.3309 18.6313 15.3309 19.5111V24.5H33.669V19.5111Z" fill="#DCDDDD"/>
<path d="M20.2121 24.0204C19.8261 23.6345 19.2018 23.6345 18.8187 24.0204C18.6825 24.1566 18.5973 24.3241 18.5576 24.5H20.6917L20.2149 24.0204H20.2121Z" fill="#2E59F2"/>
<path d="M24.6958 24.5L22.6952 26.5007L20.6945 24.5H18.5604C18.4866 24.8207 18.5746 25.1669 18.8215 25.4166L21.9971 28.595C22.19 28.788 22.4426 28.8845 22.6952 28.8845C22.9477 28.8845 23.2003 28.788 23.3933 28.595L27.4854 24.5028H24.6958V24.5Z" fill="#567BFF"/>
<path d="M30.1814 21.8012C30.5673 21.4181 30.5673 20.7938 30.1814 20.4079C29.7983 20.0219 29.1711 20.0219 28.788 20.4079L24.6959 24.5H27.4855L30.1842 21.8012H30.1814Z" fill="#2E59F2"/>
</g>
<defs>
<clipPath id="clip0_3434_53703">
<rect width="21" height="21" fill="white" transform="translate(14 14)"/>
</clipPath>
</defs>
</svg>
