<svg width="48" height="48" viewBox="0 0 48 48" fill="none" xmlns="http://www.w3.org/2000/svg">
<path d="M24 42C33.9411 42 42 33.9411 42 24C42 14.0589 33.9411 6 24 6C14.0589 6 6 14.0589 6 24C6 33.9411 14.0589 42 24 42Z" fill="#BEA9F0"/>
<g clip-path="url(#clip0_3434_53691)">
<path d="M21.1112 26.526C21.1112 25.6966 20.4262 25.0247 19.5807 25.0247C18.7352 25.0247 18.0502 25.6966 18.0502 26.526V27.5842H21.109V26.526H21.1112Z" fill="#9B76F7"/>
<path d="M18.0524 27.5864V30.4987C18.0524 31.3281 18.7373 32 19.5828 32C20.4283 32 21.1133 31.3281 21.1133 30.4987V27.5864H18.0524Z" fill="#DED2FB"/>
<path d="M29.9301 25.6651C31.0733 25.6651 32 24.756 32 23.6346C32 22.5132 31.0733 21.6042 29.9301 21.6042C28.7869 21.6042 27.8602 22.5132 27.8602 23.6346C27.8602 24.756 28.7869 25.6651 29.9301 25.6651Z" fill="#5A2DC9"/>
<path d="M15.9954 23.6347L29.3543 30.7759V16.4955L15.9954 23.6347Z" fill="white"/>
<path d="M20.758 21.0751H15V26.1942H20.758V21.0751Z" fill="#5A2DC9"/>
<path d="M30.1999 30.6982C30.1999 31.0152 29.9387 31.2714 29.6155 31.2714C29.2923 31.2714 29.0311 31.0152 29.0311 30.6982V16.5732C29.0311 16.2562 29.2923 16 29.6155 16C29.9387 16 30.1999 16.2562 30.1999 16.5732V30.6982Z" fill="#DED2FB"/>
</g>
<defs>
<clipPath id="clip0_3434_53691">
<rect width="17" height="16" fill="white" transform="translate(15 16)"/>
</clipPath>
</defs>
</svg>
