<svg width="52" height="52" viewBox="0 0 52 52" fill="none" xmlns="http://www.w3.org/2000/svg">
<path d="M5.57129 45.1484H46.0599" stroke="#A6A9B0" stroke-width="2" stroke-linecap="round" stroke-linejoin="round"/>
<path d="M8.33203 45.1485V18.4628L17.534 12.0215V45.1485" stroke="#A6A9B0" stroke-width="2" stroke-linecap="round" stroke-linejoin="round"/>
<path d="M37.7781 45.1483V25.8242L28.5762 19.3828" stroke="#A6A9B0" stroke-width="2" stroke-linecap="round" stroke-linejoin="round"/>
<path d="M14.7734 10.1808V6.5H28.5764V45.1482" stroke="#A6A9B0" stroke-width="2" stroke-linecap="round" stroke-linejoin="round"/>
<path d="M34.0977 19.3829V15.7021H43.2996V45.1484" stroke="#A6A9B0" stroke-width="2" stroke-linecap="round" stroke-linejoin="round"/>
<path d="M8.33203 22.1436H12.0128" stroke="#A6A9B0" stroke-width="2" stroke-linecap="round" stroke-linejoin="round"/>
<path d="M8.33203 26.7441H12.0128" stroke="#A6A9B0" stroke-width="2" stroke-linecap="round" stroke-linejoin="round"/>
<path d="M8.33203 31.3452H12.0128" stroke="#A6A9B0" stroke-width="2" stroke-linecap="round" stroke-linejoin="round"/>
<path d="M8.33203 35.9463H12.0128" stroke="#A6A9B0" stroke-width="2" stroke-linecap="round" stroke-linejoin="round"/>
<path d="M8.33203 40.5474H12.0128" stroke="#A6A9B0" stroke-width="2" stroke-linecap="round" stroke-linejoin="round"/>
<path d="M22.1348 21.2236H23.9752" stroke="#A6A9B0" stroke-width="2" stroke-linecap="round" stroke-linejoin="round"/>
<path d="M22.1348 25.8242H23.9752" stroke="#A6A9B0" stroke-width="2" stroke-linecap="round" stroke-linejoin="round"/>
<path d="M22.1348 12.0215H23.9752" stroke="#A6A9B0" stroke-width="2" stroke-linecap="round" stroke-linejoin="round"/>
<path d="M22.1348 16.6221H23.9752" stroke="#A6A9B0" stroke-width="2" stroke-linecap="round" stroke-linejoin="round"/>
<path d="M22.1348 30.4248H23.9752" stroke="#A6A9B0" stroke-width="2" stroke-linecap="round" stroke-linejoin="round"/>
<path d="M22.1348 35.0264H23.9752" stroke="#A6A9B0" stroke-width="2" stroke-linecap="round" stroke-linejoin="round"/>
<path d="M22.1348 39.627H23.9752" stroke="#A6A9B0" stroke-width="2" stroke-linecap="round" stroke-linejoin="round"/>
<path d="M32.7168 27.6646H33.637" stroke="#A6A9B0" stroke-width="2" stroke-linecap="round" stroke-linejoin="round"/>
<path d="M32.7168 32.2656H33.637" stroke="#A6A9B0" stroke-width="2" stroke-linecap="round" stroke-linejoin="round"/>
<path d="M32.7168 36.8667H33.637" stroke="#A6A9B0" stroke-width="2" stroke-linecap="round" stroke-linejoin="round"/>
<path d="M32.7168 41.4673H33.637" stroke="#A6A9B0" stroke-width="2" stroke-linecap="round" stroke-linejoin="round"/>
<path d="M36.8579 6.5V15.702" stroke="#A6A9B0" stroke-width="2" stroke-linecap="round" stroke-linejoin="round"/>
<path d="M40.5386 12.0215V15.7023" stroke="#A6A9B0" stroke-width="2" stroke-linecap="round" stroke-linejoin="round"/>
</svg>
