<svg width="52" height="52" viewBox="0 0 52 52" fill="none" xmlns="http://www.w3.org/2000/svg">
<path d="M37.4912 45.4841V25.992C37.4912 24.7954 36.522 23.8262 35.3254 23.8262H25.5794C24.3828 23.8262 23.4136 24.7954 23.4136 25.992V45.4841" stroke="#A6A9B0" stroke-width="2" stroke-linecap="round" stroke-linejoin="round"/>
<path d="M34.2424 28.1582H26.6621V32.4898H34.2424V28.1582Z" stroke="#A6A9B0" stroke-width="2" stroke-linecap="round" stroke-linejoin="round"/>
<path d="M23.4136 39.5289C22.9628 40.5888 21.6092 41.6947 19.7926 41.6947C17.6268 41.6947 16.3341 39.7428 17.237 37.4646C17.9246 35.7279 19.082 32.4901 19.082 32.4901V29.2184L20.1649 25.9927" stroke="#A6A9B0" stroke-width="2" stroke-linecap="round" stroke-linejoin="round"/>
<path d="M4.64307 45.3628L46.5736 45.3628" stroke="#A6A9B0" stroke-width="2" stroke-linecap="round" stroke-linejoin="round"/>
<path d="M46.5736 6.5H4.64307V11.6135H46.5736V6.5Z" stroke="#A6A9B0" stroke-width="2" stroke-linecap="round" stroke-linejoin="round"/>
<path d="M42.9053 11.9146V45.4844" stroke="#A6A9B0" stroke-width="2" stroke-linecap="round" stroke-linejoin="round"/>
<path d="M37.4912 11.9146V20.5777" stroke="#A6A9B0" stroke-width="2" stroke-linecap="round" stroke-linejoin="round"/>
<path d="M19.082 29.2183L20.5033 30.3242" stroke="#A6A9B0" stroke-width="2" stroke-linecap="round" stroke-linejoin="round"/>
</svg>
