<svg width="20" height="20" viewBox="0 0 20 20" fill="none" xmlns="http://www.w3.org/2000/svg">
<path d="M16.8948 5.86647H15.8615V4.83314C15.8615 4.55908 15.7526 4.29625 15.5588 4.10246C15.365 3.90867 15.1022 3.7998 14.8281 3.7998H2.77259C2.49853 3.7998 2.2357 3.90867 2.04191 4.10246C1.84813 4.29625 1.73926 4.55908 1.73926 4.83314V13.0998C1.73926 13.3739 1.84813 13.6367 2.04191 13.8305C2.2357 14.0243 2.49853 14.1331 2.77259 14.1331H3.80592V15.1665C3.80592 15.4405 3.91479 15.7034 4.10858 15.8971C4.30237 16.0909 4.5652 16.1998 4.83926 16.1998H16.8948C17.1689 16.1998 17.4317 16.0909 17.6255 15.8971C17.8193 15.7034 17.9281 15.4405 17.9281 15.1665V6.8998C17.9281 6.62575 17.8193 6.36292 17.6255 6.16913C17.4317 5.97534 17.1689 5.86647 16.8948 5.86647ZM14.8281 4.48869C14.9195 4.48869 15.0071 4.52498 15.0717 4.58958C15.1363 4.65417 15.1726 4.74179 15.1726 4.83314V5.83203C14.8419 5.76386 14.5385 5.6003 14.2997 5.36156C14.061 5.12283 13.8974 4.81937 13.8293 4.48869H14.8281ZM2.42815 4.83314C2.42815 4.74179 2.46444 4.65417 2.52903 4.58958C2.59363 4.52498 2.68124 4.48869 2.77259 4.48869H3.77148C3.70331 4.81937 3.53976 5.12283 3.30102 5.36156C3.06228 5.6003 2.75882 5.76386 2.42815 5.83203V4.83314ZM2.77259 13.4442C2.68124 13.4442 2.59363 13.408 2.52903 13.3434C2.46444 13.2788 2.42815 13.1912 2.42815 13.0998V12.1009C2.75882 12.1691 3.06228 12.3326 3.30102 12.5714C3.53976 12.8101 3.70331 13.1136 3.77148 13.4442H2.77259ZM2.42815 11.4051V6.5278C2.94238 6.45304 3.4187 6.21414 3.78615 5.84669C4.15359 5.47925 4.39249 5.00293 4.46726 4.48869H13.1335C13.2082 5.00293 13.4471 5.47925 13.8146 5.84669C14.182 6.21414 14.6584 6.45304 15.1726 6.5278V11.4051C14.6584 11.4799 14.182 11.7188 13.8146 12.0862C13.4471 12.4537 13.2082 12.93 13.1335 13.4442H4.46726C4.39249 12.93 4.15359 12.4537 3.78615 12.0862C3.4187 11.7188 2.94238 11.4799 2.42815 11.4051ZM15.1726 12.1009V13.0998C15.1726 13.1912 15.1363 13.2788 15.0717 13.3434C15.0071 13.408 14.9195 13.4442 14.8281 13.4442H13.8293C13.8974 13.1136 14.061 12.8101 14.2997 12.5714C14.5385 12.3326 14.8419 12.1691 15.1726 12.1009ZM17.2393 15.1665C17.2393 15.2578 17.203 15.3454 17.1384 15.41C17.0738 15.4746 16.9862 15.5109 16.8948 15.5109H4.83926C4.74791 15.5109 4.6603 15.4746 4.5957 15.41C4.5311 15.3454 4.49481 15.2578 4.49481 15.1665V14.1331H14.8281C15.1022 14.1331 15.365 14.0243 15.5588 13.8305C15.7526 13.6367 15.8615 13.3739 15.8615 13.0998V6.55536H16.8948C16.9862 6.55536 17.0738 6.59165 17.1384 6.65625C17.203 6.72084 17.2393 6.80845 17.2393 6.8998V15.1665Z" fill="#FFC043" stroke="#FFC043" stroke-width="0.5"/>
<path d="M8.80089 5.52246C8.11964 5.52246 7.4537 5.72447 6.88726 6.10295C6.32082 6.48143 5.87934 7.01938 5.61864 7.64877C5.35794 8.27816 5.28973 8.97073 5.42263 9.63888C5.55554 10.307 5.88359 10.9208 6.3653 11.4025C6.84702 11.8842 7.46076 12.2123 8.12891 12.3452C8.79707 12.4781 9.48963 12.4099 10.119 12.1492C10.7484 11.8885 11.2864 11.447 11.6648 10.8805C12.0433 10.3141 12.2453 9.64815 12.2453 8.96691C12.2443 8.05369 11.8811 7.17816 11.2354 6.53242C10.5896 5.88668 9.71411 5.52346 8.80089 5.52246ZM8.80089 11.7225C8.25589 11.7225 7.72314 11.5608 7.26999 11.2581C6.81684 10.9553 6.46365 10.5249 6.25509 10.0214C6.04653 9.5179 5.99196 8.96385 6.09828 8.42932C6.20461 7.8948 6.46705 7.4038 6.85242 7.01843C7.23779 6.63306 7.72878 6.37062 8.26331 6.2643C8.79783 6.15797 9.35189 6.21254 9.8554 6.4211C10.3589 6.62967 10.7893 6.98285 11.0921 7.436C11.3948 7.88915 11.5564 8.42191 11.5564 8.96691C11.5556 9.69747 11.265 10.3979 10.7485 10.9145C10.2319 11.4311 9.53146 11.7216 8.80089 11.7225Z" fill="#FFC043" stroke="#FFC043" stroke-width="0.3"/>
<path d="M9.14479 7.58859C9.14479 7.49723 9.1085 7.40962 9.04391 7.34503C8.97931 7.28043 8.8917 7.24414 8.80035 7.24414C8.34375 7.24469 7.90602 7.42631 7.58316 7.74917C7.2603 8.07203 7.07867 8.50977 7.07812 8.96636C7.07812 9.05772 7.11441 9.14533 7.17901 9.20992C7.24361 9.27452 7.33122 9.31081 7.42257 9.31081C7.51392 9.31081 7.60153 9.27452 7.66613 9.20992C7.73072 9.14533 7.76701 9.05772 7.76701 8.96636C7.76701 8.69231 7.87588 8.42947 8.06967 8.23569C8.26346 8.0419 8.52629 7.93303 8.80035 7.93303C8.8917 7.93303 8.97931 7.89674 9.04391 7.83214C9.1085 7.76755 9.14479 7.67994 9.14479 7.58859Z" fill="#FFC043" stroke="#FFC043" stroke-width="0.3"/>
<path d="M10.1773 8.62207C10.0859 8.62207 9.99834 8.65836 9.93374 8.72296C9.86915 8.78755 9.83286 8.87516 9.83286 8.96651C9.83286 9.24057 9.72399 9.5034 9.5302 9.69719C9.33641 9.89098 9.07358 9.99985 8.79952 9.99985C8.70817 9.99985 8.62056 10.0361 8.55596 10.1007C8.49137 10.1653 8.45508 10.2529 8.45508 10.3443C8.45508 10.4356 8.49137 10.5233 8.55596 10.5879C8.62056 10.6524 8.70817 10.6887 8.79952 10.6887C9.25612 10.6882 9.69385 10.5066 10.0167 10.1837C10.3396 9.86085 10.5212 9.42311 10.5217 8.96651C10.5217 8.87516 10.4855 8.78755 10.4209 8.72296C10.3563 8.65836 10.2687 8.62207 10.1773 8.62207Z" fill="#FFC043" stroke="#FFC043" stroke-width="0.3"/>
</svg>
