<svg width="16" height="17" viewBox="0 0 16 17" fill="none" xmlns="http://www.w3.org/2000/svg">
<path d="M2.66667 6.21191C2.47778 6.21191 2.31956 6.14791 2.192 6.01991C2.064 5.89236 2 5.73414 2 5.54525V2.87858C2 2.68969 2.064 2.53125 2.192 2.40325C2.31956 2.27569 2.47778 2.21191 2.66667 2.21191H5.33333C5.52222 2.21191 5.68067 2.27569 5.80867 2.40325C5.93622 2.53125 6 2.68969 6 2.87858C6 3.06747 5.93622 3.22569 5.80867 3.35325C5.68067 3.48125 5.52222 3.54525 5.33333 3.54525H4.26667L5.88333 5.16191C6.00556 5.28414 6.06667 5.43414 6.06667 5.61191C6.06667 5.78969 6 5.94525 5.86667 6.07858C5.74444 6.2008 5.58889 6.26191 5.4 6.26191C5.21111 6.26191 5.05556 6.2008 4.93333 6.07858L3.33333 4.47858V5.54525C3.33333 5.73414 3.26956 5.89236 3.142 6.01991C3.014 6.14791 2.85556 6.21191 2.66667 6.21191ZM10.1333 6.07858C10.0111 5.95636 9.95 5.8008 9.95 5.61191C9.95 5.42303 10.0111 5.26747 10.1333 5.14525L11.7333 3.54525H10.6667C10.4778 3.54525 10.3196 3.48125 10.192 3.35325C10.064 3.22569 10 3.06747 10 2.87858C10 2.68969 10.064 2.53125 10.192 2.40325C10.3196 2.27569 10.4778 2.21191 10.6667 2.21191H13.3333C13.5222 2.21191 13.6804 2.27569 13.808 2.40325C13.936 2.53125 14 2.68969 14 2.87858V5.54525C14 5.73414 13.936 5.89236 13.808 6.01991C13.6804 6.14791 13.5222 6.21191 13.3333 6.21191C13.1444 6.21191 12.9862 6.14791 12.8587 6.01991C12.7307 5.89236 12.6667 5.73414 12.6667 5.54525V4.47858L11.05 6.09525C10.9278 6.21747 10.7778 6.27858 10.6 6.27858C10.4222 6.27858 10.2667 6.21191 10.1333 6.07858V6.07858ZM10.6667 14.2119C10.4778 14.2119 10.3196 14.1479 10.192 14.0199C10.064 13.8924 10 13.7341 10 13.5452C10 13.3564 10.064 13.1981 10.192 13.0706C10.3196 12.9426 10.4778 12.8786 10.6667 12.8786H11.7333L10.1167 11.2619C9.99444 11.1397 9.93333 10.9897 9.93333 10.8119C9.93333 10.6341 10 10.4786 10.1333 10.3452C10.2556 10.223 10.4111 10.1619 10.6 10.1619C10.7889 10.1619 10.9444 10.223 11.0667 10.3452L12.6667 11.9452V10.8786C12.6667 10.6897 12.7307 10.5312 12.8587 10.4032C12.9862 10.2757 13.1444 10.2119 13.3333 10.2119C13.5222 10.2119 13.6804 10.2757 13.808 10.4032C13.936 10.5312 14 10.6897 14 10.8786V13.5452C14 13.7341 13.936 13.8924 13.808 14.0199C13.6804 14.1479 13.5222 14.2119 13.3333 14.2119H10.6667ZM2.66667 14.2119C2.47778 14.2119 2.31956 14.1479 2.192 14.0199C2.064 13.8924 2 13.7341 2 13.5452V10.8786C2 10.6897 2.064 10.5312 2.192 10.4032C2.31956 10.2757 2.47778 10.2119 2.66667 10.2119C2.85556 10.2119 3.014 10.2757 3.142 10.4032C3.26956 10.5312 3.33333 10.6897 3.33333 10.8786V11.9452L4.95 10.3286C5.07222 10.2064 5.22222 10.1452 5.4 10.1452C5.57778 10.1452 5.73333 10.2119 5.86667 10.3452C5.98889 10.4675 6.05 10.623 6.05 10.8119C6.05 11.0008 5.98889 11.1564 5.86667 11.2786L4.26667 12.8786H5.33333C5.52222 12.8786 5.68067 12.9426 5.80867 13.0706C5.93622 13.1981 6 13.3564 6 13.5452C6 13.7341 5.93622 13.8924 5.80867 14.0199C5.68067 14.1479 5.52222 14.2119 5.33333 14.2119H2.66667Z" fill="#A6A9B0"/>
</svg>