<svg width="20" height="20" viewBox="0 0 20 20" fill="none" xmlns="http://www.w3.org/2000/svg">
<path d="M17.4424 8.65502C17.526 8.65502 17.6061 8.62182 17.6652 8.56272C17.7243 8.50362 17.7575 8.42346 17.7575 8.33987V7.07927C17.7575 7.0225 17.7422 6.9668 17.7131 6.91804C17.684 6.86928 17.6423 6.82927 17.5924 6.80225L10.0288 2.70529C9.98278 2.68016 9.93119 2.66699 9.87877 2.66699C9.82635 2.66699 9.77477 2.68016 9.72876 2.70529L2.16514 6.80225C2.11522 6.82927 2.07352 6.86928 2.04445 6.91804C2.01538 6.9668 2.00003 7.0225 2 7.07927V8.33987C2 8.42346 2.0332 8.50362 2.09231 8.56272C2.15141 8.62182 2.23157 8.65502 2.31515 8.65502H2.6303V15.2732C2.46314 15.2732 2.30282 15.3396 2.18461 15.4578C2.06641 15.576 2 15.7363 2 15.9035V16.8489C2 17.0161 2.06641 17.1764 2.18461 17.2946C2.30282 17.4128 2.46314 17.4792 2.6303 17.4792H17.1272C17.2944 17.4792 17.4547 17.4128 17.5729 17.2946C17.6911 17.1764 17.7575 17.0161 17.7575 16.8489V15.9035C17.7575 15.7363 17.6911 15.576 17.5729 15.4578C17.4547 15.3396 17.2944 15.2732 17.1272 15.2732V8.65502H17.4424ZM17.1272 16.8489H2.6303V15.9035H17.1272V16.8489ZM3.2606 15.2732V8.65502H4.52121V15.2732H3.2606ZM5.15151 15.2732V8.65502H8.61817V15.2732H5.15151ZM9.24847 15.2732V8.65502H10.5091V15.2732H9.24847ZM11.1394 15.2732V8.65502H14.606V15.2732H11.1394ZM15.2363 15.2732V8.65502H16.4969V15.2732H15.2363ZM2.6303 8.02472V7.26836L9.87877 3.34063L17.1272 7.26836V8.02472H2.6303Z" fill="#5A2DC9" stroke="#5A2DC9" stroke-width="0.5"/>
<path d="M9.87877 4.87305C9.62944 4.87305 9.38572 4.94698 9.17841 5.0855C8.97111 5.22401 8.80953 5.42089 8.71412 5.65124C8.61871 5.88158 8.59375 6.13505 8.64239 6.37958C8.69103 6.62411 8.81109 6.84873 8.98739 7.02503C9.16369 7.20133 9.3883 7.32139 9.63284 7.37003C9.87737 7.41867 10.1308 7.39371 10.3612 7.2983C10.5915 7.20288 10.7884 7.04131 10.9269 6.834C11.0654 6.6267 11.1394 6.38297 11.1394 6.13365C11.1394 5.79932 11.0066 5.47868 10.7701 5.24227C10.5337 5.00586 10.2131 4.87305 9.87877 4.87305ZM9.87877 6.76395C9.75411 6.76395 9.63224 6.72699 9.52859 6.65773C9.42494 6.58847 9.34415 6.49003 9.29645 6.37486C9.24874 6.25968 9.23626 6.13295 9.26058 6.01068C9.2849 5.88842 9.34493 5.77611 9.43308 5.68796C9.52123 5.59981 9.63354 5.53978 9.7558 5.51546C9.87807 5.49114 10.0048 5.50362 10.12 5.55133C10.2351 5.59903 10.3336 5.67982 10.4028 5.78347C10.4721 5.88713 10.5091 6.00899 10.5091 6.13365C10.5091 6.30082 10.4427 6.46114 10.3245 6.57934C10.2063 6.69755 10.0459 6.76395 9.87877 6.76395Z" fill="#5A2DC9" stroke="#5A2DC9" stroke-width="0.3"/>
</svg>
