<svg width="60" height="60" viewBox="0 0 60 60" fill="none" xmlns="http://www.w3.org/2000/svg">
<path d="M15.7502 39.0001C16.0747 39.2435 16.4695 39.3751 16.8752 39.3751C17.1663 39.3751 17.4534 39.3073 17.7137 39.1771C17.9741 39.047 18.2005 38.858 18.3752 38.6251L24.0002 31.1251C24.2091 30.8465 24.3363 30.5153 24.3676 30.1685C24.3989 29.8217 24.333 29.473 24.1772 29.1616C24.0215 28.8501 23.7821 28.5882 23.4859 28.4051C23.1897 28.2221 22.8484 28.1251 22.5002 28.1251H18.0377L20.4189 23.3438C20.6009 22.9068 20.6109 22.4171 20.4467 21.973C20.2826 21.5289 19.9565 21.1634 19.5341 20.9498C19.1116 20.7362 18.6239 20.6903 18.169 20.8213C17.714 20.9524 17.3255 21.2507 17.0814 21.6563L13.3314 29.1563C13.1876 29.4418 13.1191 29.7592 13.1325 30.0786C13.1459 30.3979 13.2407 30.7085 13.4079 30.9809C13.5751 31.2533 13.8091 31.4785 14.0878 31.635C14.3665 31.7915 14.6806 31.8741 15.0002 31.8751H18.7502L15.3752 36.3751C15.2274 36.5721 15.12 36.7962 15.0588 37.0347C14.9977 37.2733 14.9842 37.5215 15.019 37.7653C15.0539 38.009 15.1363 38.2435 15.2618 38.4554C15.3872 38.6673 15.5532 38.8523 15.7502 39.0001Z" fill="#5A2DC9"/>
<path d="M52.5 11.25H50.625V9.375H52.5C52.9973 9.375 53.4742 9.17746 53.8258 8.82582C54.1775 8.47419 54.375 7.99728 54.375 7.5C54.375 7.00272 54.1775 6.52581 53.8258 6.17417C53.4742 5.82254 52.9973 5.625 52.5 5.625H50.625C50.625 5.12772 50.4275 4.65081 50.0758 4.29917C49.7242 3.94754 49.2473 3.75 48.75 3.75H44.0625C42.8246 3.75435 41.6131 4.10876 40.568 4.77231C39.5229 5.43587 38.6868 6.3815 38.1563 7.5H22.5C22.0027 7.5 21.5258 7.69754 21.1742 8.04918C20.8225 8.40081 20.625 8.87772 20.625 9.375C20.625 9.87228 20.8225 10.3492 21.1742 10.7008C21.5258 11.0525 22.0027 11.25 22.5 11.25H37.6875C37.9097 12.7916 38.6731 14.2039 39.841 15.2344C41.0089 16.2649 42.5052 16.8464 44.0625 16.875H48.75C49.2473 16.875 49.7242 16.6775 50.0758 16.3258C50.4275 15.9742 50.625 15.4973 50.625 15H52.5C52.9973 15 53.4742 14.8025 53.8258 14.4508C54.1775 14.0992 54.375 13.6223 54.375 13.125C54.375 12.6277 54.1775 12.1508 53.8258 11.7992C53.4742 11.4475 52.9973 11.25 52.5 11.25ZM44.0625 13.125C43.3166 13.125 42.6012 12.8287 42.0738 12.3012C41.5463 11.7738 41.25 11.0584 41.25 10.3125C41.25 9.56658 41.5463 8.85121 42.0738 8.32376C42.6012 7.79632 43.3166 7.5 44.0625 7.5H46.875V13.125H44.0625Z" fill="#222222"/>
<path d="M52.5 48.7501C52.9973 48.7501 53.4742 48.5525 53.8259 48.2009C54.1775 47.8493 54.375 47.3723 54.375 46.8751C54.375 46.3778 54.1775 45.9009 53.8259 45.5492C53.4742 45.1976 52.9973 45.0001 52.5 45.0001H50.625C50.625 44.5028 50.4275 44.0259 50.0759 43.6742C49.7242 43.3226 49.2473 43.1251 48.75 43.1251H44.0625C42.489 43.1314 40.9702 43.7029 39.7828 44.7354C38.5954 45.7679 37.8186 47.1927 37.5938 48.7501H22.5C22.2654 48.7526 22.0327 48.7082 21.8154 48.6196C21.5982 48.531 21.4008 48.3998 21.2349 48.2339C21.069 48.068 20.9379 47.8707 20.8493 47.6534C20.7606 47.4362 20.7163 47.2034 20.7188 46.9688V43.1251C20.7188 42.6278 20.5212 42.1509 20.1696 41.7992C19.818 41.4476 19.3411 41.2501 18.8438 41.2501C16.2463 41.2478 13.7296 40.3468 11.7209 38.7C9.71213 37.0532 8.33517 34.762 7.82369 32.2153C7.31221 29.6687 7.69773 27.0235 8.91481 24.7288C10.1319 22.4341 12.1056 20.6312 14.5008 19.6262C16.896 18.6212 19.5652 18.476 22.0552 19.2153C24.5453 19.9546 26.7029 21.5327 28.1617 23.6819C29.6205 25.8311 30.2906 28.4188 30.0584 31.0059C29.8261 33.593 28.7058 36.0201 26.8875 37.8751C26.6925 38.0446 26.5347 38.2525 26.4239 38.4859C26.3131 38.7193 26.2517 38.9731 26.2436 39.2313C26.2355 39.4896 26.2809 39.7467 26.3768 39.9866C26.4728 40.2265 26.6173 40.4439 26.8013 40.6253C26.9853 40.8067 27.2048 40.9481 27.446 41.0407C27.6872 41.1332 27.9449 41.1749 28.203 41.1632C28.4611 41.1514 28.714 41.0864 28.9458 40.9723C29.1776 40.8582 29.3833 40.6974 29.55 40.5001C31.9161 38.0871 33.3981 34.9457 33.7557 31.5852C34.1132 28.2247 33.3255 24.8419 31.5202 21.985C29.7148 19.1281 26.9977 16.9646 23.809 15.845C20.6203 14.7255 17.147 14.7155 13.9519 15.8168C10.7569 16.918 8.02736 19.066 6.20567 21.9124C4.38398 24.7589 3.5769 28.1372 3.91522 31.4997C4.25354 34.8622 5.71744 38.012 8.06968 40.4385C10.4219 42.865 13.5247 44.4261 16.875 44.8688V46.9688C16.8996 48.4443 17.5031 49.8511 18.5553 50.8858C19.6076 51.9205 21.0243 52.5003 22.5 52.5001H38.25C38.7806 53.6186 39.6167 54.5642 40.6618 55.2277C41.7069 55.8913 42.9183 56.2457 44.1563 56.2501H48.75C49.2473 56.2501 49.7242 56.0525 50.0759 55.7009C50.4275 55.3493 50.625 54.8723 50.625 54.3751H52.5C52.9973 54.3751 53.4742 54.1775 53.8259 53.8259C54.1775 53.4743 54.375 52.9973 54.375 52.5001C54.375 52.0028 54.1775 51.5259 53.8259 51.1742C53.4742 50.8226 52.9973 50.6251 52.5 50.6251H50.625V48.7501H52.5ZM44.0625 52.5001C43.3166 52.5001 42.6012 52.2037 42.0738 51.6763C41.5464 51.1488 41.25 50.4335 41.25 49.6876C41.25 48.9416 41.5464 48.2263 42.0738 47.6988C42.6012 47.1714 43.3166 46.8751 44.0625 46.8751H46.875V52.5001H44.0625Z" fill="#222222"/>
</svg>
