<svg xmlns="http://www.w3.org/2000/svg" width="92" height="40" viewBox="0 0 92 40" fill="none">
  <path d="M4.90236 20.7022C5.03941 23.6642 7.69508 25.1748 9.96094 25.1748C11.9801 25.1748 13.4724 24.231 14.3008 22.6966H17.2854C16.5666 24.3141 15.5159 25.525 14.246 26.3323C12.9729 27.1663 11.4806 27.5729 9.96094 27.5729C5.03941 27.5729 2 23.7206 2 19.8415C2 15.6389 5.37137 12.0537 9.93353 12.0537C12.0897 12.0537 14.051 12.8343 15.4885 14.2084C17.258 15.9595 18.0041 18.2507 17.7544 20.7022H4.90236ZM14.9099 18.5208C14.7728 16.5798 12.7811 14.3984 9.93353 14.4518C7.00376 14.4518 5.09423 16.5263 4.95718 18.5208H14.9099Z" fill="#5221CB"/>
  <path d="M39.3385 14.7189V27.5729H36.4635V14.7189H26.3281V12.0537H56.04V14.7189H39.3385Z" fill="#5221CB"/>
  <path d="M44.4628 17.5771H41.5879V27.576H44.4628V17.5771Z" fill="#5221CB"/>
  <path d="M47.1869 12.0537H58.4644V14.6862L50.2811 24.878H58.9608V27.5729H46.7148V24.9404L54.8981 14.7159H47.1869V12.0537Z" fill="#5221CB"/>
  <path d="M26.3234 12.0537C21.9683 12.0537 18.4355 15.4935 18.4355 19.7406V27.5759H21.3105V19.8682C21.3105 17.3603 23.1957 15.1611 25.7508 14.8851C28.775 14.5586 31.3332 16.8588 31.3332 19.7376V27.5729H34.2082V19.7406C34.2082 15.4965 30.6785 12.0537 26.3203 12.0537H26.3234Z" fill="#5221CB"/>
  <path d="M62.8006 23.8865C65.0482 25.8868 68.0206 25.1241 69.6226 23.563C71.0509 22.171 71.4194 20.4763 70.8925 18.8202L73.0031 16.7635C73.667 18.4018 73.804 19.9837 73.4903 21.432C73.198 22.8982 72.4336 24.2129 71.3585 25.2606C67.8775 28.6529 62.9346 28.0237 60.1176 25.2784C57.069 22.3075 56.8528 17.4491 60.078 14.3061C61.6038 12.8191 63.559 12.0208 65.5721 12C68.0937 12.0178 70.2834 13.1248 71.8854 15.0302L62.7946 23.8894L62.8006 23.8865ZM68.2947 15.4487C66.7902 14.1725 63.7996 14.0004 61.823 16.0007C59.7521 18.0189 59.9074 20.8028 61.2566 22.3075L68.2947 15.4487Z" fill="#5221CB"/>
  <path d="M82.1144 12.0537C77.7593 12.0537 74.2266 15.4935 74.2266 19.7406V27.5759H77.1015V19.8682C77.1015 17.3603 78.9867 15.1611 81.5418 14.8851C84.566 14.5586 87.1243 16.8588 87.1243 19.7376V27.5729H89.9992V19.7406C89.9992 15.4965 86.4695 12.0537 82.1114 12.0537H82.1144Z" fill="#5221CB"/>
</svg>