<svg width="188" height="188" viewBox="0 0 188 188" fill="none" xmlns="http://www.w3.org/2000/svg">
<g id="Frame 12154">
<g id="Group 4202">
<g id="Group">
<path id="Vector" d="M148.102 117.381L148.077 120.178L112.449 99.6514L112.474 96.8491L148.102 117.381Z" fill="#DDDDDD"/>
<path id="Vector_2" d="M148.1 117.381L181.515 98.23L181.49 101.027L148.076 120.178L148.1 117.381Z" fill="#C8C8CC"/>
<path id="Vector_3" d="M145.888 77.6978L112.474 96.8483L148.101 117.38L181.516 98.2297L145.888 77.6978Z" fill="#F5F5F5"/>
</g>
<path id="Vector_4" d="M150.336 32.0446L150.312 110.479L126.131 96.5764L126.151 18.1421L150.336 32.0446Z" fill="#331284"/>
<path id="Vector_5" d="M147.423 37.5552L147.403 54.2996L129.04 43.744L129.054 26.9946L147.423 37.5552Z" fill="white"/>
<path id="Vector_6" d="M146.162 61.835L146.147 103.117L130.304 94.0068L130.319 52.7251L146.162 61.835Z" fill="#5F2FD7"/>
<path id="Vector_7" d="M150.333 32.0445L166.706 17.8647L166.687 95.6653C166.687 98.73 165.063 101.562 162.424 103.117L150.313 110.479L150.338 32.0445H150.333Z" fill="#4015AA"/>
<g id="Group_2">
<path id="Vector_8" d="M134.864 12.8396L126.131 18.1372L150.302 32.0793L163.15 24.3805C167.601 21.7812 168.223 15.7084 163.12 12.7654C154.372 7.72025 143.588 7.745 134.864 12.8396Z" fill="#6432E1"/>
</g>
<g id="Group_3">
<path id="Vector_9" d="M132.694 68.2221C132.684 70.9798 134.625 74.3366 137.026 75.7229C138.274 76.4457 139.403 76.4853 140.195 75.9754C140.17 75.9902 140.14 76.01 140.115 76.0249L141.398 75.307C142.18 74.8515 142.66 73.891 142.665 72.5196C142.675 69.7618 140.734 66.405 138.333 65.0187C137.125 64.3206 136.031 64.2563 135.244 64.7167C135.244 64.7167 133.966 65.4346 133.971 65.4297C133.189 65.8802 132.699 66.8457 132.699 68.2221H132.694Z" fill="#4620A2"/>
<path id="Vector_10" d="M137.053 65.7815C135.864 65.0933 134.785 65.029 134.003 65.4746C133.221 65.9202 132.735 66.8807 132.73 68.2471C132.73 69.6136 133.206 71.1336 133.983 72.4803C134.76 73.827 135.835 75.0004 137.028 75.6885C138.216 76.3767 139.296 76.4411 140.078 75.9955C140.86 75.5499 141.345 74.5894 141.35 73.2229C141.35 71.8564 140.875 70.3414 140.098 68.9947C139.32 67.6481 138.246 66.4697 137.053 65.7865V65.7815Z" fill="#7D48FF"/>
</g>
<path id="Vector_11" d="M142.665 96.3788V87.1699" stroke="#4C21B6" stroke-linecap="round" stroke-linejoin="round"/>
<path id="Vector_12" d="M140.447 95.1108V85.9019" stroke="#4C21B6" stroke-linecap="round" stroke-linejoin="round"/>
<path id="Vector_13" d="M138.228 93.8432V84.6343" stroke="#4C21B6" stroke-linecap="round" stroke-linejoin="round"/>
<path id="Vector_14" d="M136.011 92.5761V83.3672" stroke="#4C21B6" stroke-linecap="round" stroke-linejoin="round"/>
<path id="Vector_15" d="M133.798 91.3086V82.0947" stroke="#4C21B6" stroke-linecap="round" stroke-linejoin="round"/>
<path id="Vector_16" d="M131.278 72.6334V97.8886L131.159 97.9579L118.999 104.919C118.553 105.177 118.395 105.746 118.652 106.196C118.9 106.627 119.494 106.791 119.93 106.543L132.679 99.2452C132.971 99.0769 133.149 98.7699 133.149 98.4332V73.178L136.981 71.0491C137.427 70.7916 137.585 70.2222 137.328 69.7717C137.204 69.5538 137.001 69.4004 136.763 69.331C136.679 69.3063 136.6 69.2964 136.516 69.2964C136.357 69.2964 136.199 69.336 136.055 69.4202L131.748 71.8214C131.456 71.9848 131.278 72.2967 131.278 72.6334Z" fill="#5E5E5A"/>
<path id="Vector_17" d="M56.1113 154.227L74.2519 164.698L85.5799 158.163L65.8302 146.424L56.1113 154.227Z" fill="#CECBC4"/>
<path id="Vector_18" d="M108.072 124.243L126.212 134.715L128.272 129.006L117.791 116.44L108.072 124.243Z" fill="#CECBC4"/>
<path id="Vector_19" d="M63.677 152.222C62.1075 151.311 59.939 151.439 57.5427 152.821C53.2452 155.301 49.6903 160.975 49.0566 166.079C48.9873 166.629 48.9526 167.169 48.9526 167.698C48.9625 170.417 49.9181 172.328 51.4678 173.229L58.83 177.561C57.2852 176.66 56.3247 174.749 56.3148 172.031C56.3148 171.501 56.3495 170.961 56.4188 170.412C57.0575 165.307 60.6074 159.633 64.9049 157.153C67.3012 155.771 69.4697 155.643 71.0392 156.554L63.677 152.222Z" fill="#353534"/>
<path id="Vector_20" d="M118.419 124.124C116.855 123.213 114.681 123.342 112.285 124.723C107.987 127.204 104.433 132.878 103.799 137.982C103.729 138.532 103.695 139.072 103.695 139.601C103.705 142.319 104.66 144.23 106.21 145.132L110.74 147.795C109.195 146.894 108.235 144.983 108.225 142.27C108.225 141.74 108.26 141.195 108.329 140.651C108.968 135.546 112.518 129.872 116.815 127.392C119.211 126.011 121.38 125.882 122.949 126.793L118.419 124.129V124.124Z" fill="#353534"/>
<path id="Vector_21" d="M74.4851 75.0052L45.7443 91.8635C43.8976 92.928 42.2984 94.3786 41.0656 96.1214L29.6485 109.667C15.6618 117.361 13.0031 128.026 13.0031 128.026C9.40374 131.224 7.90853 136.146 7.3243 140.78C6.88366 144.29 6.90347 147.889 7.3144 151.4C7.46788 152.731 7.96794 153.697 9.17104 154.385L47.2148 176.016C49.5368 177.338 52.3837 177.328 54.7007 175.991L55.6315 175.457C55.3939 174.635 55.2652 173.694 55.2602 172.65C55.2602 172.055 55.2998 171.446 55.3741 170.832C56.087 165.099 60.0776 158.732 64.9048 155.945C69.7321 153.157 73.7424 154.91 74.49 159.797C74.5693 160.321 74.6138 160.881 74.6138 161.475C74.6138 162.525 74.49 163.609 74.2573 164.703L107.499 145.523C107.291 144.741 107.177 143.859 107.177 142.884C107.177 142.29 107.216 141.681 107.291 141.067C108.004 135.334 111.994 128.967 116.821 126.179C121.649 123.392 125.659 125.144 126.407 130.031C126.486 130.556 126.53 131.115 126.53 131.709C126.53 132.685 126.426 133.7 126.223 134.72L126.827 134.373C127.639 133.903 128.204 133.096 128.357 132.17C131.288 114.49 126.08 113.94 126.08 113.94L122.282 105.439C120.238 92.4972 115.866 90.6802 115.866 90.6802L86.5854 74.2378L74.4999 75.0151L74.4851 75.0052Z" fill="#EFEDE8"/>
<path id="Vector_22" d="M75.9649 74.1338L45.7438 91.8586C43.897 92.923 42.2978 94.3737 41.065 96.1164L29.648 109.662C27.0239 111.103 24.8009 112.653 22.9195 114.212C21.6619 115.252 20.5579 116.302 19.5924 117.327C17.4139 119.639 15.9138 121.847 14.9038 123.654C14.7899 123.852 14.6859 124.05 14.5869 124.238C13.3838 126.521 13.0075 128.021 13.0075 128.021C13.0075 128.021 10.4726 133.314 15.0077 137.22C18.2012 139.973 35.1684 149.454 44.9219 154.821C49.2095 157.182 54.418 157.143 58.6709 154.732L65.637 150.781C70.8406 147.83 77.3017 151.588 77.3017 157.574V162.946L107.493 145.523C107.285 144.741 107.171 143.859 107.171 142.884C107.171 142.29 107.211 141.681 107.285 141.067C107.998 135.334 111.989 128.967 116.816 126.179C121.643 123.392 125.653 125.144 126.401 130.031C126.48 130.556 126.525 131.115 126.525 131.709C126.525 132.685 126.421 133.7 126.218 134.72L126.822 134.373C127.485 133.992 127.975 133.378 128.223 132.665C128.278 132.502 128.327 132.338 128.352 132.17C128.594 130.704 128.778 129.368 128.916 128.125C129.347 124.283 129.312 121.471 129.04 119.426C129.03 119.357 129.02 119.292 129.01 119.223C128.278 114.178 126.069 113.935 126.069 113.935L122.272 105.434C120.227 92.4923 115.855 90.6753 115.855 90.6753L99.7645 81.5901L86.4858 74.0942L75.9698 74.1438L75.9649 74.1338Z" fill="#F9F9F9"/>
<path id="Vector_23" d="M129.238 122.847C129.238 122.847 129.238 122.827 129.238 122.817C129.238 121.5 129.164 120.377 129.035 119.421C128.966 118.896 128.881 118.416 128.782 117.985C128.505 116.767 128.134 115.916 127.753 115.317C127.624 115.119 127.5 114.945 127.371 114.802C127.248 114.653 127.124 114.534 127.005 114.43C126.926 114.366 126.857 114.307 126.782 114.257C126.693 114.193 126.604 114.138 126.525 114.099C126.386 114.024 126.272 113.985 126.188 113.96C126.134 113.945 126.094 113.935 126.074 113.935C126.064 113.935 126.059 113.935 126.059 113.935L122.262 105.434C120.217 92.4923 115.845 90.6753 115.845 90.6753L115.598 90.5366L78.6037 111.905C77.7027 112.425 76.9154 113.113 76.2817 113.935C74.227 116.584 68.9789 122.976 63.6219 137.19C63.6219 137.19 58.8343 144.151 52.9673 156.509C54.9427 156.331 56.8885 155.747 58.6659 154.737L65.632 150.786C70.8356 147.835 77.2967 151.593 77.2967 157.579V162.95L107.488 145.528C107.28 144.746 107.166 143.864 107.166 142.889C107.166 142.295 107.206 141.686 107.28 141.072C107.993 135.339 111.984 128.972 116.811 126.184C121.638 123.397 125.648 125.149 126.396 130.036C126.475 130.561 126.52 131.12 126.52 131.714C126.52 132.69 126.416 133.705 126.213 134.725L126.817 134.378C127.02 134.259 127.208 134.121 127.376 133.967C127.886 133.497 128.233 132.868 128.347 132.175C128.985 128.308 129.238 125.258 129.238 122.857V122.847Z" fill="#EFEDE8"/>
<path id="Vector_24" d="M39.5746 105.305L29.524 99.5027C28.6427 98.9927 27.5238 99.5274 27.3654 100.532C27.197 101.572 27.3604 102.954 28.5982 104.404C31.1678 107.414 35.5692 108.395 35.5692 108.395L39.5746 105.3V105.305Z" fill="#F9F9F9"/>
<path id="Vector_25" d="M64.905 157.152C69.2025 154.672 72.7771 156.231 73.4406 160.583C73.5099 161.049 73.5495 161.549 73.5495 162.079C73.5643 167.549 69.7174 174.209 64.9594 176.956C60.2015 179.704 56.3298 177.501 56.3149 172.03C56.3149 171.5 56.3496 170.961 56.4189 170.411C57.0576 165.307 60.6075 159.633 64.905 157.152ZM64.9545 174.06C68.3212 172.119 71.0393 167.406 71.0294 163.539C71.0195 159.672 68.2816 158.113 64.9149 160.054C61.5482 161.999 58.8301 166.708 58.84 170.575C58.8499 174.441 61.5878 176.001 64.9545 174.06Z" fill="#5E5E5A"/>
<path id="Vector_26" d="M71.0254 163.535C71.0353 167.402 68.3172 172.115 64.9505 174.056C61.5838 176.002 58.8459 174.442 58.836 170.57C58.8261 166.704 61.5442 161.995 64.9109 160.049C68.2776 158.109 71.0106 159.668 71.0254 163.535Z" fill="#C4C4C4"/>
<path id="Vector_27" d="M69.7706 164.262C69.7805 167.336 67.6219 171.074 64.9483 172.619C62.2747 174.164 60.1012 172.926 60.0913 169.852C60.0814 166.782 62.2401 163.039 64.9137 161.494C67.5872 159.949 69.7607 161.192 69.7706 164.262Z" fill="#898984"/>
<path id="Vector_28" d="M65.3051 165.347C64.2505 165.956 63.3989 167.431 63.3989 168.644C63.3989 169.857 64.2604 170.347 65.315 169.738C66.3695 169.129 67.2211 167.654 67.2211 166.441C67.2211 165.228 66.3596 164.743 65.3051 165.352V165.347Z" fill="#353534"/>
<path id="Vector_29" d="M116.818 127.388C121.115 124.907 124.69 126.467 125.353 130.819C125.422 131.284 125.462 131.784 125.462 132.314C125.477 137.785 121.63 144.444 116.872 147.192C112.114 149.94 108.242 147.736 108.228 142.266C108.228 141.736 108.262 141.196 108.332 140.647C108.97 135.542 112.52 129.868 116.818 127.388ZM116.867 144.295C120.234 142.355 122.952 137.641 122.942 133.775C122.932 129.908 120.194 128.348 116.827 130.289C113.461 132.235 110.743 136.943 110.753 140.81C110.762 144.677 113.5 146.236 116.867 144.295Z" fill="#5E5E5A"/>
<path id="Vector_30" d="M122.941 133.773C122.951 137.64 120.233 142.353 116.867 144.294C113.5 146.24 110.762 144.68 110.752 140.809C110.742 136.942 113.46 132.233 116.827 130.288C120.194 128.347 122.927 129.906 122.941 133.773Z" fill="#C4C4C4"/>
<path id="Vector_31" d="M121.683 134.497C121.693 137.571 119.534 141.309 116.861 142.854C114.187 144.399 112.014 143.161 112.004 140.086C111.994 137.017 114.153 133.274 116.826 131.729C119.5 130.184 121.673 131.427 121.683 134.497Z" fill="#898984"/>
<path id="Vector_32" d="M117.216 135.581C116.162 136.19 115.31 137.666 115.31 138.879C115.31 140.092 116.172 140.582 117.226 139.973C118.281 139.364 119.132 137.889 119.132 136.676C119.132 135.463 118.271 134.977 117.216 135.586V135.581Z" fill="#353534"/>
<path id="Vector_33" d="M41.063 96.1165L29.6509 109.663C28.3389 110.385 27.1209 111.133 26.002 111.9C23.6007 116.351 25.6455 120.441 30.4876 122.976L49.1679 133.72C51.8167 135.245 54.7081 136.294 57.7183 136.824C59.6839 137.171 61.6643 137.284 63.6298 137.18C68.9869 122.966 74.235 116.569 76.2896 113.925C76.3986 113.787 76.5124 113.658 76.6313 113.529L42.8652 94.0371C42.2067 94.6708 41.6027 95.364 41.068 96.1165H41.063Z" fill="#EFEDE8"/>
<path id="Vector_34" d="M78.6097 111.895L115.619 90.5311L85.9521 73.7125C81.6794 71.8558 78.1592 72.8658 76.6293 73.7471L45.7497 91.858C44.7001 92.462 43.7347 93.1948 42.8633 94.0365L76.6293 113.529C77.1987 112.885 77.8671 112.331 78.6147 111.895H78.6097Z" fill="#F9F9F9"/>
<path id="Vector_35" d="M27.1374 114C27.0285 115.49 27.6474 116.96 28.5683 118.134C29.4892 119.307 30.6873 120.228 31.9201 121.065L50.2983 131.635C52.9026 133.135 55.7494 134.165 58.7102 134.685C59.032 134.74 59.3538 134.794 59.6806 134.839C61.156 135.042 62.5819 134.195 63.1512 132.819C66.914 123.723 70.7511 119.609 72.7612 116.535C73.4692 115.45 73.1226 113.99 71.9987 113.341L41.3964 95.6709C41.2825 95.8145 41.1736 95.963 41.0647 96.1115L29.6525 109.658C29.6525 109.658 27.3256 111.44 27.1424 113.995L27.1374 114Z" fill="#5E5E5A"/>
<path id="Vector_36" d="M19.5928 156.895L34.332 165.277V162.921L19.5928 154.539V156.895Z" fill="#CECBC4"/>
<path id="Vector_37" d="M44.0355 168.436L35.4009 163.529V165.886L43.0205 170.218C43.179 170.307 43.3522 170.352 43.5255 170.352C43.882 170.352 44.2286 170.164 44.4167 169.832C44.694 169.342 44.5256 168.713 44.0305 168.436H44.0355Z" fill="#CECBC4"/>
<path id="Vector_38" d="M18.5183 153.93L11.6017 149.998C11.1115 149.721 10.4827 149.89 10.2055 150.385C9.92822 150.875 10.0966 151.504 10.5917 151.781L18.5232 156.291V153.935L18.5183 153.93Z" fill="#CECBC4"/>
<path id="Vector_39" d="M55.0016 142.478C54.2094 142.562 53.4272 142.681 52.6449 142.834C48.8871 143.567 45.2283 145.131 42.426 147.736C42.0547 148.082 41.6932 148.453 41.4407 148.894C41.1882 149.335 41.0545 149.864 41.1585 150.365C41.2773 150.929 41.6932 151.394 42.1982 151.677C42.6983 151.954 43.2825 152.063 43.8519 152.097C45.9957 152.226 48.09 151.37 49.9318 150.266C52.2587 148.869 54.4768 147.335 56.4919 145.354C57.1207 144.74 58.5268 143.24 57.1009 142.542C56.6949 142.344 56.2196 142.364 55.769 142.403C55.5116 142.423 55.2591 142.448 55.0016 142.478Z" fill="#E0DDD7"/>
<path id="Vector_40" d="M52.8427 147.013C52.5357 147.285 51.8871 147.829 51.491 148.126C50.3176 148.998 49.1145 149.77 47.8223 150.384C46.6885 150.919 45.4211 151.28 44.1784 151.087C43.2278 150.939 42.3465 150.3 42.6534 149.231C42.7921 148.74 43.1436 148.334 43.5199 147.988C45.4854 146.21 47.857 145.141 50.3919 144.582C51.4811 144.988 52.3971 145.928 52.8427 147.008V147.013Z" fill="#F9F9F9"/>
<path id="Vector_41" d="M19.1803 126.243C19.2446 125.288 19.314 123.104 19.0268 122.188C18.9476 121.941 18.7743 121.649 18.5119 121.678C18.3436 121.698 18.2198 121.852 18.1257 121.99C15.566 125.733 14.8778 130.605 15.9077 135.021C16.1503 136.066 17.0266 138.056 18.497 137.433C19.5021 137.007 19.5467 135.249 19.4773 134.417C19.1902 130.986 18.9674 129.466 19.1803 126.243Z" fill="#E0DDD7"/>
<path id="Vector_42" d="M16.9305 126.808C16.0789 128.783 15.9997 132.219 16.5542 134.586C16.7028 135.214 17.2276 136.413 18.1138 136.036C18.7178 135.779 18.8119 134.769 18.7327 133.977C18.2821 129.645 18.5396 127.392 18.5396 127.392L16.9355 126.808H16.9305Z" fill="#F9F9F9"/>
<path id="Vector_43" d="M126.065 113.93L123.569 108.351L118.935 111.089C118.187 111.519 117.776 112.361 117.89 113.212L118.227 115.708C118.366 116.728 119.47 117.307 120.386 116.837L126.065 113.925V113.93Z" fill="#F2CF3D"/>
<path id="Vector_44" d="M77.3011 162.941V157.569C77.3011 151.583 70.8449 147.825 65.6364 150.776L58.6703 154.727C56.8879 155.737 54.9422 156.326 52.9717 156.499L52.2587 157.806C51.2388 159.683 50.7635 161.802 50.8774 163.931L51.5854 176.957C52.6647 176.863 53.7292 176.541 54.6996 175.982L55.6304 175.447C55.3927 174.625 55.264 173.684 55.2591 172.64C55.2591 172.045 55.2987 171.436 55.3729 170.823C56.0859 165.089 60.0764 158.722 64.9037 155.935C69.7309 153.147 73.7413 154.9 74.4889 159.787C74.5681 160.312 74.6126 160.871 74.6126 161.465C74.6126 162.515 74.4889 163.599 74.2562 164.693L88.9063 156.242L77.306 162.936L77.3011 162.941Z" fill="#E0DDD7"/>
<path id="Vector_45" d="M97.4341 151.32L98.3253 150.81L98.5382 100.389L97.647 100.904L97.4341 151.32Z" fill="#CECBC4"/>
<path id="Vector_46" d="M122.702 106.4L122.271 105.429C120.227 92.4873 115.855 90.6703 115.855 90.6703L115.617 90.5366L78.6083 111.9C77.7072 112.42 76.92 113.108 76.2863 113.93C74.2316 116.579 68.9835 122.971 63.6265 137.185C67.7457 136.972 71.7858 135.794 75.405 133.705L122.702 106.4Z" fill="#E0DDD7"/>
<path id="Vector_47" d="M95.3493 104.429L84.7145 110.687C82.1696 112.187 80.1496 114.435 78.9267 117.123L71.2675 131.932C70.8763 132.798 71.7427 133.684 72.624 133.328C73.8271 132.838 75.0005 132.254 76.1145 131.61L97.1515 119.465C96.389 110.667 95.7454 106.711 95.3493 104.424V104.429Z" fill="#5E5E5A"/>
<path id="Vector_48" d="M115.864 103.137L113.106 96.8886C112.641 95.6558 111.175 95.1359 110.037 95.8043L96.5796 103.701C96.9163 105.602 97.6144 109.558 98.4263 118.728L115.077 109.118C115.849 108.583 116.275 108.004 116.364 107.202C116.517 105.835 116.349 104.404 115.869 103.137H115.864Z" fill="#5E5E5A"/>
<path id="Vector_49" d="M71.2709 131.932C70.8797 132.798 71.7462 133.685 72.6275 133.328C73.8306 132.838 75.004 132.254 76.1179 131.61L78.4598 130.259C77.9746 125.075 77.6775 122.956 77.326 120.668L71.2709 131.932Z" fill="#353534"/>
<path id="Vector_50" d="M76.6486 129.496C76.6486 128.288 75.9455 127.308 75.0841 127.308C74.2226 127.308 73.5195 128.288 73.5195 129.496C73.5195 130.705 74.2226 131.685 75.0841 131.685C75.9455 131.685 76.6486 130.705 76.6486 129.496Z" fill="#E0DDD7"/>
<path id="Vector_51" d="M75.0645 131.472L81.6295 135.259C82.2236 135.601 82.9812 135.353 83.2584 134.725C83.5654 134.031 83.5951 133.244 83.303 132.541C83.0208 131.853 82.4415 130.996 81.2978 130.095C79.8224 128.937 78.6787 128.016 77.6588 127.352C76.8864 126.852 75.8665 126.986 75.2328 127.65L75.0991 127.788L75.0645 131.457V131.472Z" fill="#F9F9F9"/>
<path id="Vector_52" d="M22.2614 150.885L31.5495 156.167C32.8714 156.92 34.4706 156.979 35.847 156.336L37.8868 155.38L19.5928 144.978L19.9492 147.478C20.1522 148.914 21.0088 150.172 22.2663 150.885H22.2614Z" fill="#CECBC4"/>
<path id="Vector_53" d="M140.923 37.2282L138.492 40.0305L140.923 40.9365L135.967 46.0262L137.175 41.5158L134.863 40.58L137.531 35.2676L140.923 37.2282Z" fill="#6432E1"/>
</g>
</g>
</svg>
