<svg width="24" height="25" viewBox="0 0 24 25" fill="none" xmlns="http://www.w3.org/2000/svg">
<path d="M12 15.6961C11.8667 15.6961 11.7417 15.6754 11.625 15.6341C11.5083 15.5928 11.4 15.5218 11.3 15.4211L7.7 11.8211C7.51667 11.6378 7.425 11.4044 7.425 11.1211C7.425 10.8378 7.51667 10.6044 7.7 10.4211C7.88333 10.2378 8.121 10.1421 8.413 10.1341C8.705 10.1261 8.94234 10.2134 9.125 10.3961L11 12.2711V5.1211C11 4.83776 11.096 4.6001 11.288 4.4081C11.48 4.2161 11.7173 4.12043 12 4.1211C12.2833 4.1211 12.521 4.2171 12.713 4.4091C12.905 4.6011 13.0007 4.83843 13 5.1211V12.2711L14.875 10.3961C15.0583 10.2128 15.296 10.1251 15.588 10.1331C15.88 10.1411 16.1173 10.2371 16.3 10.4211C16.4833 10.6044 16.575 10.8378 16.575 11.1211C16.575 11.4044 16.4833 11.6378 16.3 11.8211L12.7 15.4211C12.6 15.5211 12.4917 15.5921 12.375 15.6341C12.2583 15.6761 12.1333 15.6968 12 15.6961ZM6 20.1211C5.45 20.1211 4.979 19.9251 4.587 19.5331C4.195 19.1411 3.99934 18.6704 4 18.1211V16.1211C4 15.8378 4.096 15.6001 4.288 15.4081C4.48 15.2161 4.71734 15.1204 5 15.1211C5.28334 15.1211 5.521 15.2171 5.713 15.4091C5.905 15.6011 6.00067 15.8384 6 16.1211V18.1211H18V16.1211C18 15.8378 18.096 15.6001 18.288 15.4081C18.48 15.2161 18.7173 15.1204 19 15.1211C19.2833 15.1211 19.521 15.2171 19.713 15.4091C19.905 15.6011 20.0007 15.8384 20 16.1211V18.1211C20 18.6711 19.804 19.1421 19.412 19.5341C19.02 19.9261 18.5493 20.1218 18 20.1211H6Z" fill="#222222"/>
</svg>
