<svg width="64" height="64" viewBox="0 0 64 64" fill="none" xmlns="http://www.w3.org/2000/svg">
<g clip-path="url(#clip0_11958_111206)">
<path d="M64 59.9513C64 62.1864 62.1861 64.0002 59.9506 64.0002H14.9707C12.7353 64.0002 10.9213 62.1864 10.9213 59.9513C10.9213 57.7161 12.7353 55.9023 14.9707 55.9023H59.9506C62.1861 55.9023 64 57.7161 64 59.9513Z" fill="#E2E5ED"/>
<path d="M60.5452 3.45437C58.3173 1.22672 55.3517 0 52.198 0C49.0443 0 46.0788 1.22672 43.8508 3.45437L40.8853 6.41957C39.7036 7.60865 39.7036 9.52775 40.8853 10.7093L53.2894 23.1119C53.884 23.7065 54.6593 24 55.4345 24C56.2098 24 56.9926 23.7065 57.5796 23.1119L60.5452 20.1468C65.1516 15.5409 65.1516 8.05268 60.5452 3.44685V3.45437Z" fill="#5221CB"/>
<path d="M38.3789 13.2238C37.1897 12.0348 35.2704 12.0348 34.0811 13.2238L0.888157 46.4129C0.316124 46.9849 0 47.7525 0 48.5578V60.9604C0 62.6387 1.36234 63.9934 3.03328 63.9934H15.4374C16.2427 63.9934 17.018 63.6697 17.5825 63.1053L50.7755 29.9162C51.9572 28.7271 51.9572 26.808 50.7755 25.6265L38.3714 13.2238H38.3789Z" fill="#5221CB"/>
</g>
<defs>
<clipPath id="clip0_11958_111206">
<rect width="64" height="64" fill="white"/>
</clipPath>
</defs>
</svg>
