<svg width="24" height="24" viewBox="0 0 24 24" fill="none" xmlns="http://www.w3.org/2000/svg">
<path fill-rule="evenodd" clip-rule="evenodd" d="M11.9998 19.2007C10.0893 19.2059 8.25607 18.4466 6.90882 17.092C5.55402 15.7447 4.79459 13.9114 4.79983 12.0008C4.79458 10.0902 5.55389 8.25686 6.90852 6.90949C8.25585 5.55481 10.0892 4.79549 11.9998 4.80081C13.9104 4.79553 15.7437 5.55484 17.091 6.90949C18.4457 8.25684 19.205 10.0902 19.1997 12.0008C19.205 13.9113 18.4456 15.7445 17.091 17.0917C15.7437 18.4465 13.9104 19.2059 11.9998 19.2007ZM10.6369 15.4675V16.0603H13.5406V15.4675H12.9481V10.7858H10.6381V11.9708H11.29V15.4669L10.6369 15.4675ZM11.7928 7.85269C11.1548 7.85335 10.6377 8.37029 10.6369 9.00828C10.6377 9.64627 11.1548 10.1632 11.7928 10.1639C12.4306 10.163 12.9474 9.64611 12.9481 9.00828C12.9474 8.37034 12.4304 7.85335 11.7925 7.85269H11.7928Z" fill="#F75015"/>
<mask id="mask0_13301_126234" style="mask-type:luminance" maskUnits="userSpaceOnUse" x="4" y="4" width="16" height="16">
<path fill-rule="evenodd" clip-rule="evenodd" d="M11.9998 19.2007C10.0893 19.2059 8.25607 18.4466 6.90882 17.092C5.55402 15.7447 4.79459 13.9114 4.79983 12.0008C4.79458 10.0902 5.55389 8.25686 6.90852 6.90949C8.25585 5.55481 10.0892 4.79549 11.9998 4.80081C13.9104 4.79553 15.7437 5.55484 17.091 6.90949C18.4457 8.25684 19.205 10.0902 19.1997 12.0008C19.205 13.9113 18.4456 15.7445 17.091 17.0917C15.7437 18.4465 13.9104 19.2059 11.9998 19.2007ZM10.6369 15.4675V16.0603H13.5406V15.4675H12.9481V10.7858H10.6381V11.9708H11.29V15.4669L10.6369 15.4675ZM11.7928 7.85269C11.1548 7.85335 10.6377 8.37029 10.6369 9.00828C10.6377 9.64627 11.1548 10.1632 11.7928 10.1639C12.4306 10.163 12.9474 9.64611 12.9481 9.00828C12.9474 8.37034 12.4304 7.85335 11.7925 7.85269H11.7928Z" fill="white"/>
</mask>
<g mask="url(#mask0_13301_126234)">
</g>
</svg>
