<svg width="48" height="49" viewBox="0 0 48 49" fill="none" xmlns="http://www.w3.org/2000/svg">
<rect y="0.445312" width="48" height="48" rx="8" fill="#A6A9B0"/>
<path fill-rule="evenodd" clip-rule="evenodd" d="M18.8001 14.0469C18.4553 14.0469 18.1247 14.1838 17.8809 14.4276C17.6371 14.6714 17.5001 15.0021 17.5001 15.3469V16.6469H16.2001C15.5105 16.6469 14.8492 16.9208 14.3616 17.4084C13.874 17.896 13.6001 18.5573 13.6001 19.2469V32.2469C13.6001 32.9364 13.874 33.5978 14.3616 34.0854C14.8492 34.5729 15.5105 34.8469 16.2001 34.8469H31.8001C32.4897 34.8469 33.151 34.5729 33.6386 34.0854C34.1262 33.5978 34.4001 32.9364 34.4001 32.2469V19.2469C34.4001 18.5573 34.1262 17.896 33.6386 17.4084C33.151 16.9208 32.4897 16.6469 31.8001 16.6469H30.5001V15.3469C30.5001 15.0021 30.3631 14.6714 30.1193 14.4276C29.8755 14.1838 29.5449 14.0469 29.2001 14.0469C28.8553 14.0469 28.5247 14.1838 28.2809 14.4276C28.0371 14.6714 27.9001 15.0021 27.9001 15.3469V16.6469H20.1001V15.3469C20.1001 15.0021 19.9631 14.6714 19.7193 14.4276C19.4755 14.1838 19.1449 14.0469 18.8001 14.0469ZM18.8001 20.5469C18.4553 20.5469 18.1247 20.6838 17.8809 20.9276C17.6371 21.1714 17.5001 21.5021 17.5001 21.8469C17.5001 22.1917 17.6371 22.5223 17.8809 22.7661C18.1247 23.0099 18.4553 23.1469 18.8001 23.1469H29.2001C29.5449 23.1469 29.8755 23.0099 30.1193 22.7661C30.3631 22.5223 30.5001 22.1917 30.5001 21.8469C30.5001 21.5021 30.3631 21.1714 30.1193 20.9276C29.8755 20.6838 29.5449 20.5469 29.2001 20.5469H18.8001Z" fill="white"/>
</svg>
