<svg width="32" height="32" viewBox="0 0 32 32" fill="none" xmlns="http://www.w3.org/2000/svg">
<path d="M11.5595 15.6015C12.5968 17.7222 14.3158 19.4334 16.4412 20.461C16.5967 20.5347 16.7687 20.5666 16.9403 20.5537C17.1119 20.5407 17.2771 20.4832 17.4198 20.387L20.5492 18.3002C20.6877 18.2079 20.8469 18.1516 21.0126 18.1364C21.1782 18.1212 21.3451 18.1475 21.498 18.213L27.3526 20.7222C27.5515 20.8067 27.7175 20.9535 27.8257 21.1405C27.9339 21.3276 27.9783 21.5447 27.9524 21.7593C27.7673 23.2073 27.0608 24.5382 25.9652 25.5028C24.8695 26.4674 23.4598 26.9996 22 26.9996C17.4913 26.9996 13.1673 25.2086 9.97919 22.0204C6.79107 18.8323 5 14.5083 5 9.99963C5.00008 8.53985 5.53224 7.13015 6.49685 6.03448C7.46146 4.93881 8.79237 4.23231 10.2404 4.04726C10.4549 4.0213 10.672 4.06576 10.8591 4.17394C11.0461 4.28212 11.193 4.44816 11.2775 4.64704L13.7888 10.5068C13.8537 10.6583 13.8802 10.8236 13.8658 10.9879C13.8514 11.1522 13.7967 11.3103 13.7064 11.4483L11.6268 14.6258C11.5322 14.7687 11.4762 14.9338 11.4644 15.1048C11.4526 15.2758 11.4854 15.447 11.5595 15.6015Z" fill="#747780"/>
</svg>
