<svg width="64" height="64" viewBox="0 0 64 64" fill="none" xmlns="http://www.w3.org/2000/svg">
<path d="M24.5332 26.6667V49.0667" stroke="white" stroke-width="3" stroke-miterlimit="10"/>
<path d="M49.0658 59.7333H38.4023" stroke="white" stroke-width="3" stroke-miterlimit="10"/>
<path d="M37.3283 26.6667H35.1992" stroke="white" stroke-width="3" stroke-miterlimit="10"/>
<path d="M49.0664 21.3334H60.7997" stroke="white" stroke-width="3" stroke-miterlimit="10"/>
<path d="M39.4666 37.3333C41.2339 37.3333 42.6666 35.9007 42.6666 34.1333C42.6666 32.366 41.2339 30.9333 39.4666 30.9333C37.6993 30.9333 36.2666 32.366 36.2666 34.1333C36.2666 35.9007 37.6993 37.3333 39.4666 37.3333Z" stroke="white" stroke-width="3" stroke-miterlimit="10"/>
<path d="M36.5166 49.0677C37.0243 48.5013 37.3326 47.7536 37.3326 46.9333C37.3326 45.1659 35.9001 43.7333 34.1326 43.7333C32.3651 43.7333 30.9326 45.1659 30.9326 46.9333C30.9326 47.7547 31.242 48.5045 31.7508 49.0709" stroke="white" stroke-width="3" stroke-miterlimit="10"/>
<path d="M27.7332 41.6C29.5005 41.6 30.9332 40.1673 30.9332 38.4C30.9332 36.6327 29.5005 35.2 27.7332 35.2C25.9659 35.2 24.5332 36.6327 24.5332 38.4C24.5332 40.1673 25.9659 41.6 27.7332 41.6Z" stroke="white" stroke-width="3" stroke-miterlimit="10"/>
<path d="M51.2 44.8C52.9673 44.8 54.4 43.3673 54.4 41.6C54.4 39.8327 52.9673 38.4 51.2 38.4C49.4327 38.4 48 39.8327 48 41.6C48 43.3673 49.4327 44.8 51.2 44.8Z" stroke="white" stroke-width="3" stroke-miterlimit="10"/>
<path d="M31.1847 59.7333C31.6913 59.168 31.9996 58.4203 31.9996 57.6C31.9996 55.8326 30.5671 54.4 28.7996 54.4C27.0321 54.4 25.5996 55.8326 25.5996 57.6C25.5996 58.4214 25.9089 59.1712 26.4177 59.7376" stroke="white" stroke-width="3" stroke-miterlimit="10"/>
<path d="M34.1328 10.6667H45.8662" stroke="white" stroke-width="3" stroke-miterlimit="10"/>
<path d="M9.59961 16V52.2667C9.59961 52.8555 10.0775 53.3333 10.6663 53.3333H15.9996" stroke="white" stroke-width="3" stroke-miterlimit="10"/>
<path d="M14.9331 30.9333H12.7998V33.0667H14.9331V30.9333Z" fill="white"/>
<path d="M14.9331 26.6667H12.7998V28.8H14.9331V26.6667Z" fill="white"/>
<path d="M14.9331 35.2H12.7998V37.3333H14.9331V35.2Z" fill="white"/>
<path d="M19.1997 37.3333H17.0664V39.4666H19.1997V37.3333Z" fill="white"/>
<path d="M19.1997 33.0667H17.0664V35.2H19.1997V33.0667Z" fill="white"/>
<path d="M19.1997 41.6H17.0664V43.7333H19.1997V41.6Z" fill="white"/>
<path d="M40.5335 59.7333H24.5335C21.5885 59.7333 19.2002 57.345 19.2002 54.4C19.2002 51.4549 21.5885 49.0666 24.5335 49.0666H46.7341C45.245 50.0224 43.7335 51.8005 43.7335 54.4C43.7335 57.345 46.1218 59.7333 49.0669 59.7333C52.0119 59.7333 54.4002 57.345 54.4002 54.4V21.3333" stroke="white" stroke-width="3" stroke-miterlimit="10"/>
<path d="M49.1201 26.6667H39.4668" stroke="white" stroke-width="3" stroke-miterlimit="10"/>
<path d="M33.0669 26.6667H24.5335C21.5885 26.6667 19.2002 24.2784 19.2002 21.3333C19.2002 18.3883 21.5885 16 24.5335 16H49.1202" stroke="white" stroke-width="3" stroke-miterlimit="10"/>
<path d="M17.0666 16H9.59994C6.65487 16 4.2666 13.6117 4.2666 10.6666C4.2666 7.72158 6.65487 5.33331 9.59994 5.33331H34.1333" stroke="white" stroke-width="3" stroke-miterlimit="10"/>
<path d="M34.1331 16C37.0787 16 39.4665 13.6122 39.4665 10.6666C39.4665 7.72113 37.0787 5.33331 34.1331 5.33331C31.1876 5.33331 28.7998 7.72113 28.7998 10.6666C28.7998 13.6122 31.1876 16 34.1331 16Z" stroke="white" stroke-width="3" stroke-miterlimit="10"/>
<path d="M49.0667 26.6667C52.0123 26.6667 54.4001 24.2789 54.4001 21.3333C54.4001 18.3878 52.0123 16 49.0667 16C46.1212 16 43.7334 18.3878 43.7334 21.3333C43.7334 24.2789 46.1212 26.6667 49.0667 26.6667Z" stroke="white" stroke-width="3" stroke-miterlimit="10"/>
<path fill-rule="evenodd" clip-rule="evenodd" d="M5.20703 10.518C5.20703 8.16631 7.11425 6.25909 9.46592 6.25909H29.0703C28.0326 7.37618 27.3979 8.87297 27.3979 10.518C27.3979 12.163 28.0326 13.6598 29.0703 14.7769H24.1908C20.7346 14.7769 17.9319 17.5795 17.9319 21.0358C17.9319 24.1517 20.2098 26.7363 23.1908 27.2152V37.8642V47.4615C20.2098 47.9403 17.9319 50.525 17.9319 53.6409C17.9319 57.0971 20.7346 59.8998 24.1908 59.8998L37.8671 59.8998L39.9675 59.8998L39.9703 59.8998H48.3747H48.3817C51.838 59.8998 54.6406 57.0971 54.6406 53.6409V41.0323L54.6406 41.0196L54.6406 41.0068V22.0004H58.9999C59.5521 22.0004 59.9999 21.5527 59.9999 21.0004C59.9999 20.4481 59.5521 20.0004 58.9999 20.0004H54.5554C54.0666 17.0643 51.5341 14.8195 48.4693 14.7775C48.4577 14.7771 48.446 14.7769 48.4343 14.7769H48.3817H38.2433C38.9589 14.0066 39.4828 13.0558 39.7391 12.0004H43.9999C44.5521 12.0004 44.9999 11.5527 44.9999 11.0004C44.9999 10.4481 44.5521 10.0004 43.9999 10.0004H39.8946C39.6315 6.78585 36.9392 4.25909 33.6568 4.25909H9.46592C6.00968 4.25909 3.20703 7.06174 3.20703 10.518C3.20703 13.6339 5.48487 16.2186 8.46592 16.6974V51.5373C8.46592 52.6702 9.38483 53.5891 10.5177 53.5891H15.7766C16.3289 53.5891 16.7766 53.1414 16.7766 52.5891C16.7766 52.0368 16.3289 51.5891 15.7766 51.5891H10.5177C10.4894 51.5891 10.4659 51.5656 10.4659 51.5373V16.7769H16.8284C17.3807 16.7769 17.8284 16.3292 17.8284 15.7769C17.8284 15.2246 17.3807 14.7769 16.8284 14.7769H9.46592C7.11425 14.7769 5.20703 12.8697 5.20703 10.518ZM43.7952 16.7769H24.1908C21.8391 16.7769 19.9319 18.6841 19.9319 21.0358C19.9319 23.3874 21.8391 25.2947 24.1908 25.2947H30.4998C31.0521 25.2947 31.4998 25.7424 31.4998 26.2947C31.4998 26.8469 31.0521 27.2947 30.4998 27.2947H25.1908V34.3109C25.8192 33.9289 26.557 33.7089 27.3462 33.7089C29.6411 33.7089 31.5015 35.5693 31.5015 37.8642C31.5015 40.1592 29.6411 42.0196 27.3462 42.0196C26.557 42.0196 25.8192 41.7996 25.1908 41.4176V47.382H29.6498C29.5531 47.0303 29.5015 46.6602 29.5015 46.2785C29.5015 43.9834 31.3617 42.1231 33.6568 42.1231C35.9519 42.1231 37.8122 43.9834 37.8122 46.2785C37.8122 46.6604 37.7605 47.0305 37.6639 47.382H46.0815C46.5254 47.382 46.9161 47.6746 47.041 48.1006C47.166 48.5265 46.9952 48.9838 46.6216 49.2236C45.3515 50.0388 44.1228 51.5114 44.1228 53.6409C44.1228 55.9907 46.0269 57.8967 48.376 57.8998H48.3817C50.7334 57.8998 52.6406 55.9926 52.6406 53.6409V44.5729C52.0122 44.9549 51.2744 45.1749 50.4853 45.1749C48.1904 45.1749 46.3299 43.3145 46.3299 41.0196C46.3299 38.7246 48.1904 36.8642 50.4853 36.8642C51.2744 36.8642 52.0122 37.0842 52.6406 37.4662V25.6223C51.5434 26.6416 50.0798 27.272 48.4693 27.2941C48.4577 27.2945 48.446 27.2947 48.4343 27.2947H48.3817H38.9157C38.3634 27.2947 37.9157 26.8469 37.9157 26.2947C37.9157 25.7424 38.3634 25.2947 38.9157 25.2947H43.7952C42.7575 24.1776 42.1228 22.6808 42.1228 21.0358C42.1228 19.3908 42.7575 17.894 43.7952 16.7769ZM48.3817 25.2947C50.4021 25.2947 52.0938 23.8879 52.5309 22.0004H48.9999C48.4476 22.0004 47.9999 21.5527 47.9999 21.0004C47.9999 20.4481 48.4476 20.0004 48.9999 20.0004H52.5139C52.0514 18.1486 50.3768 16.7769 48.3817 16.7769C46.0296 16.7769 44.1228 18.6836 44.1228 21.0358C44.1228 23.3879 46.0296 25.2947 48.3817 25.2947ZM33.9999 10.0004H37.8846C37.6292 7.89239 35.8337 6.25909 33.6568 6.25909C31.3047 6.25909 29.3979 8.16586 29.3979 10.518C29.3979 12.8701 31.3047 14.7769 33.6568 14.7769C35.4876 14.7769 37.0486 13.6217 37.6506 12.0004H33.9999C33.4476 12.0004 32.9999 11.5527 32.9999 11.0004C32.9999 10.4481 33.4476 10.0004 33.9999 10.0004ZM42.1228 53.6409C42.1228 55.2858 42.7576 56.7826 43.7955 57.8998L39.9675 57.8998L37.8671 57.8998L32.405 57.8998C32.5016 57.5482 32.5533 57.1781 32.5533 56.7962C32.5533 54.5012 30.693 52.6409 28.3979 52.6409C26.1029 52.6409 24.2426 54.5012 24.2426 56.7962C24.2426 57.178 24.2942 57.5481 24.3909 57.8998H24.1908C21.8391 57.8998 19.9319 55.9926 19.9319 53.6409C19.9319 51.2892 21.8391 49.382 24.1908 49.382H43.5448C42.7181 50.4743 42.1228 51.894 42.1228 53.6409ZM30.5533 56.7962C30.5533 57.2007 30.4428 57.5776 30.2501 57.8998H26.5456C26.353 57.5772 26.2426 57.2002 26.2426 56.7962C26.2426 55.6057 27.2074 54.6409 28.3979 54.6409C29.5884 54.6409 30.5533 55.6057 30.5533 56.7962ZM31.8045 47.382C31.6119 47.0594 31.5015 46.6824 31.5015 46.2785C31.5015 45.0879 32.4663 44.1231 33.6568 44.1231C34.8473 44.1231 35.8122 45.0879 35.8122 46.2785C35.8122 46.6826 35.7018 47.0594 35.5088 47.382H31.8045ZM50.4853 43.1749C51.6726 43.1749 52.6357 42.2149 52.6406 41.0287V41.0104C52.6357 39.8242 51.6726 38.8642 50.4853 38.8642C49.2949 38.8642 48.3299 39.8292 48.3299 41.0196C48.3299 42.2099 49.2949 43.1749 50.4853 43.1749ZM33.9999 25.0004C33.4476 25.0004 32.9999 25.4481 32.9999 26.0004C32.9999 26.5527 33.4476 27.0004 33.9999 27.0004H34.9999C35.5521 27.0004 35.9999 26.5527 35.9999 26.0004C35.9999 25.4481 35.5521 25.0004 34.9999 25.0004H33.9999ZM25.1908 37.8642C25.1908 39.0546 26.1558 40.0196 27.3462 40.0196C28.5365 40.0196 29.5015 39.0546 29.5015 37.8642C29.5015 36.6739 28.5365 35.7089 27.3462 35.7089C26.1558 35.7089 25.1908 36.6739 25.1908 37.8642ZM36.7604 33.6571C36.7604 32.4668 37.7254 31.5018 38.9157 31.5018C40.1061 31.5018 41.0711 32.4668 41.0711 33.6571C41.0711 34.8475 40.1061 35.8124 38.9157 35.8124C37.7254 35.8124 36.7604 34.8475 36.7604 33.6571ZM38.9157 29.5018C36.6208 29.5018 34.7604 31.3622 34.7604 33.6571C34.7604 35.952 36.6208 37.8124 38.9157 37.8124C41.2106 37.8124 43.0711 35.952 43.0711 33.6571C43.0711 31.3622 41.2106 29.5018 38.9157 29.5018ZM14.7248 30.5018H12.6213V32.6053H14.7248V30.5018ZM12.6213 26.2947H14.7248V28.3982H12.6213V26.2947ZM14.7248 34.7089H12.6213V36.8124H14.7248V34.7089ZM16.8284 36.8124H18.9319V38.916H16.8284V36.8124ZM18.9319 32.6053H16.8284V34.7089H18.9319V32.6053ZM16.8284 41.0196H18.9319V43.1231H16.8284V41.0196Z" fill="#CACCD1"/>
</svg>
