<svg width="48" height="48" viewBox="0 0 48 48" fill="none" xmlns="http://www.w3.org/2000/svg">
<rect width="48" height="48" rx="8" fill="#5A2DC9" fill-opacity="0.4"/>
<path fill-rule="evenodd" clip-rule="evenodd" d="M18.8 13.5996C18.4552 13.5996 18.1245 13.7366 17.8807 13.9804C17.6369 14.2242 17.5 14.5548 17.5 14.8996V16.1996H16.2C15.5104 16.1996 14.8491 16.4735 14.3615 16.9611C13.8739 17.4487 13.6 18.11 13.6 18.7996V31.7996C13.6 32.4892 13.8739 33.1505 14.3615 33.6381C14.8491 34.1257 15.5104 34.3996 16.2 34.3996H31.8C32.4895 34.3996 33.1509 34.1257 33.6385 33.6381C34.126 33.1505 34.4 32.4892 34.4 31.7996V18.7996C34.4 18.11 34.126 17.4487 33.6385 16.9611C33.1509 16.4735 32.4895 16.1996 31.8 16.1996H30.5V14.8996C30.5 14.5548 30.363 14.2242 30.1192 13.9804C29.8754 13.7366 29.5448 13.5996 29.2 13.5996C28.8552 13.5996 28.5245 13.7366 28.2807 13.9804C28.0369 14.2242 27.9 14.5548 27.9 14.8996V16.1996H20.1V14.8996C20.1 14.5548 19.963 14.2242 19.7192 13.9804C19.4754 13.7366 19.1448 13.5996 18.8 13.5996ZM18.8 20.0996C18.4552 20.0996 18.1245 20.2366 17.8807 20.4804C17.6369 20.7242 17.5 21.0548 17.5 21.3996C17.5 21.7444 17.6369 22.0751 17.8807 22.3188C18.1245 22.5626 18.4552 22.6996 18.8 22.6996H29.2C29.5448 22.6996 29.8754 22.5626 30.1192 22.3188C30.363 22.0751 30.5 21.7444 30.5 21.3996C30.5 21.0548 30.363 20.7242 30.1192 20.4804C29.8754 20.2366 29.5448 20.0996 29.2 20.0996H18.8Z" fill="white"/>
</svg>
