<svg xmlns="http://www.w3.org/2000/svg" width="20" height="20" viewBox="0 0 20 20" fill="none">
  <g clip-path="url(#clip0_422_1640)">
    <path fill-rule="evenodd" clip-rule="evenodd" d="M9.99967 0.833496C4.93717 0.833496 0.833008 4.93766 0.833008 10.0002C0.833008 15.0627 4.93717 19.1668 9.99967 19.1668C15.0622 19.1668 19.1663 15.0627 19.1663 10.0002C19.1663 4.93766 15.0622 0.833496 9.99967 0.833496ZM10.833 5.8335C10.833 5.61248 10.7452 5.40052 10.5889 5.24424C10.4327 5.08796 10.2207 5.00016 9.99967 5.00016C9.77866 5.00016 9.5667 5.08796 9.41042 5.24424C9.25414 5.40052 9.16634 5.61248 9.16634 5.8335V10.8335C9.16634 11.0545 9.25414 11.2665 9.41042 11.4228C9.5667 11.579 9.77866 11.6668 9.99967 11.6668C10.2207 11.6668 10.4327 11.579 10.5889 11.4228C10.7452 11.2665 10.833 11.0545 10.833 10.8335V5.8335ZM10.833 13.7502C10.833 13.5292 10.7452 13.3172 10.5889 13.1609C10.4327 13.0046 10.2207 12.9168 9.99967 12.9168C9.77866 12.9168 9.5667 13.0046 9.41042 13.1609C9.25414 13.3172 9.16634 13.5292 9.16634 13.7502V14.1668C9.16634 14.3878 9.25414 14.5998 9.41042 14.7561C9.5667 14.9124 9.77866 15.0002 9.99967 15.0002C10.2207 15.0002 10.4327 14.9124 10.5889 14.7561C10.7452 14.5998 10.833 14.3878 10.833 14.1668V13.7502Z" fill="#E2E5ED"/>
  </g>
  <defs>
    <clipPath id="clip0_422_1640">
      <rect width="20" height="20" fill="white"/>
    </clipPath>
  </defs>
</svg>