<svg width="60" height="63" viewBox="0 0 60 63" fill="none" xmlns="http://www.w3.org/2000/svg">
<g id="icons" clip-path="url(#clip0_423_4012)">
<path id="Vector" d="M11.9261 14.2233C11.9261 11.4065 9.64896 9.11523 6.83121 9.11523C4.01346 9.11523 1.73633 11.3983 1.73633 14.2233C1.73633 17.0483 4.01346 19.3314 6.83121 19.3314C9.64896 19.3314 11.9261 17.0483 11.9261 14.2233Z" fill="#383B48"/>
<path id="Vector_2" d="M19.9618 39.2061H13.6628V27.9223C13.6628 24.1364 10.5993 21.0732 6.8314 21.0732C3.06348 21.0732 0 24.1447 0 27.9223V42.7045C0 42.7456 0 42.7948 0 42.8359C0 44.8397 1.62184 46.4658 3.62048 46.4658H16.3495V59.2277C16.3495 61.2315 17.9713 62.8576 19.97 62.8576C21.9686 62.8576 23.5904 61.2315 23.5904 59.2277V42.8359C23.5904 40.8321 21.9686 39.2061 19.97 39.2061H19.9618Z" fill="#383B48"/>
<path id="Vector_3" d="M48.0732 14.2233C48.0732 11.4065 50.3504 9.11523 53.1681 9.11523C55.9859 9.11523 58.263 11.3983 58.263 14.2233C58.263 17.0483 55.9859 19.3314 53.1681 19.3314C50.3504 19.3314 48.0732 17.0483 48.0732 14.2233Z" fill="#383B48"/>
<path id="Vector_4" d="M40.03 39.2061H46.329V27.9223C46.329 24.1364 49.3843 21.0732 53.1604 21.0732C56.9365 21.0732 59.9918 24.1447 59.9918 27.9223V42.7045C59.9918 42.7456 59.9918 42.7948 59.9918 42.8359C59.9918 44.8397 58.37 46.4658 56.3713 46.4658H43.6423V59.2277C43.6423 61.2315 42.0205 62.8576 40.0218 62.8576C38.0232 62.8576 36.4014 61.2315 36.4014 59.2277V42.8359C36.4014 40.8321 38.0232 39.2061 40.0218 39.2061H40.03Z" fill="#383B48"/>
<path id="Vector_5" d="M43.126 32.6523H16.8652V36.1672H43.126V32.6523Z" fill="#383B48"/>
<path id="Vector_6" d="M34.1981 0H25.2697C20.2404 0 16.1612 4.08974 16.1612 9.13211C16.1612 10.791 16.6117 12.3431 17.3817 13.6817L15.9482 19.0362L21.6493 17.5005C22.7551 17.985 23.9755 18.2478 25.2616 18.2478H34.1899C39.2192 18.2478 43.2984 14.1581 43.2984 9.12389C43.2984 4.08974 39.2274 0 34.1981 0Z" fill="#5221CB"/>
</g>
<defs>
<clipPath id="clip0_423_4012">
<rect width="60" height="62.8571" fill="white"/>
</clipPath>
</defs>
</svg>
