<svg width="88" height="88" viewBox="0 0 88 88" fill="none" xmlns="http://www.w3.org/2000/svg">
<path d="M63.4497 76.9722V43.9855C63.4497 41.9605 61.8095 40.3203 59.7845 40.3203H43.2912C41.2661 40.3203 39.626 41.9605 39.626 43.9855V76.9722" stroke="#A3A7B2" stroke-width="3" stroke-linecap="round" stroke-linejoin="round"/>
<path d="M57.9541 47.6523H45.126V54.9827H57.9541V47.6523Z" stroke="#A3A7B2" stroke-width="3" stroke-linecap="round" stroke-linejoin="round"/>
<path d="M39.6232 66.8938C38.8603 68.6874 36.5696 70.5589 33.4954 70.5589C29.8302 70.5589 27.6426 67.2557 29.1705 63.4004C30.3342 60.4614 32.2928 54.9819 32.2928 54.9819V49.4452L34.1254 43.9863" stroke="#A3A7B2" stroke-width="3" stroke-linecap="round" stroke-linejoin="round"/>
<path d="M7.86133 76.7695L78.8207 76.7695" stroke="#A3A7B2" stroke-width="3" stroke-linecap="round" stroke-linejoin="round"/>
<path d="M78.8207 11H7.86133V19.6536H78.8207V11Z" stroke="#A3A7B2" stroke-width="3" stroke-linecap="round" stroke-linejoin="round"/>
<path d="M72.6113 20.1621V76.9725" stroke="#A3A7B2" stroke-width="3" stroke-linecap="round" stroke-linejoin="round"/>
<path d="M63.4502 20.1621V34.8229" stroke="#A3A7B2" stroke-width="3" stroke-linecap="round" stroke-linejoin="round"/>
<path d="M32.2949 49.4473L34.7002 51.3188" stroke="#A3A7B2" stroke-width="3" stroke-linecap="round" stroke-linejoin="round"/>
</svg>
