<svg width="88" height="88" viewBox="0 0 88 88" fill="none" xmlns="http://www.w3.org/2000/svg">
<path d="M11 41.9613C11 45.5546 13.914 48.4686 17.5074 48.4686C21.1007 48.4686 24.0148 45.5546 24.0148 41.9613C24.0148 45.5546 26.9288 48.4686 30.5221 48.4686C34.1155 48.4686 37.0295 45.5546 37.0295 41.9613C37.0295 45.5546 39.9435 48.4686 43.5369 48.4686C47.1302 48.4686 50.0442 45.5546 50.0442 41.9613C50.0442 45.5546 52.9582 48.4686 56.5516 48.4686C60.145 48.4686 63.059 45.5546 63.059 41.9613C63.059 45.5546 65.973 48.4686 69.5663 48.4686C73.1597 48.4686 76.0737 45.5546 76.0737 41.9613V32.2012H11.0078V41.9613H11Z" stroke="#A3A7B2" stroke-width="3" stroke-linecap="round" stroke-linejoin="round"/>
<path d="M24.0156 38.709V41.9617" stroke="#A3A7B2" stroke-width="3" stroke-linecap="round" stroke-linejoin="round"/>
<path d="M37.0264 38.709V41.9617" stroke="#A3A7B2" stroke-width="3" stroke-linecap="round" stroke-linejoin="round"/>
<path d="M50.043 38.709V41.9617" stroke="#A3A7B2" stroke-width="3" stroke-linecap="round" stroke-linejoin="round"/>
<path d="M63.0586 38.709V41.9617" stroke="#A3A7B2" stroke-width="3" stroke-linecap="round" stroke-linejoin="round"/>
<path d="M71.1867 48.4668V77.747H15.8789V48.4668" stroke="#A3A7B2" stroke-width="3" stroke-linecap="round" stroke-linejoin="round"/>
<path d="M37.0308 54.9746H22.3906V77.7475H37.0308V54.9746Z" stroke="#A3A7B2" stroke-width="3" stroke-linecap="round" stroke-linejoin="round"/>
<path d="M32.1484 64.7324V67.9871" stroke="#A3A7B2" stroke-width="3" stroke-linecap="round" stroke-linejoin="round"/>
<path d="M64.6805 19.1875H22.3874L11 30.5749V32.2003H76.0679V30.5749L64.6805 19.1875Z" stroke="#A3A7B2" stroke-width="3" stroke-linecap="round" stroke-linejoin="round"/>
<path d="M64.6837 9.42773H22.3906V19.1878H64.6837V9.42773Z" stroke="#A3A7B2" stroke-width="3" stroke-linecap="round" stroke-linejoin="round"/>
<path d="M24.0156 32.2003V30.5749L28.8957 22.4402V19.1875" stroke="#A3A7B2" stroke-width="3" stroke-linecap="round" stroke-linejoin="round"/>
<path d="M63.0519 32.2003V30.5749L58.1719 22.4402V19.1875" stroke="#A3A7B2" stroke-width="3" stroke-linecap="round" stroke-linejoin="round"/>
<path d="M37.0264 32.2003V30.5749L38.6537 22.4402V19.1875" stroke="#A3A7B2" stroke-width="3" stroke-linecap="round" stroke-linejoin="round"/>
<path d="M50.0404 32.2003V30.5749L48.415 22.4402V19.1875" stroke="#A3A7B2" stroke-width="3" stroke-linecap="round" stroke-linejoin="round"/>
<path d="M64.6856 54.9746H43.5381V67.9874H64.6856V54.9746Z" stroke="#A3A7B2" stroke-width="3" stroke-linecap="round" stroke-linejoin="round"/>
</svg>
