<svg width="189" height="60" viewBox="0 0 189 60" fill="none" xmlns="http://www.w3.org/2000/svg">
<rect width="189" height="60" rx="8" fill="#5221CB"/>
<path d="M10.896 14.648V13.592H14.464V11.848H15.776V13.592H19.36V14.648H10.896ZM24.112 17.672H21.984V22.6H20.672V11.848H21.984V16.568H24.112V17.672ZM18.56 18.104C18.56 19.72 17.168 20.776 15.12 20.776C13.088 20.776 11.696 19.72 11.696 18.104C11.696 16.504 13.088 15.448 15.12 15.448C17.168 15.448 18.56 16.504 18.56 18.104ZM12.944 18.104C12.944 19.128 13.776 19.752 15.12 19.752C16.416 19.752 17.312 19.128 17.312 18.104C17.312 17.08 16.416 16.472 15.12 16.472C13.776 16.472 12.944 17.08 12.944 18.104ZM22.624 24.792V25.864H13.056V21.752H14.368V24.792H22.624ZM35.7428 11.848H37.0708V22.36H35.7428V16.872H32.8628V15.8H35.7428V11.848ZM33.0548 20.2C31.4548 19.624 30.2228 18.424 29.5988 16.952C28.9748 18.616 27.6628 19.896 25.9828 20.52L25.2948 19.496C27.4228 18.728 28.9108 16.824 28.9108 14.792V14.072H25.7108V13H33.3748V14.072H30.2228V14.776C30.2228 16.632 31.6308 18.456 33.7108 19.176L33.0548 20.2ZM37.4708 25.864H27.8868V21.432H29.2148V24.792H37.4708V25.864ZM44.6156 16.792V12.056H45.9116V13.416H52.8876V12.056H54.1836V16.792H44.6156ZM45.9116 14.408V15.784H52.8876V14.408H45.9116ZM50.0396 20.424H54.2156V23.624H45.7836V25.016H54.6476V26.024H44.5036V22.664H52.9196V21.416H44.4556V20.424H48.7276V19.016H42.8876V17.96H55.8796V19.016H50.0396V20.424ZM69.0784 19.544H67.7664V11.848H69.0784V19.544ZM61.3664 12.52C63.5424 12.52 65.1264 13.848 65.1264 15.816C65.1264 17.8 63.5424 19.128 61.3664 19.128C59.2064 19.128 57.6384 17.8 57.6384 15.816C57.6384 13.848 59.2064 12.52 61.3664 12.52ZM61.3664 13.608C59.9424 13.608 58.9184 14.52 58.9184 15.816C58.9184 17.144 59.9424 18.04 61.3664 18.04C62.8384 18.04 63.8464 17.16 63.8464 15.816C63.8464 14.52 62.8224 13.608 61.3664 13.608ZM61.1264 22.008H67.7824V20.248H69.0784V25.992H59.8304V20.248H61.1264V22.008ZM67.7824 24.936V23.032H61.1264V24.936H67.7824ZM84.7251 18.936H71.6851V17.88H81.3331C81.7331 16.088 81.7491 14.792 81.7491 13.656H73.3491V12.6H83.0451V13.656C83.0451 14.792 83.0451 16.072 82.6611 17.88H84.7251V18.936ZM83.0931 20.888V25.992H73.3011V20.888H83.0931ZM81.7971 24.936V21.944H74.5811V24.936H81.7971ZM92.5799 18.04C89.5079 18.04 87.5399 16.984 87.5399 15.192C87.5399 13.4 89.5079 12.328 92.5799 12.328C95.6519 12.328 97.6199 13.4 97.6199 15.192C97.6199 16.984 95.6519 18.04 92.5799 18.04ZM92.5799 13.384C90.3239 13.384 88.8839 14.04 88.8839 15.192C88.8839 16.344 90.3239 16.984 92.5799 16.984C94.8359 16.984 96.2759 16.344 96.2759 15.192C96.2759 14.04 94.8359 13.384 92.5799 13.384ZM99.0599 20.44H86.0839V19.384H99.0599V20.44ZM97.6359 24.792V25.864H87.7639V21.704H89.0759V24.792H97.6359ZM115.581 26.216H114.269V18.376H111.149C111.021 21.192 109.597 22.952 107.597 22.952C105.501 22.952 104.013 21 104.013 17.944C104.013 14.888 105.501 12.936 107.597 12.936C109.533 12.936 110.941 14.616 111.149 17.304H114.269V11.832H115.581V26.216ZM107.597 21.784C108.957 21.784 109.917 20.28 109.917 17.944C109.917 15.624 108.957 14.12 107.597 14.12C106.221 14.12 105.261 15.624 105.261 17.944C105.261 20.28 106.221 21.784 107.597 21.784ZM128.796 11.848H130.124V22.296H128.796V16.856H126.22V15.784H128.796V11.848ZM127.564 19.656C126.284 19.96 125.244 19.976 123.66 19.976H122.924V13.032H126.908V14.088H124.22V18.904C125.436 18.888 126.348 18.84 127.436 18.584L127.564 19.656ZM122.444 19.672C121.148 19.976 120.092 19.976 119.18 19.976H118.54V13.032H122.156V14.088H119.836V18.904C120.54 18.856 121.372 18.808 122.332 18.6L122.444 19.672ZM130.476 25.864H120.524V21.416H121.836V24.792H130.476V25.864ZM142.724 15.544C141.748 17.896 139.684 19.512 136.532 20.424L136.004 19.384C139.46 18.36 141.54 16.488 141.796 13.976H136.74V12.92H143.22C143.22 13.448 143.172 13.976 143.06 14.472H146.308V11.848H147.636V20.424H146.308V18.536H142.548V17.464H146.308V15.544H142.724ZM142.948 20.584C145.844 20.584 147.7 21.624 147.7 23.352C147.7 25.08 145.844 26.12 142.948 26.12C140.052 26.12 138.196 25.08 138.196 23.352C138.196 21.624 140.052 20.584 142.948 20.584ZM142.948 25.096C145.06 25.096 146.404 24.44 146.404 23.352C146.404 22.264 145.076 21.624 142.948 21.624C140.82 21.624 139.492 22.264 139.492 23.352C139.492 24.44 140.836 25.096 142.948 25.096ZM156.675 18.696C153.683 18.696 151.667 17.464 151.667 15.544C151.667 13.64 153.683 12.408 156.675 12.408C159.667 12.408 161.699 13.64 161.699 15.544C161.699 17.464 159.667 18.696 156.675 18.696ZM156.675 13.464C154.499 13.464 153.011 14.264 153.011 15.544C153.011 16.824 154.499 17.64 156.675 17.64C158.867 17.64 160.355 16.824 160.355 15.544C160.355 14.264 158.867 13.464 156.675 13.464ZM157.331 21.144V26.2H156.019V21.144H150.211V20.056H163.203V21.144H157.331ZM176.802 26.184H175.554V11.832H176.802V26.184ZM173.954 12.152V25.48H172.706V18.488H170.898C170.77 21.304 169.618 23.032 167.858 23.032C165.986 23.032 164.786 21.112 164.786 18.008C164.786 14.936 165.986 13.032 167.858 13.032C169.586 13.032 170.722 14.712 170.898 17.416H172.706V12.152H173.954ZM167.858 21.816C169.01 21.816 169.714 20.392 169.714 18.008C169.714 15.704 168.962 14.248 167.858 14.248C166.706 14.248 165.986 15.704 165.986 18.008C165.986 20.392 166.706 21.816 167.858 21.816ZM24.112 38.008H21.984V41.256H20.672V33.848H21.984V36.92H24.112V38.008ZM11.44 40.696V34.424H12.736V36.488H16.8V34.424H18.08V40.696H11.44ZM12.736 37.496V39.64H16.8V37.496H12.736ZM22.512 46.984V48.024H12.912V44.44H20.688V42.968H12.864V41.928H21.984V45.416H14.192V46.984H22.512ZM33.0228 42.232V34.12H34.2708V37.688H36.0948V33.848H37.3588V42.696H36.0948V38.76H34.2708V42.232H33.0228ZM31.7268 41.576C30.3828 41.016 29.4068 40.008 28.8948 38.792C28.3828 40.136 27.3748 41.352 25.9668 41.976L25.2628 40.952C27.1188 40.152 28.2548 38.248 28.2548 36.664V34.728H29.5188V36.664C29.5188 38.232 30.5908 39.88 32.4308 40.568L31.7268 41.576ZM32.6228 43.016C35.5668 43.016 37.4228 43.976 37.4228 45.592C37.4228 47.208 35.5668 48.168 32.6228 48.168C29.6788 48.168 27.8388 47.208 27.8388 45.592C27.8388 43.976 29.6788 43.016 32.6228 43.016ZM32.6228 47.16C34.8148 47.16 36.1268 46.616 36.1268 45.592C36.1268 44.568 34.8148 44.04 32.6228 44.04C30.4308 44.04 29.1348 44.568 29.1348 45.592C29.1348 46.616 30.4308 47.16 32.6228 47.16ZM50.7015 40.84V48.184H49.3895V33.848H50.7015V39.736H53.0535V40.84H50.7015ZM48.0295 36.136V37.192H39.5655V36.136H43.1815V34.008H44.4935V36.136H48.0295ZM43.8535 38.376C45.9015 38.376 47.3575 39.768 47.3575 41.688C47.3575 43.656 45.9015 44.984 43.8535 44.984C41.8375 44.984 40.3815 43.656 40.3815 41.688C40.3815 39.768 41.8375 38.376 43.8535 38.376ZM43.8535 43.896C45.1815 43.896 46.1095 42.968 46.1095 41.688C46.1095 40.408 45.1815 39.464 43.8535 39.464C42.5575 39.464 41.6135 40.408 41.6135 41.688C41.6135 42.968 42.5575 43.896 43.8535 43.896ZM65.0843 40.648V48.184H63.7723V33.832H65.0843V39.56H67.3883V40.648H65.0843ZM55.9163 43.448C57.9803 43.448 60.1083 43.272 62.4283 42.808L62.5883 43.896C60.1403 44.392 57.9483 44.552 55.7563 44.552H54.6203V35.224H55.9163V43.448ZM81.467 46.344H68.427V45.256H71.627V41.384C70.411 40.76 69.707 39.72 69.707 38.424C69.707 36.2 71.883 34.744 74.923 34.744C77.979 34.744 80.139 36.2 80.139 38.424C80.139 39.72 79.467 40.744 78.251 41.368V45.256H81.467V46.344ZM74.923 35.768C72.619 35.768 70.971 36.824 70.971 38.424C70.971 40.024 72.619 41.08 74.923 41.08C77.227 41.08 78.891 40.024 78.891 38.424C78.891 36.824 77.227 35.768 74.923 35.768ZM76.939 45.256V41.88C76.251 42.024 75.579 42.104 74.923 42.104C74.219 42.104 73.563 42.024 72.939 41.88V45.256H76.939ZM85.0338 47.208V45.704H86.4898V47.208H85.0338ZM85.1938 44.216C84.8258 40.216 87.5938 40.76 87.5938 38.088C87.5938 37 86.9378 36.056 85.8018 36.056C84.9858 36.056 83.9938 36.552 83.8658 38.344H82.6338C82.8098 35.496 84.6338 34.824 85.9618 34.824C87.7698 34.824 88.8898 36.248 88.8898 37.992C88.8898 41.144 85.9938 40.776 86.3938 44.216H85.1938ZM92.2606 47.208V45.704H93.7166V47.208H92.2606ZM92.4206 44.216C92.0526 40.216 94.8206 40.76 94.8206 38.088C94.8206 37 94.1646 36.056 93.0286 36.056C92.2126 36.056 91.2206 36.552 91.0926 38.344H89.8606C90.0366 35.496 91.8606 34.824 93.1886 34.824C94.9966 34.824 96.1166 36.248 96.1166 37.992C96.1166 41.144 93.2206 40.776 93.6206 44.216H92.4206Z" fill="white"/>
</svg>
