<svg width="282" height="192" viewBox="0 0 282 192" fill="none" xmlns="http://www.w3.org/2000/svg">
<rect x="44" width="238" height="192" rx="8" fill="#F3F4F7"/>
<path d="M62.816 14.216L57.52 25H55.904L60.688 15.416L61.232 14.52H55.104V13.272H62.816V14.216ZM66.1233 12.264V20.904H66.1553L69.8833 16.312H71.4993L68.5873 19.8L71.8833 25H70.2993L67.7553 20.808L66.1233 22.712V25H64.6833V12.264H66.1233ZM73.6554 13.272L74.8874 19.656C75.0047 20.296 75.1167 20.9307 75.2234 21.56C75.3407 22.1787 75.458 22.808 75.5754 23.448H75.6394C75.778 22.808 75.9167 22.1787 76.0554 21.56C76.194 20.9307 76.338 20.296 76.4874 19.656L78.1034 13.272H79.4474L81.0954 19.656C81.2447 20.296 81.3834 20.9307 81.5114 21.56C81.65 22.1787 81.7887 22.808 81.9274 23.448H82.0074C82.2314 22.168 82.4554 20.904 82.6794 19.656L83.9114 13.272H85.3354L82.9034 25H81.1274L79.3514 17.928C79.2447 17.448 79.1434 16.9947 79.0474 16.568C78.962 16.1413 78.8714 15.704 78.7754 15.256H78.7114C78.6154 15.704 78.514 16.1413 78.4074 16.568C78.3114 16.9947 78.2154 17.448 78.1194 17.928L76.3754 25H74.6154L72.1194 13.272H73.6554ZM87.0623 17.144C87.7236 17.0907 88.3476 16.984 88.9343 16.824C89.5316 16.664 90.0543 16.4613 90.5023 16.216C90.9503 15.96 91.3129 15.672 91.5903 15.352C91.8676 15.0213 92.0223 14.664 92.0543 14.28H87.6383V13.24H92.1343V11.784H93.4463V13.24H97.9423V14.28H93.5103C93.5423 14.664 93.6969 15.0213 93.9743 15.352C94.2516 15.672 94.6143 15.96 95.0623 16.216C95.5103 16.4613 96.0276 16.664 96.6143 16.824C97.2116 16.984 97.8463 17.0907 98.5183 17.144L98.1183 18.168C97.5316 18.104 96.9609 18.0027 96.4063 17.864C95.8623 17.7253 95.3556 17.5547 94.8863 17.352C94.4276 17.1387 94.0169 16.8933 93.6543 16.616C93.2916 16.328 93.0036 16.008 92.7903 15.656C92.5663 16.008 92.2729 16.328 91.9103 16.616C91.5583 16.8933 91.1476 17.1387 90.6783 17.352C90.2196 17.5547 89.7183 17.7253 89.1743 17.864C88.6303 18.0027 88.0596 18.104 87.4623 18.168L87.0623 17.144ZM93.4303 21.416C94.8169 21.4693 95.8729 21.6987 96.5983 22.104C97.3236 22.5093 97.6863 23.0693 97.6863 23.784C97.6863 24.5627 97.2649 25.1547 96.4223 25.56C95.5796 25.9653 94.3689 26.168 92.7903 26.168C91.2009 26.168 89.9796 25.9653 89.1263 25.56C88.2836 25.1547 87.8623 24.5627 87.8623 23.784C87.8623 23.0693 88.2249 22.5093 88.9503 22.104C89.6756 21.6987 90.7369 21.4693 92.1343 21.416V19.976H86.2943V18.92H99.2703V19.976H93.4303V21.416ZM96.3583 23.784C96.3583 23.336 96.0436 22.9947 95.4143 22.76C94.7849 22.5147 93.9049 22.392 92.7743 22.392C91.6116 22.392 90.7209 22.5147 90.1023 22.76C89.4943 22.9947 89.1903 23.336 89.1903 23.784C89.1903 24.232 89.4943 24.5787 90.1023 24.824C90.7209 25.0587 91.6116 25.176 92.7743 25.176C93.9049 25.176 94.7849 25.0587 95.4143 24.824C96.0436 24.5787 96.3583 24.232 96.3583 23.784ZM111.189 11.848H112.517V22.36H111.189V16.872H108.309V15.8H111.189V11.848ZM108.501 20.2C107.701 19.912 107.002 19.4853 106.405 18.92C105.808 18.344 105.354 17.688 105.045 16.952C104.736 17.784 104.266 18.5093 103.637 19.128C103.008 19.7467 102.272 20.2107 101.429 20.52L100.741 19.496C101.274 19.304 101.76 19.048 102.197 18.728C102.645 18.3973 103.029 18.0293 103.349 17.624C103.669 17.208 103.914 16.76 104.085 16.28C104.266 15.8 104.357 15.304 104.357 14.792V14.072H101.157V13H108.821V14.072H105.669V14.776C105.669 15.2347 105.754 15.6933 105.925 16.152C106.096 16.6 106.33 17.0213 106.629 17.416C106.938 17.8 107.306 18.1467 107.733 18.456C108.16 18.7547 108.634 18.9947 109.157 19.176L108.501 20.2ZM112.917 25.864H103.333V21.432H104.661V24.792H112.917V25.864ZM126.868 26.184H125.556V11.832H126.868V26.184ZM122.66 13.384C122.66 14.4187 122.537 15.4213 122.292 16.392C122.046 17.352 121.652 18.264 121.108 19.128C120.574 19.9813 119.886 20.7813 119.044 21.528C118.201 22.264 117.182 22.9253 115.988 23.512L115.284 22.44C117.214 21.5227 118.67 20.3867 119.652 19.032C120.633 17.6773 121.193 16.1467 121.332 14.44H115.94V13.384H122.66ZM140.125 15.512V14.44H143.245V11.848H144.573V19.256H143.245V15.512H140.125ZM140.461 18.952C139.661 18.6747 138.962 18.264 138.365 17.72C137.767 17.176 137.314 16.536 137.005 15.8C136.695 16.6107 136.231 17.32 135.613 17.928C134.994 18.5253 134.263 18.9787 133.421 19.288L132.733 18.248C133.277 18.0667 133.767 17.8213 134.205 17.512C134.642 17.2027 135.015 16.8453 135.325 16.44C135.645 16.0347 135.89 15.592 136.061 15.112C136.231 14.632 136.317 14.136 136.317 13.624V12.296H137.613V13.624C137.613 14.0933 137.698 14.552 137.869 15C138.039 15.4373 138.279 15.848 138.589 16.232C138.909 16.6053 139.282 16.9413 139.709 17.24C140.146 17.528 140.621 17.7573 141.133 17.928L140.461 18.952ZM145.117 25.992H135.357V22.424H143.277V21.016H135.325V19.976H144.573V23.416H136.653V24.952H145.117V25.992ZM158.907 26.168H157.579V11.816H158.907V26.168ZM152.427 16.472C152.427 17.08 152.523 17.672 152.715 18.248C152.907 18.824 153.169 19.3627 153.499 19.864C153.841 20.3547 154.241 20.7973 154.699 21.192C155.169 21.5867 155.67 21.9013 156.203 22.136L155.467 23.16C154.635 22.7867 153.899 22.232 153.259 21.496C152.619 20.76 152.134 19.9173 151.803 18.968C151.483 19.9707 151.003 20.8613 150.363 21.64C149.723 22.408 148.987 22.9947 148.155 23.4L147.419 22.408C147.953 22.152 148.443 21.816 148.891 21.4C149.35 20.984 149.745 20.52 150.075 20.008C150.406 19.4853 150.662 18.9253 150.843 18.328C151.035 17.72 151.131 17.1013 151.131 16.472V15.368H147.803V14.312H151.115V12.088H152.443V14.312H155.707V15.368H152.427V16.472ZM176.548 26.216H175.236V11.832H176.548V26.216ZM169.892 15.656C169.892 16.3067 169.994 16.9573 170.196 17.608C170.399 18.248 170.671 18.8453 171.012 19.4C171.364 19.9547 171.775 20.4507 172.244 20.888C172.714 21.3147 173.21 21.6453 173.732 21.88L172.948 22.936C172.116 22.5307 171.375 21.9333 170.724 21.144C170.084 20.344 169.594 19.4267 169.252 18.392C168.922 19.4907 168.431 20.456 167.78 21.288C167.13 22.12 166.383 22.76 165.54 23.208L164.74 22.136C165.263 21.88 165.759 21.528 166.228 21.08C166.698 20.632 167.108 20.12 167.46 19.544C167.812 18.968 168.09 18.3493 168.292 17.688C168.495 17.016 168.596 16.3387 168.596 15.656V13.08H169.892V15.656ZM67.856 68.344H54.848V67.272H60.672V64.184H56.384V56.856H57.68V59.416H65.008V56.856H66.288V64.184H62V67.272H67.856V68.344ZM65.008 63.128V60.488H57.68V63.128H65.008ZM82.2228 64.488H69.2308V63.432H75.0708V62.024H70.9428V56.248H80.6228V57.272H72.2548V58.6H80.2388V59.592H72.2548V61H80.7028V62.024H76.3828V63.432H82.2228V64.488ZM75.7268 65.576C77.3268 65.576 78.5428 65.7733 79.3748 66.168C80.2174 66.552 80.6388 67.1173 80.6388 67.864C80.6388 68.632 80.2174 69.208 79.3748 69.592C78.5428 69.976 77.3268 70.168 75.7268 70.168C74.1268 70.168 72.9054 69.976 72.0628 69.592C71.2308 69.208 70.8148 68.632 70.8148 67.864C70.8148 67.1173 71.2308 66.552 72.0628 66.168C72.9054 65.7733 74.1268 65.576 75.7268 65.576ZM75.7268 69.176C76.8894 69.176 77.7801 69.0693 78.3988 68.856C79.0174 68.6427 79.3268 68.312 79.3268 67.864C79.3268 67.4373 79.0174 67.112 78.3988 66.888C77.7801 66.664 76.8894 66.552 75.7268 66.552C74.5641 66.552 73.6734 66.664 73.0548 66.888C72.4361 67.112 72.1268 67.4373 72.1268 67.864C72.1268 68.312 72.4361 68.6427 73.0548 68.856C73.6734 69.0693 74.5641 69.176 75.7268 69.176ZM97.3676 63.192V55.832H98.6796V63.192H97.3676ZM94.6476 59.544C94.6476 60.0133 94.5516 60.4453 94.3596 60.84C94.1783 61.224 93.9223 61.5547 93.5916 61.832C93.261 62.1093 92.8663 62.328 92.4076 62.488C91.9596 62.6373 91.469 62.712 90.9356 62.712C90.4023 62.712 89.9063 62.6373 89.4476 62.488C88.9996 62.328 88.6103 62.1093 88.2796 61.832C87.9596 61.5547 87.7036 61.224 87.5116 60.84C87.3303 60.4453 87.2396 60.0133 87.2396 59.544C87.2396 59.064 87.3303 58.632 87.5116 58.248C87.7036 57.8533 87.9596 57.5173 88.2796 57.24C88.6103 56.952 88.9996 56.7333 89.4476 56.584C89.9063 56.424 90.4023 56.344 90.9356 56.344C91.469 56.344 91.9596 56.424 92.4076 56.584C92.8663 56.7333 93.261 56.952 93.5916 57.24C93.9223 57.5173 94.1783 57.8533 94.3596 58.248C94.5516 58.632 94.6476 59.064 94.6476 59.544ZM88.5036 59.544C88.5036 59.8427 88.5623 60.1253 88.6796 60.392C88.8076 60.648 88.9783 60.872 89.1916 61.064C89.4156 61.2453 89.6716 61.3893 89.9596 61.496C90.2583 61.6027 90.5836 61.656 90.9356 61.656C91.2876 61.656 91.613 61.6027 91.9116 61.496C92.2103 61.3893 92.4663 61.2453 92.6796 61.064C92.893 60.872 93.0583 60.648 93.1756 60.392C93.3036 60.1253 93.3676 59.8427 93.3676 59.544C93.3676 59.2347 93.3036 58.952 93.1756 58.696C93.0583 58.4293 92.893 58.2053 92.6796 58.024C92.4663 57.832 92.2103 57.6827 91.9116 57.576C91.613 57.4693 91.2876 57.416 90.9356 57.416C90.5836 57.416 90.2583 57.4693 89.9596 57.576C89.6716 57.6827 89.4156 57.832 89.1916 58.024C88.9783 58.2053 88.8076 58.4293 88.6796 58.696C88.5623 58.952 88.5036 59.2347 88.5036 59.544ZM99.1596 69.992H89.4156V66.392H97.3836V64.936H89.3836V63.896H98.6796V67.368H90.7116V68.952H99.1596V69.992ZM114.566 61.288H112.438V66.376H111.126V55.848H112.438V60.184H114.566V61.288ZM101.894 63.976V56.872H103.19V59.272H107.254V56.872H108.534V63.976H101.894ZM103.19 60.296V62.92H107.254V60.296H103.19ZM113.078 68.792V69.864H103.51V65.368H104.822V68.792H113.078ZM129.999 62.744V70.184H128.687V55.832H129.999V61.656H132.303V62.744H129.999ZM126.287 57.368C126.287 58.392 126.165 59.384 125.919 60.344C125.674 61.304 125.29 62.216 124.767 63.08C124.245 63.944 123.573 64.7493 122.751 65.496C121.93 66.232 120.938 66.888 119.775 67.464L119.055 66.44C120.922 65.5013 122.341 64.3707 123.311 63.048C124.282 61.7147 124.842 60.184 124.991 58.456H119.727V57.368H126.287ZM143.854 55.848H145.182V64.392H143.854V60.632H141.022V59.56H143.854V55.848ZM141.166 63.848C140.366 63.56 139.667 63.1333 139.07 62.568C138.473 62.0027 138.019 61.352 137.71 60.616C137.401 61.448 136.931 62.184 136.302 62.824C135.673 63.464 134.937 63.944 134.094 64.264L133.406 63.224C133.939 63.032 134.425 62.7707 134.862 62.44C135.31 62.1093 135.694 61.736 136.014 61.32C136.334 60.8933 136.579 60.4347 136.75 59.944C136.931 59.4533 137.022 58.952 137.022 58.44V57.944H133.822V56.888H141.486V57.944H138.334V58.44C138.334 58.8987 138.419 59.352 138.59 59.8C138.761 60.248 138.995 60.6693 139.294 61.064C139.603 61.448 139.971 61.7947 140.398 62.104C140.825 62.4027 141.299 62.6427 141.822 62.824L141.166 63.848ZM140.446 64.84C141.182 64.84 141.843 64.8987 142.43 65.016C143.017 65.1333 143.518 65.3093 143.934 65.544C144.35 65.768 144.665 66.0453 144.878 66.376C145.102 66.7067 145.214 67.0853 145.214 67.512C145.214 67.9387 145.102 68.3173 144.878 68.648C144.665 68.9787 144.35 69.256 143.934 69.48C143.518 69.7147 143.017 69.8907 142.43 70.008C141.843 70.1253 141.182 70.184 140.446 70.184C139.71 70.184 139.043 70.1253 138.446 70.008C137.859 69.8907 137.358 69.7147 136.942 69.48C136.537 69.256 136.222 68.9787 135.998 68.648C135.774 68.3173 135.662 67.9387 135.662 67.512C135.662 67.0853 135.774 66.7067 135.998 66.376C136.222 66.0453 136.537 65.768 136.942 65.544C137.358 65.3093 137.859 65.1333 138.446 65.016C139.043 64.8987 139.71 64.84 140.446 64.84ZM140.446 69.16C141.545 69.16 142.398 69.016 143.006 68.728C143.614 68.44 143.918 68.0347 143.918 67.512C143.918 66.9893 143.614 66.584 143.006 66.296C142.398 65.9973 141.545 65.848 140.446 65.848C139.347 65.848 138.494 65.9973 137.886 66.296C137.278 66.584 136.974 66.9893 136.974 67.512C136.974 68.0347 137.278 68.44 137.886 68.728C138.494 69.016 139.347 69.16 140.446 69.16ZM159.533 63.608H158.221V55.832H159.533V63.608ZM155.901 63.384C155.069 63.1173 154.338 62.712 153.709 62.168C153.079 61.6133 152.599 60.9627 152.269 60.216C151.959 61.016 151.485 61.7147 150.845 62.312C150.215 62.8987 149.469 63.3413 148.605 63.64L147.933 62.6C148.477 62.4293 148.973 62.1947 149.421 61.896C149.869 61.5867 150.253 61.24 150.573 60.856C150.893 60.4613 151.138 60.0347 151.309 59.576C151.49 59.1173 151.581 58.6427 151.581 58.152V57.832H148.301V56.76H156.173V57.832H152.925V58.152C152.925 58.6107 153.01 59.064 153.181 59.512C153.362 59.9493 153.613 60.3547 153.933 60.728C154.253 61.0907 154.631 61.416 155.069 61.704C155.517 61.992 156.007 62.216 156.541 62.376L155.901 63.384ZM159.533 64.296V69.992H150.285V64.296H151.581V66.04H158.237V64.296H159.533ZM151.581 67.064V68.92H158.237V67.064H151.581ZM173.852 70.216H172.54V55.832H173.852V70.216ZM166.812 56.888C167.377 56.888 167.894 56.9733 168.364 57.144C168.833 57.304 169.233 57.5333 169.564 57.832C169.905 58.12 170.172 58.472 170.364 58.888C170.556 59.304 170.652 59.7627 170.652 60.264C170.652 60.7653 170.556 61.224 170.364 61.64C170.172 62.056 169.905 62.4133 169.564 62.712C169.233 63 168.833 63.2293 168.364 63.4C167.894 63.56 167.377 63.64 166.812 63.64C166.257 63.64 165.745 63.56 165.276 63.4C164.806 63.2293 164.401 63 164.06 62.712C163.718 62.4133 163.452 62.056 163.26 61.64C163.068 61.224 162.972 60.7653 162.972 60.264C162.972 59.7627 163.068 59.304 163.26 58.888C163.452 58.472 163.718 58.12 164.06 57.832C164.401 57.5333 164.806 57.304 165.276 57.144C165.745 56.9733 166.257 56.888 166.812 56.888ZM166.812 58.008C166.438 58.008 166.092 58.0613 165.772 58.168C165.462 58.2747 165.196 58.4293 164.972 58.632C164.748 58.8347 164.572 59.0747 164.444 59.352C164.316 59.6187 164.252 59.9227 164.252 60.264C164.252 60.5947 164.316 60.8987 164.444 61.176C164.572 61.4533 164.748 61.6933 164.972 61.896C165.196 62.088 165.462 62.2427 165.772 62.36C166.092 62.4667 166.438 62.52 166.812 62.52C167.185 62.52 167.526 62.4667 167.836 62.36C168.156 62.2427 168.428 62.088 168.652 61.896C168.876 61.6933 169.052 61.4533 169.18 61.176C169.308 60.8987 169.372 60.5947 169.372 60.264C169.372 59.9227 169.308 59.6187 169.18 59.352C169.052 59.0747 168.876 58.8347 168.652 58.632C168.428 58.4293 168.156 58.2747 167.836 58.168C167.526 58.0613 167.185 58.008 166.812 58.008ZM162.252 65.96C162.913 65.96 163.622 65.9547 164.38 65.944C165.137 65.9333 165.916 65.912 166.716 65.88C167.526 65.848 168.342 65.8 169.164 65.736C169.996 65.672 170.806 65.5813 171.596 65.464L171.708 66.44C170.897 66.5893 170.076 66.7067 169.244 66.792C168.422 66.8773 167.612 66.9413 166.812 66.984C166.022 67.016 165.254 67.0373 164.508 67.048C163.761 67.0587 163.062 67.064 162.412 67.064L162.252 65.96ZM186.724 59.544C185.754 61.88 183.69 63.5067 180.532 64.424L180.004 63.384C181.743 62.872 183.108 62.1573 184.1 61.24C185.103 60.3227 185.668 59.2347 185.796 57.976H180.74V56.92H187.22C187.22 57.1867 187.204 57.4533 187.172 57.72C187.151 57.976 187.114 58.2267 187.06 58.472H190.308V55.848H191.636V64.424H190.308V62.536H186.548V61.464H190.308V59.544H186.724ZM186.948 64.584C187.674 64.584 188.33 64.648 188.916 64.776C189.503 64.904 189.999 65.0853 190.404 65.32C190.82 65.5547 191.14 65.8427 191.364 66.184C191.588 66.5253 191.7 66.9147 191.7 67.352C191.7 67.7787 191.588 68.168 191.364 68.52C191.14 68.8613 190.82 69.1493 190.404 69.384C189.999 69.6187 189.503 69.8 188.916 69.928C188.33 70.056 187.674 70.12 186.948 70.12C186.223 70.12 185.567 70.056 184.98 69.928C184.394 69.8 183.892 69.6187 183.476 69.384C183.071 69.1493 182.756 68.8613 182.532 68.52C182.308 68.168 182.196 67.7787 182.196 67.352C182.196 66.9147 182.308 66.5253 182.532 66.184C182.756 65.8427 183.071 65.5547 183.476 65.32C183.892 65.0853 184.394 64.904 184.98 64.776C185.567 64.648 186.223 64.584 186.948 64.584ZM186.948 69.096C188.004 69.096 188.842 68.9413 189.46 68.632C190.09 68.3227 190.404 67.896 190.404 67.352C190.404 66.808 190.095 66.3867 189.476 66.088C188.858 65.7787 188.015 65.624 186.948 65.624C185.882 65.624 185.039 65.7787 184.42 66.088C183.802 66.3867 183.492 66.808 183.492 67.352C183.492 67.896 183.802 68.3227 184.42 68.632C185.05 68.9413 185.892 69.096 186.948 69.096ZM200.675 62.696C199.928 62.696 199.246 62.6213 198.627 62.472C198.019 62.3227 197.491 62.1147 197.043 61.848C196.606 61.5707 196.264 61.24 196.019 60.856C195.784 60.4613 195.667 60.024 195.667 59.544C195.667 59.064 195.784 58.632 196.019 58.248C196.264 57.864 196.606 57.5387 197.043 57.272C197.491 56.9947 198.019 56.7813 198.627 56.632C199.246 56.4827 199.928 56.408 200.675 56.408C201.422 56.408 202.104 56.4827 202.723 56.632C203.342 56.7813 203.87 56.9947 204.307 57.272C204.744 57.5387 205.086 57.864 205.331 58.248C205.576 58.632 205.699 59.064 205.699 59.544C205.699 60.024 205.576 60.4613 205.331 60.856C205.086 61.24 204.744 61.5707 204.307 61.848C203.87 62.1147 203.342 62.3227 202.723 62.472C202.104 62.6213 201.422 62.696 200.675 62.696ZM200.675 57.464C200.131 57.464 199.635 57.512 199.187 57.608C198.739 57.704 198.35 57.8427 198.019 58.024C197.699 58.2053 197.448 58.424 197.267 58.68C197.096 58.936 197.011 59.224 197.011 59.544C197.011 59.864 197.096 60.152 197.267 60.408C197.448 60.664 197.699 60.888 198.019 61.08C198.35 61.2613 198.739 61.4 199.187 61.496C199.635 61.592 200.131 61.64 200.675 61.64C201.219 61.64 201.715 61.592 202.163 61.496C202.622 61.4 203.011 61.2613 203.331 61.08C203.662 60.888 203.912 60.664 204.083 60.408C204.264 60.152 204.355 59.864 204.355 59.544C204.355 59.224 204.264 58.936 204.083 58.68C203.912 58.424 203.662 58.2053 203.331 58.024C203.011 57.8427 202.622 57.704 202.163 57.608C201.715 57.512 201.219 57.464 200.675 57.464ZM201.331 65.144V70.2H200.019V65.144H194.211V64.056H207.203V65.144H201.331ZM224.06 70.168H222.812V55.832H224.06V70.168ZM221.18 56.216V69.448H219.932V64.488H217.34V63.416H219.932V60.888H217.564C217.223 62.104 216.652 63.24 215.852 64.296C215.063 65.3413 213.985 66.2693 212.62 67.08L211.852 66.152C213.42 65.2133 214.588 64.1253 215.356 62.888C216.135 61.64 216.583 60.2533 216.7 58.728H212.492V57.656H217.996C217.996 58.3813 217.932 59.1067 217.804 59.832H219.932V56.216H221.18ZM237.403 61.096H239.499V62.168H237.403V64.36H236.091V55.848H237.403V58.024H239.499V59.112H237.403V61.096ZM234.027 60.088C234.027 60.5893 233.931 61.048 233.739 61.464C233.557 61.88 233.296 62.2373 232.955 62.536C232.624 62.8347 232.229 63.0693 231.771 63.24C231.323 63.4 230.827 63.48 230.283 63.48C229.739 63.48 229.237 63.4 228.779 63.24C228.32 63.0693 227.925 62.8347 227.595 62.536C227.264 62.2373 227.003 61.88 226.811 61.464C226.629 61.048 226.539 60.5893 226.539 60.088C226.539 59.5867 226.629 59.128 226.811 58.712C227.003 58.296 227.264 57.9387 227.595 57.64C227.925 57.3413 228.32 57.112 228.779 56.952C229.237 56.7813 229.739 56.696 230.283 56.696C230.827 56.696 231.323 56.7813 231.771 56.952C232.229 57.112 232.624 57.3413 232.955 57.64C233.296 57.9387 233.557 58.296 233.739 58.712C233.931 59.128 234.027 59.5867 234.027 60.088ZM227.819 60.088C227.819 60.4187 227.877 60.728 227.995 61.016C228.123 61.2933 228.293 61.5333 228.507 61.736C228.731 61.9387 228.992 62.0987 229.291 62.216C229.589 62.3227 229.92 62.376 230.283 62.376C230.635 62.376 230.96 62.3227 231.259 62.216C231.568 62.0987 231.829 61.9387 232.043 61.736C232.267 61.5333 232.437 61.2933 232.555 61.016C232.683 60.728 232.747 60.4187 232.747 60.088C232.747 59.7467 232.683 59.4373 232.555 59.16C232.437 58.872 232.267 58.632 232.043 58.44C231.829 58.2373 231.568 58.0827 231.259 57.976C230.96 57.8587 230.635 57.8 230.283 57.8C229.92 57.8 229.589 57.8587 229.291 57.976C228.992 58.0827 228.731 58.2373 228.507 58.44C228.293 58.632 228.123 58.872 227.995 59.16C227.877 59.4373 227.819 59.7467 227.819 60.088ZM237.403 65.032V70.184H236.091V66.104H228.075V65.032H237.403ZM254.42 55.848H255.748V66.36H254.42V60.872H251.54V59.8H254.42V55.848ZM251.732 64.2C250.932 63.912 250.233 63.4853 249.636 62.92C249.038 62.344 248.585 61.688 248.276 60.952C247.966 61.784 247.497 62.5093 246.868 63.128C246.238 63.7467 245.502 64.2107 244.66 64.52L243.972 63.496C244.505 63.304 244.99 63.048 245.428 62.728C245.876 62.3973 246.26 62.0293 246.58 61.624C246.9 61.208 247.145 60.76 247.316 60.28C247.497 59.8 247.588 59.304 247.588 58.792V58.072H244.388V57H252.052V58.072H248.9V58.776C248.9 59.2347 248.985 59.6933 249.156 60.152C249.326 60.6 249.561 61.0213 249.86 61.416C250.169 61.8 250.537 62.1467 250.964 62.456C251.39 62.7547 251.865 62.9947 252.388 63.176L251.732 64.2ZM256.148 69.864H246.564V65.432H247.892V68.792H256.148V69.864ZM270.13 64.664H268.818V62.008H266.018V60.952H268.818V59.032H266.018V57.96H268.818V55.848H270.13V64.664ZM266.034 63.656C265.597 63.7307 265.165 63.7947 264.738 63.848C264.322 63.8907 263.88 63.9227 263.41 63.944C262.941 63.9653 262.424 63.9813 261.858 63.992C261.304 64.0027 260.669 64.008 259.954 64.008H258.93V59.752H263.794V57.768H258.882V56.696H265.074V60.76H260.21V62.936C260.872 62.936 261.464 62.9307 261.986 62.92C262.509 62.9093 262.989 62.8933 263.426 62.872C263.874 62.84 264.296 62.8027 264.69 62.76C265.085 62.7173 265.49 62.664 265.906 62.6L266.034 63.656ZM270.13 65.432V70.2H268.818V66.504H260.53V65.432H270.13ZM66.592 92.216H65.28V77.832H66.592V92.216ZM59.024 78.936C59.5573 78.936 60.048 79.0533 60.496 79.288C60.944 79.5227 61.328 79.8587 61.648 80.296C61.968 80.7333 62.2187 81.2613 62.4 81.88C62.5813 82.488 62.672 83.176 62.672 83.944C62.672 84.712 62.5813 85.4053 62.4 86.024C62.2187 86.632 61.968 87.1547 61.648 87.592C61.328 88.0293 60.944 88.3653 60.496 88.6C60.048 88.8347 59.5573 88.952 59.024 88.952C58.4907 88.952 58 88.8347 57.552 88.6C57.104 88.3653 56.72 88.0293 56.4 87.592C56.08 87.1547 55.8293 86.632 55.648 86.024C55.4667 85.4053 55.376 84.712 55.376 83.944C55.376 83.176 55.4667 82.488 55.648 81.88C55.8293 81.2613 56.08 80.7333 56.4 80.296C56.72 79.8587 57.104 79.5227 57.552 79.288C58 79.0533 58.4907 78.936 59.024 78.936ZM59.024 80.12C58.672 80.12 58.3467 80.2107 58.048 80.392C57.76 80.5733 57.5093 80.8293 57.296 81.16C57.0827 81.4907 56.9173 81.896 56.8 82.376C56.6827 82.8453 56.624 83.368 56.624 83.944C56.624 84.5307 56.6827 85.0587 56.8 85.528C56.9173 85.9973 57.0827 86.4027 57.296 86.744C57.5093 87.0747 57.76 87.3307 58.048 87.512C58.3467 87.6933 58.672 87.784 59.024 87.784C59.376 87.784 59.696 87.6933 59.984 87.512C60.272 87.3307 60.5227 87.0747 60.736 86.744C60.9493 86.4027 61.1147 85.9973 61.232 85.528C61.3493 85.0587 61.408 84.5307 61.408 83.944C61.408 83.368 61.3493 82.8453 61.232 82.376C61.1147 81.896 60.9493 81.4907 60.736 81.16C60.5227 80.8293 60.272 80.5733 59.984 80.392C59.696 80.2107 59.376 80.12 59.024 80.12ZM72.7929 82.424C72.8675 81.8907 73.0169 81.416 73.2409 81C73.4649 80.584 73.7422 80.2373 74.0729 79.96C74.4142 79.672 74.8035 79.4533 75.2409 79.304C75.6782 79.1547 76.1475 79.08 76.6489 79.08C77.1609 79.08 77.6249 79.1547 78.0409 79.304C78.4675 79.4533 78.8355 79.6613 79.1449 79.928C79.4542 80.1947 79.6942 80.5147 79.8649 80.888C80.0355 81.2613 80.1209 81.672 80.1209 82.12C80.1209 82.888 79.9342 83.4853 79.5609 83.912C79.1982 84.328 78.6969 84.6427 78.0569 84.856C78.8249 85.048 79.4062 85.384 79.8009 85.864C80.1955 86.344 80.3929 86.952 80.3929 87.688C80.3929 88.2213 80.2862 88.7067 80.0729 89.144C79.8702 89.5813 79.5875 89.9547 79.2249 90.264C78.8729 90.5627 78.4515 90.7973 77.9609 90.968C77.4809 91.128 76.9689 91.208 76.4249 91.208C75.7955 91.208 75.2569 91.128 74.8089 90.968C74.3715 90.808 73.9982 90.5893 73.6889 90.312C73.3795 90.0347 73.1235 89.7093 72.9209 89.336C72.7289 88.952 72.5635 88.5467 72.4249 88.12L73.7369 87.576C73.7689 87.7467 73.8489 87.9867 73.9769 88.296C74.2222 88.808 74.5369 89.2133 74.9209 89.512C75.3049 89.8 75.8009 89.944 76.4089 89.944C76.8249 89.944 77.1875 89.88 77.4969 89.752C77.8169 89.6133 78.0782 89.4373 78.2809 89.224C78.4942 89.0107 78.6489 88.7707 78.7449 88.504C78.8515 88.2373 78.9049 87.976 78.9049 87.72C78.9049 87.4 78.8622 87.1067 78.7769 86.84C78.7022 86.5733 78.5529 86.344 78.3289 86.152C78.1049 85.96 77.7955 85.8107 77.4009 85.704C77.0062 85.5867 76.4942 85.528 75.8649 85.528V84.472C76.3769 84.4613 76.8089 84.4027 77.1609 84.296C77.5235 84.1893 77.8169 84.0453 78.0409 83.864C78.2649 83.672 78.4249 83.448 78.5209 83.192C78.6169 82.936 78.6649 82.6587 78.6649 82.36C78.6649 81.688 78.4675 81.1867 78.0729 80.856C77.6889 80.5253 77.1875 80.36 76.5689 80.36C76.2382 80.36 75.9289 80.4187 75.6409 80.536C75.3529 80.6533 75.1075 80.8187 74.9049 81.032C74.7022 81.2347 74.5422 81.4747 74.4249 81.752C74.3075 82.0293 74.2489 82.3333 74.2489 82.664L72.7929 82.424ZM86.8841 86.408C86.5321 86.408 86.2121 86.328 85.9241 86.168C85.6468 86.008 85.3855 85.8373 85.1401 85.656C84.8948 85.464 84.6548 85.288 84.4201 85.128C84.1961 84.968 83.9561 84.888 83.7001 84.888C83.4441 84.888 83.2041 84.9733 82.9801 85.144C82.7561 85.3147 82.5375 85.592 82.3241 85.976L81.5081 85.4C81.8388 84.824 82.1961 84.4133 82.5801 84.168C82.9641 83.9227 83.3535 83.8 83.7481 83.8C84.1001 83.8 84.4148 83.88 84.6921 84.04C84.9695 84.1893 85.2308 84.36 85.4761 84.552C85.7215 84.744 85.9561 84.92 86.1801 85.08C86.4148 85.2293 86.6601 85.304 86.9161 85.304C87.1721 85.304 87.4121 85.2187 87.6361 85.048C87.8601 84.8773 88.0735 84.6 88.2761 84.216L89.1081 84.808C88.7775 85.384 88.4201 85.7947 88.0361 86.04C87.6521 86.2853 87.2681 86.408 86.8841 86.408ZM92.4791 83.64C93.0018 83.5013 93.5618 83.432 94.1591 83.432C94.7778 83.432 95.3218 83.5227 95.7911 83.704C96.2711 83.8853 96.6711 84.136 96.9911 84.456C97.3111 84.776 97.5511 85.1547 97.7111 85.592C97.8818 86.0293 97.9671 86.504 97.9671 87.016C97.9671 87.6347 97.8551 88.2 97.6311 88.712C97.4178 89.224 97.1191 89.6613 96.7351 90.024C96.3511 90.376 95.8978 90.6533 95.3751 90.856C94.8631 91.048 94.3085 91.144 93.7111 91.144C93.0071 91.144 92.3671 91.0213 91.7911 90.776C91.2258 90.52 90.7618 90.2213 90.3991 89.88L91.1831 88.808C91.5351 89.1067 91.9351 89.352 92.3831 89.544C92.8311 89.736 93.2951 89.832 93.7751 89.832C94.1805 89.832 94.5538 89.7733 94.8951 89.656C95.2365 89.528 95.5298 89.3467 95.7751 89.112C96.0205 88.8773 96.2125 88.5893 96.3511 88.248C96.4898 87.9067 96.5591 87.5227 96.5591 87.096C96.5591 86.328 96.3245 85.7307 95.8551 85.304C95.3858 84.8773 94.7298 84.664 93.8871 84.664C93.5778 84.664 93.2631 84.7013 92.9431 84.776C92.6338 84.84 92.3085 84.9307 91.9671 85.048L91.0231 84.776L91.9831 79.224H97.5991V80.568H93.0071L92.4791 83.64ZM101.546 78.264V86.904H101.578L105.306 82.312H106.922L104.01 85.8L107.306 91H105.722L103.178 86.808L101.546 88.712V91H100.106V78.264H101.546ZM109.079 79.272L110.311 85.656C110.428 86.296 110.54 86.9307 110.647 87.56C110.764 88.1787 110.881 88.808 110.999 89.448H111.063C111.201 88.808 111.34 88.1787 111.479 87.56C111.617 86.9307 111.761 86.296 111.911 85.656L113.527 79.272H114.871L116.519 85.656C116.668 86.296 116.807 86.9307 116.935 87.56C117.073 88.1787 117.212 88.808 117.351 89.448H117.431C117.655 88.168 117.879 86.904 118.103 85.656L119.335 79.272H120.759L118.327 91H116.551L114.775 83.928C114.668 83.448 114.567 82.9947 114.471 82.568C114.385 82.1413 114.295 81.704 114.199 81.256H114.135C114.039 81.704 113.937 82.1413 113.831 82.568C113.735 82.9947 113.639 83.448 113.543 83.928L111.799 91H110.039L107.543 79.272H109.079ZM133.461 92.216H132.149V77.832H133.461V92.216ZM125.893 78.936C126.427 78.936 126.917 79.0533 127.365 79.288C127.813 79.5227 128.197 79.8587 128.517 80.296C128.837 80.7333 129.088 81.2613 129.269 81.88C129.451 82.488 129.541 83.176 129.541 83.944C129.541 84.712 129.451 85.4053 129.269 86.024C129.088 86.632 128.837 87.1547 128.517 87.592C128.197 88.0293 127.813 88.3653 127.365 88.6C126.917 88.8347 126.427 88.952 125.893 88.952C125.36 88.952 124.869 88.8347 124.421 88.6C123.973 88.3653 123.589 88.0293 123.269 87.592C122.949 87.1547 122.699 86.632 122.517 86.024C122.336 85.4053 122.245 84.712 122.245 83.944C122.245 83.176 122.336 82.488 122.517 81.88C122.699 81.2613 122.949 80.7333 123.269 80.296C123.589 79.8587 123.973 79.5227 124.421 79.288C124.869 79.0533 125.36 78.936 125.893 78.936ZM125.893 80.12C125.541 80.12 125.216 80.2107 124.917 80.392C124.629 80.5733 124.379 80.8293 124.165 81.16C123.952 81.4907 123.787 81.896 123.669 82.376C123.552 82.8453 123.493 83.368 123.493 83.944C123.493 84.5307 123.552 85.0587 123.669 85.528C123.787 85.9973 123.952 86.4027 124.165 86.744C124.379 87.0747 124.629 87.3307 124.917 87.512C125.216 87.6933 125.541 87.784 125.893 87.784C126.245 87.784 126.565 87.6933 126.853 87.512C127.141 87.3307 127.392 87.0747 127.605 86.744C127.819 86.4027 127.984 85.9973 128.101 85.528C128.219 85.0587 128.277 84.5307 128.277 83.944C128.277 83.368 128.219 82.8453 128.101 82.376C127.984 81.896 127.819 81.4907 127.605 81.16C127.392 80.8293 127.141 80.5733 126.853 80.392C126.565 80.2107 126.245 80.12 125.893 80.12ZM147.892 92.184H146.58V77.832H147.892V92.184ZM143.684 79.384C143.684 80.4187 143.561 81.4213 143.316 82.392C143.071 83.352 142.676 84.264 142.132 85.128C141.599 85.9813 140.911 86.7813 140.068 87.528C139.225 88.264 138.207 88.9253 137.012 89.512L136.308 88.44C138.239 87.5227 139.695 86.3867 140.676 85.032C141.657 83.6773 142.217 82.1467 142.356 80.44H136.964V79.384H143.684ZM166.141 92.168H164.893V84.76H163.213V91.464H161.997V78.152H163.213V83.688H164.893V77.832H166.141V92.168ZM155.405 87.336C155.672 87.3253 155.97 87.304 156.301 87.272C156.632 87.2293 156.984 87.1653 157.357 87.08L157.485 88.168C156.877 88.3067 156.349 88.3867 155.901 88.408C155.453 88.4293 155.08 88.44 154.781 88.44H154.205V79.64H157.277V80.712H155.405V87.336ZM159.085 87.352C159.416 87.3307 159.773 87.304 160.157 87.272C160.541 87.2293 160.941 87.1493 161.357 87.032L161.469 88.12C160.861 88.2693 160.312 88.36 159.821 88.392C159.341 88.424 158.893 88.44 158.477 88.44H157.885V79.64H161.053V80.712H159.085V87.352ZM169.836 83.544V78.504H179.484V83.544H169.836ZM171.116 79.56V82.488H178.188V79.56H171.116ZM181.18 86.232H175.42V89.128H174.108V86.232H168.14V85.176H181.18V86.232ZM179.724 90.792V91.864H169.804V87.768H171.116V90.792H179.724ZM194.763 92.184H193.515V77.832H194.763V92.184ZM191.915 78.152V91.48H190.667V84.488H188.859C188.827 85.192 188.731 85.8267 188.571 86.392C188.421 86.9467 188.213 87.4213 187.947 87.816C187.691 88.2107 187.381 88.5147 187.019 88.728C186.656 88.9307 186.256 89.032 185.819 89.032C185.349 89.032 184.923 88.9147 184.539 88.68C184.165 88.4453 183.845 88.1147 183.579 87.688C183.312 87.2507 183.104 86.7227 182.955 86.104C182.816 85.4853 182.747 84.7867 182.747 84.008C182.747 83.24 182.816 82.552 182.955 81.944C183.104 81.3253 183.312 80.8027 183.579 80.376C183.845 79.9387 184.165 79.608 184.539 79.384C184.923 79.1493 185.349 79.032 185.819 79.032C186.256 79.032 186.651 79.1333 187.003 79.336C187.355 79.5387 187.659 79.832 187.915 80.216C188.181 80.5893 188.395 81.048 188.555 81.592C188.715 82.136 188.816 82.744 188.859 83.416H190.667V78.152H191.915ZM185.819 87.816C186.395 87.816 186.848 87.48 187.179 86.808C187.509 86.136 187.675 85.2027 187.675 84.008C187.675 83.432 187.627 82.9147 187.531 82.456C187.445 81.9867 187.323 81.592 187.163 81.272C187.003 80.9413 186.805 80.6907 186.571 80.52C186.347 80.3387 186.096 80.248 185.819 80.248C185.243 80.248 184.784 80.5893 184.443 81.272C184.112 81.944 183.947 82.856 183.947 84.008C183.947 85.2027 184.112 86.136 184.443 86.808C184.784 87.48 185.243 87.816 185.819 87.816ZM200.275 80.648V79.592H203.843V77.848H205.155V79.592H208.739V80.648H200.275ZM213.491 83.672H211.363V88.6H210.051V77.848H211.363V82.568H213.491V83.672ZM207.939 84.104C207.939 84.5093 207.854 84.8773 207.683 85.208C207.523 85.5387 207.289 85.8213 206.979 86.056C206.681 86.28 206.318 86.456 205.891 86.584C205.475 86.712 205.011 86.776 204.499 86.776C203.987 86.776 203.523 86.712 203.107 86.584C202.691 86.456 202.329 86.28 202.019 86.056C201.721 85.8213 201.486 85.5387 201.315 85.208C201.155 84.8773 201.075 84.5093 201.075 84.104C201.075 83.6987 201.155 83.336 201.315 83.016C201.486 82.6853 201.721 82.408 202.019 82.184C202.329 81.9493 202.691 81.768 203.107 81.64C203.523 81.512 203.987 81.448 204.499 81.448C205.011 81.448 205.475 81.512 205.891 81.64C206.318 81.768 206.681 81.9493 206.979 82.184C207.289 82.408 207.523 82.6853 207.683 83.016C207.854 83.336 207.939 83.6987 207.939 84.104ZM202.323 84.104C202.323 84.616 202.515 85.0213 202.899 85.32C203.294 85.608 203.827 85.752 204.499 85.752C205.15 85.752 205.678 85.608 206.083 85.32C206.489 85.0213 206.691 84.616 206.691 84.104C206.691 83.592 206.489 83.192 206.083 82.904C205.678 82.616 205.15 82.472 204.499 82.472C203.827 82.472 203.294 82.616 202.899 82.904C202.515 83.192 202.323 83.592 202.323 84.104ZM212.003 90.792V91.864H202.435V87.752H203.747V90.792H212.003ZM225.122 77.848H226.45V88.36H225.122V82.872H222.242V81.8H225.122V77.848ZM222.434 86.2C221.634 85.912 220.935 85.4853 220.338 84.92C219.741 84.344 219.287 83.688 218.978 82.952C218.669 83.784 218.199 84.5093 217.57 85.128C216.941 85.7467 216.205 86.2107 215.362 86.52L214.674 85.496C215.207 85.304 215.693 85.048 216.13 84.728C216.578 84.3973 216.962 84.0293 217.282 83.624C217.602 83.208 217.847 82.76 218.018 82.28C218.199 81.8 218.29 81.304 218.29 80.792V80.072H215.09V79H222.754V80.072H219.602V80.776C219.602 81.2347 219.687 81.6933 219.858 82.152C220.029 82.6 220.263 83.0213 220.562 83.416C220.871 83.8 221.239 84.1467 221.666 84.456C222.093 84.7547 222.567 84.9947 223.09 85.176L222.434 86.2ZM226.85 91.864H217.266V87.432H218.594V90.792H226.85V91.864ZM233.995 82.792V78.056H235.291V79.416H242.267V78.056H243.563V82.792H233.995ZM235.291 80.408V81.784H242.267V80.408H235.291ZM239.419 86.424H243.595V89.624H235.163V91.016H244.027V92.024H233.883V88.664H242.299V87.416H233.835V86.424H238.107V85.016H232.267V83.96H245.259V85.016H239.419V86.424ZM258.458 85.544H257.146V77.848H258.458V85.544ZM250.746 78.52C251.29 78.52 251.791 78.6 252.25 78.76C252.708 78.92 253.103 79.144 253.434 79.432C253.775 79.72 254.036 80.0667 254.218 80.472C254.41 80.8773 254.506 81.3253 254.506 81.816C254.506 82.3067 254.41 82.76 254.218 83.176C254.036 83.5813 253.775 83.928 253.434 84.216C253.103 84.504 252.708 84.728 252.25 84.888C251.791 85.048 251.29 85.128 250.746 85.128C250.202 85.128 249.7 85.048 249.242 84.888C248.794 84.728 248.404 84.504 248.074 84.216C247.743 83.928 247.482 83.5813 247.29 83.176C247.108 82.76 247.018 82.3067 247.018 81.816C247.018 81.3253 247.108 80.8773 247.29 80.472C247.482 80.0667 247.743 79.72 248.074 79.432C248.404 79.144 248.794 78.92 249.242 78.76C249.7 78.6 250.202 78.52 250.746 78.52ZM250.746 79.608C250.394 79.608 250.063 79.6613 249.754 79.768C249.455 79.8747 249.199 80.0293 248.986 80.232C248.772 80.424 248.602 80.6587 248.474 80.936C248.356 81.2027 248.298 81.496 248.298 81.816C248.298 82.1467 248.356 82.4507 248.474 82.728C248.602 82.9947 248.772 83.2293 248.986 83.432C249.199 83.624 249.455 83.7733 249.754 83.88C250.063 83.9867 250.394 84.04 250.746 84.04C251.482 84.04 252.079 83.8373 252.538 83.432C252.996 83.0267 253.226 82.488 253.226 81.816C253.226 81.496 253.162 81.2027 253.034 80.936C252.916 80.6587 252.746 80.424 252.522 80.232C252.308 80.0293 252.047 79.8747 251.738 79.768C251.439 79.6613 251.108 79.608 250.746 79.608ZM250.506 88.008H257.162V86.248H258.458V91.992H249.21V86.248H250.506V88.008ZM257.162 90.936V89.032H250.506V90.936H257.162ZM274.104 84.936H261.064V83.88H270.712C270.915 82.984 271.032 82.2 271.064 81.528C271.107 80.8453 271.128 80.2213 271.128 79.656H262.728V78.6H272.424V79.656C272.424 80.2213 272.408 80.84 272.376 81.512C272.344 82.184 272.232 82.9733 272.04 83.88H274.104V84.936ZM272.472 86.888V91.992H262.68V86.888H272.472ZM271.176 90.936V87.944H263.96V90.936H271.176ZM66.592 114.216H65.28V99.832H66.592V114.216ZM59.024 100.936C59.5573 100.936 60.048 101.053 60.496 101.288C60.944 101.523 61.328 101.859 61.648 102.296C61.968 102.733 62.2187 103.261 62.4 103.88C62.5813 104.488 62.672 105.176 62.672 105.944C62.672 106.712 62.5813 107.405 62.4 108.024C62.2187 108.632 61.968 109.155 61.648 109.592C61.328 110.029 60.944 110.365 60.496 110.6C60.048 110.835 59.5573 110.952 59.024 110.952C58.4907 110.952 58 110.835 57.552 110.6C57.104 110.365 56.72 110.029 56.4 109.592C56.08 109.155 55.8293 108.632 55.648 108.024C55.4667 107.405 55.376 106.712 55.376 105.944C55.376 105.176 55.4667 104.488 55.648 103.88C55.8293 103.261 56.08 102.733 56.4 102.296C56.72 101.859 57.104 101.523 57.552 101.288C58 101.053 58.4907 100.936 59.024 100.936ZM59.024 102.12C58.672 102.12 58.3467 102.211 58.048 102.392C57.76 102.573 57.5093 102.829 57.296 103.16C57.0827 103.491 56.9173 103.896 56.8 104.376C56.6827 104.845 56.624 105.368 56.624 105.944C56.624 106.531 56.6827 107.059 56.8 107.528C56.9173 107.997 57.0827 108.403 57.296 108.744C57.5093 109.075 57.76 109.331 58.048 109.512C58.3467 109.693 58.672 109.784 59.024 109.784C59.376 109.784 59.696 109.693 59.984 109.512C60.272 109.331 60.5227 109.075 60.736 108.744C60.9493 108.403 61.1147 107.997 61.232 107.528C61.3493 107.059 61.408 106.531 61.408 105.944C61.408 105.368 61.3493 104.845 61.232 104.376C61.1147 103.896 60.9493 103.491 60.736 103.16C60.5227 102.829 60.272 102.573 59.984 102.392C59.696 102.211 59.376 102.12 59.024 102.12ZM85.7689 104.008H83.6409V107.256H82.3289V99.848H83.6409V102.92H85.7689V104.008ZM73.0969 106.696V100.424H74.3929V102.488H78.4569V100.424H79.7369V106.696H73.0969ZM74.3929 103.496V105.64H78.4569V103.496H74.3929ZM84.1689 112.984V114.024H74.5689V110.44H82.3449V108.968H74.5209V107.928H83.6409V111.416H75.8489V112.984H84.1689ZM94.6796 108.232V100.12H95.9276V103.688H97.7516V99.848H99.0156V108.696H97.7516V104.76H95.9276V108.232H94.6796ZM93.3836 107.576C92.7116 107.299 92.1356 106.92 91.6556 106.44C91.1756 105.949 90.8076 105.4 90.5516 104.792C90.2956 105.464 89.917 106.088 89.4156 106.664C88.925 107.229 88.3276 107.667 87.6236 107.976L86.9196 106.952C87.389 106.749 87.805 106.488 88.1676 106.168C88.541 105.848 88.8556 105.496 89.1116 105.112C89.3676 104.717 89.565 104.312 89.7036 103.896C89.8423 103.469 89.9116 103.059 89.9116 102.664V100.728H91.1756V102.664C91.1756 103.059 91.2396 103.453 91.3676 103.848C91.5063 104.232 91.6983 104.6 91.9436 104.952C92.189 105.293 92.493 105.608 92.8556 105.896C93.2183 106.173 93.629 106.397 94.0876 106.568L93.3836 107.576ZM94.2796 109.016C95.0156 109.016 95.677 109.075 96.2636 109.192C96.861 109.309 97.3676 109.48 97.7836 109.704C98.1996 109.917 98.5196 110.184 98.7436 110.504C98.9676 110.824 99.0796 111.187 99.0796 111.592C99.0796 111.997 98.9676 112.36 98.7436 112.68C98.5196 113 98.1996 113.267 97.7836 113.48C97.3676 113.704 96.861 113.875 96.2636 113.992C95.677 114.109 95.0156 114.168 94.2796 114.168C93.5436 114.168 92.877 114.109 92.2796 113.992C91.693 113.875 91.1916 113.704 90.7756 113.48C90.3703 113.267 90.0556 113 89.8316 112.68C89.6076 112.36 89.4956 111.997 89.4956 111.592C89.4956 111.187 89.6076 110.824 89.8316 110.504C90.0556 110.184 90.3703 109.917 90.7756 109.704C91.1916 109.48 91.693 109.309 92.2796 109.192C92.877 109.075 93.5436 109.016 94.2796 109.016ZM94.2796 113.16C95.3783 113.16 96.237 113.027 96.8556 112.76C97.4743 112.493 97.7836 112.104 97.7836 111.592C97.7836 111.08 97.4743 110.696 96.8556 110.44C96.237 110.173 95.3783 110.04 94.2796 110.04C93.181 110.04 92.3223 110.173 91.7036 110.44C91.0956 110.696 90.7916 111.08 90.7916 111.592C90.7916 112.104 91.0956 112.493 91.7036 112.76C92.3223 113.027 93.181 113.16 94.2796 113.16ZM101.35 102.36V101.304H104.918V99.688H106.23V101.304H109.814V102.36H101.35ZM112.438 104.584V108.168H111.126V99.832H112.438V103.48H114.566V104.584H112.438ZM109.014 105.544C109.014 105.928 108.929 106.275 108.758 106.584C108.598 106.893 108.364 107.16 108.054 107.384C107.756 107.597 107.393 107.763 106.966 107.88C106.55 107.997 106.086 108.056 105.574 108.056C105.062 108.056 104.593 107.997 104.166 107.88C103.75 107.763 103.393 107.597 103.094 107.384C102.796 107.16 102.561 106.893 102.39 106.584C102.23 106.275 102.15 105.928 102.15 105.544C102.15 105.16 102.23 104.819 102.39 104.52C102.561 104.211 102.796 103.949 103.094 103.736C103.393 103.512 103.75 103.341 104.166 103.224C104.593 103.107 105.062 103.048 105.574 103.048C106.086 103.048 106.55 103.107 106.966 103.224C107.393 103.341 107.756 103.512 108.054 103.736C108.364 103.949 108.598 104.211 108.758 104.52C108.929 104.819 109.014 105.16 109.014 105.544ZM103.398 105.544C103.398 106.024 103.59 106.397 103.974 106.664C104.369 106.931 104.902 107.064 105.574 107.064C106.246 107.064 106.78 106.931 107.174 106.664C107.569 106.397 107.766 106.024 107.766 105.544C107.766 105.064 107.569 104.691 107.174 104.424C106.78 104.157 106.246 104.024 105.574 104.024C104.902 104.024 104.369 104.157 103.974 104.424C103.59 104.691 103.398 105.064 103.398 105.544ZM112.438 108.808V113.992H103.414V108.808H104.71V110.328H111.142V108.808H112.438ZM104.71 111.352V112.936H111.142V111.352H104.71ZM127.461 114.168H126.149V99.832H127.461V114.168ZM117.909 109.352C119.008 109.352 120.112 109.304 121.221 109.208C122.33 109.101 123.482 108.925 124.677 108.68L124.821 109.8C123.562 110.056 122.362 110.232 121.221 110.328C120.08 110.424 118.933 110.472 117.781 110.472H116.597V101.224H117.909V109.352ZM141.14 106.584V114.216H139.828V99.832H141.14V105.496H143.508V106.584H141.14ZM132.02 109.512C132.66 109.512 133.257 109.507 133.812 109.496C134.377 109.475 134.916 109.448 135.428 109.416C135.951 109.384 136.463 109.336 136.964 109.272C137.465 109.208 137.972 109.128 138.484 109.032L138.628 110.12C138.084 110.227 137.551 110.317 137.028 110.392C136.505 110.456 135.972 110.509 135.428 110.552C134.884 110.584 134.319 110.605 133.732 110.616C133.145 110.627 132.516 110.632 131.844 110.632H130.708V101.208H137.38V102.296H132.02V109.512ZM145.779 111.72V113.224H144.323V111.72H145.779ZM65.888 128.584V136.216H64.576V121.832H65.888V127.496H68.256V128.584H65.888ZM56.768 131.512C57.408 131.512 58.0053 131.507 58.56 131.496C59.1253 131.475 59.664 131.448 60.176 131.416C60.6987 131.384 61.2107 131.336 61.712 131.272C62.2133 131.208 62.72 131.128 63.232 131.032L63.376 132.12C62.832 132.227 62.2987 132.317 61.776 132.392C61.2533 132.456 60.72 132.509 60.176 132.552C59.632 132.584 59.0667 132.605 58.48 132.616C57.8933 132.627 57.264 132.632 56.592 132.632H55.456V123.208H62.128V124.296H56.768V131.512ZM70.8788 123.336V122.312H80.5908V125.88H72.2068V127.448H80.8948V128.472H70.9108V124.904H79.2948V123.336H70.8788ZM82.2548 130.856H69.2308V129.784H82.2548V130.856ZM80.8948 134.792V135.864H70.9428V131.96H72.2548V134.792H80.8948ZM99.0956 136.168H97.8476V121.832H99.0956V136.168ZM96.2156 122.216V135.448H94.9676V130.488H92.3756V129.416H94.9676V126.888H92.5996C92.2583 128.104 91.6876 129.24 90.8876 130.296C90.0983 131.341 89.021 132.269 87.6556 133.08L86.8876 132.152C88.4556 131.213 89.6236 130.125 90.3916 128.888C91.1703 127.64 91.6183 126.253 91.7356 124.728H87.5276V123.656H93.0316C93.0316 124.381 92.9676 125.107 92.8396 125.832H94.9676V122.216H96.2156ZM112.438 127.096H114.534V128.168H112.438V130.36H111.126V121.848H112.438V124.024H114.534V125.112H112.438V127.096ZM109.062 126.088C109.062 126.589 108.966 127.048 108.774 127.464C108.593 127.88 108.332 128.237 107.99 128.536C107.66 128.835 107.265 129.069 106.806 129.24C106.358 129.4 105.862 129.48 105.318 129.48C104.774 129.48 104.273 129.4 103.814 129.24C103.356 129.069 102.961 128.835 102.63 128.536C102.3 128.237 102.038 127.88 101.846 127.464C101.665 127.048 101.574 126.589 101.574 126.088C101.574 125.587 101.665 125.128 101.846 124.712C102.038 124.296 102.3 123.939 102.63 123.64C102.961 123.341 103.356 123.112 103.814 122.952C104.273 122.781 104.774 122.696 105.318 122.696C105.862 122.696 106.358 122.781 106.806 122.952C107.265 123.112 107.66 123.341 107.99 123.64C108.332 123.939 108.593 124.296 108.774 124.712C108.966 125.128 109.062 125.587 109.062 126.088ZM102.854 126.088C102.854 126.419 102.913 126.728 103.03 127.016C103.158 127.293 103.329 127.533 103.542 127.736C103.766 127.939 104.028 128.099 104.326 128.216C104.625 128.323 104.956 128.376 105.318 128.376C105.67 128.376 105.996 128.323 106.294 128.216C106.604 128.099 106.865 127.939 107.078 127.736C107.302 127.533 107.473 127.293 107.59 127.016C107.718 126.728 107.782 126.419 107.782 126.088C107.782 125.747 107.718 125.437 107.59 125.16C107.473 124.872 107.302 124.632 107.078 124.44C106.865 124.237 106.604 124.083 106.294 123.976C105.996 123.859 105.67 123.8 105.318 123.8C104.956 123.8 104.625 123.859 104.326 123.976C104.028 124.083 103.766 124.237 103.542 124.44C103.329 124.632 103.158 124.872 103.03 125.16C102.913 125.437 102.854 125.747 102.854 126.088ZM112.438 131.032V136.184H111.126V132.104H103.11V131.032H112.438ZM129.455 121.848H130.783V132.36H129.455V126.872H126.575V125.8H129.455V121.848ZM126.767 130.2C125.967 129.912 125.269 129.485 124.671 128.92C124.074 128.344 123.621 127.688 123.311 126.952C123.002 127.784 122.533 128.509 121.903 129.128C121.274 129.747 120.538 130.211 119.695 130.52L119.007 129.496C119.541 129.304 120.026 129.048 120.463 128.728C120.911 128.397 121.295 128.029 121.615 127.624C121.935 127.208 122.181 126.76 122.351 126.28C122.533 125.8 122.623 125.304 122.623 124.792V124.072H119.423V123H127.087V124.072H123.935V124.776C123.935 125.235 124.021 125.693 124.191 126.152C124.362 126.6 124.597 127.021 124.895 127.416C125.205 127.8 125.573 128.147 125.999 128.456C126.426 128.755 126.901 128.995 127.423 129.176L126.767 130.2ZM131.183 135.864H121.599V131.432H122.927V134.792H131.183V135.864ZM145.166 130.664H143.854V128.008H141.054V126.952H143.854V125.032H141.054V123.96H143.854V121.848H145.166V130.664ZM141.07 129.656C140.633 129.731 140.201 129.795 139.774 129.848C139.358 129.891 138.915 129.923 138.446 129.944C137.977 129.965 137.459 129.981 136.894 129.992C136.339 130.003 135.705 130.008 134.99 130.008H133.966V125.752H138.83V123.768H133.918V122.696H140.11V126.76H135.246V128.936C135.907 128.936 136.499 128.931 137.022 128.92C137.545 128.909 138.025 128.893 138.462 128.872C138.91 128.84 139.331 128.803 139.726 128.76C140.121 128.717 140.526 128.664 140.942 128.6L141.07 129.656ZM145.166 131.432V136.2H143.854V132.504H135.566V131.432H145.166ZM154.237 127.048C152.658 127.048 151.421 126.84 150.525 126.424C149.639 125.997 149.197 125.379 149.197 124.568C149.197 123.757 149.639 123.139 150.525 122.712C151.421 122.285 152.658 122.072 154.237 122.072C155.815 122.072 157.047 122.285 157.933 122.712C158.829 123.139 159.277 123.757 159.277 124.568C159.277 125.379 158.829 125.997 157.933 126.424C157.047 126.84 155.815 127.048 154.237 127.048ZM154.237 123.064C153.042 123.064 152.125 123.197 151.485 123.464C150.855 123.72 150.541 124.088 150.541 124.568C150.541 125.048 150.855 125.421 151.485 125.688C152.125 125.944 153.042 126.072 154.237 126.072C155.431 126.072 156.343 125.944 156.973 125.688C157.613 125.421 157.933 125.048 157.933 124.568C157.933 124.088 157.613 123.72 156.973 123.464C156.343 123.197 155.431 123.064 154.237 123.064ZM160.733 129.08H147.741V128.024H160.733V129.08ZM159.501 135V136.024H149.357V132.584H157.773V131.304H149.309V130.312H159.069V133.544H150.637V135H159.501ZM176.454 128.744V136.184H175.142V121.848H176.454V127.656H178.822V128.744H176.454ZM170.23 125.656C170.23 126.285 170.326 126.915 170.518 127.544C170.71 128.163 170.971 128.744 171.302 129.288C171.632 129.832 172.016 130.323 172.454 130.76C172.902 131.197 173.376 131.544 173.878 131.8L173.062 132.84C172.678 132.637 172.31 132.387 171.958 132.088C171.606 131.779 171.28 131.432 170.982 131.048C170.694 130.664 170.427 130.248 170.182 129.8C169.947 129.341 169.75 128.867 169.59 128.376C169.28 129.443 168.811 130.392 168.182 131.224C167.552 132.045 166.832 132.68 166.022 133.128L165.238 132.072C165.75 131.805 166.23 131.443 166.678 130.984C167.136 130.525 167.531 130.013 167.862 129.448C168.192 128.872 168.454 128.259 168.646 127.608C168.838 126.957 168.934 126.307 168.934 125.656V123.08H170.23V125.656ZM192.788 129.992H179.796V128.936H183.012V126.92C181.839 126.451 181.252 125.731 181.252 124.76C181.252 124.344 181.37 123.971 181.604 123.64C181.839 123.309 182.175 123.032 182.612 122.808C183.05 122.573 183.578 122.397 184.196 122.28C184.815 122.152 185.514 122.088 186.292 122.088C187.071 122.088 187.77 122.152 188.388 122.28C189.018 122.397 189.546 122.573 189.972 122.808C190.41 123.032 190.746 123.309 190.98 123.64C191.215 123.971 191.332 124.344 191.332 124.76C191.332 125.24 191.178 125.661 190.868 126.024C190.57 126.387 190.143 126.68 189.588 126.904V128.936H192.788V129.992ZM182.596 124.76C182.596 125.272 182.922 125.677 183.572 125.976C184.223 126.264 185.13 126.408 186.292 126.408C187.455 126.408 188.362 126.264 189.012 125.976C189.663 125.677 189.988 125.272 189.988 124.76C189.988 124.237 189.663 123.832 189.012 123.544C188.362 123.256 187.455 123.112 186.292 123.112C185.13 123.112 184.223 123.256 183.572 123.544C182.922 123.832 182.596 124.237 182.596 124.76ZM188.292 128.936V127.256C188.015 127.309 187.706 127.352 187.364 127.384C187.034 127.405 186.676 127.416 186.292 127.416C185.93 127.416 185.583 127.405 185.252 127.384C184.922 127.352 184.607 127.309 184.308 127.256V128.936H188.292ZM186.292 131.064C187.839 131.064 189.044 131.288 189.908 131.736C190.772 132.173 191.204 132.803 191.204 133.624C191.204 134.445 190.772 135.075 189.908 135.512C189.044 135.949 187.839 136.168 186.292 136.168C184.756 136.168 183.551 135.949 182.676 135.512C181.812 135.075 181.38 134.445 181.38 133.624C181.38 132.803 181.812 132.173 182.676 131.736C183.551 131.288 184.756 131.064 186.292 131.064ZM186.292 135.16C187.423 135.16 188.303 135.027 188.932 134.76C189.562 134.493 189.876 134.115 189.876 133.624C189.876 133.133 189.562 132.755 188.932 132.488C188.303 132.221 187.423 132.088 186.292 132.088C185.162 132.088 184.282 132.221 183.652 132.488C183.023 132.755 182.708 133.133 182.708 133.624C182.708 134.115 183.023 134.493 183.652 134.76C184.282 135.027 185.162 135.16 186.292 135.16ZM205.267 128.84V136.184H203.955V121.848H205.267V127.736H207.619V128.84H205.267ZM202.595 124.136V125.192H194.131V124.136H197.747V122.008H199.059V124.136H202.595ZM198.419 126.376C198.931 126.376 199.4 126.461 199.827 126.632C200.254 126.792 200.622 127.021 200.931 127.32C201.251 127.608 201.496 127.955 201.667 128.36C201.838 128.765 201.923 129.208 201.923 129.688C201.923 130.179 201.838 130.627 201.667 131.032C201.496 131.437 201.251 131.784 200.931 132.072C200.622 132.36 200.254 132.584 199.827 132.744C199.4 132.904 198.931 132.984 198.419 132.984C197.918 132.984 197.454 132.904 197.027 132.744C196.6 132.584 196.232 132.36 195.923 132.072C195.614 131.784 195.374 131.437 195.203 131.032C195.032 130.627 194.947 130.179 194.947 129.688C194.947 129.208 195.032 128.765 195.203 128.36C195.374 127.955 195.614 127.608 195.923 127.32C196.232 127.021 196.6 126.792 197.027 126.632C197.454 126.461 197.918 126.376 198.419 126.376ZM198.419 131.896C198.75 131.896 199.054 131.843 199.331 131.736C199.608 131.619 199.843 131.464 200.035 131.272C200.238 131.08 200.392 130.851 200.499 130.584C200.616 130.307 200.675 130.008 200.675 129.688C200.675 129.368 200.616 129.075 200.499 128.808C200.392 128.531 200.238 128.296 200.035 128.104C199.843 127.901 199.608 127.747 199.331 127.64C199.054 127.523 198.75 127.464 198.419 127.464C198.099 127.464 197.8 127.523 197.523 127.64C197.246 127.747 197.006 127.901 196.803 128.104C196.611 128.296 196.456 128.531 196.339 128.808C196.232 129.075 196.179 129.368 196.179 129.688C196.179 130.008 196.232 130.307 196.339 130.584C196.456 130.851 196.611 131.08 196.803 131.272C197.006 131.464 197.246 131.619 197.523 131.736C197.8 131.843 198.099 131.896 198.419 131.896ZM209.986 124.344V123.272H220.05V124.696C220.05 125.144 220.045 125.608 220.034 126.088C220.034 126.557 220.018 127.064 219.986 127.608C219.954 128.141 219.901 128.717 219.826 129.336C219.751 129.944 219.645 130.611 219.506 131.336L218.194 131.192C218.471 129.827 218.631 128.616 218.674 127.56C218.717 126.504 218.738 125.549 218.738 124.696V124.344H209.986ZM221.602 134.168H208.626V133.096H213.666V127.96H214.978V133.096H221.602V134.168ZM238.459 136.168H237.211V121.832H238.459V136.168ZM235.579 122.216V135.448H234.331V130.488H231.739V129.416H234.331V126.888H231.963C231.621 128.104 231.051 129.24 230.251 130.296C229.461 131.341 228.384 132.269 227.019 133.08L226.251 132.152C227.819 131.213 228.987 130.125 229.755 128.888C230.533 127.64 230.981 126.253 231.099 124.728H226.891V123.656H232.395C232.395 124.381 232.331 125.107 232.203 125.832H234.331V122.216H235.579ZM252.41 136.216H251.098V121.832H252.41V136.216ZM245.754 125.656C245.754 126.307 245.855 126.957 246.058 127.608C246.26 128.248 246.532 128.845 246.874 129.4C247.226 129.955 247.636 130.451 248.106 130.888C248.575 131.315 249.071 131.645 249.594 131.88L248.81 132.936C247.978 132.531 247.236 131.933 246.586 131.144C245.946 130.344 245.455 129.427 245.114 128.392C244.783 129.491 244.292 130.456 243.642 131.288C242.991 132.12 242.244 132.76 241.402 133.208L240.602 132.136C241.124 131.88 241.62 131.528 242.09 131.08C242.559 130.632 242.97 130.12 243.322 129.544C243.674 128.968 243.951 128.349 244.154 127.688C244.356 127.016 244.458 126.339 244.458 125.656V123.08H245.754V125.656ZM266.104 128.584V136.216H264.792V121.832H266.104V127.496H268.472V128.584H266.104ZM256.984 131.512C257.624 131.512 258.222 131.507 258.776 131.496C259.342 131.475 259.88 131.448 260.392 131.416C260.915 131.384 261.427 131.336 261.928 131.272C262.43 131.208 262.936 131.128 263.448 131.032L263.592 132.12C263.048 132.227 262.515 132.317 261.992 132.392C261.47 132.456 260.936 132.509 260.392 132.552C259.848 132.584 259.283 132.605 258.696 132.616C258.11 132.627 257.48 132.632 256.808 132.632H255.672V123.208H262.344V124.296H256.984V131.512ZM55.504 151.784V145.096H62.048V146.36H65.344V143.848H66.672V154.312H65.344V150.504H62.048V151.784H55.504ZM56.8 146.136V150.744H60.768V146.136H56.8ZM62.048 149.432H65.344V147.432H62.048V149.432ZM67.008 157.864H57.44V153.384H58.752V156.792H67.008V157.864ZM84.3289 158.216H83.0169V152.648H79.4329C79.1342 153.384 78.7182 153.955 78.1849 154.36C77.6622 154.755 77.0489 154.952 76.3449 154.952C75.8222 154.952 75.3422 154.835 74.9049 154.6C74.4675 154.365 74.0889 154.029 73.7689 153.592C73.4489 153.155 73.1982 152.632 73.0169 152.024C72.8462 151.405 72.7609 150.712 72.7609 149.944C72.7609 149.176 72.8462 148.488 73.0169 147.88C73.1982 147.261 73.4489 146.733 73.7689 146.296C74.0889 145.859 74.4675 145.523 74.9049 145.288C75.3422 145.053 75.8222 144.936 76.3449 144.936C77.0169 144.936 77.6035 145.123 78.1049 145.496C78.6169 145.859 79.0275 146.376 79.3369 147.048H83.0169V143.832H84.3289V158.216ZM76.3449 153.784C76.6862 153.784 76.9955 153.693 77.2729 153.512C77.5609 153.331 77.8062 153.075 78.0089 152.744C78.2222 152.403 78.3875 151.997 78.5049 151.528C78.6222 151.059 78.6809 150.531 78.6809 149.944C78.6809 149.368 78.6222 148.845 78.5049 148.376C78.3875 147.896 78.2222 147.491 78.0089 147.16C77.8062 146.829 77.5609 146.573 77.2729 146.392C76.9955 146.211 76.6862 146.12 76.3449 146.12C76.0035 146.12 75.6889 146.211 75.4009 146.392C75.1129 146.573 74.8622 146.829 74.6489 147.16C74.4462 147.491 74.2862 147.896 74.1689 148.376C74.0622 148.845 74.0089 149.368 74.0089 149.944C74.0089 150.531 74.0622 151.059 74.1689 151.528C74.2862 151.997 74.4462 152.403 74.6489 152.744C74.8622 153.075 75.1129 153.331 75.4009 153.512C75.6889 153.693 76.0035 153.784 76.3449 153.784ZM83.0169 148.12H79.7049C79.7689 148.397 79.8169 148.691 79.8489 149C79.8915 149.299 79.9129 149.613 79.9129 149.944C79.9129 150.616 79.8595 151.16 79.7529 151.576H83.0169V148.12ZM93.3676 150.664C92.621 150.664 91.9383 150.595 91.3196 150.456C90.7116 150.307 90.1836 150.099 89.7356 149.832C89.2983 149.555 88.957 149.224 88.7116 148.84C88.477 148.445 88.3596 148.008 88.3596 147.528C88.3596 147.048 88.477 146.616 88.7116 146.232C88.957 145.848 89.2983 145.523 89.7356 145.256C90.1836 144.979 90.7116 144.771 91.3196 144.632C91.9383 144.483 92.621 144.408 93.3676 144.408C94.1143 144.408 94.797 144.483 95.4156 144.632C96.0343 144.771 96.5623 144.979 96.9996 145.256C97.437 145.523 97.7783 145.848 98.0236 146.232C98.269 146.616 98.3916 147.048 98.3916 147.528C98.3916 148.008 98.269 148.445 98.0236 148.84C97.7783 149.224 97.437 149.555 96.9996 149.832C96.5623 150.099 96.0343 150.307 95.4156 150.456C94.797 150.595 94.1143 150.664 93.3676 150.664ZM93.3676 145.464C92.8236 145.464 92.3276 145.512 91.8796 145.608C91.4316 145.704 91.0423 145.843 90.7116 146.024C90.3916 146.205 90.141 146.424 89.9596 146.68C89.789 146.925 89.7036 147.208 89.7036 147.528C89.7036 147.848 89.789 148.136 89.9596 148.392C90.141 148.648 90.3916 148.867 90.7116 149.048C91.0423 149.229 91.4316 149.368 91.8796 149.464C92.3276 149.56 92.8236 149.608 93.3676 149.608C93.9116 149.608 94.4076 149.56 94.8556 149.464C95.3143 149.368 95.7036 149.229 96.0236 149.048C96.3543 148.867 96.605 148.648 96.7756 148.392C96.957 148.136 97.0476 147.848 97.0476 147.528C97.0476 147.208 96.957 146.925 96.7756 146.68C96.605 146.424 96.3543 146.205 96.0236 146.024C95.7036 145.843 95.3143 145.704 94.8556 145.608C94.4076 145.512 93.9116 145.464 93.3676 145.464ZM96.5036 153.08V158.184H95.1756V153.08H91.5756V158.184H90.2476V153.08H86.9036V152.008H99.8956V153.08H96.5036ZM115.057 143.848H116.385V154.36H115.057V148.872H112.177V147.8H115.057V143.848ZM112.369 152.2C111.569 151.912 110.87 151.485 110.273 150.92C109.675 150.344 109.222 149.688 108.913 148.952C108.603 149.784 108.134 150.509 107.505 151.128C106.875 151.747 106.139 152.211 105.297 152.52L104.609 151.496C105.142 151.304 105.627 151.048 106.065 150.728C106.513 150.397 106.897 150.029 107.217 149.624C107.537 149.208 107.782 148.76 107.953 148.28C108.134 147.8 108.225 147.304 108.225 146.792V146.072H105.025V145H112.689V146.072H109.537V146.776C109.537 147.235 109.622 147.693 109.793 148.152C109.963 148.6 110.198 149.021 110.497 149.416C110.806 149.8 111.174 150.147 111.601 150.456C112.027 150.755 112.502 150.995 113.025 151.176L112.369 152.2ZM116.785 157.864H107.201V153.432H108.529V156.792H116.785V157.864ZM130.767 152.664H129.455V150.008H126.655V148.952H129.455V147.032H126.655V145.96H129.455V143.848H130.767V152.664ZM126.671 151.656C126.234 151.731 125.802 151.795 125.375 151.848C124.959 151.891 124.517 151.923 124.047 151.944C123.578 151.965 123.061 151.981 122.495 151.992C121.941 152.003 121.306 152.008 120.591 152.008H119.567V147.752H124.431V145.768H119.519V144.696H125.711V148.76H120.847V150.936C121.509 150.936 122.101 150.931 122.623 150.92C123.146 150.909 123.626 150.893 124.063 150.872C124.511 150.84 124.933 150.803 125.327 150.76C125.722 150.717 126.127 150.664 126.543 150.6L126.671 151.656ZM130.767 153.432V158.2H129.455V154.504H121.167V153.432H130.767ZM145.102 158.216H143.79V143.832H145.102V158.216ZM137.534 144.936C138.067 144.936 138.558 145.053 139.006 145.288C139.454 145.523 139.838 145.859 140.158 146.296C140.478 146.733 140.729 147.261 140.91 147.88C141.091 148.488 141.182 149.176 141.182 149.944C141.182 150.712 141.091 151.405 140.91 152.024C140.729 152.632 140.478 153.155 140.158 153.592C139.838 154.029 139.454 154.365 139.006 154.6C138.558 154.835 138.067 154.952 137.534 154.952C137.001 154.952 136.51 154.835 136.062 154.6C135.614 154.365 135.23 154.029 134.91 153.592C134.59 153.155 134.339 152.632 134.158 152.024C133.977 151.405 133.886 150.712 133.886 149.944C133.886 149.176 133.977 148.488 134.158 147.88C134.339 147.261 134.59 146.733 134.91 146.296C135.23 145.859 135.614 145.523 136.062 145.288C136.51 145.053 137.001 144.936 137.534 144.936ZM137.534 146.12C137.182 146.12 136.857 146.211 136.558 146.392C136.27 146.573 136.019 146.829 135.806 147.16C135.593 147.491 135.427 147.896 135.31 148.376C135.193 148.845 135.134 149.368 135.134 149.944C135.134 150.531 135.193 151.059 135.31 151.528C135.427 151.997 135.593 152.403 135.806 152.744C136.019 153.075 136.27 153.331 136.558 153.512C136.857 153.693 137.182 153.784 137.534 153.784C137.886 153.784 138.206 153.693 138.494 153.512C138.782 153.331 139.033 153.075 139.246 152.744C139.459 152.403 139.625 151.997 139.742 151.528C139.859 151.059 139.918 150.531 139.918 149.944C139.918 149.368 139.859 148.845 139.742 148.376C139.625 147.896 139.459 147.491 139.246 147.16C139.033 146.829 138.782 146.573 138.494 146.392C138.206 146.211 137.886 146.12 137.534 146.12ZM158.983 146.216L153.687 157H152.071L156.855 147.416L157.399 146.52H151.271V145.272H158.983V146.216ZM162.29 144.264V152.904H162.322L166.05 148.312H167.666L164.754 151.8L168.05 157H166.466L163.922 152.808L162.29 154.712V157H160.85V144.264H162.29ZM169.822 145.272L171.054 151.656C171.172 152.296 171.284 152.931 171.39 153.56C171.508 154.179 171.625 154.808 171.742 155.448H171.806C171.945 154.808 172.084 154.179 172.222 153.56C172.361 152.931 172.505 152.296 172.654 151.656L174.27 145.272H175.614L177.262 151.656C177.412 152.296 177.55 152.931 177.678 153.56C177.817 154.179 177.956 154.808 178.094 155.448H178.174C178.398 154.168 178.622 152.904 178.846 151.656L180.078 145.272H181.502L179.07 157H177.294L175.518 149.928C175.412 149.448 175.31 148.995 175.214 148.568C175.129 148.141 175.038 147.704 174.942 147.256H174.878C174.782 147.704 174.681 148.141 174.574 148.568C174.478 148.995 174.382 149.448 174.286 149.928L172.542 157H170.782L168.286 145.272H169.822ZM197.463 158.216H196.151V143.832H197.463V158.216ZM189.895 144.936C190.429 144.936 190.919 145.053 191.367 145.288C191.815 145.523 192.199 145.859 192.519 146.296C192.839 146.733 193.09 147.261 193.271 147.88C193.453 148.488 193.543 149.176 193.543 149.944C193.543 150.712 193.453 151.405 193.271 152.024C193.09 152.632 192.839 153.155 192.519 153.592C192.199 154.029 191.815 154.365 191.367 154.6C190.919 154.835 190.429 154.952 189.895 154.952C189.362 154.952 188.871 154.835 188.423 154.6C187.975 154.365 187.591 154.029 187.271 153.592C186.951 153.155 186.701 152.632 186.519 152.024C186.338 151.405 186.247 150.712 186.247 149.944C186.247 149.176 186.338 148.488 186.519 147.88C186.701 147.261 186.951 146.733 187.271 146.296C187.591 145.859 187.975 145.523 188.423 145.288C188.871 145.053 189.362 144.936 189.895 144.936ZM189.895 146.12C189.543 146.12 189.218 146.211 188.919 146.392C188.631 146.573 188.381 146.829 188.167 147.16C187.954 147.491 187.789 147.896 187.671 148.376C187.554 148.845 187.495 149.368 187.495 149.944C187.495 150.531 187.554 151.059 187.671 151.528C187.789 151.997 187.954 152.403 188.167 152.744C188.381 153.075 188.631 153.331 188.919 153.512C189.218 153.693 189.543 153.784 189.895 153.784C190.247 153.784 190.567 153.693 190.855 153.512C191.143 153.331 191.394 153.075 191.607 152.744C191.821 152.403 191.986 151.997 192.103 151.528C192.221 151.059 192.279 150.531 192.279 149.944C192.279 149.368 192.221 148.845 192.103 148.376C191.986 147.896 191.821 147.491 191.607 147.16C191.394 146.829 191.143 146.573 190.855 146.392C190.567 146.211 190.247 146.12 189.895 146.12ZM213.382 148.632H211.254V152.536H209.942V143.848H211.254V147.544H213.382V148.632ZM207.718 151.608C206.939 151.32 206.251 150.893 205.654 150.328C205.067 149.763 204.614 149.112 204.294 148.376C203.995 149.219 203.537 149.955 202.918 150.584C202.31 151.213 201.585 151.688 200.742 152.008L200.054 150.968C200.598 150.776 201.089 150.515 201.526 150.184C201.963 149.843 202.337 149.459 202.646 149.032C202.966 148.595 203.206 148.125 203.366 147.624C203.537 147.112 203.622 146.584 203.622 146.04V144.568H204.934V146.152C204.934 146.632 205.019 147.101 205.19 147.56C205.361 148.019 205.595 148.445 205.894 148.84C206.203 149.224 206.571 149.571 206.998 149.88C207.425 150.179 207.894 150.413 208.406 150.584L207.718 151.608ZM206.694 152.936C207.419 152.936 208.07 152.995 208.646 153.112C209.233 153.229 209.729 153.4 210.134 153.624C210.55 153.848 210.865 154.125 211.078 154.456C211.302 154.776 211.414 155.144 211.414 155.56C211.414 155.976 211.302 156.349 211.078 156.68C210.865 157 210.55 157.267 210.134 157.48C209.729 157.704 209.233 157.875 208.646 157.992C208.07 158.109 207.419 158.168 206.694 158.168C205.958 158.168 205.297 158.109 204.71 157.992C204.134 157.875 203.638 157.704 203.222 157.48C202.817 157.267 202.502 157 202.278 156.68C202.065 156.349 201.958 155.976 201.958 155.56C201.958 155.144 202.065 154.776 202.278 154.456C202.502 154.125 202.817 153.848 203.222 153.624C203.638 153.4 204.134 153.229 204.71 153.112C205.297 152.995 205.958 152.936 206.694 152.936ZM206.694 157.144C207.761 157.144 208.593 157.011 209.19 156.744C209.798 156.467 210.102 156.072 210.102 155.56C210.102 155.048 209.798 154.653 209.19 154.376C208.593 154.099 207.761 153.96 206.694 153.96C205.627 153.96 204.79 154.099 204.182 154.376C203.574 154.653 203.27 155.048 203.27 155.56C203.27 156.072 203.574 156.467 204.182 156.744C204.79 157.011 205.627 157.144 206.694 157.144ZM226.261 158.216H224.949V143.832H226.261V158.216ZM218.693 144.936C219.226 144.936 219.717 145.053 220.165 145.288C220.613 145.523 220.997 145.859 221.317 146.296C221.637 146.733 221.887 147.261 222.069 147.88C222.25 148.488 222.341 149.176 222.341 149.944C222.341 150.712 222.25 151.405 222.069 152.024C221.887 152.632 221.637 153.155 221.317 153.592C220.997 154.029 220.613 154.365 220.165 154.6C219.717 154.835 219.226 154.952 218.693 154.952C218.159 154.952 217.669 154.835 217.221 154.6C216.773 154.365 216.389 154.029 216.069 153.592C215.749 153.155 215.498 152.632 215.317 152.024C215.135 151.405 215.045 150.712 215.045 149.944C215.045 149.176 215.135 148.488 215.317 147.88C215.498 147.261 215.749 146.733 216.069 146.296C216.389 145.859 216.773 145.523 217.221 145.288C217.669 145.053 218.159 144.936 218.693 144.936ZM218.693 146.12C218.341 146.12 218.015 146.211 217.717 146.392C217.429 146.573 217.178 146.829 216.965 147.16C216.751 147.491 216.586 147.896 216.469 148.376C216.351 148.845 216.293 149.368 216.293 149.944C216.293 150.531 216.351 151.059 216.469 151.528C216.586 151.997 216.751 152.403 216.965 152.744C217.178 153.075 217.429 153.331 217.717 153.512C218.015 153.693 218.341 153.784 218.693 153.784C219.045 153.784 219.365 153.693 219.653 153.512C219.941 153.331 220.191 153.075 220.405 152.744C220.618 152.403 220.783 151.997 220.901 151.528C221.018 151.059 221.077 150.531 221.077 149.944C221.077 149.368 221.018 148.845 220.901 148.376C220.783 147.896 220.618 147.491 220.405 147.16C220.191 146.829 219.941 146.573 219.653 146.392C219.365 146.211 219.045 146.12 218.693 146.12ZM229.572 151.784V145.096H236.116V146.36H239.412V143.848H240.74V154.312H239.412V150.504H236.116V151.784H229.572ZM230.868 146.136V150.744H234.836V146.136H230.868ZM236.116 149.432H239.412V147.432H236.116V149.432ZM241.076 157.864H231.508V153.384H232.82V156.792H241.076V157.864ZM246.62 146.648V145.592H250.188V143.848H251.5V145.592H255.084V146.648H246.62ZM259.836 149.672H257.708V154.6H256.396V143.848H257.708V148.568H259.836V149.672ZM254.284 150.104C254.284 150.509 254.199 150.877 254.028 151.208C253.868 151.539 253.634 151.821 253.324 152.056C253.026 152.28 252.663 152.456 252.236 152.584C251.82 152.712 251.356 152.776 250.844 152.776C250.332 152.776 249.868 152.712 249.452 152.584C249.036 152.456 248.674 152.28 248.364 152.056C248.066 151.821 247.831 151.539 247.66 151.208C247.5 150.877 247.42 150.509 247.42 150.104C247.42 149.699 247.5 149.336 247.66 149.016C247.831 148.685 248.066 148.408 248.364 148.184C248.674 147.949 249.036 147.768 249.452 147.64C249.868 147.512 250.332 147.448 250.844 147.448C251.356 147.448 251.82 147.512 252.236 147.64C252.663 147.768 253.026 147.949 253.324 148.184C253.634 148.408 253.868 148.685 254.028 149.016C254.199 149.336 254.284 149.699 254.284 150.104ZM248.668 150.104C248.668 150.616 248.86 151.021 249.244 151.32C249.639 151.608 250.172 151.752 250.844 151.752C251.495 151.752 252.023 151.608 252.428 151.32C252.834 151.021 253.036 150.616 253.036 150.104C253.036 149.592 252.834 149.192 252.428 148.904C252.023 148.616 251.495 148.472 250.844 148.472C250.172 148.472 249.639 148.616 249.244 148.904C248.86 149.192 248.668 149.592 248.668 150.104ZM258.348 156.792V157.864H248.78V153.752H250.092V156.792H258.348ZM271.467 143.848H272.795V154.36H271.467V148.872H268.587V147.8H271.467V143.848ZM268.779 152.2C267.979 151.912 267.28 151.485 266.683 150.92C266.086 150.344 265.632 149.688 265.323 148.952C265.014 149.784 264.544 150.509 263.915 151.128C263.286 151.747 262.55 152.211 261.707 152.52L261.019 151.496C261.552 151.304 262.038 151.048 262.475 150.728C262.923 150.397 263.307 150.029 263.627 149.624C263.947 149.208 264.192 148.76 264.363 148.28C264.544 147.8 264.635 147.304 264.635 146.792V146.072H261.435V145H269.099V146.072H265.947V146.776C265.947 147.235 266.032 147.693 266.203 148.152C266.374 148.6 266.608 149.021 266.907 149.416C267.216 149.8 267.584 150.147 268.011 150.456C268.438 150.755 268.912 150.995 269.435 151.176L268.779 152.2ZM273.195 157.864H263.611V153.432H264.939V156.792H273.195V157.864ZM56.56 170.792V166.056H57.856V167.416H64.832V166.056H66.128V170.792H56.56ZM57.856 168.408V169.784H64.832V168.408H57.856ZM61.984 174.424H66.16V177.624H57.728V179.016H66.592V180.024H56.448V176.664H64.864V175.416H56.4V174.424H60.672V173.016H54.832V171.96H67.824V173.016H61.984V174.424ZM81.0228 173.544H79.7108V165.848H81.0228V173.544ZM73.3108 166.52C73.8548 166.52 74.3561 166.6 74.8148 166.76C75.2734 166.92 75.6681 167.144 75.9988 167.432C76.3401 167.72 76.6014 168.067 76.7828 168.472C76.9748 168.877 77.0708 169.325 77.0708 169.816C77.0708 170.307 76.9748 170.76 76.7828 171.176C76.6014 171.581 76.3401 171.928 75.9988 172.216C75.6681 172.504 75.2734 172.728 74.8148 172.888C74.3561 173.048 73.8548 173.128 73.3108 173.128C72.7668 173.128 72.2654 173.048 71.8068 172.888C71.3588 172.728 70.9694 172.504 70.6388 172.216C70.3081 171.928 70.0468 171.581 69.8548 171.176C69.6734 170.76 69.5828 170.307 69.5828 169.816C69.5828 169.325 69.6734 168.877 69.8548 168.472C70.0468 168.067 70.3081 167.72 70.6388 167.432C70.9694 167.144 71.3588 166.92 71.8068 166.76C72.2654 166.6 72.7668 166.52 73.3108 166.52ZM73.3108 167.608C72.9588 167.608 72.6281 167.661 72.3188 167.768C72.0201 167.875 71.7641 168.029 71.5508 168.232C71.3374 168.424 71.1668 168.659 71.0388 168.936C70.9214 169.203 70.8628 169.496 70.8628 169.816C70.8628 170.147 70.9214 170.451 71.0388 170.728C71.1668 170.995 71.3374 171.229 71.5508 171.432C71.7641 171.624 72.0201 171.773 72.3188 171.88C72.6281 171.987 72.9588 172.04 73.3108 172.04C74.0468 172.04 74.6441 171.837 75.1028 171.432C75.5614 171.027 75.7908 170.488 75.7908 169.816C75.7908 169.496 75.7268 169.203 75.5988 168.936C75.4814 168.659 75.3108 168.424 75.0868 168.232C74.8734 168.029 74.6121 167.875 74.3028 167.768C74.0041 167.661 73.6734 167.608 73.3108 167.608ZM73.0708 176.008H79.7268V174.248H81.0228V179.992H71.7748V174.248H73.0708V176.008ZM79.7268 178.936V177.032H73.0708V178.936H79.7268ZM96.6695 172.936H83.6295V171.88H93.2775C93.4802 170.984 93.5975 170.2 93.6295 169.528C93.6722 168.845 93.6935 168.221 93.6935 167.656H85.2935V166.6H94.9895V167.656C94.9895 168.221 94.9735 168.84 94.9415 169.512C94.9095 170.184 94.7975 170.973 94.6055 171.88H96.6695V172.936ZM95.0375 174.888V179.992H85.2455V174.888H95.0375ZM93.7415 178.936V175.944H86.5255V178.936H93.7415ZM109.788 180.216H108.476V165.832H109.788V180.216ZM102.22 166.936C102.754 166.936 103.244 167.053 103.692 167.288C104.14 167.523 104.524 167.859 104.844 168.296C105.164 168.733 105.415 169.261 105.596 169.88C105.778 170.488 105.868 171.176 105.868 171.944C105.868 172.712 105.778 173.405 105.596 174.024C105.415 174.632 105.164 175.155 104.844 175.592C104.524 176.029 104.14 176.365 103.692 176.6C103.244 176.835 102.754 176.952 102.22 176.952C101.687 176.952 101.196 176.835 100.748 176.6C100.3 176.365 99.9163 176.029 99.5963 175.592C99.2763 175.155 99.0256 174.632 98.8443 174.024C98.6629 173.405 98.5723 172.712 98.5723 171.944C98.5723 171.176 98.6629 170.488 98.8443 169.88C99.0256 169.261 99.2763 168.733 99.5963 168.296C99.9163 167.859 100.3 167.523 100.748 167.288C101.196 167.053 101.687 166.936 102.22 166.936ZM102.22 168.12C101.868 168.12 101.543 168.211 101.244 168.392C100.956 168.573 100.706 168.829 100.492 169.16C100.279 169.491 100.114 169.896 99.9963 170.376C99.8789 170.845 99.8203 171.368 99.8203 171.944C99.8203 172.531 99.8789 173.059 99.9963 173.528C100.114 173.997 100.279 174.403 100.492 174.744C100.706 175.075 100.956 175.331 101.244 175.512C101.543 175.693 101.868 175.784 102.22 175.784C102.572 175.784 102.892 175.693 103.18 175.512C103.468 175.331 103.719 175.075 103.932 174.744C104.146 174.403 104.311 173.997 104.428 173.528C104.546 173.059 104.604 172.531 104.604 171.944C104.604 171.368 104.546 170.845 104.428 170.376C104.311 169.896 104.146 169.491 103.932 169.16C103.719 168.829 103.468 168.573 103.18 168.392C102.892 168.211 102.572 168.12 102.22 168.12ZM128.965 170.008H126.837V173.256H125.525V165.848H126.837V168.92H128.965V170.008ZM116.293 172.696V166.424H117.589V168.488H121.653V166.424H122.933V172.696H116.293ZM117.589 169.496V171.64H121.653V169.496H117.589ZM127.365 178.984V180.024H117.765V176.44H125.541V174.968H117.717V173.928H126.837V177.416H119.045V178.984H127.365ZM137.876 174.232V166.12H139.124V169.688H140.948V165.848H142.212V174.696H140.948V170.76H139.124V174.232H137.876ZM136.58 173.576C135.908 173.299 135.332 172.92 134.852 172.44C134.372 171.949 134.004 171.4 133.748 170.792C133.492 171.464 133.113 172.088 132.612 172.664C132.121 173.229 131.524 173.667 130.82 173.976L130.116 172.952C130.585 172.749 131.001 172.488 131.364 172.168C131.737 171.848 132.052 171.496 132.308 171.112C132.564 170.717 132.761 170.312 132.9 169.896C133.039 169.469 133.108 169.059 133.108 168.664V166.728H134.372V168.664C134.372 169.059 134.436 169.453 134.564 169.848C134.703 170.232 134.895 170.6 135.14 170.952C135.385 171.293 135.689 171.608 136.052 171.896C136.415 172.173 136.825 172.397 137.284 172.568L136.58 173.576ZM137.476 175.016C138.212 175.016 138.873 175.075 139.46 175.192C140.057 175.309 140.564 175.48 140.98 175.704C141.396 175.917 141.716 176.184 141.94 176.504C142.164 176.824 142.276 177.187 142.276 177.592C142.276 177.997 142.164 178.36 141.94 178.68C141.716 179 141.396 179.267 140.98 179.48C140.564 179.704 140.057 179.875 139.46 179.992C138.873 180.109 138.212 180.168 137.476 180.168C136.74 180.168 136.073 180.109 135.476 179.992C134.889 179.875 134.388 179.704 133.972 179.48C133.567 179.267 133.252 179 133.028 178.68C132.804 178.36 132.692 177.997 132.692 177.592C132.692 177.187 132.804 176.824 133.028 176.504C133.252 176.184 133.567 175.917 133.972 175.704C134.388 175.48 134.889 175.309 135.476 175.192C136.073 175.075 136.74 175.016 137.476 175.016ZM137.476 179.16C138.575 179.16 139.433 179.027 140.052 178.76C140.671 178.493 140.98 178.104 140.98 177.592C140.98 177.08 140.671 176.696 140.052 176.44C139.433 176.173 138.575 176.04 137.476 176.04C136.377 176.04 135.519 176.173 134.9 176.44C134.292 176.696 133.988 177.08 133.988 177.592C133.988 178.104 134.292 178.493 134.9 178.76C135.519 179.027 136.377 179.16 137.476 179.16ZM155.555 172.84V180.184H154.243V165.848H155.555V171.736H157.907V172.84H155.555ZM152.883 168.136V169.192H144.419V168.136H148.035V166.008H149.347V168.136H152.883ZM148.707 170.376C149.219 170.376 149.688 170.461 150.115 170.632C150.541 170.792 150.909 171.021 151.219 171.32C151.539 171.608 151.784 171.955 151.955 172.36C152.125 172.765 152.211 173.208 152.211 173.688C152.211 174.179 152.125 174.627 151.955 175.032C151.784 175.437 151.539 175.784 151.219 176.072C150.909 176.36 150.541 176.584 150.115 176.744C149.688 176.904 149.219 176.984 148.707 176.984C148.205 176.984 147.741 176.904 147.315 176.744C146.888 176.584 146.52 176.36 146.211 176.072C145.901 175.784 145.661 175.437 145.491 175.032C145.32 174.627 145.235 174.179 145.235 173.688C145.235 173.208 145.32 172.765 145.491 172.36C145.661 171.955 145.901 171.608 146.211 171.32C146.52 171.021 146.888 170.792 147.315 170.632C147.741 170.461 148.205 170.376 148.707 170.376ZM148.707 175.896C149.037 175.896 149.341 175.843 149.619 175.736C149.896 175.619 150.131 175.464 150.323 175.272C150.525 175.08 150.68 174.851 150.787 174.584C150.904 174.307 150.963 174.008 150.963 173.688C150.963 173.368 150.904 173.075 150.787 172.808C150.68 172.531 150.525 172.296 150.323 172.104C150.131 171.901 149.896 171.747 149.619 171.64C149.341 171.523 149.037 171.464 148.707 171.464C148.387 171.464 148.088 171.523 147.811 171.64C147.533 171.747 147.293 171.901 147.091 172.104C146.899 172.296 146.744 172.531 146.627 172.808C146.52 173.075 146.467 173.368 146.467 173.688C146.467 174.008 146.52 174.307 146.627 174.584C146.744 174.851 146.899 175.08 147.091 175.272C147.293 175.464 147.533 175.619 147.811 175.736C148.088 175.843 148.387 175.896 148.707 175.896ZM170.641 180.184H169.329V165.848H170.641V180.184ZM164.017 170.216C164.017 170.824 164.119 171.427 164.321 172.024C164.524 172.621 164.796 173.181 165.137 173.704C165.489 174.216 165.9 174.675 166.369 175.08C166.839 175.485 167.335 175.8 167.857 176.024L167.121 177.08C166.705 176.888 166.305 176.643 165.921 176.344C165.548 176.045 165.196 175.709 164.865 175.336C164.545 174.963 164.257 174.552 164.001 174.104C163.745 173.656 163.532 173.187 163.361 172.696C163.201 173.219 162.993 173.72 162.737 174.2C162.481 174.68 162.193 175.128 161.873 175.544C161.553 175.96 161.207 176.328 160.833 176.648C160.46 176.968 160.071 177.229 159.665 177.432L158.897 176.376C159.409 176.131 159.895 175.789 160.353 175.352C160.823 174.904 161.228 174.408 161.569 173.864C161.921 173.309 162.199 172.717 162.401 172.088C162.604 171.459 162.705 170.835 162.705 170.216V168.392H159.377V167.304H167.393V168.392H164.017V170.216ZM189.818 170.136H187.69V172.984H186.378V165.832H187.69V169.048H189.818V170.136ZM184.234 169.96C184.234 170.451 184.138 170.899 183.946 171.304C183.765 171.709 183.509 172.061 183.178 172.36C182.858 172.648 182.469 172.872 182.01 173.032C181.562 173.192 181.072 173.272 180.538 173.272C180.005 173.272 179.509 173.192 179.05 173.032C178.602 172.872 178.213 172.648 177.882 172.36C177.552 172.061 177.29 171.709 177.098 171.304C176.917 170.899 176.826 170.451 176.826 169.96C176.826 169.469 176.917 169.021 177.098 168.616C177.29 168.211 177.552 167.864 177.882 167.576C178.213 167.277 178.602 167.048 179.05 166.888C179.509 166.728 180.005 166.648 180.538 166.648C181.072 166.648 181.562 166.728 182.01 166.888C182.469 167.048 182.858 167.277 183.178 167.576C183.509 167.864 183.765 168.211 183.946 168.616C184.138 169.021 184.234 169.469 184.234 169.96ZM178.106 169.96C178.106 170.291 178.165 170.595 178.282 170.872C178.41 171.139 178.581 171.373 178.794 171.576C179.018 171.768 179.274 171.923 179.562 172.04C179.861 172.147 180.186 172.2 180.538 172.2C180.88 172.2 181.194 172.147 181.482 172.04C181.781 171.923 182.037 171.768 182.25 171.576C182.474 171.373 182.645 171.139 182.762 170.872C182.89 170.595 182.954 170.291 182.954 169.96C182.954 169.629 182.89 169.331 182.762 169.064C182.645 168.787 182.474 168.552 182.25 168.36C182.037 168.157 181.781 168.003 181.482 167.896C181.194 167.779 180.88 167.72 180.538 167.72C180.186 167.72 179.861 167.779 179.562 167.896C179.274 168.003 179.018 168.157 178.794 168.36C178.581 168.552 178.41 168.787 178.282 169.064C178.165 169.331 178.106 169.629 178.106 169.96ZM189.114 174.632V175.608H181.898V174.632H184.874V173.336H186.154V174.632H189.114ZM179.338 178.728C179.754 178.707 180.208 178.664 180.698 178.6C181.2 178.525 181.706 178.408 182.218 178.248L182.426 179.288C181.744 179.512 181.082 179.656 180.442 179.72C179.802 179.784 179.237 179.816 178.746 179.816H178.058V174.536H179.338V178.728ZM185.514 176.12C185.898 176.12 186.25 176.168 186.57 176.264C186.901 176.36 187.184 176.499 187.418 176.68C187.653 176.851 187.834 177.059 187.962 177.304C188.101 177.549 188.17 177.827 188.17 178.136C188.17 178.776 187.92 179.272 187.418 179.624C186.928 179.987 186.293 180.168 185.514 180.168C184.736 180.168 184.096 179.987 183.594 179.624C183.104 179.272 182.858 178.776 182.858 178.136C182.858 177.827 182.922 177.549 183.05 177.304C183.189 177.059 183.376 176.851 183.61 176.68C183.845 176.499 184.122 176.36 184.442 176.264C184.773 176.168 185.13 176.12 185.514 176.12ZM185.514 179.24C185.962 179.24 186.32 179.139 186.586 178.936C186.864 178.733 187.002 178.467 187.002 178.136C187.002 177.805 186.864 177.544 186.586 177.352C186.32 177.149 185.962 177.048 185.514 177.048C185.066 177.048 184.704 177.149 184.426 177.352C184.16 177.544 184.026 177.805 184.026 178.136C184.026 178.467 184.16 178.733 184.426 178.936C184.704 179.139 185.066 179.24 185.514 179.24ZM202.713 171.368C202.158 171.283 201.614 171.149 201.081 170.968C200.548 170.787 200.046 170.568 199.577 170.312C199.118 170.045 198.702 169.741 198.329 169.4C197.966 169.059 197.673 168.691 197.449 168.296C197.225 168.691 196.926 169.059 196.553 169.4C196.19 169.741 195.774 170.045 195.305 170.312C194.846 170.568 194.35 170.787 193.817 170.968C193.284 171.149 192.734 171.283 192.169 171.368L191.689 170.312C192.329 170.237 192.953 170.088 193.561 169.864C194.18 169.64 194.724 169.368 195.193 169.048C195.673 168.717 196.057 168.349 196.345 167.944C196.633 167.528 196.777 167.091 196.777 166.632V165.992H198.121V166.632C198.121 167.069 198.265 167.496 198.553 167.912C198.841 168.317 199.22 168.685 199.689 169.016C200.169 169.347 200.713 169.629 201.321 169.864C201.929 170.088 202.553 170.237 203.193 170.312L202.713 171.368ZM203.929 173.432H190.937V172.376H203.929V173.432ZM202.233 174.424V179.992H192.585V174.424H193.881V176.104H200.937V174.424H202.233ZM193.881 177.112V178.936H200.937V177.112H193.881ZM217.112 180.168H215.8V165.832H217.112V180.168ZM207.56 175.352C208.658 175.352 209.762 175.304 210.872 175.208C211.981 175.101 213.133 174.925 214.328 174.68L214.472 175.8C213.213 176.056 212.013 176.232 210.872 176.328C209.73 176.424 208.584 176.472 207.432 176.472H206.248V167.224H207.56V175.352ZM230.79 172.584V180.216H229.478V165.832H230.79V171.496H233.158V172.584H230.79ZM221.67 175.512C222.31 175.512 222.908 175.507 223.462 175.496C224.028 175.475 224.566 175.448 225.078 175.416C225.601 175.384 226.113 175.336 226.614 175.272C227.116 175.208 227.622 175.128 228.134 175.032L228.278 176.12C227.734 176.227 227.201 176.317 226.678 176.392C226.156 176.456 225.622 176.509 225.078 176.552C224.534 176.584 223.969 176.605 223.382 176.616C222.796 176.627 222.166 176.632 221.494 176.632H220.358V167.208H227.03V168.296H221.67V175.512ZM235.429 177.72V179.224H233.973V177.72H235.429Z" fill="#222222"/>
<circle cx="16" cy="16" r="16" fill="#5221CB"/>
<path d="M20.9152 11.3926H13.2773V9.33313H25.032L23.5581 11.3926H20.9173H20.9152Z" fill="white"/>
<path d="M23.5573 13.6021H21.3906V21.3327H23.5573V13.6021Z" fill="#FFC043"/>
<path d="M13.2773 9.33313C9.99538 9.33313 7.33398 11.9945 7.33398 15.2764V21.3331H9.50062V15.2764C9.50062 13.1902 11.1911 11.4998 13.2773 11.4998C15.3635 11.4998 17.054 13.1902 17.054 15.2764V21.3331H19.2206V15.2764C19.2206 11.9945 16.5592 9.33313 13.2773 9.33313Z" fill="white"/>
</svg>
