<svg xmlns="http://www.w3.org/2000/svg" width="56" height="57" viewBox="0 0 56 57" fill="none">
  <g clip-path="url(#clip0_113_10127)">
    <path d="M32.6315 11.9717H10.3291V16.197H32.6315V11.9717Z" fill="#5221CB"/>
    <path d="M32.6315 22.5352H10.3291V26.7605H32.6315V22.5352Z" fill="#757575"/>
    <path d="M23.7036 33.0986H10.3291V37.324H23.7036V33.0986Z" fill="#757575"/>
    <path d="M56 54.0141L50.3059 48.2535C51.7834 46.162 52.6616 43.6127 52.6616 40.8521C52.6616 34.838 48.5148 29.7887 42.967 28.4437V0H0V51.8732H33.6488C35.5236 52.9859 37.6911 53.6268 40.0189 53.6268C42.751 53.6268 45.2739 52.7394 47.3439 51.2465L53.038 57.007L55.993 54.0211L56 54.0141ZM4.1817 4.22535H38.7783V28.1408C32.3873 28.7676 27.3693 34.2324 27.3693 40.8521C27.3693 43.3521 28.0941 45.6761 29.3207 47.6479H4.1817V4.22535ZM31.551 40.8521C31.551 36.1408 35.3493 32.3028 40.0119 32.3028C44.6745 32.3028 48.4729 36.1408 48.4729 40.8521C48.4729 45.5634 44.6745 49.4014 40.0119 49.4014C35.3493 49.4014 31.551 45.5634 31.551 40.8521Z" fill="#757575"/>
  </g>
  <defs>
    <clipPath id="clip0_113_10127">
      <rect width="56" height="57" fill="white"/>
    </clipPath>
  </defs>
</svg>