<svg xmlns="http://www.w3.org/2000/svg" width="56" height="51" viewBox="0 0 56 51" fill="none">
  <g clip-path="url(#clip0_113_10109)">
    <path d="M43.8792 29.1067C43.8792 20.2955 36.7545 13.125 27.9996 13.125C19.2448 13.125 12.1201 20.2955 12.1201 29.1067V40.4777H8.44531V51.0073H47.554V40.4777H43.8792V29.1067ZM16.3359 29.1067C16.3359 22.6362 21.5705 17.3679 27.9996 17.3679C34.4287 17.3679 39.6634 22.6362 39.6634 29.1067V40.4777H16.3359V29.1067ZM43.3382 46.7573H12.6611V44.7136H43.3382V46.7573Z" fill="#757575"/>
    <path d="M10.0898 26.0586H0V30.3015H10.0898V26.0586Z" fill="#757575"/>
    <path d="M56 26.0586H45.9102V30.3015H56V26.0586Z" fill="#757575"/>
    <path d="M30.1084 0H25.8926V10.1547H30.1084V0Z" fill="#757575"/>
    <path d="M9.69099 6.75468L6.70996 9.75488L13.8446 16.9354L16.8256 13.9352L9.69099 6.75468Z" fill="#757575"/>
    <path d="M46.3055 6.74823L39.1709 13.9287L42.1519 16.9289L49.2865 9.74843L46.3055 6.74823Z" fill="#757575"/>
    <path d="M18.7324 29.1067V31.2281H22.9482V29.1067C22.9482 26.2993 25.2177 24.0222 28.0002 24.0222H30.1081V19.7793H28.0002C22.892 19.7793 18.7324 23.9657 18.7324 29.1067Z" fill="#5221CB"/>
  </g>
  <defs>
    <clipPath id="clip0_113_10109">
      <rect width="56" height="51" fill="white"/>
    </clipPath>
  </defs>
</svg>