<svg width="60" height="69" viewBox="0 0 60 69" fill="none" xmlns="http://www.w3.org/2000/svg">
<g id="Group 9051">
<path id="Vector" d="M39.4553 4.59295H35.7858C35.1701 1.96031 32.821 0 30.0021 0C27.1831 0 24.834 1.96031 24.2183 4.59295H20.5488V15.3989H39.4553V4.59295Z" fill="#383B48"/>
<path id="Vector_2" d="M56.7436 6.74023H43.6371V13.253H53.4872V62.3741H6.51276V13.253H16.3629V6.74023H3.25638C1.45808 6.74023 0 8.19831 0 9.99661V65.6305C0 67.4288 1.45808 68.8869 3.25638 68.8869H56.7436C58.5419 68.8869 60 67.4288 60 65.6305V9.99661C60 8.19831 58.5419 6.74023 56.7436 6.74023Z" fill="#383B48"/>
<path id="Vector_3" d="M15.0107 26.0678C15.0107 27.3396 16.0395 28.3602 17.3032 28.3602H42.69C43.9617 28.3602 44.9824 27.3315 44.9824 26.0678C44.9824 24.8041 43.9536 23.7754 42.69 23.7754H17.3032C16.0314 23.7754 15.0107 24.8041 15.0107 26.0678Z" fill="#5221CB"/>
<path id="Vector_4" d="M42.6981 35.6582H17.3032C16.0371 35.6582 15.0107 36.6846 15.0107 37.9506V37.9587C15.0107 39.2248 16.0371 40.2512 17.3032 40.2512H42.6981C43.9641 40.2512 44.9905 39.2248 44.9905 37.9587V37.9506C44.9905 36.6846 43.9641 35.6582 42.6981 35.6582Z" fill="#5221CB"/>
<path id="Vector_5" d="M42.6968 47.541H17.31C16.0382 47.541 15.0176 48.5698 15.0176 49.8334C15.0176 51.0971 16.0463 52.1259 17.31 52.1259H42.6968C43.9686 52.1259 44.9892 51.0971 44.9892 49.8334C44.9892 48.5698 43.9605 47.541 42.6968 47.541Z" fill="#5221CB"/>
</g>
</svg>
