<svg width="60" height="64" viewBox="0 0 60 64" fill="none" xmlns="http://www.w3.org/2000/svg">
<g id="Group 13407">
<g id="Group 13406">
<g id="Group 9048">
<path id="Vector" d="M51.2995 5.99007C50.2876 5.99007 49.4654 6.81223 49.4654 7.82413C49.4654 8.83602 50.2876 9.65819 51.2995 9.65819C54.0732 9.65819 56.3319 11.9169 56.3319 14.6906V35.4977C56.3319 39.8253 51.959 40.4487 51.2182 40.53H46.484C46.3756 40.53 46.2672 40.5391 46.1587 40.5571V1.83406C46.1587 0.822164 45.3366 0 44.3247 0H8.37526C7.36337 0 6.5412 0.822164 6.5412 1.83406V47.9295C2.81887 48.6342 0 51.9048 0 55.8349V63.2435H52.6999V55.8349C52.6999 51.9048 49.8811 48.6342 46.1587 47.9295V44.162C46.2672 44.1801 46.3756 44.1981 46.484 44.1981H51.2995C51.3447 44.1981 51.3899 44.1981 51.4441 44.1981C54.3984 43.9723 60 41.8581 60 35.5067V14.6996C60 9.90211 56.097 6.00813 51.3085 6.00813L51.2995 5.99007ZM13.9316 7.65246H38.7683V27.5H13.9316V7.65246ZM42.4906 47.7759H10.2003V38.6598H42.4906V47.7759Z" fill="#383B48"/>
</g>
<g id="Group 13405">
<g id="Group 13404">
<path id="Vector_2" d="M26.3914 26C26.2973 26 26.2031 25.9877 26.1113 25.9631C25.6428 25.8353 25.3168 25.4002 25.3168 24.9061V20.1124H23.0758C22.6895 20.1124 22.3345 19.9035 22.1437 19.5618C21.9505 19.2225 21.9529 18.8022 22.1461 18.4654L26.6788 10.5448C26.9227 10.1171 27.4178 9.90814 27.8887 10.0384C28.3572 10.1663 28.6832 10.6014 28.6832 11.0955V15.8891H30.9242C31.3105 15.8891 31.6655 16.0981 31.8563 16.4398C32.0495 16.779 32.0471 17.1994 31.8539 17.5362L27.3212 25.4567C27.1256 25.8009 26.7682 26 26.3914 26ZM24.9474 17.9197H26.3914C26.9855 17.9197 27.4685 18.4113 27.4685 19.016V20.8475L29.0526 18.0794H27.6085C27.0145 18.0794 26.5315 17.5878 26.5315 16.983V15.1516L24.9474 17.9197Z" fill="#5221CB"/>
<path id="Vector 612" d="M24 18.5L26.5 13.5L28 16.5L31 17.5L27.5 23L26.5 19L24 18.5Z" fill="#5221CB"/>
</g>
</g>
</g>
</g>
</svg>
